v -0.72576597926945219 0.074900774425513447 0.050641676740099548
v -0.72601288009534581 0.07489687153230476 0.050784618106138331
v 0.3305043903816709 0.79414352546603295 0.45729833858535168
v 0.13755092886902945 0.95035623736217556 0.44041809973052942
v -0.64918689565063514 1.4470988076688462 -0.21081676950244777
v -0.18833062379487708 0.6794391495981571 0.55746238313857788
v -0.39143235717769664 0.3075337028478507 -0.039169839649935541
v -0.44683728845693116 0.43560311224162362 -0.10236379830177862
v 0.056230715679155857 0.85416197512067982 -0.14046770738480394
v 0.20915481533035063 0.10750104618259748 0.52306513672739663
v -0.79661906602294696 1.2435415733681976 0.51106056219464824
v 0.10216072951416037 1.00114337912802 0.010230233180057136
v -0.26360038002770447 0.84905111007607081 -0.10288817081198513
v 0.16746582270340082 0.20267336128385186 -0.21670784278333002
v -0.75820411181680925 1.2720900548770016 0.021191539280753603
v -0.29610456597030338 0.61743743599017331 -0.24975422731200203
v -0.77436558202296113 0.44406629696581712 0.033523117255796334
v -0.51102359083670057 0.84352289966521987 -0.1028619058809109
v 0.11432696992474504 0.44006796801300474 0.66346473460412303
v -0.69983775249658609 1.1758487219823026 0.59192613534051741
v -0.87285021911826399 0.81594302892848802 0.29876390517421086
v -0.56513645974102578 0.59002184178188022 0.5610585561321022
v -0.34297489004730214 1.0084345678903226 0.28009664669377149
v -0.42028718958688477 0.77727581301756321 0.52683978158026679
v -0.8292068844155952 1.1818895450961209 0.1234697763382037
v -0.51406609421012928 1.1226182731751584 0.40294686280533759
v -0.82079732365615055 0.43046652687667597 0.26745227854545639
v 0.23045890606642316 0.97393091402187226 0.35261531089644071
v 0.19533245506966726 0.24507495960117545 0.57687251154114749
v -0.34020457434221107 0.82515407235497473 0.47674947339792478
v 0.22990751400573126 0.31735569496004618 0.57288267527839032
v -0.058650849602488377 0.32784683355339833 -0.30317781867053423
v -0.68406735303963395 0.3500250020554978 0.06321902007601965
v -0.2602591441039846 0.77426374045115687 -0.16308076279985573
v -0.73608388365107813 1.327531964384375 -0.23682982697147306
v -0.45996089657361366 0.077790127521198113 -0.19763100208589648
v -0.71928892352867879 0.096735052648734554 0.065135419230598998
v -0.13257428530810958 0.098474705113311162 -0.20947531157500521
v -0.54405109814576047 0.032015167796753001 0.32610618109960249
v -0.58822526654037199 1.319687954233951 0.33133725848106721
v -0.70529948869606718 0.68765862559183177 0.54099846452831268
v 0.31197436896340663 0.91130404835083978 0.03152128353245829
v 0.53492749137850581 0.29842790292466109 0.0042196082384735644
v -0.0975808569205045 0.92031754451987302 0.46930678095669498
v 0.16276494901949001 1.0259938476713926 0.095013365792241664
v 0.49391513655227065 0.16171236911167508 0.0029485952563836093
v -0.39330184281181879 0.4422690964807231 -0.097129863039646713
v -0.64966737995909707 0.38498914591723887 0.0058264570166068012
v -0.081638164317621387 1.4971173438974639 -0.20705955798603115
v -0.26001618074984045 0.080422325981132983 -0.1155533715511068
v -0.24462596550474347 0.68915796125704265 -0.17991929113138524
v -0.89000774248815107 1.2884158316328036 0.27516883377296575
v -0.76792306717985315 1.2513424233931632 0.0024326482446194874
v -0.71699989542210907 0.057873189252234412 0.21753078358205521
v -0.53707565063516216 0.96942276987661891 0.51271238532779295
v -0.66344982826686361 1.2959955881979723 -0.32070771214995658
v 0.5200679489529465 0.12169125235192284 0.07462847038998402
v 0.43619595379899684 0.76565761157214984 0.34018750503368195
v -0.93770268293069348 1.0640590388183055 0.33754561773868946
v -0.70828406869700344 1.433825304678509 -0.4199224523305084
v -0.65555376487690342 1.5866236612628868 -0.52560415061724797
v -0.30687872713373121 0.030319352397370943 0.24139519807201498
v 0.2115746862488169 0.95825527062622451 0.0042690462169216832
v 0.19843955927974941 0.91451283391992655 0.44049036681304377
v 0.083238743492029921 0.82145853217441323 0.51793603061648807
v -0.64087888551150984 0.3811774801010947 0.44637476324923836
v -0.66579717651720327 0.042512081069467293 0.37834239379026047
v -0.56122154800961943 0.3698340634533967 -0.0095155107700698634
v -0.18652918851236525 0.1541080479749232 0.6200942411501692
v -0.72657877232547441 1.1787340879722228 0.025639896316236675
v -0.47691207336802455 1.1882708779033808 0.1311940314191381
v -0.51249494954592567 0.92658919963164255 -0.056413883043822943
v -0.14865693641466879 0.53017322544236856 0.68823675586719968
v -0.87176123000051609 0.64273372436674658 0.057494918060937664
v -0.63303841015094964 1.2324624717963812 -0.073404206633919986
v -0.90891792691706597 0.9031574107366549 0.40407020285767198
v -0.87922544263579283 0.52139484014855864 0.28385359380828679
v 0.45560054138298184 0.60920050307073215 -0.034860729315320346
v -0.52370443011433931 0.23668910763876741 0.38741525347234584
v 0.28365977736727976 0.061881673279026321 0.37295149482345974
v -0.48192351980646564 0.46688580212220454 0.54665330688510083
v -0.89109775825096238 1.1831629777221464 0.44377646370446788
v -0.12873913788690222 0.36365855972425531 0.64535025994605411
v 0.337681126334059 0.24564969314207338 -0.094280437319741076
v 0.24708521041463066 0.50987026193224749 0.60518681715563483
v 0.14696250336429748 0.67754625753233477 0.58599087310104725
v -0.033077615955760684 0.24845265875284941 0.63343063394135357
v -0.3218130962181342 0.58044010235102439 0.53260309307390497
v -0.19925446556809456 0.030854577235475668 0.55095313670407331
v 0.29643105325862978 0.84793412142822044 -0.048498206394550818
v -0.44306038483712679 1.4407967652330145 0.12228745464382111
v 0.32329015145393947 0.53221087807264345 -0.1555037496252121
v 0.34573979068729932 0.75474152802079231 -0.085928965908162347
v -0.71027979519282314 0.042122418916403316 0.033165882503447923
v -0.63318951715222516 1.3009090210271326 0.029903940093915362
v -0.7969645884848674 0.6833212814956483 -0.026358092104900897
v -0.5588834538571128 0.2464327971970601 0.026119009199984059
v -0.6427771975499047 0.12719750751331366 0.36672855356373435
v 0.20103089890622447 0.035004229790668098 0.0070807049389781948
v -0.44508971802072028 0.92649477099212585 -0.065291811704440289
v -0.6264642152030051 0.060862913824420287 -0.018831157327753135
v -0.20160684468694789 0.42926047057910793 0.61241438940626269
v 0.62018862956817056 0.3600233369178179 0.077230378604737512
v -0.12943429947212173 0.64747398951154278 -0.30333419004171508
v -0.43840069321269937 0.03467224740521499 0.048009833932804398
v -0.6770500017490737 0.8306151696991273 0.49818564264367926
v -0.38012038314675967 0.26762728534383468 0.50266082696152736
v 0.14153420227697025 0.64720222217865331 -0.23319204191064546
v -0.17005081623331811 1.5594225753506927 -0.072998108144390228
v -0.12322045095808955 1.6210864925764341 -0.18252281903066098
v 0.076068168424375207 0.068718692765346132 -0.061425387272355955
v -0.6387207047054404 0.54647617584240438 -0.10863439667422105
v 0.24547071019051506 0.039724286140098639 0.21904016775737506
v -0.27223838103378739 0.052911703246226821 0.63937622078408918
v 0.31290286393651212 0.39072472784892676 0.51287392066038806
v -0.54074264085618173 0.72154826797406502 -0.14257456455933262
v -0.72169680880056775 1.3209806469929632 0.14124983808618041
v 0.21877559260846355 0.15563276641774484 -0.15992830276380543
v -0.89271805482248812 0.70667807495663959 0.13757486632034363
v 0.06759376604506305 0.30709781594717833 -0.25722630583286848
v -0.33868555330813321 0.64517001255160566 0.55431883545141114
v 0.65245082148823441 0.37425896412003512 0.17716056428313162
v 0.39999089156642681 0.65552642282040141 -0.06409727247303941
v -0.35554855332699892 0.47160820869155223 0.52838633612648978
v -0.48693290550144985 0.037394755671045443 0.41059595753317163
v 0.14955276354945712 0.23002947353678077 0.61351839660951191
v 0.28109489453722963 0.97213803547399158 0.29949165641727482
v 0.31166270286058617 0.24692678838140697 0.49845791896703595
v -0.33627738712498717 0.38644347604335028 -0.12874934437389393
v 0.39045050442182749 0.45320896523025789 -0.082468482366585258
v 0.27545709991352579 0.43964735346705303 -0.20356852655850113
v -0.30248644135336644 1.3464336811725639 -0.038771744383045516
v -0.26135466735321927 0.94928616429086088 0.34692270823902954
v -0.53773012220176875 0.54100054570643974 0.56967965256494202
v -0.49989389385219168 0.22661648410382046 -0.012646994093327221
v -0.35017732239120197 0.033284370243192168 0.4340223923775326
v -0.74169937560184152 1.294116271675344 0.45419880936661533
v -0.040436403837151441 0.79943917510273077 0.53925088398243859
v 0.027654320348507608 0.98271970634685768 -0.0076024856321073439
v 0.099952264992902815 0.55374012867454458 0.67099792498435085
v -0.091932099306252332 1.3823393985380352 -0.065494072837737782
v 0.36371104602944376 0.028531560937569127 0.16733802807137951
v -0.91531088428781204 0.89634605970937853 0.1805930889091425
v 0.011660267044792519 0.030542731087571339 0.22871865635000191
v 0.50792705339604483 0.42989599799962952 0.13391183959558822
v -0.26621814181462794 1.5340993025800571 0.049346579570449946
v 0.20286334820106922 0.61260771570036576 -0.20992181899106294
v -0.84615688215538509 0.53069545142107444 0.39966945059943343
v -0.27818520683440812 0.74949634384784414 0.52842880754672716
v 0.08474222581139583 0.24010770780518323 -0.25752193394557327
v -0.73325165178026142 1.5956937417112083 -0.4323531049310701
v -0.84482930135482237 0.46911868249537803 0.1467986440724933
v 0.089308498091317065 0.19790736272926779 0.61930873786588547
v 0.016794817029845605 0.17753950246419917 -0.25039930415709716
v -0.60600751753482474 0.62000637481946197 0.57514871300369197
v 0.23048331516324658 0.026623474769947603 0.35613757955810033
v 0.59743408683487109 0.18093934673168649 0.093046693845455858
v -0.034896160369913061 0.026658756294054529 0.50890807891441037
v -0.038703860631553719 0.144883415007351 0.56352092338487569
v -0.36568044435602504 0.047157602639391366 0.22684066467972452
v 0.31899019530216027 0.74957339308244919 0.47389748014565869
v -0.58391268745303493 0.69116456841117413 -0.12973927213613526
v -0.23583767025533436 0.077068271052536871 0.46843909189044175
v -0.68854566889573188 0.48058579607158114 -0.075622466956890941
v -0.11388993151792058 0.86275372210621759 -0.10981805316404089
v -0.19485885905783495 1.4341697538499047 -0.02623154869086132
v -0.68857575624807565 0.72364170748913992 -0.071548024963476689
v -0.29804874468504233 1.3454920262504528 0.12627168527007473
v -0.91492759455619921 0.88119773217196973 0.4756185828619901
v -0.44240479118080672 1.3385524015277894 0.18683994783805075
v -0.58358941945708964 1.3278533623870288 0.17591491015713157
v -0.3895412015718363 0.081170172420641964 -0.015832418618045966
v -0.79401218824322506 1.020102959003873 0.66938299681371316
v 0.1560463076509658 0.50529101932353759 -0.25468643814288028
v 0.56841635848017991 0.37321454287554218 0.061832704442235521
v -0.47788014220668101 0.049370591819738165 0.16320622900501758
v 0.40663658873949632 0.44963338464715219 0.465007414379149
v 0.59893972774575954 0.41866571879800002 0.14856987928279777
v 0.56021497472768189 0.20427590346099755 0.025200506648381082
v 0.1484977161047944 0.50442877578880085 0.64121977473592762
v -0.45645326030297556 0.69337772401941022 -0.14179512896324226
v 0.36242493308976986 0.90775880678962517 0.18203182324816605
v -0.06462393110107903 0.93905541388261671 -0.059310949449446405
v -0.42907144194243158 0.97672366113022357 0.34257574343661129
v -0.54723150013614275 1.3252787602429152 0.09136659166043086
v -0.15217317773790295 1.4762759019631899 -0.14125554806925869
v 0.023389317715313589 0.06909288627222912 0.3075500879012586
v -0.85992229564831668 1.2700701376274988 0.41475759155906888
v -0.30521455204517062 0.033344788191033869 0.51588375876920045
v -0.35041558880073581 0.34062130583237582 0.51702820555645712
v -0.12476759359941775 0.035315593164095341 -0.12776919264520345
v 0.51333071385479911 0.2446243728936344 0.38995072768463779
v 0.28110838780386205 0.8403147000065827 0.44719511856465544
v -0.63271341500715605 1.3903229104559356 -0.40805033352058495
v -0.14348462272155063 0.24979001995484118 -0.28190531738792879
v 0.14826331166900203 0.025402431824496197 0.36551289185960512
v -0.62987619738737155 0.30890639317298185 0.1274435511676161
v -0.61540388181546923 1.2172452976465322 0.043550215476076549
v -0.76657901239515336 1.3074621266975199 0.10200959935164831
v -0.53394267167377196 0.31768455550650748 0.38219377843827879
v -0.26159535915209747 0.99292376926740578 0.2088497162921216
v -0.58932318992632104 0.18349440152097177 0.18505718179399716
v -0.021215270584512547 0.62998638927151085 -0.29789744507548499
v 0.20589613130694456 0.80284787372889022 0.49311390426486185
v -0.65807987976816762 0.13866111268037298 0.46289851507263713
v -0.47206057463743656 1.0064633499864635 0.42844500007004316
v -0.28415442050192169 0.68625920030694509 0.5591291672205625
v -0.47237528854844246 0.63079934979772823 0.55978462015681618
v -0.29154515055489333 0.19513614045289246 -0.18270081877263147
v -0.78033682173300134 0.8112558054995862 0.011871635138292026
v -0.75809588006356021 0.41804971224219317 0.39422999849098178
v -0.79244446893836085 0.58401538845332157 0.4886926723362181
v -0.87628896843957604 0.58492323129266544 0.081465575385199621
v -0.30430733773956992 0.96808099732201536 0.02603314308740844
v 0.6534238219470575 0.28917795570293492 0.1303331604103512
v -0.62500491060377628 0.41246236497708938 -0.051634597355963131
v -0.36903550031569821 0.98781445388993383 0.0055723215940260556
v -0.78444851513660574 1.3382638349882643 -0.083014171672537232
v 0.040474352838319537 0.036715236097562422 0.55082045489125209
v -0.047932291975743758 0.72596852107865606 -0.17512657851672017
v -0.11639294211163839 1.5014985015184348 -0.10677710177813844
v -0.67484125583570043 1.3905289313199725 -0.50075103919994146
v -0.40979044542203819 0.21227280097720727 0.4962422329268576
v 0.40814024171625662 0.065515240074729836 0.29017099693135162
v -0.90748890025256079 0.8890618041155951 0.55492102970655555
v -0.77644681197911125 0.39549369557747643 0.26698680621375021
v -0.15718074675950344 0.60286042403723505 -0.32811247904436269
v 0.065259821432581577 1.0475500652349219 0.26343639772486466
v 0.20744684231990029 0.11902358801968768 -0.17028918239567503
v -0.046016070659159289 0.83504224965186258 -0.15658508523397391
v 0.37460651697047287 0.36368480074499537 -0.11024479835869194
v -0.5069006282158881 1.1934678211046199 0.30439125991967886
v -0.17526622694087002 0.87307980208775737 -0.11089950139548356
v 0.10486119688709855 0.054600252555004031 -0.18413070954245483
v -0.90051850977026071 0.66059966313890794 0.35691580231846598
v -0.6710671742003389 1.0644507856840248 0.61245433639589597
v 0.50165629506056131 0.64472293477348752 0.13423586027166787
v 0.42270383510928206 0.063326414996769761 0.082770854698315577
v 0.10607678206960588 0.73902817358682704 -0.15217266988811096
v 0.10995541659261171 0.033581971536396742 -0.025002512663885663
v 0.2756668380166945 0.59040267517857437 -0.18690841949695902
v -0.025607486370909201 0.068675144623519951 0.22881566624065239
v -0.86645146515470761 1.1496525120411885 0.14000466545595089
v 0.20178522863030807 0.78047655244670633 -0.12080541341564734
v -0.7277853394424787 0.12916323550158026 0.099443865189911107
v -0.54630396189867514 0.13811376546313109 0.28428984098828886
v -0.72447326314874738 1.3585078041332146 0.052407197445944811
v -0.61880044275768287 0.036255043544354264 -0.0066083005384941062
v 0.53363308725461001 0.1310659385303968 0.29909056971472564
v 0.18728996059376987 0.99236172848668136 0.37517902794688496
v -0.086410922959103048 1.0249777081602021 0.30685514643712253
v -0.83862231504574769 0.8267335704045311 0.37769012597832141
v -0.90531204653956754 0.6020613268943078 0.1509435718791399
v -0.3281271065876929 1.2711826100214749 0.062962396330202536
v -0.62228957882874414 1.3907605685809932 -0.32280114944066374
v -0.47861102573919989 0.67666390870665249 0.56202379315330531
v -0.31128055616415112 0.20296857752744982 -0.14223461248945743
v -0.62201254559234764 1.2775366105424359 0.090087970504423062
v 0.11289237830926678 0.023310472900122416 0.44942600288425261
v 0.025256295376375127 0.98528725505522319 0.4137167712297436
v -0.72475821777367744 0.33601107926705676 0.18435992878656626
v 0.05544486880824321 0.079702412875504586 -0.0011723744840689318
v -0.21388959605694996 0.23073789452476229 -0.25184241485128328
v 0.28074778735830036 0.66759219833060657 0.55600651419736535
v -0.47843675803413671 1.1953971587269547 0.19492302365759648
v -0.66983785776305516 0.96231821273176377 0.66454429201669885
v -0.75812874288602605 0.70316002650442799 0.50278820074751096
v -0.56305455994173026 0.2726489146378665 0.18913664449282458
v -0.57930126946557836 1.1379978542111728 0.45696680743632478
v 0.39799053826165781 0.70396440353734657 0.4349760048193495
v -0.50503891066614004 0.17203711739711036 -0.016925458799994686
v -0.81517548210109547 1.3161349031418512 0.3165944854619957
v -0.84232069621670358 1.273686192082736 0.16421942060508776
v -0.40304982635247905 0.56858001505469147 0.53362843486381728
v -0.19290553970672428 1.55070224662309 -0.13051256446295381
v -0.54858769261394558 1.0631649360554731 0.48726223909499611
v -0.7010753565426403 1.3615790720973031 -0.45767922848182024
v 0.33340160378361483 0.1784801550287676 -0.02745967793022519
v 0.0064601564839107143 0.34146842031253782 -0.29352659083903165
v -0.47923437779230549 1.0378861834001811 0.075424476775978994
v 0.43049192250363527 0.38272918499015751 -0.056631620775389815
v 0.60982254132084357 0.17004414543087643 0.17301787622638473
v -0.52909933752651905 0.85786147807224511 0.47341625552139915
v -0.90374002902982564 0.75768681724775877 0.20990454892757715
v -0.28671828367454277 0.9132472832431543 0.41135493407879625
v -0.50924913312146258 0.053808956859391098 0.57487048785467232
v -0.14373689383795504 0.69046075904417914 -0.25304085637879103
v -0.4395321893562294 0.035975756216286792 -0.20397858807457189
v 0.26086644261984759 0.085149852921994174 0.4849154762724231
v -0.043186411819966783 0.58919079915926886 0.675697035028755
v -0.62246763244559244 0.86274470651741997 0.49228361613667604
v -0.17282108468417712 1.6182697072421586 -0.045480774743740252
v -0.61853247815297963 1.369679268056422 -0.11386088559861572
v -0.95845077840019144 0.99393847271591762 0.34107613754429539
v 0.25599170038783514 0.87574055180171295 -0.064211553116266626
v -0.097975817831861461 0.37459440208058403 0.64135181699536914
v -0.86995509068758026 1.1865846653968799 0.20718407256303401
v 0.44434056619812218 0.28493871403713372 0.3702702737589843
v -0.66167136426763729 1.5226942283600482 -0.52865252512992222
v 0.34921351565703895 0.8536938927667469 0.39890219596614895
v -0.76772895616628389 1.3936936707144798 -0.052549793765728624
v 0.23948245187812184 0.12677362150200236 -0.095538371390530938
v -0.48027558715457536 1.0654400360489131 0.41179734153849501
v -0.26499836220368367 0.98725265812451213 0.11996323095211597
v -0.11807815371847714 0.076346182695507761 0.46969124398652351
v -0.26738737169573173 0.23366042090390618 0.4592608117189147
v 0.25634200998610746 0.92309275989540496 0.41806664229502932
v -0.91098020375205069 1.2555862599724168 0.35307643184904652
v -0.50684748237620003 0.24926260898678629 0.25096027402741189
v -0.74367960341736417 1.4943728798708382 -0.38540729964483511
v -0.48928849595450336 0.11679217886627097 -0.039597917566958553
v 0.032674541201826578 0.18809338785459759 0.62038820736589029
v -0.095501842530450562 0.040863139123997611 0.59598270101662376
v -0.90088011194545081 0.67003308288743102 0.17405013993772531
v -0.88284986815782629 0.52628243580483691 0.1869608033375218
v -0.57420085571724311 0.63082382994763764 -0.13920194460789448
v 0.490956378081289 0.47828176759821106 0.051979420622974656
v -0.13861538418960692 0.71542283596247058 -0.17598553008253853
v -0.61495071640674193 1.5400672338544483 -0.53900225240159949
v 0.44818275001517621 0.77390197495880875 0.10128259709626604
v -0.10075432799165267 0.31751943274980077 -0.29617930068556098
v -0.61594481901287867 0.093117892360215795 0.29720358003378367
v 0.15755498023435849 1.0349559105439685 0.27252314291718877
v 0.35638745736221156 0.1266858763890665 0.36878325764161823
v -0.31373602805125189 0.46984363070436302 -0.27567525198609644
v 0.16944917511329852 0.47065647977823416 -0.24337982351878226
v -0.77243153648967 1.3022178470150332 0.037495943527604006
v -0.76841439010453094 1.2732028268038487 -0.10349547438941915
v -0.35638675248597629 0.54359054279332553 -0.16547146741487645
v -0.79401005684755266 0.40995658504337518 0.17930515407562977
v 0.075072934429740515 0.62306894745541486 0.65341139369648815
v -0.70531950438842461 1.3293283204996651 0.25132049516962202
v 0.09057875412698696 0.92777508500140748 -0.082713525806665369
v 0.27768215418866488 0.1706368076411357 0.46860995499479469
v -0.12988759233623992 0.98829433286141954 0.038953006079459319
v -0.68644448634469557 1.235876783190291 -0.18404369618465163
v -0.38003546612574773 0.13072793727111706 0.51166867649187198
v 0.50306943018092976 0.52541488114081514 0.29331435065401412
v -0.38799919026663171 0.048078433190111548 0.52761151084915847
v 0.44929138109521566 0.78431584672356947 0.21490834847619694
v -0.35765158398878127 1.3685957975842957 -0.039975054196904565
v 0.22430377026425974 0.23359361150159325 -0.22483128796078242
v -0.051441188147441669 0.73052795447565766 0.53886161965919754
v -0.31302312834637397 1.3865560179067649 0.068338114378163548
v -0.40965687520079141 0.82948367316330163 0.49081389792053409
v -0.5767320559514566 1.2191179288549412 0.49262384498076572
v 0.23474213417848153 0.024961362605452293 0.2761390733852897
v -0.59302682014322716 0.99070369812432602 0.54673291191275775
v -0.24328200513161313 0.051671439879533515 -0.22651141871605099
v -0.93039505381622223 0.94968627630209801 0.41771438800789917
v -0.18457368040703184 0.53603559572209936 -0.33933709557192721
v -0.86848482996226295 0.84961875345851423 0.52480683904069914
v -0.67689278451885904 1.4155174316544532 -0.0651309770903091
v -0.90757112344312674 1.0463633262045904 0.52780666422764
v -0.8003223169007645 0.90795755265215528 0.62077372902529304
v 0.3319612621517864 0.44676152622182808 -0.15939177815642863
v -0.41906766166961085 0.8843771190510904 -0.078090769426035475
v -0.58970078747973576 0.076098710516653192 0.58287749448804715
v 0.11292672171770821 0.022288978568372888 0.51671764048822988
v -0.21750479398467543 0.8238009570695034 -0.14280514130731561
v -0.52153369503561753 1.3048884461430674 0.23144400525679074
v 0.40882208497861344 0.21967350881287365 0.38593970061841359
v 0.50935443367812183 0.40485333537253315 0.10126093210250366
v -0.21139030818671534 0.56560776220771636 0.65484169855357266
v -0.45435863365714196 1.005974991348209 0.0070791935332175458
v 0.37219266910291471 0.88609225989081364 0.090553628497440558
v -0.58743012269882788 0.48268418819438008 -0.10505299656558571
v -0.059399862659441457 0.12603175906201228 -0.20109181340113699
v 0.1701387716935632 0.45155485991583089 0.64076058670383707
v 0.63157794896327857 0.40023586609662354 0.2320097481958753
v -0.45898748198463829 0.55393622287700217 0.55916800744252593
v -0.67866004822485471 1.1732052048929484 0.02334793572285912
v -0.41160613547594416 0.053238893574532223 0.1888384886713726
v -0.88319055676291347 0.97003558082267716 0.090509822283601479
v -0.90702155212509761 1.2466312683147056 0.23753266453077423
v 0.066935635319882406 0.55112122601971747 -0.28410136277177528
v 0.48469273757436876 0.38141501531149807 0.31997236170973237
v -0.1489485346103607 1.3461466120320027 -0.015224373530604025
v 0.39755955618404898 0.73372825613779824 -0.054896048612282609
v -0.49510669870012075 0.035647737067476842 -0.063342968203368905
v 0.16135906259574295 0.73222566898855312 0.56875533843031323
v 0.037085567854233413 0.2315142969800649 -0.2511735667993954
v -0.47853885433202697 0.25534366511764578 0.46857256419176763
v -0.24756928117784038 0.98348378904968092 0.26876677792481535
v -0.14330340353415877 0.46085869058943157 0.66521098575754301
v -0.066425406281716018 1.4223452061857467 -0.14089675580122868
v -0.75502034504338744 0.70862503436710067 -0.052864791339741042
v -0.76063527930550512 0.067691112895179609 0.17268967011197062
v 0.46892586465594538 0.21366037846768426 -0.025401858553080262
v -0.34285067048760381 0.084636561202383429 -0.091051312475029358
v -0.63097564077441159 1.2272935331043127 0.51795895417423898
v -0.66528850507684478 0.056811179011905827 0.51589173041320002
v 0.10871053798958677 0.14133341093842838 0.57242916063214933
v 0.32493003537737108 0.30724174986491537 -0.14639647275055634
v -0.55682135846644765 0.76121747429488829 0.54111709171700373
v -0.70172874332045421 0.90773467524452434 0.012075022022187567
v -0.48344432705488755 1.1188066956986527 0.14273737092632569
v -0.68488446691599725 0.340452013109179 0.33285580904216405
v -0.1933421515684513 1.6132230591841781 -0.091278252016225761
v 0.39289680264294652 0.078685106517974973 0.030171057642943644
v -0.057993636569738438 0.50584721505657948 -0.3223666650361291
v -0.33477435828245433 0.80331518232941501 -0.12626366292883853
v -0.43187491516385279 0.15179984855150686 -0.15157712249394714
v -0.45268636630119397 0.32885904318815373 -0.050466652104977368
v -0.62923123724191921 1.2703834374290917 -0.18376976057396424
v -0.18600024529141496 0.1981485204696837 0.55618118509826042
v -0.080744021411714301 0.30757598093736671 0.6558779551640791
v -0.12617486602604189 0.70956039850642494 0.54610718923060386
v -0.52431769843465481 1.1704695613186156 0.40882669138765332
v 0.43611508256060549 0.61915370211753251 0.42782713445335346
v 0.33917082321489084 0.70873560961790938 0.49252216506883861
v -0.73783835085022975 1.0572575671963613 0.66189955509332166
v -0.59198089656594099 1.2146127944479335 0.075648074865585974
v 0.46103652121664973 0.32754803865115217 0.033645067644931213
v -0.51049238042611134 0.18370846560756124 0.25851157823594634
v -0.80384263585715543 1.4788695394731515 -0.31730313683646399
v -0.24095396540261119 0.17703284924594034 0.59657846556783456
v -0.27563243062729675 0.074330132122062548 0.14043079636423741
v -0.22997843099701851 0.39932488683285766 -0.31597589825681605
v -0.199756866310312 0.90434661616526668 -0.066943867492981826
v 0.22978072600602534 0.38304419766825631 -0.23235873584147879
v -0.70991678368468036 1.4736394414632041 -0.16058062245669885
v -0.66696346691160768 1.5058333577807221 -0.36344390856985126
v -0.28111588904062251 0.033185643687349387 -0.20713891944573504
v -0.54286561825236401 0.12587513861725524 0.5728434979001098
v -0.56205263550958862 0.54088790582224655 -0.132708871675766
v 0.49011719743328203 0.64923622269058823 0.2966216559649224
v -0.27867277225653214 0.59506762013508929 0.54410083325173086
v 0.0079124874130765029 0.037291956514352576 -0.18528762748811448
v -0.089713210128637297 1.4044895654329526 -0.05090585609739097
v 0.37085651300814443 0.61559042771695083 -0.12519514812945692
v -0.64308032189840703 0.76373253675299713 -0.093473965412674373
v -0.92270785875761108 1.1686835459473592 0.29273938211154465
v -0.4265996007132683 0.037354829664283454 -0.050254042973819565
v 0.1190615412608076 0.34274174564747001 -0.26178067828234891
v -0.045245115165092928 0.43100980448851517 -0.30770343807064765
v -0.81200734846769118 1.2917350145914508 0.14522639141403371
v -0.72056992754915694 1.2381302048069232 0.54471485891925897
v -0.68595723677578979 0.067593543887773652 0.40246269727807626
v -0.013262473338969414 0.34999651698467449 0.66380493723613532
v -0.50718082889752336 0.35633460398771927 0.46059959598755851
v -0.63265901871151309 0.70401841811472943 0.54591082015993742
v -0.8877078513269181 1.1279038428653947 0.39330910339252328
v 0.082341140189864895 0.15592316709639539 -0.21288316880328773
v -0.3372898606480782 0.2191950825084357 -0.029030140890427675
v -0.77286690903130562 1.0273865126687063 0.023424995901901332
v -0.60091616436377027 1.3090555088161984 0.13690392486166877
v -0.051437845318647722 1.4948417045196063 -0.20423346494875799
v -0.91953030576615713 0.64101275745969943 0.27359951807412586
v 0.46172458193155108 0.15941997220055013 0.39406870255147719
v -0.32868782078975417 0.027578327709959369 0.32297748863006437
v 0.43797700536906542 0.39985728114092933 0.41571281031738355
v -0.75137519253444973 1.3063557372841992 -0.08035032132842887
v -0.35953254349742236 0.13258938508235882 -0.23688569212292551
v 0.17017454590333805 0.032155345778391631 -0.11854176105697824
v -0.36367953885812793 0.42960266843069639 -0.1033039165724066
v 0.076062287053876521 0.022574091461995058 0.29803630113473328
v -0.63380748557485089 0.52663485036080271 0.55217939252869408
v -0.24415941354378751 1.5721168157032634 0.022691104440017297
v -0.59460184115495585 0.3180499246437401 0.063117837641926577
v -0.46412415168982429 0.91933469874175788 0.41234316758884265
v 0.0017619372137374757 0.72436363842091089 -0.1747611879843306
v -0.2388155001869581 0.65587217742720572 -0.2782684171114409
v 0.40928397523682764 0.2883154957815639 -0.043288921411746312
v -0.48854860814256046 1.2000541091321815 0.099792659907220291
v -0.097421592021816661 1.6190048916120954 -0.18848632167854631
v -0.85575999939997005 1.052373593278922 0.61787050101052821
v 0.19299340979065915 0.73820149694149262 -0.16967485863474172
v 0.32939855524070588 0.47586126653389194 0.53595865592345582
v -0.78473488340016639 1.4949914724049871 -0.27094914601537118
v 0.052819744916471519 0.72661067782069977 0.5393910823817728
v -0.22981081733295095 0.84793456830751746 0.47093323955530481
v -0.22225989437341365 0.11805294023811397 0.64551870401964517
v -0.94699032629598667 0.95641771493934447 0.22151455461534714
v -0.73955466218024146 0.78066632535476332 0.49044104557818696
v -0.84033784377650722 0.85564597086297123 0.11858770573023794
v -0.73287111875218702 0.44855167521420269 0.46415871793155727
v -0.39582778800414559 1.3143510446282454 0.16945022598060872
v -0.082339962185930884 0.22257472097451197 -0.27292366278430591
v 0.5875101468347117 0.2291399997147289 0.3385697358314072
v -0.87662507640403697 0.83624881369688175 0.2166276075321048
v -0.73222932649184003 1.2889530811332663 -0.35521432804795988
v -0.46562188672131899 1.1203274530637339 0.25682669056732682
v -0.5351959299336736 0.87974463229150479 0.46833765787826592
v 0.045975347794962713 0.88393225875315651 0.50476835928560071
v -0.053565892025781429 1.0391936168752027 0.15058141263945191
v -0.24926265430759245 0.35470185728654591 0.49057810595592899
v 0.17482305219353711 0.035461636025511653 0.097031492837203526
v -0.60738551374927352 0.95260008290487996 0.0025959747077828063
v 0.11086161286736222 0.774474332138952 0.50864592696419386
v 0.29960662229770069 0.35316344381377263 -0.16417353597677464
v -0.48949036460500389 1.2505614382020194 0.23708278217855563
v -0.89019967449761317 1.0438831429720692 0.12530455372357108
v 0.46092577746388419 0.53665179030665844 0.39499967503187239
v -0.82178904018496701 0.47310224955175689 0.063998716447385223
v 0.15633211751452819 0.84074109781463491 -0.12149609488870904
v -0.13667703740004541 0.80346077383523806 0.52515317370323911
v 0.32541134641878788 0.13787579753749588 0.42279707934961624
v -0.47799206953468598 0.33933205002910699 0.47082135091546051
v -0.50992039295766745 0.053749403492546942 -0.061294587676407046
v -0.76493589376810012 0.84237780809498919 0.58338259062440601
v -0.92601033405136679 0.95641763862041629 0.56604423531692882
v -0.57151994416506835 1.2887667628725212 0.44881795171926026
v -0.69845762488256047 0.6079557986230697 0.54782487053268358
v -0.74934309575874647 1.4074541031267394 -0.26849610327332019
v -0.39640856807068831 0.55214291451255337 -0.13508418130430305
v -0.12915114903197983 0.44118006581456387 -0.33097470418278691
v -0.84790288808652858 1.0283259622752425 0.064936881493766793
v 0.061263939898859213 0.30684239609113828 0.66604048597844479
v -0.30229401009187762 1.4371928247843679 0.04095211074881442
v -0.90995887515058105 1.0967910873791502 0.17260260092124252
v -0.30395092629874881 0.069535392290701992 0.39170720183296126
v 0.1354003868562999 0.16339242711804272 -0.21140438594795818
v -0.58917598519807901 0.27287718634389108 0.10900349337703519
v -0.046411111238412878 0.99820518808641456 -0.0039249802435529146
v -0.43272346298605713 0.19474965277181314 -0.034254035590406705
v -0.29435388972433213 0.52026641651620475 0.51698671723744904
v 0.25828183378953101 0.22094148853486706 -0.17956611817712329
v 0.083381223494736173 0.44000855445723969 -0.29197972377609166
v 0.39402899628873123 0.29706665712972807 0.46321154898692879
v 0.046959670065095639 0.61262139568422558 -0.2826540719971532
v -0.76118642828767291 0.57127140973217849 -0.06604864307070886
v -0.68204415150381359 1.0510649812492294 0.0071766455028028416
v -0.63228804656432991 1.4578917110074778 -0.37564967290589207
v 0.4610439753215278 0.49548886104969497 -0.0067560061443392074
v -0.63164254349074733 0.76854874150824803 0.53090459000258983
v 0.19338784413287455 0.61590658528003162 0.61802286902857839
v 0.48929629489856075 0.35873825641068935 0.32608461082603452
v -0.30094691810127794 1.5250431045249426 -0.050580154386425984
v -0.46153295107115522 0.4517271396657272 0.52990719912519746
v -0.92069168387330647 1.2111995357711314 0.34184375913504927
v -0.52811770196024577 1.2491086907778102 0.078212613384715399
v 0.18374543757790562 0.14990905459295123 0.51940236163135345
v -0.63837125211702217 0.16434704514254483 0.45008000369545492
v -0.23655912710253504 1.4524429912911483 -0.10211630616074381
v 0.17916432735658772 0.67776577180617248 -0.18342760963452118
v -0.080208349737947535 1.5716092135391988 -0.22809743582908878
v 0.054003379477296852 0.69083491012605569 0.62225372394783562
v -0.093272582272815069 0.98379494147029611 0.39519510594578627
v 0.2195441024923753 0.022823746056406358 0.071228382856166672
v -0.46444616426068797 0.63416599437801624 -0.13893618391171453
v 0.43308088194720068 0.13874973544232658 -0.0032157687554993956
v -0.55619907445300965 1.3207976101076617 0.21179481823115326
v -0.33537714030338467 0.035679655766735784 -0.14961722452774234
v -0.71646084426743051 1.3251972127460279 0.37332158763820456
v -0.34720085982437549 0.12706708241331943 0.56044781204639471
v -0.67740699504061441 1.3135502328997029 -0.42406709781934182
v -0.38509011982262364 0.035222130435939546 0.5154781258692932
v 0.01817892012619856 0.2139405341839492 0.64137794916705559
v -0.4319651959031714 0.13301169654491649 0.52908023297787443
v -0.63328111918103003 0.95806460343952704 0.63430173638475951
v -0.93614811774148621 0.88305939704852365 0.26911206721542252
v -0.15319954932081947 0.66333116488699806 0.63167758361645709
v -0.12391853612453373 0.16752833275588749 0.57738104794087175
v 0.38006874151919334 0.46611376490437029 0.49957688658946947
v -0.67876581467429997 0.86903393020468311 0.62976422919450381
v -0.20359057484601151 0.73647644053549532 0.54711994162499866
v -0.49596660729435482 1.0350683806536447 0.053966039265667849
v -0.78762498697122152 1.2380993293541722 0.080937839375535101
v -0.60991117695097308 1.3442010838105658 -0.14869567294301186
v -0.15471963101491532 0.31492328558251975 0.61725964423409141
v -0.87341996016487933 0.57092382961383747 0.34494033059461643
v 0.52829974519221878 0.10150043201706205 0.19027182001202253
v -0.80119198335194008 1.4247163802677307 -0.21276896012107896
v -0.73789185955825165 1.5872283345251847 -0.47153403836893459
v -0.036833517695358184 0.56207411607047719 -0.32214528898766304
v -0.39021599628067793 0.16876346061572131 -0.17632717244191279
v -0.38612395128305271 1.3519657210171874 0.12998964840980518
v 0.11882417813369631 0.41509313097214906 -0.27147020507264946
v -0.33472128900937825 0.28015487829001928 -0.046989816634385805
v -0.65361968784662494 1.5972409348768855 -0.50319140291433684
v -0.6364580262222308 1.1820015547128802 0.028801182850545483
v -0.021796765682183559 0.93692702961170493 0.46740512271546242
v -0.41297527067551099 0.38817672445543133 0.5239792602587291
v 0.24750500634663905 0.079632668386522346 1.3181802261740099e-05
v -0.38920899309454321 0.74879910281938944 -0.1353210398706714
v -0.75218687838169063 0.47996586297286514 -0.021998355046735713
v 0.31258721952317309 0.50558140282823849 0.56243054232258971
v 0.22931483272331957 0.31982673046856491 -0.21563272159749872
v -0.80752408136138343 0.8750692792562309 0.074943898705432985
v -0.52448661056084944 0.67418805075887855 0.55566498150712307
v -0.35398845413691443 0.95593754364034689 0.38775160062188102
v -0.35556624696593236 1.0232951665878458 0.11836508977998739
v 0.27385441940540145 0.71907963479849946 -0.14277963207094257
v 0.59331925294731858 0.27672461636768664 0.033561142832448376
v 0.24686473926766614 0.24168012668113845 0.56612566724973057
v 0.25845209347914988 0.78089165906749258 0.49417307382480524
v 0.029131004292521866 0.024721765378902638 0.11354424390143861
v -0.66876130808163614 0.099482260820871637 0.24799912573436897
v -0.16031274494562014 0.32430189800652515 -0.3128367028158438
v -0.23191355441118916 0.66304570340595403 0.54709261797967423
v 0.12431874425504399 0.27788633178044775 0.61990538558668451
v -0.46296724149321483 0.78822263738630838 -0.12587489902483073
v -0.84384974218567022 0.85553454296198295 0.40549217389828823
v -0.27622185811538275 0.28399274867656388 -0.23292769900837224
v 0.14820211054306848 0.93855754149508597 -0.065821983635124329
v 0.20149758311409174 0.035321935580357539 0.51119602478412218
v 0.26215388432897457 0.38623585906122326 0.57362364867417159
v -0.86341620177235845 0.73808664051442641 0.073703026481099221
v -0.60779531775321505 0.1933560473280225 0.1197927531034423
v -0.37573187115822293 0.05645563680824494 -0.2505421725491459
v 0.46095396504211356 0.71020244596356441 0.04495126943127363
v -0.52543212312450949 0.27311838559098184 0.29849576262132116
v -0.10152013435602122 0.15758430260070555 -0.24260563735456775
v -0.78466464976814865 1.1237883300003049 0.63469322085123758
v 0.29426384574665787 0.021892724206636991 0.24091246625426754
v -0.071642094753946672 1.5476939006128185 -0.17794728618589858
v -0.17968570807128542 1.3537297076498367 0.058235562329902651
v -0.72630136482685625 1.2239387444683598 -0.089318547190203962
v 0.65011564901778229 0.32085248249250714 0.27188083344460318
v 0.5141717199546898 0.42450174425098253 0.2207026322820774
v -0.84327883537479364 0.68716215114782242 0.4309423836553351
v -0.28557966173589944 0.5713446795366981 -0.30407767045083595
v -0.13138656923957459 0.76851241678745064 -0.16661141185485967
v 0.12789884535048157 0.88570617179874633 0.4783944543751853
v 0.15741534582402997 0.5834531572515459 -0.25143348317432423
v -0.74668776989192054 0.04102155462993843 0.10391118522840181
v -0.60136025047302677 0.85619160450977005 -0.074399103904621192
v -0.67763303029092858 1.3212981577585683 0.099728256300648674
v -0.04177331967413183 0.47871927220137733 0.68222951301350754
v 0.10445974000197376 1.031019909570404 0.33707208198689226
v -0.49742621119691088 0.19659311585457862 0.47604707994122308
v 0.094708766695530286 1.0464938405082116 0.11543714870611169
v -0.47353882914366346 1.4326234480904205 0.067202520352727377
v -0.83309056923278968 0.47971472779957774 0.31755976907480021
v -0.54716780096809026 0.031981512906833938 0.15815426999017376
v -0.040329198847883614 0.082404017491494078 -0.082880880999901374
v -0.47699764829751951 0.49768478234418084 -0.10693558426716873
v -0.024978791122919151 0.89282538715296356 -0.096763375706245339
v -0.60974261121200846 1.1171951554305519 0.4879287300700168
v -0.828575259437624 0.97800524980316716 0.63252618967711305
v -0.58604628128423253 0.17569915504883718 0.033238730256943516
v -0.36706993940855376 0.59000416249552223 -0.16097293996137402
v -0.16153812172678234 1.3867863642345737 -0.074481669569258752
v -0.32393842356777064 0.099967985605658768 0.60717999231639497
v 0.022423930176721958 0.27172980956913956 0.6376296645014865
v -0.37131363686861096 1.511103536064186 0.034178445114881773
v -0.73771775925799477 0.91948336755580307 0.66715434281750119
v -0.22949364259839791 0.48626111591781118 -0.33362159248388024
v -0.79450578840183694 1.5619820203722707 -0.41152863199193801
v -0.25139726697943737 0.069657647717487822 0.25311215664786313
v 0.38464621734618248 0.5953308427034617 0.50290815205780437
v 0.060940955139637494 0.11551674352980761 0.54359633233113336
v 0.50190233523397121 0.59565500179172615 0.082384019255603347
v 0.57390508305574939 0.41629279341923303 0.27119644752643035
v -0.8263892635859803 0.56192147734142561 0.021433923565725231
v 0.23867174569889271 0.61195735034327969 0.57206741403051187
v -0.41189077027345139 1.0165723467066916 0.27142290428914195
v -0.2743485329014127 0.32063659248062226 0.47079785284496817
v -0.86845034012558309 1.1681673530327046 0.53304914961350491
v -0.3050355178237093 0.64662099260854455 -0.17762201492505056
v -0.35826975359605584 0.88237631488400026 -0.087470657549971784
v -0.8128934125919216 1.0998344466586651 0.066794100067308265
v -0.33541163412982916 1.2781207433288675 0.10582388240916012
v -0.065321380991801237 0.40114040845187748 -0.29935403812579126
v -0.9146181898419965 1.1141295861604046 0.28756175228104719
v -0.62925013940964336 0.03825715036651714 0.53703618023668087
v -0.9362826004668604 0.96555417607192673 0.44956283594330781
v -0.48482640169195379 0.75816503323217888 0.52567627919756865
v -0.48397162479798678 0.073160076100870233 -0.15103124358587994
v 0.032630740827758575 0.67615070724954007 -0.26161801119727479
v 0.38602981281141385 0.22031337553342839 -0.018470565104326268
v -0.21127855741082574 0.15354212110415832 -0.22332549753725969
v -0.69847898687762011 0.11492185531083271 0.028323890849755073
v -0.70979089913493942 0.15017548886232721 0.16462349667373852
v 0.15180731905192368 0.067464331052872126 -0.17299529719699894
v -0.73434923962526788 1.2611905969084347 -0.30893744988593969
v -0.34294942142516099 0.50946581369749633 -0.2252984437197626
v 0.40923129765144545 0.53657925946306506 -0.1140254541629835
v 0.069640244068565116 0.47982674357132771 0.66659437723112513
v -0.21736789278343788 0.95841990199182348 -0.0033072086154148886
v -0.35664089516629671 0.027068442995290719 0.17324649410401088
v 0.092617266667059911 0.029682271730471377 -0.092574163451452737
v -0.60744654914637664 0.15612724836682285 0.53693432965256271
v -0.39374608288197643 0.035531586867734118 0.36325456064886236
v -0.22309285720304362 0.51825528716373337 0.65064125086306113
v -0.34333895546796944 1.4638772175989132 0.11844935251288863
v -0.62911677699054736 0.69896963912809362 -0.10164130080023441
v 0.36472358672167404 0.82740794475361101 -0.020336772074026614
v -0.099839366370986754 0.035980766101885879 -0.18474833598203602
v -0.51745068603321143 0.39383397752461596 -0.050157967286949864
v -0.5221164827463648 1.2791483375131207 0.38504622805532757
v -0.36327172220922893 0.52714482104712368 0.54543666249726452
v -0.52505827483347856 1.1551965002420914 0.090624112671932558
v 0.10428494163091252 0.07463683588953586 0.3901619891555988
v 0.39226361020996431 0.082441193035579341 0.3336966062206897
v 0.62692468349876762 0.19692070630252437 0.25109952621479953
v -0.86001716631656266 0.90222101624398987 0.61792250094821
v 0.29402501781364271 0.1806975292879808 -0.14061591669771964
v 0.36782041476772548 0.89065805943747811 0.32595475266929907
v 0.31164056191991968 0.30133490115296158 0.51942290043137274
v -0.58413031150767658 0.46010316142077035 0.53504961451847699
v -0.73479348863735494 1.5311792135846591 -0.31775928845862628
v -0.71603606853439583 0.3278399141047651 0.26715512195339347
v -0.16097234266623112 0.90410715989374701 0.46239317560208715
v 0.04762873295599894 0.78581854063551115 -0.14995517132274103
v 0.22443208380745713 1.0067825567016213 0.11013084192728821
v -0.38026264539454058 0.71360253816700536 0.52722899331068551
v -0.60514424634917841 0.89913323801548195 0.52855968132494235
v -0.15371903750957877 1.6461260729511435 -0.091882211707904338
v -0.62114432394611696 1.4272397032631767 -0.52188009917500655
v -0.75339570074783546 0.40360511601167109 0.086201023875623201
v -0.75605652597451856 0.50202849634048774 0.47978018229446551
v -0.91096177476857254 0.72878774123111767 0.31318715744380315
v -0.632306806375319 0.038793904505937407 0.30050977980897581
v -0.21515695924569805 0.035864095805416593 0.63983117447612703
v -0.54636733041493235 0.19265852617983167 0.38354265996443632
v -0.11551702151760587 0.61696470194766362 0.67315106659179313
v -0.39106082245755558 1.4100570467914197 -0.02778090946024012
v -0.76157944491856344 0.80739920836290979 0.47292795683138356
v -0.88963622879400639 0.56799808730063506 0.18393190158656267
v -0.30836828754081275 0.37390007523203972 -0.21755563828640409
v -0.42390518683808492 1.042764135330484 0.17960021339807464
v 0.14841182991533514 0.34652046204479464 0.63673356200528641
v 0.0065364327667611294 0.43233114078057716 0.69541895678884214
v -0.018754853247687862 0.073724961079820961 0.11769156288950107
v 0.58875341723509811 0.3413896527992652 0.34036065000096133
v -0.31385093622654181 0.21318175290310781 0.47330974579119167
v -0.047517201114460665 0.68946172670936612 0.63097774867502809
v -0.11741838031492879 0.25233222572233105 0.61404639440517705
v -0.56914452194930276 1.1302247183180458 0.043468003067249877
f 3 161 270
f 3 193 587
f 3 270 300
f 3 300 193
f 3 587 161
f 4 64 250
f 4 250 260
f 4 260 615
f 4 615 64
f 5 293 524
f 5 353 293
f 5 422 353
f 5 423 422
f 5 524 423
f 6 408 557
f 6 553 408
f 6 557 591
f 6 591 553
f 7 404 456
f 7 445 516
f 7 456 570
f 7 516 404
f 7 570 445
f 8 47 404
f 8 404 681
f 8 628 47
f 8 681 628
f 9 333 496
f 9 496 696
f 9 629 333
f 9 696 629
f 10 289 334
f 10 334 533
f 10 533 643
f 10 597 289
f 10 643 597
f 11 137 188
f 11 188 650
f 11 438 137
f 11 605 438
f 11 650 605
f 12 45 596
f 12 139 623
f 12 596 139
f 12 623 45
f 13 233 360
f 13 360 402
f 13 402 652
f 13 420 233
f 13 652 420
f 14 118 513
f 14 150 342
f 14 342 118
f 14 513 150
f 15 53 559
f 15 218 453
f 15 327 218
f 15 453 53
f 15 559 327
f 16 463 613
f 16 613 668
f 16 651 463
f 16 668 651
f 17 495 577
f 17 577 702
f 17 702 495
f 18 72 357
f 18 357 593
f 18 593 618
f 18 618 72
f 19 180 670
f 19 369 180
f 19 670 714
f 19 714 369
f 20 236 391
f 20 391 438
f 20 412 236
f 20 438 605
f 20 605 412
f 21 252 594
f 21 481 704
f 21 594 481
f 21 704 252
f 22 134 581
f 22 155 458
f 22 458 692
f 22 581 155
f 22 692 134
f 23 384 583
f 23 582 384
f 23 583 713
f 23 648 582
f 23 713 648
f 24 256 698
f 24 283 659
f 24 345 283
f 24 659 256
f 24 698 345
f 25 243 297
f 25 273 559
f 25 297 273
f 25 559 653
f 25 653 243
f 26 232 409
f 26 269 276
f 26 276 303
f 26 303 483
f 26 409 269
f 26 483 232
f 27 152 330
f 27 211 625
f 27 226 211
f 27 330 226
f 27 625 152
f 28 64 307
f 28 127 323
f 28 250 64
f 28 307 127
f 28 323 250
f 29 31 592
f 29 126 393
f 29 393 533
f 29 533 586
f 29 586 31
f 29 592 126
f 30 149 472
f 30 285 582
f 30 345 698
f 30 472 285
f 30 582 345
f 30 698 149
f 31 115 598
f 31 586 691
f 31 598 714
f 31 691 115
f 31 714 592
f 32 279 321
f 32 321 655
f 32 655 279
f 33 48 460
f 33 197 261
f 33 261 702
f 33 460 197
f 33 702 48
f 34 51 576
f 34 318 51
f 34 360 614
f 34 402 360
f 34 576 402
f 34 614 318
f 35 277 482
f 35 328 453
f 35 453 505
f 35 482 328
f 35 505 277
f 36 288 660
f 36 454 601
f 36 567 454
f 36 601 288
f 36 660 567
f 37 245 664
f 37 617 245
f 37 664 617
f 38 234 429
f 38 349 663
f 38 368 234
f 38 429 680
f 38 663 368
f 38 680 349
f 39 125 705
f 39 176 373
f 39 373 675
f 39 626 176
f 39 675 125
f 39 705 626
f 40 332 545
f 40 361 543
f 40 503 682
f 40 543 332
f 40 545 503
f 40 682 361
f 41 267 504
f 41 442 526
f 41 475 267
f 41 504 442
f 41 526 475
f 42 63 697
f 42 90 295
f 42 295 63
f 42 366 679
f 42 679 90
f 42 697 366
f 43 175 585
f 43 389 662
f 43 414 175
f 43 585 389
f 43 662 414
f 44 138 573
f 44 497 138
f 44 539 695
f 44 573 539
f 44 695 497
f 45 623 697
f 45 697 596
f 46 57 542
f 46 179 57
f 46 389 179
f 46 542 389
f 47 456 404
f 47 506 456
f 47 628 506
f 48 68 460
f 48 216 681
f 48 577 216
f 48 681 68
f 48 702 577
f 49 186 275
f 49 275 537
f 49 386 186
f 49 448 386
f 49 537 448
f 50 191 627
f 50 390 544
f 50 544 191
f 50 627 390
f 51 287 463
f 51 318 287
f 51 463 651
f 51 651 576
f 52 272 437
f 52 308 272
f 52 375 308
f 52 437 375
f 53 70 559
f 53 328 609
f 53 453 328
f 53 609 70
f 54 388 705
f 54 589 665
f 54 665 388
f 54 705 589
f 55 206 276
f 55 276 348
f 55 348 699
f 55 461 206
f 55 484 461
f 55 699 484
f 56 194 255
f 56 255 405
f 56 336 667
f 56 405 336
f 56 547 194
f 56 667 547
f 57 157 563
f 57 179 157
f 57 238 542
f 57 563 238
f 58 270 410
f 58 300 270
f 58 340 690
f 58 410 427
f 58 427 340
f 58 690 300
f 59 294 658
f 59 443 656
f 59 511 294
f 59 656 511
f 59 658 443
f 60 277 505
f 60 299 277
f 60 310 299
f 60 505 310
f 61 299 565
f 61 319 299
f 61 565 571
f 61 571 319
f 62 418 641
f 62 451 672
f 62 512 451
f 62 641 512
f 62 672 418
f 63 295 596
f 63 596 697
f 64 204 307
f 64 615 204
f 65 471 490
f 65 485 471
f 65 490 615
f 65 615 485
f 66 200 441
f 66 211 398
f 66 398 200
f 66 441 692
f 66 477 211
f 66 692 477
f 67 439 705
f 67 657 439
f 67 705 657
f 68 97 460
f 68 681 97
f 69 159 554
f 69 406 417
f 69 417 473
f 69 473 643
f 69 554 406
f 69 643 159
f 70 372 653
f 70 609 372
f 70 653 559
f 71 254 654
f 71 265 397
f 71 397 684
f 71 465 254
f 71 654 265
f 71 684 465
f 72 100 357
f 72 365 100
f 72 489 365
f 72 618 489
f 73 364 676
f 73 385 708
f 73 676 385
f 73 708 364
f 74 96 646
f 74 119 599
f 74 213 314
f 74 314 119
f 74 599 96
f 74 646 213
f 75 198 572
f 75 336 405
f 75 405 560
f 75 560 198
f 75 572 336
f 76 169 658
f 76 350 552
f 76 552 594
f 76 594 169
f 76 658 350
f 77 315 625
f 77 562 711
f 77 625 562
f 77 711 315
f 78 123 602
f 78 431 123
f 78 602 644
f 78 644 669
f 78 669 431
f 79 200 603
f 79 383 499
f 79 499 200
f 79 603 707
f 79 707 383
f 80 156 606
f 80 289 597
f 80 324 498
f 80 498 289
f 80 597 156
f 80 606 686
f 80 686 324
f 81 371 692
f 81 530 371
f 81 692 530
f 82 188 308
f 82 308 531
f 82 354 650
f 82 443 354
f 82 531 443
f 82 650 188
f 83 296 385
f 83 385 561
f 83 407 296
f 83 561 407
f 84 278 689
f 84 394 464
f 84 464 278
f 84 518 394
f 84 689 518
f 85 180 369
f 85 369 598
f 85 578 647
f 85 598 578
f 85 647 180
f 86 381 471
f 86 471 538
f 86 527 647
f 86 538 527
f 86 647 381
f 87 407 720
f 87 440 407
f 87 549 636
f 87 636 440
f 87 720 549
f 88 121 683
f 88 428 121
f 88 517 428
f 88 683 517
f 89 158 706
f 89 163 305
f 89 189 163
f 89 305 158
f 89 706 189
f 90 244 295
f 90 584 244
f 90 679 584
f 91 171 543
f 91 459 637
f 91 543 677
f 91 624 171
f 91 637 624
f 91 677 459
f 92 131 241
f 92 241 431
f 92 356 131
f 92 431 669
f 92 669 356
f 93 379 584
f 93 584 679
f 93 679 379
f 94 101 248
f 94 248 617
f 94 617 664
f 94 664 101
f 95 198 293
f 95 258 198
f 95 293 619
f 95 619 258
f 96 387 522
f 96 522 646
f 96 599 387
f 97 135 632
f 97 514 460
f 97 632 514
f 97 681 135
f 98 322 705
f 98 439 534
f 98 534 707
f 98 705 439
f 98 707 322
f 99 302 575
f 99 455 302
f 99 540 673
f 99 575 540
f 99 673 455
f 100 217 357
f 100 365 217
f 101 271 500
f 101 500 248
f 101 664 271
f 102 385 676
f 102 487 561
f 102 561 385
f 102 676 487
f 103 122 215
f 103 175 178
f 103 178 122
f 103 215 585
f 103 585 175
f 104 203 566
f 104 227 463
f 104 287 661
f 104 463 287
f 104 566 227
f 104 661 203
f 105 172 672
f 105 380 434
f 105 434 172
f 105 626 380
f 105 672 626
f 106 291 556
f 106 475 526
f 106 526 291
f 106 556 710
f 106 710 475
f 107 190 574
f 107 223 718
f 107 306 649
f 107 574 223
f 107 649 190
f 107 718 306
f 108 147 616
f 108 521 661
f 108 536 147
f 108 616 521
f 108 661 536
f 109 146 510
f 109 221 607
f 109 292 146
f 109 510 221
f 109 607 292
f 110 275 399
f 110 399 700
f 110 466 537
f 110 537 275
f 110 700 466
f 111 240 262
f 111 262 627
f 111 627 673
f 111 673 240
f 112 164 522
f 112 316 426
f 112 367 164
f 112 426 367
f 112 522 678
f 112 678 316
f 113 347 457
f 113 457 488
f 113 488 606
f 113 606 347
f 114 473 635
f 114 548 706
f 114 635 548
f 114 706 473
f 115 177 555
f 115 469 598
f 115 555 469
f 115 691 177
f 116 162 678
f 116 181 541
f 116 541 162
f 116 593 181
f 116 678 593
f 117 199 437
f 117 247 199
f 117 272 332
f 117 332 619
f 117 437 272
f 117 619 247
f 118 229 513
f 118 302 229
f 118 342 518
f 118 518 689
f 118 689 302
f 119 284 599
f 119 314 284
f 120 150 382
f 120 279 435
f 120 382 279
f 120 435 579
f 120 579 150
f 121 207 698
f 121 274 683
f 121 428 207
f 121 698 274
f 122 178 370
f 122 370 610
f 122 610 215
f 123 379 602
f 123 431 584
f 123 584 379
f 124 190 517
f 124 517 683
f 124 574 190
f 124 683 574
f 125 136 548
f 125 548 657
f 125 657 705
f 125 675 136
f 126 153 393
f 126 592 153
f 127 182 697
f 127 307 690
f 127 690 182
f 127 697 323
f 128 334 498
f 128 498 520
f 128 520 691
f 128 586 334
f 128 691 586
f 129 456 668
f 129 570 456
f 129 595 570
f 129 668 712
f 129 712 595
f 130 281 356
f 130 356 669
f 130 525 281
f 130 669 525
f 131 326 616
f 131 356 491
f 131 421 326
f 131 491 579
f 131 579 421
f 131 616 241
f 132 341 535
f 132 465 341
f 132 535 634
f 132 634 465
f 133 285 695
f 133 384 285
f 133 539 384
f 133 695 539
f 134 208 581
f 134 371 208
f 134 692 371
f 135 271 632
f 135 404 516
f 135 516 271
f 135 681 404
f 136 189 548
f 136 451 512
f 136 512 189
f 136 675 451
f 137 272 188
f 137 438 503
f 137 503 545
f 137 545 272
f 138 343 471
f 138 471 485
f 138 485 573
f 138 497 343
f 139 183 515
f 139 333 629
f 139 515 623
f 139 596 333
f 139 629 183
f 140 180 527
f 140 290 620
f 140 331 290
f 140 527 331
f 140 620 670
f 140 670 180
f 141 378 386
f 141 386 430
f 141 430 608
f 141 608 378
f 142 224 606
f 142 238 563
f 142 540 238
f 142 563 224
f 142 606 540
f 143 374 580
f 143 474 374
f 143 476 552
f 143 552 474
f 143 580 476
f 144 187 242
f 144 242 588
f 144 457 187
f 144 588 457
f 145 317 644
f 145 363 317
f 145 611 363
f 145 644 611
f 146 292 459
f 146 459 677
f 146 677 510
f 147 241 616
f 147 536 241
f 148 212 612
f 148 562 625
f 148 612 562
f 148 625 703
f 148 703 212
f 149 207 591
f 149 557 472
f 149 591 557
f 149 698 207
f 150 444 382
f 150 513 444
f 150 579 342
f 151 565 640
f 151 571 565
f 151 640 693
f 151 693 571
f 152 315 495
f 152 495 702
f 152 625 315
f 152 702 330
f 153 312 393
f 153 592 636
f 153 636 312
f 154 368 604
f 154 382 444
f 154 444 368
f 154 479 382
f 154 604 479
f 155 442 504
f 155 504 458
f 155 581 442
f 156 196 347
f 156 347 606
f 156 359 196
f 156 597 359
f 157 179 585
f 157 215 282
f 157 282 563
f 157 585 215
f 158 259 359
f 158 305 685
f 158 359 706
f 158 685 259
f 159 643 554
f 160 373 672
f 160 451 675
f 160 672 451
f 160 675 373
f 161 411 270
f 161 587 411
f 162 316 678
f 162 541 316
f 163 189 512
f 163 512 305
f 164 216 577
f 164 367 216
f 164 577 522
f 165 183 629
f 165 230 614
f 165 233 420
f 165 420 183
f 165 614 233
f 165 629 230
f 166 221 510
f 166 344 430
f 166 430 221
f 166 510 344
f 167 387 432
f 167 432 678
f 167 522 387
f 167 678 522
f 168 344 568
f 168 478 654
f 168 568 478
f 168 608 344
f 168 654 608
f 169 225 502
f 169 352 225
f 169 502 658
f 169 594 352
f 170 361 492
f 170 478 568
f 170 492 478
f 170 543 361
f 170 568 677
f 170 677 543
f 171 447 543
f 171 624 447
f 172 390 418
f 172 418 672
f 172 434 390
f 173 412 605
f 173 467 631
f 173 605 467
f 173 631 412
f 174 326 519
f 174 376 616
f 174 519 376
f 174 616 326
f 175 363 178
f 175 414 363
f 176 626 672
f 176 672 373
f 177 410 555
f 177 452 494
f 177 494 410
f 177 691 452
f 178 363 611
f 178 611 645
f 178 645 370
f 179 389 585
f 180 647 527
f 181 576 651
f 181 593 576
f 181 633 541
f 181 651 633
f 182 340 366
f 182 366 697
f 182 690 340
f 183 335 515
f 183 420 335
f 184 206 461
f 184 461 582
f 184 582 648
f 184 648 206
f 185 413 447
f 185 447 624
f 185 532 413
f 185 624 709
f 185 709 532
f 186 386 634
f 186 535 275
f 186 634 535
f 187 305 641
f 187 457 685
f 187 641 242
f 187 685 305
f 188 272 308
f 189 706 548
f 190 649 517
f 191 424 680
f 191 544 424
f 191 673 627
f 191 680 673
f 192 362 450
f 192 450 480
f 192 480 717
f 192 528 362
f 192 717 528
f 193 204 587
f 193 300 690
f 193 307 204
f 193 690 307
f 194 524 255
f 194 547 701
f 194 701 524
f 195 321 479
f 195 479 604
f 195 590 321
f 195 604 590
f 196 259 685
f 196 359 259
f 196 457 347
f 196 685 457
f 197 268 694
f 197 460 514
f 197 514 268
f 197 694 261
f 198 258 413
f 198 413 572
f 198 560 293
f 199 247 327
f 199 327 559
f 199 559 437
f 200 398 603
f 200 499 441
f 201 251 486
f 201 304 583
f 201 384 251
f 201 486 304
f 201 583 384
f 202 246 415
f 202 268 514
f 202 415 268
f 202 514 600
f 202 600 665
f 202 665 246
f 203 521 566
f 203 661 521
f 204 381 587
f 204 490 381
f 204 615 490
f 205 392 674
f 205 439 392
f 205 534 439
f 205 674 534
f 206 303 276
f 206 648 303
f 207 428 591
f 208 256 581
f 208 274 256
f 208 371 274
f 209 257 595
f 209 263 663
f 209 454 567
f 209 567 257
f 209 595 263
f 209 663 454
f 210 387 599
f 210 396 618
f 210 476 580
f 210 580 396
f 210 599 476
f 210 618 387
f 211 226 398
f 211 477 625
f 212 267 612
f 212 504 267
f 212 703 504
f 213 253 314
f 213 646 711
f 213 711 253
f 214 217 583
f 214 304 671
f 214 420 652
f 214 583 304
f 214 652 217
f 214 671 420
f 215 610 687
f 215 687 282
f 216 367 681
f 217 365 583
f 217 652 357
f 218 301 564
f 218 327 301
f 218 564 453
f 219 313 359
f 219 359 597
f 219 597 643
f 219 643 313
f 220 318 614
f 220 462 318
f 220 614 696
f 220 696 462
f 221 430 607
f 222 277 299
f 222 299 701
f 222 547 277
f 222 701 547
f 223 337 718
f 223 383 622
f 223 550 337
f 223 574 383
f 223 622 550
f 224 249 450
f 224 450 686
f 224 563 249
f 224 686 606
f 225 352 688
f 225 688 502
f 226 261 694
f 226 330 261
f 226 694 398
f 227 351 613
f 227 566 351
f 227 613 463
f 228 251 621
f 228 323 623
f 228 486 251
f 228 621 323
f 228 623 486
f 229 302 455
f 229 455 666
f 229 666 513
f 230 629 696
f 230 696 614
f 231 281 464
f 231 356 281
f 231 394 491
f 231 464 394
f 231 491 356
f 232 265 492
f 232 483 265
f 232 492 682
f 232 682 409
f 233 614 360
f 234 368 666
f 234 455 429
f 234 666 455
f 235 449 562
f 235 562 612
f 235 612 704
f 235 704 449
f 236 266 551
f 236 348 630
f 236 412 266
f 236 551 348
f 236 630 391
f 237 320 340
f 237 338 611
f 237 340 427
f 237 427 338
f 237 602 320
f 237 611 644
f 237 644 602
f 238 400 542
f 238 540 400
f 239 244 468
f 239 462 696
f 239 468 536
f 239 536 462
f 239 696 244
f 240 588 716
f 240 673 588
f 240 716 262
f 241 536 584
f 241 584 431
f 242 641 716
f 242 716 588
f 243 493 511
f 243 508 493
f 243 511 656
f 243 653 508
f 243 656 297
f 244 496 295
f 244 584 468
f 244 696 496
f 245 600 664
f 245 617 665
f 245 665 600
f 246 322 707
f 246 589 322
f 246 665 589
f 246 707 415
f 247 301 327
f 247 353 422
f 247 422 301
f 247 619 353
f 248 380 626
f 248 500 380
f 248 626 617
f 249 480 450
f 249 563 687
f 249 687 480
f 250 323 621
f 250 621 260
f 251 384 539
f 251 539 621
f 252 612 710
f 252 704 612
f 252 710 594
f 253 449 314
f 253 711 449
f 254 378 654
f 254 465 634
f 254 634 378
f 255 524 560
f 255 560 405
f 256 274 698
f 256 659 581
f 257 445 570
f 257 567 445
f 257 570 595
f 258 447 413
f 258 619 447
f 260 485 615
f 260 539 573
f 260 573 485
f 260 621 539
f 261 330 702
f 262 716 627
f 263 590 604
f 263 595 590
f 263 604 663
f 264 381 647
f 264 411 587
f 264 578 642
f 264 587 381
f 264 642 411
f 264 647 578
f 265 478 492
f 265 483 397
f 265 654 478
f 266 412 638
f 266 556 551
f 266 638 556
f 267 475 710
f 267 710 612
f 268 309 603
f 268 415 309
f 268 603 694
f 269 346 630
f 269 409 682
f 269 630 276
f 269 682 346
f 270 411 642
f 270 642 410
f 271 311 500
f 271 516 311
f 271 664 632
f 272 545 332
f 273 297 375
f 273 375 437
f 273 437 559
f 274 371 530
f 274 530 683
f 275 529 399
f 275 535 529
f 276 630 348
f 277 547 482
f 278 464 662
f 278 542 575
f 278 575 689
f 278 662 542
f 279 382 479
f 279 479 321
f 279 655 435
f 280 365 558
f 280 397 713
f 280 558 684
f 280 583 365
f 280 684 397
f 280 713 583
f 281 317 464
f 281 525 317
f 282 687 563
f 283 291 526
f 283 345 484
f 283 395 659
f 283 484 291
f 283 526 395
f 284 314 704
f 284 481 599
f 284 704 481
f 285 384 582
f 285 472 695
f 286 339 550
f 286 358 657
f 286 425 358
f 286 550 425
f 286 657 339
f 287 318 462
f 287 462 661
f 288 380 660
f 288 424 544
f 288 434 380
f 288 544 434
f 288 601 424
f 289 498 334
f 290 331 719
f 290 708 620
f 290 719 708
f 291 484 699
f 291 699 556
f 292 607 700
f 292 700 459
f 293 353 619
f 293 560 524
f 294 350 658
f 294 474 552
f 294 511 474
f 294 552 350
f 295 496 596
f 296 407 440
f 296 440 715
f 296 620 385
f 296 715 620
f 297 433 531
f 297 531 375
f 297 656 433
f 298 362 528
f 298 377 452
f 298 452 520
f 298 520 362
f 298 528 377
f 299 310 565
f 299 319 701
f 301 422 470
f 301 470 564
f 302 689 575
f 303 648 483
f 304 335 671
f 304 486 335
f 305 512 641
f 306 406 561
f 306 487 649
f 306 561 487
f 306 718 406
f 308 375 531
f 309 415 603
f 310 416 640
f 310 505 416
f 310 640 565
f 311 403 660
f 311 516 403
f 311 660 500
f 312 549 554
f 312 554 393
f 312 636 549
f 313 473 706
f 313 643 473
f 313 706 359
f 314 449 704
f 315 711 495
f 316 541 426
f 317 363 414
f 317 414 464
f 317 525 644
f 319 524 701
f 319 571 524
f 320 366 340
f 320 379 679
f 320 602 379
f 320 679 366
f 321 590 655
f 322 589 705
f 323 697 623
f 324 362 498
f 324 450 362
f 324 686 450
f 325 419 712
f 325 613 639
f 325 639 419
f 325 668 613
f 325 712 668
f 326 421 569
f 326 569 519
f 328 482 667
f 328 667 609
f 329 456 506
f 329 506 633
f 329 633 651
f 329 651 668
f 329 668 456
f 331 527 538
f 331 538 719
f 332 447 619
f 332 543 447
f 333 596 496
f 334 586 533
f 335 420 671
f 335 486 515
f 336 372 609
f 336 572 372
f 336 609 667
f 337 339 546
f 337 546 718
f 337 550 339
f 338 377 611
f 338 410 494
f 338 427 410
f 338 494 377
f 339 548 546
f 339 657 548
f 341 465 532
f 341 532 709
f 341 709 535
f 342 394 518
f 342 579 394
f 343 408 719
f 343 497 408
f 343 719 471
f 344 510 568
f 344 608 430
f 345 461 484
f 345 582 461
f 346 391 630
f 346 503 391
f 346 682 503
f 348 551 699
f 349 424 601
f 349 454 663
f 349 601 454
f 349 680 424
f 351 566 639
f 351 639 613
f 352 501 688
f 352 594 710
f 352 710 501
f 354 443 658
f 354 467 650
f 354 502 467
f 354 658 502
f 355 501 638
f 355 631 688
f 355 638 631
f 355 688 501
f 357 652 593
f 358 392 657
f 358 425 674
f 358 674 392
f 361 682 492
f 362 520 498
f 364 428 676
f 364 553 591
f 364 591 428
f 364 708 553
f 365 489 558
f 367 426 628
f 367 628 681
f 368 444 666
f 368 663 604
f 369 714 598
f 370 645 717
f 370 717 610
f 372 446 653
f 372 523 446
f 372 572 523
f 374 474 493
f 374 493 508
f 374 508 580
f 376 401 566
f 376 519 401
f 376 521 616
f 376 566 521
f 377 494 452
f 377 528 611
f 378 608 654
f 378 634 386
f 380 500 660
f 381 490 471
f 383 574 499
f 383 707 622
f 385 620 708
f 386 448 607
f 386 607 430
f 387 618 432
f 388 617 705
f 388 665 617
f 389 542 662
f 390 434 544
f 390 627 716
f 390 716 418
f 391 503 438
f 392 439 657
f 393 554 643
f 393 643 533
f 394 579 491
f 395 442 581
f 395 526 442
f 395 581 659
f 396 446 523
f 396 489 618
f 396 523 489
f 396 580 446
f 397 483 713
f 398 694 603
f 399 529 637
f 399 637 700
f 400 540 575
f 400 575 542
f 401 436 507
f 401 507 639
f 401 519 436
f 401 639 566
f 402 576 593
f 402 593 652
f 403 516 567
f 403 567 660
f 406 554 720
f 406 718 417
f 406 720 561
f 407 561 720
f 408 497 557
f 408 553 719
f 410 642 555
f 412 631 638
f 413 532 684
f 413 684 721
f 413 721 572
f 414 662 464
f 415 707 603
f 416 470 640
f 416 505 564
f 416 564 470
f 417 546 635
f 417 635 473
f 417 718 546
f 418 716 641
f 419 507 590
f 419 590 595
f 419 595 712
f 419 639 507
f 421 435 569
f 421 579 435
f 422 423 693
f 422 693 470
f 423 524 571
f 423 571 693
f 425 550 622
f 425 622 674
f 426 506 628
f 426 541 506
f 428 517 676
f 429 455 673
f 429 673 680
f 432 593 678
f 432 618 593
f 433 443 531
f 433 656 443
f 435 519 569
f 435 655 519
f 436 519 655
f 436 655 507
f 440 509 670
f 440 636 509
f 440 670 715
f 441 499 530
f 441 530 692
f 444 513 666
f 445 567 516
f 446 508 653
f 446 580 508
f 448 466 607
f 448 537 466
f 449 711 562
f 452 691 520
f 453 564 505
f 457 588 488
f 458 477 692
f 458 504 703
f 458 703 477
f 459 700 637
f 462 536 661
f 465 684 532
f 466 700 607
f 467 502 631
f 467 605 650
f 468 584 536
f 469 555 642
f 469 578 598
f 469 642 578
f 470 693 640
f 471 719 538
f 472 557 695
f 474 511 493
f 476 481 552
f 476 599 481
f 477 703 625
f 480 610 717
f 480 687 610
f 481 594 552
f 482 547 667
f 483 648 713
f 486 623 515
f 487 517 649
f 487 676 517
f 488 540 606
f 488 588 540
f 489 523 721
f 489 721 558
f 495 646 577
f 495 711 646
f 497 695 557
f 499 574 530
f 501 556 638
f 501 710 556
f 502 688 631
f 506 541 633
f 507 655 590
f 509 592 714
f 509 636 592
f 509 714 670
f 510 677 568
f 514 632 600
f 522 577 646
f 523 572 721
f 525 669 644
f 528 645 611
f 528 717 645
f 529 535 709
f 529 624 637
f 529 709 624
f 530 574 683
f 534 622 707
f 534 674 622
f 540 588 673
f 546 548 635
f 549 720 554
f 551 556 699
f 553 708 719
f 558 721 684
f 600 632 664
f 617 626 705
f 620 715 670
