v -0.37419999999999998 1.0278 0.16350000000000001
v -0.73816704977844971 0.93048452166197615 0.66246254031063645
v 0.096990247253360626 1.0459448116488086 0.27417768913524987
v -0.54000454030601541 1.1860615489146396 0.089633050173768922
v -0.54565219743647875 0.18310453343645966 0.44646212948007147
v -0.33065378186797911 0.16960613845500849 0.47645726173466252
v -0.55327853540148475 1.157461125448118 0.44325204189837814
v -0.2745450922194409 0.25925618827357333 -0.23248806322886423
v -0.034666369320585387 0.20291945782181797 0.67491012414695817
v -0.7720698628817948 1.2531831217413594 0.57217902314475166
v 0.2649164307965316 0.28825529471896744 0.55716482706976755
v -0.4847070704591957 1.039419919482327 0.054344976796006313
v -0.75096147247444056 1.1998214402926344 0.034553998796893318
v -0.62895427051910591 1.4142394979072819 -0.52677569370882582
v -0.66263642499482589 0.98005825513992395 0.65060301822159428
v -0.56761763684338651 0.27366040638881528 0.036242451868273656
v -0.69719958623973965 1.5911983513238881 -0.50622674717085836
v -0.46559373344238003 0.33598975368157918 0.48086904553531862
v -0.0010473852752219597 0.52335900259946699 -0.31023536718383771
v -0.53158284808725031 0.23344785682824692 0.0042545149443358569
v 0.52042337690052276 0.42034474082802487 0.23781653650996673
v -0.84892558712933786 0.57672296967920622 0.028222842615787003
v 0.21047728628701307 0.23182117982949804 -0.22968982404425967
v -0.69677987798183072 1.2725470376622832 0.10225598338158398
v 0.10534217760130453 0.27070049392476403 0.62973301707957607
v -0.16902610132504009 0.67283359898536266 -0.28756006695240677
v -0.52764210950404777 0.29054561098122356 0.39583652878167125
v 0.24299720957670948 0.21422997792588219 -0.21472685580500397
v -0.72576597926945219 0.074900774425513447 0.050641676740099548
v -0.72601288009534581 0.07489687153230476 0.050784618106138331
v 0.48920185701180735 0.88463515180025398 0.23303016780819427
v -0.95297645413582455 0.62764412311060902 0.24577356941605369
v 0.062620388213593281 0.16311769248906613 0.59774750393907083
v 0.18660419844449319 0.93655359411258821 -0.0427487947430744
v -0.35242423854774907 0.033407815861768601 0.22268503398601172
v -0.36777167593614712 0.97284396406513274 0.36067211564176505
v -0.59809037050240677 0.99641655288988151 0.5488202144301958
v -0.35324056211746618 0.031122872880785444 0.32281187950352302
v -0.37151646322191523 0.047289042342576644 -0.1089428637440908
v -0.36769218076655796 0.94785383995920713 0.39424264141350951
v -0.57073605890982615 0.14804725725347442 0.55091616518593756
v -0.3500616633703581 0.029859294501900349 0.33648497809660954
v -0.54883118979130674 0.14059702394176052 0.29288819708799096
v -0.58472757901899619 0.037416474601157858 0.54698011580159245
v -0.35228035571839306 0.033778039330151166 0.26847039782402426
v 0.69000306248842003 0.38722350570594921 0.14366381967262831
v -0.37719940695620385 1.0220268579164991 0.23600333042591876
v -0.64196813015674103 0.043600546730510878 0.32330500987810129
v -0.75232418995944228 0.98029111292673143 0.66192634948127904
v -0.64391543985922595 0.041461419830859624 0.27251964514011806
v 0.19327171708833929 0.14466075476906895 0.51547324726893951
v -0.42901547665159556 0.98865276655221679 0.33734047940878709
v -0.31338873620018765 0.076914822725395599 0.087702102068597479
v -0.54433486914220575 0.94672693184004142 0.512261871366819
v -0.12466146781953732 0.84186118033678836 -0.12245696387441153
v -0.10400598348790419 0.28838278020388475 -0.28723551484867621
v -0.39248292655781547 0.16897446682112269 0.50244864008595724
v -0.36013419329232582 0.060780687269968173 -0.24942673677909352
v -0.64372877755740332 0.13116756253580364 0.23326168278108397
v -0.66486108134326882 0.049864031199872198 0.3643527681103107
v -0.26002989431241302 0.92391442180707739 0.39773343418718493
v -0.28909508412151913 0.054115376094847727 0.19251433872800475
v -0.56527083537321865 0.037072571748079319 0.39490969776357987
v -0.344117878548242 0.027475006098123315 0.21875394229419487
v 0.0450939115707766 0.029171387535307451 0.280500045416196
v -0.34934354667367556 0.071910663219604834 0.57235974020078084
v 0.27570024569708473 0.023045750380194088 0.21524000796978951
v -0.13190680501133337 0.05677356417750469 -0.1140157605603918
v 0.14652870989275266 0.7754983755249949 -0.1400303684641965
v -0.25006358683791946 0.79230948403903734 0.51320720559933808
v -0.18933587403319443 0.82999102102787303 -0.14057517256463659
v -0.45059937777942111 0.14200601180074179 -0.12110704325354524
v -0.44615104282593737 0.951108327646634 -0.044703930433770279
v -0.58277898588746357 0.96497719939504678 0.53859922079136568
v -0.63222264008402351 0.035693748603881692 0.21156418610262742
v -0.68880144213591699 0.14087533935653504 0.075045046412897054
v -0.74463937176881634 0.087483542393230251 0.13639220431002136
v -0.27010858466281229 0.050899969658738053 0.49572809593723155
v -0.21770071545540004 0.07067568923422643 0.23315586014022374
v -0.066670794731498617 0.13409627184946288 0.5760205053702836
v -0.40872475010747955 1.0112928941689754 0.2807073408054151
v -0.30061054559598538 1.0057006734401732 0.20482880383056115
v -0.5509403023314513 0.031919458764724851 0.1775836089047288
v 0.1181310330277467 0.098480779354162717 -0.18793452381258383
v -0.54473805198280545 0.036560642677235917 0.53025566096147014
v -0.54836122178227642 0.034014814080415845 0.013163776245589865
v 0.28173122428927327 0.019876795224319375 0.16425553244294641
v 0.050962444445504192 0.021061680471845142 0.25047212324044676
v 0.06263879756528519 0.31327467461967895 0.66498420084658827
v -0.47811760415836219 0.82305169251190258 -0.10907317282558586
v -0.53411544985601767 0.26029853260031544 0.24051633553091453
v 0.27845604851078382 0.32646810276694455 0.54439507914791829
v -0.81117820639659521 0.52263799661519961 0.44489758816366215
v 0.21369908341764352 0.39221875834712377 -0.24195223459782905
v -0.5006078904499347 0.16807669592685365 0.47277903145062328
v -0.36657535087565424 1.4191474183372548 0.067462894402766954
v -0.40664714587746176 0.045576995210673661 -0.065044489236451827
v -0.48358355489532384 0.09963103812887901 0.55338796776214794
v -0.50939855252775978 0.1068039096091908 0.56635550174441729
v -0.48092278251005227 0.060544875273549646 -0.15244313075410543
v -0.47089893464323879 0.11532733456085978 -0.10162867220346829
v -0.63997124988054033 0.062729079783962222 0.29413265216347795
v -0.64791697197753306 0.091723235512574927 0.26383236111425851
v -0.59566257781983911 0.17827046167643879 0.047845232371997608
v -0.63684125344684683 0.13191852244861438 0.36989063557169349
v -0.66546877684406036 0.04134598764216544 0.0094172468959430496
v -0.66456594379644307 0.046238406377053544 0.48612331151594951
v -0.22487785135413521 0.9315353716840935 0.39881181363746221
v -0.60780491980751361 0.89422735118871954 0.52014737589793347
v -0.30544198739667439 0.94575024533671326 -0.005069390352779056
v 0.14608511327247223 0.184457785861459 -0.22099313309983154
v -0.16945893494266553 0.18879589625421492 0.56506603220173224
v 0.18130786092133422 0.038398135665611656 0.51697312063732326
v 0.0090197010938115815 0.077017229757595423 0.046305529365418624
v -0.070429691693382673 0.075298886846990737 0.45300690161687912
v 0.1288097772375327 0.026391403315955596 0.42574982875871287
v 0.032435972253855805 0.28211597683982842 0.6495411884104868
v 0.010272191577377823 0.028784926826266839 -0.15257357607803612
v 0.14421606126948053 0.32332447776550405 0.63421520801006548
v 0.35193946075654581 0.85457816745766968 0.39724522302260212
v -0.56132776401242246 0.14760055967457647 0.31890796423828655
v -0.57426444218647799 0.34473046315221317 0.020113946397681458
v 0.064904177173201294 0.03531808123586639 -0.093792112428708052
v 0.053102067050201596 0.024447330102713702 0.086495914293948262
v -0.33425111706071697 0.038072666542553382 0.45897849834016385
v -0.26361387301736872 0.30565307205314168 0.46899490945922928
v -0.34015268583344849 0.034497352189389041 -0.14722001973068197
v -0.15616821802123215 0.056117442294122924 -0.20986602663640383
v -0.52532932000212573 0.16294423652057702 0.26545467977879905
v -0.1400284688554575 0.049882604686944297 0.61790959952042146
v -0.5772465056807039 0.89468058019443431 -0.066423525400174904
v -0.34742919908033715 0.28369009110636217 -0.033768880779240555
v 0.14571354961395286 0.56366374819771448 0.65170784646603586
v -0.44590936276614462 0.088490952917277196 -0.20085294432623282
v -0.38612353328851406 0.042467518635916551 0.34168506643851926
v -0.66364169878152035 0.86320849111670428 0.58590208433584234
v -0.44637308940682818 0.070138203430390053 -0.20904825942354488
v -0.24639703934097859 0.14152025302592505 0.61044456379756717
v -0.41088709799585033 0.9320008151201602 -0.053688803732370199
v -0.44096159376004579 0.15419736032446157 0.51745893519557162
v -0.73066299989382555 0.076845385297043406 0.069858553535030343
v -0.4760402456049096 0.94506441252562767 0.43536964867930045
v -0.38820944017597703 0.93423518181169352 0.40090332011220009
v -0.21612513525915264 0.040941751034739751 0.63292648693191211
v -0.44003685233153156 0.97010774978631686 0.36263241699879578
v -0.61430174502290913 0.095667197933284806 0.553706249019703
v -0.64856651467311677 0.036464388720515786 0.015849141249434137
v -0.19214355769427419 0.96791389698394958 0.012418343374385918
v -0.3113232807449034 0.077572744641728919 0.079555576032599995
v -0.71683616845024767 0.8504273150869327 0.60334732709366612
v -0.67907806249005587 0.072405779711492729 0.39310476492500118
v 0.010337286791625178 0.025189393010898994 0.49421881803340373
v 0.096191590528959703 0.12411805433073739 0.54498859166983959
v -0.6543530346960329 0.039631029740196222 0.44063296371505861
v -0.62441401715353173 0.94408276449651829 0.61025929022716952
v -0.66519721422505329 0.11474724441041156 0.46976169105459442
v -0.73087486005492541 0.041289265906851051 0.081340613511836884
v -0.27314430065961304 0.064535909142948947 0.28385659143698216
v -0.6061624673406858 0.15955962249277084 0.52187159470627031
v -0.6715430292842034 0.95032763818171306 0.66136015988543229
v -0.69739029777152384 0.080588316389659936 0.016414527000145118
v -0.63889916747700382 0.051980562413618953 0.3070683435675457
v -0.031221362135286295 0.024404203217419054 0.5423769076242716
v -0.04862653593637703 0.9542833555269814 -0.043008036325544126
v 0.018835787075810056 0.12494820322550752 0.55035964807446203
v -0.20223837980598777 0.069548487132091857 0.31796309028490288
v 0.14795217770899416 0.11880053565237619 0.5296406851057156
v -0.3057486787146968 0.042189343084647751 0.30500020755199564
v -0.22507911372496592 0.11912940195683876 -0.23031493538753164
v -0.0019708580393789552 0.068911621885753407 0.29135075371626645
v 0.16018735707762205 0.031000744483314687 0.23688238531094091
v -0.099385699212131959 0.15474919825846956 0.57575599923941301
v 0.11748663346024642 0.15800838424294905 -0.20764106313976979
v 0.21106564617365156 0.16089354568047864 0.50758577556237749
v -0.2611760117226512 0.16799661738092483 -0.21157498401660088
v -0.10370182009943549 0.081190850178144411 -0.091622917623289266
v -0.32615288131573944 0.035111106690041013 0.18341889149679003
v 0.098950936683939256 1.0596047964169113 0.16361831747434777
v -0.041869479418614415 0.72521111112263881 0.54524907569669712
v 0.61699041164647028 0.13990940046856104 0.20957616965140693
v -0.03950764588372211 0.2231377573252748 0.67241087130982413
v -0.7171761285812186 0.95378624037418092 0.67016094486842004
v -0.34411238639888869 1.0018472758440999 0.30000216092252791
v -0.14263724310227366 0.070211838259863282 0.33456364845086833
v 0.070395536629725974 0.035056862246827337 -0.17221198440027957
v 0.1516661634075763 0.3020312380582259 0.61088440161978763
v 0.060742929258573088 0.021559958870609058 0.50452000623336457
v -0.54875616401246274 0.039428112233132931 -0.038151213877485969
v -0.37206901654955354 0.19748129829713743 -0.054837512552414286
v -0.10060804023836585 0.93482221387376907 0.45751575264319577
v -0.08734481415443715 0.14147185471511434 0.58219041131161797
v -0.29362616185919188 0.17729147306002097 -0.20667098308174708
v -0.58796178136208144 0.13322150996623186 0.57159474863620441
v 0.35732755307567693 0.20111317657237304 -0.025709952399851847
v 0.31497276120396495 0.95152773734371143 0.13360912642500605
v 0.21759102604674113 0.72564782627797741 0.55888861464355899
v -0.82131459593972234 0.90946308342649373 0.6248705248536558
v -0.6277206046738073 0.7762960341492684 -0.092911102959596467
v 0.016787497420716002 0.829599769332518 0.53312292996074617
v -0.48506351595571667 0.51926840963596843 0.56128681276861292
v -0.26620958176060849 0.56494370728016918 -0.33123078948102291
v -0.23537536478450716 0.59322251230380585 0.63262493769197792
v -0.37379269968858486 0.049388615363214622 0.22994753950633237
v -0.4078071922087258 0.041592901152648791 0.33154757301331378
v -0.40846029949076235 0.053042245500653208 0.53309320069727339
v -0.46196367459389065 0.070400261646742526 -0.19294523281236109
v -0.70214083762636892 0.059598404833360208 0.23470905709979162
v -0.39794294881116615 0.034172380701182288 -0.17505135336177058
v -0.60159535863213232 0.049854122707932449 0.56294091050339745
v -0.46913019451828097 0.062514074331136205 0.5603608407400138
v -0.41104335556076732 0.97670176168079281 -0.020179971493254751
v -0.38644718714057735 1.0196573140815459 0.075396396545003047
v -0.41378017948533957 0.043086730900835542 0.052613352547259191
v -0.43333138870839621 0.1759603429908293 0.50284343954808131
v -0.44157158532159296 0.11495894522104763 -0.1673366837967657
v -0.64905811153284509 0.10986594524401713 0.35776175049472136
v -0.24368912938372725 0.94606196769907114 -0.010254662914601673
v -0.5122816314671208 0.052646360752037651 -0.060738407732822117
v -0.48422992712772389 0.037600936219450973 -0.10762007357065551
v -0.44637365084668656 0.12405940891327417 0.53948947525819069
v -0.42405165851793836 0.15985286755821462 -0.15032078829127174
v -0.70527516776324684 0.058301851301259387 0.02169103614889659
v -0.48582777201404015 0.033048370309441362 0.14436194993232204
v -0.23867974654776089 0.12410319933579905 0.63294962571282698
v -0.4723435530330885 0.17159142215119055 -0.027936759907897086
v -0.65430363308555906 0.14216618889011573 0.44576279781382222
v -0.67857520779336999 0.13320401326930328 0.041054306692481661
v -0.64254402044758707 0.050150323191710547 0.29159578674980746
v -0.48299911442480969 0.9803898428245863 0.44202174163308444
v -0.42209927793381541 0.034519306243905493 0.47652066533023962
v -0.67333977818127744 0.065837745370783435 0.49060699800311225
v -0.38502315029980422 0.10014757140340751 0.52135881998235534
v -0.49016140434553823 0.074955769711715456 -0.10818431442523868
v -0.63310379097820657 0.03914467629632977 -0.001533196621722008
v -0.64066980165285803 0.081833995928193015 0.53693132546489386
v -0.46935463098822688 0.92498221792633206 0.41930648212776478
v -0.37957556661000252 0.12948976458377665 0.5118806216898939
v -0.44936947660382648 0.039430804282451631 -0.19557121383630965
v -0.71689069643719594 0.077288885142753394 0.033273603341430605
v -0.63703812249740199 0.038381144508940049 0.35126320652338139
v -0.2729388353377073 0.15239026976945974 0.59993202004578317
v -0.6625057929823337 0.88413342755274638 0.62445316729442646
v -0.45620170764343354 0.88843437995579888 0.43980444558677745
v -0.74375905022764488 0.073055955283409552 0.18686888012429928
v -0.20950421333428246 0.038168984486867924 0.53673287126987834
v -0.65340375348574686 0.052177728362111556 0.3412928283307653
v -0.21222466271745241 0.93342590552787397 -0.037515713026620053
v -0.66335906031024117 0.17095345849877144 0.11518311489688757
v -0.22170987871931785 0.91920451541679205 0.41670232419605979
v -0.42219362633101565 0.044598330402940298 -0.020776217025274449
v -0.25511764635194661 0.06907385800574177 0.2712309911256286
v -0.67474512555960231 0.9986311481589738 0.007861934263675199
v -0.6843070035350306 0.061888555149016561 0.43576914619444096
v -0.71957696205502975 0.13098077267706856 0.13910593452523395
v -0.60529846561598177 0.15450677632651214 0.37532493390953331
v -0.65017412640882311 0.043678426935256004 0.51191043647701984
v -0.62503054374680456 0.86364824687353403 0.50004464867592002
v -0.27171240636213584 0.032980753392655326 0.61185998851868328
v 0.21918215943096053 0.89877622428783255 -0.06186821935078516
v -0.65929906935885962 0.038880223368092506 0.23766437049338515
v 0.21238372355318691 0.15987220273528488 -0.16407946307803462
v -0.67708038352671807 0.93113904998519603 0.0084937556667157143
v -0.27574505914292757 0.080859562766955662 0.63836940613629134
v -0.24972952489474776 0.98343361425938858 0.087734450106304249
v -0.60532477966990561 0.98090893447944638 0.56554658808113756
v 0.21708924987955058 0.11441396224863484 -0.14859397044476738
v -0.0082568098866139875 0.063306058413879276 0.24970113220856688
v 0.1596214729209465 0.022195661379565187 0.069544707459735636
v -0.01244972760839284 0.064791458732792989 0.12951488118422666
v 0.11708223341543003 0.023964175208041682 0.29334211540178984
v -0.61812524708079908 0.18500154225344437 0.14161946104608436
v -0.24450309443992368 0.062227218367443833 -0.22730109539639942
v 0.17211987790610031 0.023808486475820213 0.369300753138397
v -0.75333686432576519 0.062507544096210524 0.15464558484734692
v -0.69012588814608988 0.089931066021391198 0.23550695185218548
v 0.18438291907142682 0.97191684196687089 0.0099660693958021785
v -0.27966274000599334 0.031510815095470997 -0.19507716470709155
v 0.20823653950200516 0.08126498989157685 0.5184054872920969
v -0.67683383052929047 0.088323775748672936 0.3896214967286567
v -0.047485054576260267 0.16106776728170002 -0.24288162615791914
v 0.01425008412932945 0.039432410032670853 0.55945360355481977
v -0.30578034443024293 1.0051601311661411 0.24374892359930705
v -0.65966387550670991 0.34211890677644102 0.058403910019921283
v 0.053175263323407503 0.078901612131925619 -0.0093879792507738993
v -0.11284892212388546 0.1666265506803096 0.57676347853839838
v -0.70460398256865164 0.33126527932573502 0.16615829880510058
v -0.1175969728934939 0.31488075306097357 0.64043862076682145
v -0.70951280164367836 0.88562196069699628 0.65096537952069911
v 0.027818785392384103 0.17595473269844186 0.60619180343538548
v 0.23989447646889642 0.16466088460278541 0.49204061048720937
v -0.10289068140761715 0.99296640289263693 0.023771673661915918
v 0.11118836341398106 0.11152769263167533 0.53860173434146374
v 0.10852177035203787 0.062247062770437338 0.3957775851299315
v -0.045843650809279234 1.0251556475764636 0.35177214564189441
v 0.38085854074542863 0.14930986398778637 0.39129547644539808
v 0.46905304809965642 0.81890468266753991 0.031523530580767629
v -0.37916376831176068 0.030673739468237145 0.13395202700246869
v -0.46215883188966972 0.98628760774604074 0.41009897033698389
v -0.4679334473828442 0.046852997898482705 0.23004912263822469
v -0.51623754222091356 0.96436509846467577 0.48737080697343532
v -0.30493114015577311 0.069099099440087366 0.40241988314290855
v -0.048687349061483982 0.06935303941185883 0.22926063177243938
v -0.59498556875422592 0.96188253344964902 0.0049960731940356705
v -0.12058705399249429 0.076541000432814019 0.46985113388616101
v -0.55238982963641436 0.19153335305778008 0.40674443806276378
v -0.36094321034158577 0.084618608219828056 -0.069455116896840155
v -0.29943413534844449 0.038957821847107985 -0.22797148738987547
v -0.30628472963379338 1.0002470430717154 0.27794665908348992
v 0.072333690574245449 0.066060080518855313 -0.0082595540995820758
v -0.35454604030462322 0.99917351888030814 0.031979809437151341
v -0.33954453528170719 0.11090051199347362 0.58178487666636858
v -0.10608024423098375 0.1602781649469906 0.58305556402992065
v 0.34677497227354404 0.32943946361065946 -0.13504187022650377
v -0.15339087658466402 0.046070867063306861 -0.20840044679621944
v -0.33638714786664786 0.22924138675534333 -0.024650343599857467
v 0.15923211291908651 0.022465349715975667 0.42841055266175276
v -0.34361163981503118 0.39584731257205863 -0.12222517677098632
v -0.35616263610731674 0.80002000887867297 0.49410236211463282
v 0.48644460416753998 0.36444275455733183 0.33248646493185186
v -0.39610662278094 0.36751533523238156 0.52860654346759173
v 0.2927151248965903 0.85096510296448435 0.44876443613690542
v -0.68688639118158423 0.61918179662667439 0.57392624995710495
v 0.047562309554026849 0.71922894670962179 -0.20159190558777168
v -0.72140203962145533 0.47726628216226491 -0.079871897914784523
v 0.022443344904362342 0.31497609255293091 0.71551984479665653
v -0.87274594927586513 0.8390001184980318 0.45348120583968499
v -0.39032076970394525 0.047936588496113361 0.52767501388904059
v -0.46311694988692315 0.035612431464873452 -0.14520523052393547
v -0.42808788994956565 0.041750543658301782 0.024117630560757899
v -0.43006179151826834 0.031705399318233088 0.36891911077514367
v -0.43240681930734653 0.9603349004777465 0.36367404333239023
v -0.44104607407431967 0.033639176455573107 0.15162214439387728
v -0.48492639470039456 0.90001515189753811 -0.069739010328325773
v -0.39225265035073248 0.078274218235612231 -0.022590508155192708
v -0.43611910889559558 1.0188450583146582 0.044340740567722553
v -0.42165898889248665 0.13961034638589875 0.51965977489142834
v -0.4110152249954856 0.94941885042211416 -0.043363522395503791
v -0.71257022360162303 0.10464623568996148 0.065809235880650158
v -0.49023285450885562 0.058543290055717005 -0.11630608805063557
v -0.46430884505886094 0.94845847263837113 0.40119992412228328
v -0.44899245211913769 0.17530294788773323 -0.039526819199120877
v -0.49657215249824926 0.036929591987835603 0.46152222807293591
v -0.41965865131676422 0.065819177822884253 0.54117171819385812
v -0.47390157480345957 0.059884828521459328 -0.16515853811138553
v -0.476354140254304 0.031287142438346162 0.37383719958794309
v -0.43105675983612096 0.035572454555008376 -0.19345733322977998
v -0.40389675012557297 0.094357553944190473 -0.2272087596262172
v -0.679762696961283 0.050127341545289548 0.43560904314026083
v -0.23152962958944012 0.1093820531449043 0.64171703398406121
v -0.68254330488956438 0.073019610067379073 0.24975742639166082
v -0.38975060539095568 1.0037353642473223 0.29728427055821049
v -0.45951755830651003 0.91083173197953704 0.42081699669407108
v -0.24182900971628041 0.96998948440317434 0.039707885937703594
v -0.603064960910073 0.036391010073859996 -0.011703006737362551
v -0.4998168900174878 0.053530675357353071 -0.077552323361332998
v -0.63854917809257172 0.035047745022390331 0.13701686909851729
v -0.66979797815146791 0.10724339690738638 0.014190713154995694
v -0.64077224088108087 0.88193125184486232 0.58734739405637137
v -0.45912064029077204 0.051164809184326428 0.55225447998735255
v -0.23021922135882422 0.87956260866648417 0.44094033352472506
v -0.69826724673243568 0.88721768632550813 0.6465678835891987
v -0.43694266121673248 0.16264175272544043 -0.097802852863646775
v -0.7076266576718151 0.043085223064361342 0.033003904661426935
v -0.66495964779841243 0.1247760865378213 0.45192875630136881
v -0.37196481944280174 0.045585586784740076 0.20747761284254074
v -0.23095259222338627 0.076604010905944306 0.052004677552163835
v -0.64696784275180741 0.069426287917767934 0.28201899069191383
v -0.39052268054296552 0.91075708483315254 0.42508587913517148
v -0.23493830829030357 0.16722786566278594 0.60402719089073253
v -0.25494061358396036 0.069286892115908397 0.32126186072724133
v -0.25809395433539845 0.069397788712293518 0.20918141791442299
v -0.65342417927233154 0.15833069258544424 0.066088441728730907
v -0.58973961312413969 0.15512548982689689 0.016191133526899798
v -0.73265944526010096 0.10801685694807238 0.17615690069529896
v -0.73583653984236375 0.041689731316308258 0.13615713106376134
v -0.49653590374224033 0.17581522502697927 0.50080765644806036
v -0.50149213198662557 0.15761183598512502 -0.02442445148146323
v -0.30505951287094779 0.11587886035882532 0.60815004273355044
v -0.39076654940525796 0.061532022037381687 -0.24274291550773092
v -0.30017973919894414 0.065806356810073047 0.36521436553008774
v -0.65560923962021855 0.04252098137335656 0.35574336200936379
v -0.26274571608758096 0.9565242464264786 0.32895329837028126
v -0.62501879307237274 0.03792702601502311 0.42247384810562083
v -0.45323138153944037 0.049425386879394975 0.1859817289961713
v -0.66149431307168549 0.9036776688744802 0.64365338113774939
v -0.36812880908874107 0.041132365487944501 0.3258129733629801
v -0.64579501967949149 0.94337328439049128 0.0069562025463038944
v -0.27636764302160216 0.99637952133569407 0.21173732758547287
v -0.28732156455632862 0.99024406996464864 0.11126808047998017
v -0.60358850978510292 0.13997580940122675 0.54290290268077968
v -0.68665013864533686 0.062904473098685035 0.41791688507149743
v -0.30368255327403448 0.033223749440251804 0.24888616785775972
v -0.2936517534291615 0.94319596557922603 0.37131230315665331
v -0.032861543710757633 0.043912609671233942 0.57750347852217532
v -0.6528499673550695 0.12957025997209515 0.38876739193479853
v -0.42242430708178308 0.99519078170232156 0.31535655552343295
v -0.38030607782809006 0.029902409374204592 0.17361925236901585
v 0.17565317207139719 0.031805104671647925 -0.078873300932530782
v 0.16998812363441498 0.94463975077913898 0.43099287835263078
v -0.31097589604608666 0.047175862169783957 0.60747642190970907
v -0.64805688015034268 0.053344133854070198 0.53008407621594988
v -0.23564444602997697 0.076987866963732082 0.46515263392166795
v -0.27511592055731632 0.19878843326581694 0.53049941534921352
v -0.4977463855198751 0.95728126061617402 0.46428554598408606
v -0.050610810708249444 0.10926107959456147 0.58118681829691521
v -0.59899160779002936 0.96220412693981328 0.55437574869494
v 0.19495332609775928 0.10843863775011936 -0.16867531821674228
v -0.64766823560900666 0.31772179248769561 0.11761966929063196
v -0.24861539801951182 0.04607241819929276 -0.22562517183946681
v 0.16191594518396313 1.0036007451885147 0.36559860983394177
v 0.19386235745786176 0.023487487796220813 0.075920421910059835
v -0.18778667354553608 0.19406284117078557 0.55573256283903749
v 0.018569509248288218 0.033548402101872259 0.24893520017164741
v -0.38940173293992847 0.18020509529008344 0.49880302875462146
v 0.2327279213410467 0.12132807003602113 -0.1122784071591805
v -0.32792836006616888 0.084770639225224292 -0.09860942460106896
v -0.056274447914504408 0.15700597208829503 0.571400210928529
v -0.20770191540574365 0.053420423529543778 0.64214297742439086
v -0.68962693334663039 0.14114745534333739 0.073848026942266762
v 0.13211628065279099 0.026953913476167678 0.34861834799717595
v -0.02517212471315405 0.067760434282365223 0.20116532167022483
v 0.20109820094531131 0.048586743356921633 -0.057721753409288312
v -0.58886903307289307 0.11457466152752278 0.29047479142805616
v -0.64337347418554258 0.94847339292534516 0.64235122032822189
v 0.22952097633607771 0.97252370455478299 0.35434913724610789
v -0.71830487025560652 0.13487320779631065 0.13405034928136852
v -0.53111254061591595 0.3062598812199287 0.37822222026615565
v -0.58963595076915254 0.31416225349603227 0.065110647958306608
v -0.59681429105557493 0.86477854630772089 0.48165427443546788
v 0.15138892055202827 0.13598837233280128 0.5288801177309479
v -0.035179415182185841 0.082521972712529354 -0.068265758495717407
v 0.17375034617869484 0.17806506082915138 -0.1944385501632849
v -0.63033813369453173 0.29593979083244998 0.2137105494471977
v 0.23252692096493718 0.036425515992822788 0.24212915966349752
v -0.59226470803249143 0.034037778861237898 0.024811930224958628
v -0.59865816642336334 0.17780619113291782 0.49129332541177756
v -0.65044453984696493 0.38314901352585462 0.0083900683413778952
v 0.021890241299866921 0.031870920863205789 0.11213833664825963
v -0.16153967867919009 0.95232801630699582 0.40477000044586625
v -0.33851965641463749 0.031833985648913231 0.53785885808807288
v -0.12827793899190906 0.32860150872474775 0.63419813403113967
v 0.021255758166931042 0.12770113696744673 0.55287362499965309
v -0.29948903986385828 0.20013636651943592 -0.17134944811460456
v 0.20734332973814501 0.31585095937513485 -0.23007446902140238
v -0.12572415041843502 0.23543260820088191 -0.28201700042309563
v -0.8953532056943827 0.93358721226840824 0.10963383027131206
v -0.87059009922455943 1.0216112057792328 0.67550517247962871
v -0.48303245485879409 0.035836168031611652 0.52588816308807251
v -0.49692338045453455 0.03118489519456847 0.14146917972859563
v -0.49006280640081812 0.033097912176248613 0.085330145826733372
v -0.20824818640669082 0.10432714180979065 0.64149122624939869
v 0.10922963228983193 0.17153628774369997 0.59464586472331982
v -0.32155980369356335 0.1191753418607869 0.59454217887216065
v -0.75025786133757122 0.056481249583022648 0.17719289010084549
v -0.73982407458243116 0.1034569020666187 0.1008619708768236
v -0.37205723353871401 0.16632381912604974 -0.19403091358624389
v -0.74353100964327823 0.10810084857587442 0.16158677081309428
v -0.53707833133845329 0.032590780136263688 0.33390642194914522
v -0.52074338529327502 0.1921332363484822 0.47362487031519385
v -0.2592671539595004 0.080462866688024604 -0.031899907125742838
v -0.15949572564469733 0.070911086979219468 0.21095648482586335
v -0.54152450939176322 0.88249826720983127 0.47155287273888324
v -0.59400488731369927 0.11635298751402859 0.28054895262564156
v -0.49241054790769689 0.049181164398328849 0.5669500412033005
v -0.11806330282013407 0.13071185463197138 -0.20475433307370752
v -0.063870270806423893 0.94478517474785018 -0.05421571619310607
v -0.1602815498611895 0.32725414386930823 0.61278414314264318
v 0.074467926567407847 0.069864302512210527 -0.061393651896968611
v 0.060124969307289521 0.06017649416894446 -0.19112689309954026
v -0.34005439494846418 0.041728251215951001 -0.24018633480358476
v 0.12328541597970932 0.031334938228190272 0.099301852298378623
v -0.33122794286895729 0.90761581825404603 -0.059743302521536687
v -0.1546885845022096 0.92682479764132619 0.44216349545712896
v 0.22274384728236182 0.023810920835394225 0.067186613280562843
v -0.17142754207130301 1.0072637127844071 0.11341146294723972
v -0.32390130000012535 0.19589873869062169 0.49599855129526926
v 0.097862672173194068 0.9276472877824572 -0.083954911311753089
v 0.10106219106590389 0.93575737940185433 0.45291130105284721
v -0.48464222870859641 1.0363872910024505 0.054959340156351975
v -0.71247788765399533 0.32459100816947506 0.25340658000883798
v -0.074728007777106267 0.020867276724961092 0.56857693022758482
v 0.10436637974960661 0.073096790084073979 0.38625652525249343
v 0.25248353748494523 0.90792791088064351 -0.03822101087703042
v 0.22829492141242536 0.069293641256440719 0.0034865951528028805
v 0.29225253566295378 0.10264640970542481 0.45251812047442036
v -0.20480735486408161 0.3533504369186547 -0.32308232825731709
v 0.44738638537176284 0.44836690511636251 -0.034566850422959143
v 0.45194644030033604 0.053841464002248048 0.12282316273622886
v -0.5828720897168338 0.2689275684549724 0.069358830208374772
v -0.7448068176045326 0.80625116716485623 0.52011492239905222
v -0.28947169450195392 0.54505171372897798 0.52945668675905566
v 0.20265906535450354 0.63326584222657012 -0.21719904688240352
v -0.63411249006989712 0.39778898479369007 0.49214570365158394
v -0.72986684730999007 0.82852812051411373 -0.048012074437757721
v 0.23673704828694958 0.47506134752031975 0.68294014612968201
v -0.4214589902885495 0.12113161414462378 -0.19602026666511654
v -0.39131880397292779 0.042815523903604109 0.52269799887052848
v -0.41803696991370698 0.034452283084049261 0.42967868575654777
v -0.42302364927391212 0.036102412462610249 -0.082314045492921109
v -0.38596909638768756 0.044076737564359279 0.29953961547421182
v -0.46349963872207656 0.046029858087807497 -0.18160199918841921
v -0.38624111337136641 0.11858672094680747 0.51517680620345185
v -0.46301157479073735 0.038990865572503412 0.53372895574550505
v -0.43020016640551428 0.18471330803967939 -0.048414564286965174
v -0.38006893434575917 0.032888247748317771 0.35036017102078015
v -0.44066397104214994 0.034270545993828089 0.049686951737973023
v -0.50590612669867074 0.090211644134069166 -0.044773117630184732
v -0.52095023306743837 0.17931664419897583 0.25612552845830078
v -0.44591702485739415 0.92872927400392713 0.39934091007620537
v -0.45659322664893148 0.083278350046147087 0.55182756149493994
v -0.407098168637122 0.90657352499715005 -0.065340224709538069
v -0.45010737416328511 0.16111669035059889 -0.07216117521629084
v -0.41574171934218473 0.96292333440902356 0.36031967970922113
v -0.48856373100704736 0.91262560862368924 0.43744763122870828
v -0.45465809777876787 0.91004164915788122 -0.071598939892565078
v -0.6264910414765994 0.12477600181134348 0.53481274801986589
v -0.18975967344833694 0.89730721602106533 0.45376619384653327
v -0.40586765403429492 1.0023494422479076 0.013470017628647843
v -0.43068515397241541 0.039284876282043163 0.00010178456243584867
v -0.48512013246899638 0.036147623620912783 -0.088574725251879094
v -0.4164241897412132 0.04790731775068395 0.17535911513364982
v -0.42682522449445165 0.030425730267701772 0.14899505360303439
v -0.46672891572013553 0.17542988230366882 0.49874087304202319
v -0.67253606582474368 0.044615860714005556 0.40110363138196825
v -0.41045944168700238 0.037144565411774785 -0.21700076535594298
v -0.43496925583489504 0.14654165237769742 -0.15688117131801527
v -0.69935723658903415 0.11311399554598729 0.035318311253454603
v -0.62116963789254742 0.1008366456430366 0.27987344418917753
v -0.48230046897876344 0.090626483728083185 -0.13325699803687299
v -0.71145620691671563 0.039583143285869593 0.17895586860702525
v -0.60231076279063778 0.034114269606788303 0.13230759668503153
v -0.64212995246235904 0.074583122317659872 0.32799104085223374
v -0.48031261424285721 0.048952321932821737 0.162782234195503
v -0.44709828685494896 0.045849222849119603 -0.2023176607597863
v -0.62949244222046652 0.15621481190917633 0.49391299982821607
v -0.66405716837724227 0.055391333897127984 0.27030133480218388
v -0.62808067217755503 0.91968379950917301 0.60707972247103836
v -0.37826894619488938 0.081179078577440417 -0.049800922107641678
v -0.68845412401624451 0.039252715337912983 0.029263847168292827
v -0.65869542812376936 0.099265702740060094 0.49730964680133333
v -0.3587555743674305 0.044970959064180381 0.23490861878485286
v -0.63288513342656005 0.16086661683781425 0.43261440849272165
v -0.37802559664324337 0.053688046385714207 -0.094011095585448401
v -0.22631525997335555 0.074638193134525743 0.11531521892305231
v -0.2889230204155217 0.066430898892008802 0.33069646272436098
v -0.27179289669421997 0.074331543029292971 0.43623292367857347
v -0.44993015421516547 0.95449570853391397 0.38125534841972042
v -0.2580161752756806 0.94651771668623619 0.35358392871010252
v -0.63543975658444785 0.86663526022806758 0.52811979792252617
v -0.28682247186294668 0.10723678667330026 0.61812762204996108
v -0.60901715459582961 0.038763325720202441 0.53869146319567673
v -0.28746760147608602 0.96991279269394626 0.034236079614251187
v -0.62339850440619804 0.1844282448622552 0.11597698860532325
v -0.655258328915993 0.13089695989530006 0.4156070006805665
v -0.71411602264691587 0.07302587637190272 0.21128459635916669
v -0.2553255936808746 0.99245926656420635 0.14555256393803492
v -0.23259202637844456 0.18587100093248032 0.5797837294699153
v -0.25752547620852928 0.051365373249508836 0.64241050479231065
v -0.67817366489747199 0.91295185586499583 0.0059671019165245098
v -0.26560856324048115 0.063750368892946135 0.23626556030635867
v -0.62693117161116407 0.038346138097911479 0.30204672580608721
v -0.48244051042061303 0.12641612501105667 -0.046235835483871959
v -0.6503869868927693 0.056993109390629064 -0.0070880264026251518
v -0.68717930190013765 0.86510090030948716 0.62044349101785357
v 0.20492626782008141 0.95318612543038461 -0.0059106880298097127
v -0.69194837309476132 0.1604703697424178 0.15358840947924976
v 0.18489088040241589 0.96725425906353157 0.40432001107203575
v -0.19754803335725948 0.051424337425071853 -0.21553762090231354
v -0.22537329725373376 0.1594813279810128 -0.21856287812946246
v -0.22502490754694385 0.080418859334037793 -0.11029803981023288
v -0.24925506027078279 0.98627546824922907 0.27145346948625282
v -0.25219844152544951 0.91418227896798776 -0.055146161333035147
v -0.36477921184137579 0.1481475775473951 0.50693747360740982
v -0.27670745987518286 0.073054043826237119 0.14860559757165215
v -0.028881142512213978 0.14146760405321321 0.56199801364807456
v 0.17268019303938872 0.039998401204090268 -0.12131407859595966
v -0.47708823865954958 0.13218947900688482 0.54125517396569811
v -0.61160175286378882 0.12048160505013318 0.32786385564369308
v -0.60303568992576706 0.91911247315372591 0.53707988954972341
v 0.20806992607064864 0.10610199818686319 0.52388462619246745
v -0.014285818960869039 0.073816148988489511 0.10365669773480396
v -0.67959627593841843 0.13632153740026048 0.20300758149188253
v -0.051969684859822493 0.07041805177575465 0.35320006281500305
v -0.45360521334279791 0.10363110977134328 -0.16654846474879284
v 0.19374344304279764 0.033221938750978876 0.0041239929220561891
v 0.13351319089324876 0.1471045131539282 0.55916722572058186
v -0.5940027057261793 0.087469258929844126 0.57582584932404202
v -0.62492631005173094 0.085049077414930924 0.30322260684223618
v 0.13894484177138142 0.034355986161588456 0.39553938338136574
v 0.19663189606267983 0.12435220758258057 -0.17851341481741664
v -0.711585394279455 0.14134694378002238 0.096031105498602193
v -0.60229075605630111 0.31671857271732529 0.078273046861185025
v 0.0073720641323864857 0.03118047826538772 0.18961439185419376
v -0.26590399735954573 0.17763263508070726 0.57344438058868197
v -0.095326752095374584 0.044976099815435461 0.59630026404469583
v -0.7331557979615001 0.046453223721371006 0.064687454262574606
v -0.69232445706953305 0.93256191528236199 0.66764543345290395
v -0.55701062289313852 0.92531891915556075 -0.044441241048545306
v -0.50561076135698291 0.3303203104258024 0.43525277297552295
v 0.001240237209083755 0.17726474441999357 -0.25010062912726422
v 0.20292059444468788 0.99690240617989268 0.34336441142940322
v -0.4006048769312518 0.16172813248620424 -0.17187027750100292
v -0.049091011821320148 0.026990945492090572 0.51279167768680411
v 0.23262295833927066 0.023661303490426319 0.27125667890357497
v 0.23262894389151664 0.085796173786524557 -0.033958715848741473
v -0.53701301408658675 0.1209475740386316 -0.030536920426439219
v 0.18046704553389328 0.035719165386003296 0.096672591087976184
v -0.034039023994142735 0.91147204984788854 0.48063875062989297
v -0.03422161945439145 0.99454470823277685 -0.0088211369020489063
v -0.5475722247877215 0.18518904528075816 0.36774925498670602
v 0.20597310525531665 0.024267634034525157 0.46361705151181659
v -0.46980116871529759 0.96049510785682213 -0.038587848457723277
v -0.0075439367297301533 0.03236678495051825 -0.11275211423703738
v 0.14392620922086108 0.93894448806764796 -0.06597674743480153
v -0.024520134640943967 0.039474880131521735 -0.18603650406723815
v -0.34080163321508522 0.12911292052068898 -0.23811291298646298
v 0.10938540182491455 0.026311050672114721 -0.075316657991734745
v -0.025877506687089314 0.17781855874390684 0.60442972281316898
v -0.30640299781365921 0.11511041552436524 -0.23598365994210804
v -0.66047387900696741 0.36471528309923623 0.40482821065590818
v -0.6297892343027065 0.14424066138882652 0.021860386009968095
v -0.031045642676270951 0.88650671610951026 -0.097521800165337388
v -0.19573528510257907 0.028528193993520898 -0.15668707373120122
v -0.35176897263347723 0.038415948288540655 0.5582304465372494
v -0.005579495695663253 0.99210382089361915 0.40677429600594855
v -0.052864234032716638 0.29363141226484879 0.65759121387006814
v -0.17926445741550237 0.90064396484338916 -0.078349266405040349
v 0.10441203631839063 0.9976951782816742 0.0040813519427892421
v -0.24542639926357573 0.34220845510270764 -0.2854511219865794
v -0.50259356894494767 0.24236117133376053 0.24885279317698411
v 0.20518220962144759 0.15903486953870921 -0.19733663853993444
v -0.90380502431127918 1.1610593580655799 0.21791423089297343
v -0.63170835100862566 0.99202852978810718 0.61053357931638697
v -0.38139548432188097 0.080570234667292878 -0.0038747818917476769
v -0.47354417713399294 0.036582234858228549 0.40157629585470511
v -0.20757216079558527 0.15240585850013827 0.62523190943772877
v -0.28020600072144775 0.033147990239517762 0.53393132947701627
v -0.29962920758987044 0.080189088552219581 -0.11326893426569407
v -0.31349169588744125 0.06212833788985931 0.61200197867452866
v -0.75226998493732933 0.056962810653156566 0.10949943146641751
v -0.50921063790943799 0.035727419317797722 -0.050227181379898206
v -0.70633675725054179 0.051716034123568608 0.22368377210579121
v -0.53404243767666237 0.038144684139031444 0.19009506892546338
v -0.4174390464771689 0.17062955945736002 -0.12476008744202718
v 0.003786761395858478 0.071551841980299485 -0.086307344261500177
v 0.0074994817348623538 0.073505593161557289 0.43175823196073443
v -0.4984245799730328 0.19794569780497495 0.47632583658892458
v -0.61660422621714117 0.16368399605429929 0.20343375672450828
v -0.18844080501842747 0.076761944290669265 0.47566490976476095
v -0.57650527028670095 0.031209775212278835 0.23572747783686313
v -0.47733357053869235 0.88603186481648255 0.44717027560137068
v -0.19328754522064734 0.19973565763356502 0.55208256281209056
v 0.23445643169580815 0.035801119597302089 0.17445709142844051
v -0.57543534259757345 0.92822733111377687 0.52418978868114874
v -0.079528813240550805 0.048220673583601145 -0.19372867598692581
v -0.18604068342377095 0.083834145790017633 -0.10173858293592548
v -0.33899447381426645 0.035000549387888338 0.39037361660838726
v 0.11327868931433495 0.029445804717715691 -0.021683966363923377
v 0.23089642200719057 0.3249806794679666 0.57406399874451086
v 0.20126600969652592 0.91760720596413714 0.43784983635271346
v -0.12624190985264613 0.076541145522381129 0.061553152967852284
v -0.23566234523489446 0.99511893969448784 0.24547668629783828
v -0.0063781822512448492 0.1276807901717657 -0.19530351722157538
v -0.55989373338805104 0.064562814025082127 -0.043250045600130189
v 0.14023166955406721 0.03628842859735984 -0.15579467391920984
v 0.09855140125530365 0.031747764227901015 0.53720037154517775
v 0.21744387541077484 0.039125486311036746 0.49340501812663567
v -0.13068465622564246 0.96863327469908667 0.010205297699960592
v -0.3398580861605684 1.0110797790110111 0.087727656055867867
v -0.15944440235092416 0.031104824546305802 -0.13937162154920638
v -0.01180692842360175 0.34959866636620668 0.66436272012532882
v -0.071913870468132163 0.020873039619705918 0.54313727197317097
v -0.19385209245296228 0.15326592177281867 -0.22469053763442939
v -0.31336748256420532 0.92720137306282768 0.4028906756443596
v 0.038098553625095899 0.93499627779067851 0.47196465809918803
v -0.72381644115077559 0.8960820126236364 0.017837513301411975
v -0.59222123247740233 0.28039019543401406 0.1539848582403204
v 0.042130759047145548 1.0644407258794382 0.14980514328772074
v -0.4850513328084462 0.25099332109920935 -0.026786927309511696
v 0.30704830179649173 0.31987239752489188 -0.1590748149679968
v -0.54476513291918482 0.091007468991333176 0.5950853548102476
v -0.38071744089750109 0.1582384397423135 0.49925711308641174
v -0.80454672829944818 0.41273035765179555 0.26236403578916867
v 0.064961106031437829 0.022965875733393253 0.26791976639909082
v -0.0075242951763323813 0.86217499934466513 -0.13848510590128821
v -0.32994684998098345 0.81701857093235952 -0.12819517710607412
v 0.219829645640336 1.0004964690150211 0.37437332703791898
v 0.49177463574372671 0.20788517206224666 -0.029914890317590169
v 0.033557504823841566 0.38685288132566703 -0.28724321464938107
v 0.39895205123434485 0.25486280752216195 0.4302754995526602
v 0.40728878537554086 0.09141591436196185 0.3657987076957821
v -0.38204483105386533 0.57599231397786166 -0.15424640200042419
v -0.58073022648282679 0.77495639124587912 0.53899535740608073
v 0.43681520204761126 0.70596514001636745 -0.053077945638609167
v 0.58540293319067394 0.45956746429367257 0.21605402969494295
v -0.026888634905275034 0.72978802201345083 0.59312217850457294
v -0.38699144627191129 0.12818401925037429 -0.22204550241328727
v -0.41371569405275904 1.001385739923665 0.29740944974770783
v -0.41875478807411037 0.13568095078552597 -0.17043289491130845
v -0.50204650971434039 0.076526861576670657 -0.062678175943860159
v -0.37628878900830531 0.97025994143848793 -0.018532953455337012
v -0.42867912989481688 0.044831914767329242 0.53449612218916853
v -0.45120604791202734 1.0029143120335471 0.0075458791442523142
v -0.41032161340291401 0.031512157391807578 0.095186542891705125
v -0.39994187992547081 0.032110794988585836 0.36323131186934499
v -0.45010758180491495 0.046906857995454548 0.1632783618078357
v -0.40714106867917249 0.035122261249016504 0.50016150958138161
v -0.51668584910833693 0.17544832879635361 0.27256643824561266
v -0.39161808434557405 0.074821994936407829 0.52520408429924337
v -0.46780431296857095 0.1067180743511443 -0.15115899241599678
v -0.41710473730690067 0.066282800068714842 -0.23057245715716462
v -0.39609412601309796 0.03641320279068664 -0.11553088134363972
v -0.68663613406081625 0.035618951321324553 0.088570281192132144
v -0.47832928612457426 0.040704761186492855 -0.1390983982244276
v -0.39073706548139364 0.03396624348281322 0.17291070477227691
v -0.45216737410934171 0.034657741729127778 -0.010705642780285464
v -0.47049699705907155 0.14951566392200197 -0.037348802039769466
v -0.40829884630883467 0.13079835714269097 0.52395912270345857
v -0.41781489320508147 0.045541469071642762 0.2965766249622025
v -0.49136879802627731 0.10413358152432241 -0.043066880948553071
v -0.6787931505410818 0.058482408577942187 0.47544253223961058
f 1 447 669
f 1 479 447
f 1 669 479
f 2 49 447
f 2 288 49
f 2 447 288
f 3 178 294
f 3 294 687
f 3 687 178
f 4 12 13
f 4 13 14
f 4 14 24
f 4 24 96
f 4 96 447
f 4 447 479
f 4 479 12
f 5 95 630
f 5 214 682
f 5 305 459
f 5 459 647
f 5 523 214
f 5 610 305
f 5 630 610
f 5 647 523
f 5 682 95
f 6 9 181
f 6 95 682
f 6 181 95
f 6 682 9
f 7 10 447
f 7 96 10
f 7 447 96
f 8 56 445
f 8 315 317
f 8 317 629
f 8 443 315
f 8 445 443
f 8 486 56
f 8 629 486
f 9 33 292
f 9 174 290
f 9 191 285
f 9 285 618
f 9 289 442
f 9 290 181
f 9 292 452
f 9 312 191
f 9 403 652
f 9 430 174
f 9 442 33
f 9 452 586
f 9 476 403
f 9 586 430
f 9 618 289
f 9 652 312
f 9 682 476
f 10 13 632
f 10 96 13
f 10 632 447
f 11 92 181
f 11 181 690
f 11 690 92
f 12 479 13
f 13 17 14
f 13 24 17
f 13 96 24
f 13 252 676
f 13 303 252
f 13 446 447
f 13 447 632
f 13 479 303
f 13 494 446
f 13 676 494
f 14 17 24
f 15 160 424
f 15 424 447
f 15 447 160
f 16 428 489
f 16 489 677
f 16 677 428
f 18 27 95
f 18 95 320
f 18 320 599
f 18 599 27
f 19 26 492
f 19 94 201
f 19 201 26
f 19 492 94
f 20 189 341
f 20 225 377
f 20 315 189
f 20 341 225
f 20 377 606
f 20 489 679
f 20 606 489
f 20 679 315
f 21 31 495
f 21 319 695
f 21 487 31
f 21 495 690
f 21 690 319
f 21 695 487
f 22 32 494
f 22 324 32
f 22 494 324
f 23 28 445
f 23 56 486
f 23 94 680
f 23 194 28
f 23 313 487
f 23 444 94
f 23 445 56
f 23 486 689
f 23 487 695
f 23 680 313
f 23 689 444
f 23 695 194
f 25 89 181
f 25 119 89
f 25 181 119
f 26 201 692
f 26 323 492
f 26 686 323
f 26 692 686
f 27 427 630
f 27 599 427
f 27 630 95
f 28 194 631
f 28 631 445
f 31 120 321
f 31 296 120
f 31 321 495
f 31 487 694
f 31 694 296
f 32 93 322
f 32 322 326
f 32 324 683
f 32 326 494
f 32 493 93
f 32 683 493
f 33 442 292
f 34 259 614
f 34 565 259
f 34 614 565
f 35 45 541
f 35 64 45
f 35 365 397
f 35 397 64
f 35 541 365
f 36 40 674
f 36 183 351
f 36 351 698
f 36 513 40
f 36 674 183
f 36 698 513
f 37 265 406
f 37 406 447
f 37 447 265
f 38 42 505
f 38 45 42
f 38 386 45
f 38 505 386
f 39 127 306
f 39 306 543
f 39 543 712
f 39 712 127
f 40 143 674
f 40 513 143
f 41 159 390
f 41 193 436
f 41 390 587
f 41 436 159
f 41 587 193
f 42 45 64
f 42 64 657
f 42 440 705
f 42 657 440
f 42 705 505
f 43 121 610
f 43 129 423
f 43 423 121
f 43 610 129
f 44 63 85
f 44 85 681
f 44 209 551
f 44 383 63
f 44 551 383
f 44 681 209
f 45 386 500
f 45 500 541
f 46 180 688
f 46 194 695
f 46 688 194
f 46 690 180
f 46 695 690
f 47 183 308
f 47 308 447
f 47 447 183
f 48 162 561
f 48 246 532
f 48 381 246
f 48 532 162
f 48 561 381
f 49 182 447
f 49 288 182
f 50 228 642
f 50 260 561
f 50 561 228
f 50 642 260
f 51 167 580
f 51 174 430
f 51 430 167
f 51 580 174
f 52 145 331
f 52 331 396
f 52 396 447
f 52 447 145
f 53 149 574
f 53 177 306
f 53 306 460
f 53 460 149
f 53 574 177
f 54 300 447
f 54 447 654
f 54 462 300
f 54 654 462
f 55 71 627
f 55 622 685
f 55 627 622
f 55 685 71
f 57 237 414
f 57 414 718
f 57 718 237
f 58 379 616
f 58 470 379
f 58 616 470
f 59 463 648
f 59 582 463
f 59 648 582
f 60 151 246
f 60 246 381
f 60 381 524
f 60 524 151
f 61 108 548
f 61 249 108
f 61 548 674
f 61 674 249
f 62 177 574
f 62 392 177
f 62 560 392
f 62 574 560
f 63 240 458
f 63 383 240
f 63 458 635
f 63 635 85
f 64 177 657
f 64 397 177
f 65 88 482
f 65 413 593
f 65 482 413
f 65 593 88
f 66 311 682
f 66 624 311
f 66 682 624
f 67 87 691
f 67 434 653
f 67 604 434
f 67 653 87
f 67 691 604
f 68 176 656
f 68 656 670
f 68 670 176
f 69 492 685
f 69 685 694
f 69 694 492
f 70 179 199
f 70 199 473
f 70 318 696
f 70 360 674
f 70 473 517
f 70 517 360
f 70 674 318
f 70 696 179
f 71 323 686
f 71 685 323
f 71 686 627
f 72 101 362
f 72 221 526
f 72 362 221
f 72 526 529
f 72 529 101
f 73 211 337
f 73 337 515
f 73 515 612
f 73 612 211
f 74 406 579
f 74 447 406
f 74 579 654
f 74 654 447
f 75 260 530
f 75 356 650
f 75 530 356
f 75 650 260
f 76 227 527
f 76 372 227
f 76 419 372
f 76 527 419
f 77 274 457
f 77 426 455
f 77 455 274
f 77 457 426
f 78 125 546
f 78 402 637
f 78 546 402
f 78 637 125
f 79 166 370
f 79 251 371
f 79 370 251
f 79 371 461
f 79 461 166
f 80 172 191
f 80 191 405
f 80 405 575
f 80 575 172
f 81 351 447
f 81 447 698
f 81 698 351
f 82 282 388
f 82 388 556
f 82 447 282
f 82 556 669
f 82 669 447
f 83 86 449
f 83 449 643
f 83 643 650
f 83 650 86
f 84 173 590
f 84 469 663
f 84 590 665
f 84 663 173
f 84 665 469
f 85 342 448
f 85 448 464
f 85 464 681
f 85 635 342
f 86 188 641
f 86 435 188
f 86 450 449
f 86 641 716
f 86 650 435
f 86 716 450
f 87 474 484
f 87 484 488
f 87 488 691
f 87 653 474
f 88 124 684
f 88 438 124
f 88 593 438
f 88 684 482
f 89 117 181
f 89 119 495
f 89 495 671
f 89 671 117
f 90 131 612
f 90 198 131
f 90 333 515
f 90 494 198
f 90 511 686
f 90 515 511
f 90 612 333
f 90 686 494
f 91 320 493
f 91 480 677
f 91 489 630
f 91 493 480
f 91 630 320
f 91 677 489
f 92 495 659
f 92 659 181
f 92 690 495
f 93 493 322
f 94 444 689
f 94 487 680
f 94 492 694
f 94 689 201
f 94 694 487
f 95 126 491
f 95 181 126
f 95 491 320
f 97 250 499
f 97 499 712
f 97 538 250
f 97 543 538
f 97 712 543
f 98 99 681
f 98 464 510
f 98 510 577
f 98 577 99
f 98 681 464
f 99 577 681
f 100 339 529
f 100 344 501
f 100 501 714
f 100 529 710
f 100 710 344
f 100 714 339
f 101 233 562
f 101 512 362
f 101 529 233
f 101 562 512
f 102 162 588
f 102 228 162
f 102 367 228
f 102 588 367
f 103 275 350
f 103 350 536
f 103 367 528
f 103 463 275
f 103 528 463
f 103 536 367
f 104 373 621
f 104 489 373
f 104 621 489
f 105 216 395
f 105 255 578
f 105 395 255
f 105 578 216
f 106 147 539
f 106 222 563
f 106 234 147
f 106 539 222
f 106 563 234
f 107 154 256
f 107 256 401
f 107 348 154
f 107 401 721
f 107 721 348
f 108 249 439
f 108 439 548
f 109 257 654
f 109 549 257
f 109 579 549
f 109 654 579
f 110 472 669
f 110 572 472
f 110 669 572
f 111 173 631
f 111 432 173
f 111 631 432
f 112 312 652
f 112 412 312
f 112 652 412
f 113 278 666
f 113 611 667
f 113 666 611
f 113 667 278
f 114 284 581
f 114 431 284
f 114 581 661
f 114 661 431
f 115 304 583
f 115 583 646
f 115 603 304
f 115 646 603
f 116 273 316
f 116 293 589
f 116 316 293
f 116 589 273
f 117 671 181
f 118 123 613
f 118 185 617
f 118 613 615
f 118 615 185
f 118 617 123
f 119 181 186
f 119 186 495
f 120 296 321
f 121 423 578
f 121 578 610
f 122 283 489
f 122 428 592
f 122 489 428
f 122 592 283
f 123 468 613
f 123 617 468
f 124 268 471
f 124 309 658
f 124 438 309
f 124 471 684
f 124 658 268
f 125 301 546
f 125 440 657
f 125 637 440
f 125 657 301
f 126 181 491
f 127 208 525
f 127 277 623
f 127 307 277
f 127 416 306
f 127 470 307
f 127 525 470
f 127 623 638
f 127 638 416
f 127 712 208
f 128 169 673
f 128 314 670
f 128 465 314
f 128 568 169
f 128 623 568
f 128 670 623
f 128 673 465
f 129 271 648
f 129 463 423
f 129 489 271
f 129 508 630
f 129 610 708
f 129 630 489
f 129 648 463
f 129 708 508
f 130 191 312
f 130 312 451
f 130 418 481
f 130 451 418
f 130 481 672
f 130 595 191
f 130 672 595
f 131 198 494
f 131 303 598
f 131 479 612
f 131 494 676
f 131 598 479
f 131 676 303
f 132 315 679
f 132 317 315
f 132 324 692
f 132 679 324
f 132 692 317
f 133 202 325
f 133 325 495
f 133 495 696
f 133 696 202
f 134 137 206
f 134 206 584
f 134 347 711
f 134 496 347
f 134 584 496
f 134 711 137
f 135 204 500
f 135 386 505
f 135 500 386
f 135 505 705
f 135 705 204
f 136 242 564
f 136 358 242
f 136 490 549
f 136 549 358
f 136 564 490
f 137 534 206
f 137 711 534
f 138 224 636
f 138 241 550
f 138 369 241
f 138 550 224
f 138 636 369
f 139 337 701
f 139 511 337
f 139 686 511
f 139 701 686
f 140 214 523
f 140 220 336
f 140 336 214
f 140 523 577
f 140 577 220
f 141 239 596
f 141 338 527
f 141 455 338
f 141 527 239
f 141 596 640
f 141 640 455
f 142 229 404
f 142 236 340
f 142 340 229
f 142 404 514
f 142 514 236
f 143 368 674
f 143 509 368
f 143 513 509
f 144 258 481
f 144 418 558
f 144 481 418
f 144 558 258
f 145 447 547
f 145 547 331
f 146 235 587
f 146 390 516
f 146 516 235
f 146 587 390
f 147 234 435
f 147 435 713
f 147 713 539
f 148 353 475
f 148 475 668
f 148 668 353
f 149 366 574
f 149 460 366
f 150 288 490
f 150 490 564
f 150 564 288
f 151 279 246
f 151 391 279
f 151 524 391
f 152 187 603
f 152 482 187
f 152 603 482
f 153 292 430
f 153 430 586
f 153 586 292
f 154 348 524
f 154 381 383
f 154 383 551
f 154 524 381
f 154 551 256
f 155 265 633
f 155 406 265
f 155 424 537
f 155 537 406
f 155 633 424
f 156 231 540
f 156 364 721
f 156 535 364
f 156 540 535
f 156 721 231
f 157 363 713
f 157 375 640
f 157 596 363
f 157 640 596
f 157 713 375
f 158 251 370
f 158 370 545
f 158 545 560
f 158 560 251
f 159 436 535
f 159 516 390
f 159 535 516
f 160 447 597
f 160 597 424
f 161 222 239
f 161 239 527
f 161 357 563
f 161 527 357
f 161 563 222
f 162 228 561
f 162 532 588
f 163 187 666
f 163 603 187
f 163 666 672
f 163 672 603
f 164 291 609
f 164 466 291
f 164 609 685
f 164 685 466
f 165 405 442
f 165 442 575
f 165 575 405
f 166 184 649
f 166 461 184
f 166 649 370
f 167 292 580
f 167 430 292
f 168 392 560
f 168 545 657
f 168 560 545
f 168 657 392
f 169 272 619
f 169 568 272
f 169 569 673
f 169 619 569
f 170 267 482
f 170 302 421
f 170 421 267
f 170 482 583
f 170 583 302
f 171 270 684
f 171 434 270
f 171 471 653
f 171 653 434
f 171 684 471
f 172 285 191
f 172 417 285
f 172 575 417
f 173 432 590
f 173 663 631
f 174 580 290
f 175 192 443
f 175 443 673
f 175 569 619
f 175 619 192
f 175 673 569
f 176 431 661
f 176 613 645
f 176 645 431
f 176 661 656
f 176 670 613
f 177 213 634
f 177 297 704
f 177 392 657
f 177 397 297
f 177 634 306
f 177 704 213
f 178 195 483
f 178 483 628
f 178 628 678
f 178 678 294
f 178 687 195
f 179 321 199
f 179 696 321
f 180 295 691
f 180 488 688
f 180 690 295
f 180 691 488
f 181 287 441
f 181 290 690
f 181 441 467
f 181 467 491
f 181 495 186
f 181 626 287
f 181 659 495
f 181 671 626
f 182 288 597
f 182 597 447
f 183 447 351
f 183 674 308
f 184 302 583
f 184 304 649
f 184 461 302
f 184 583 304
f 185 469 665
f 185 615 469
f 185 665 617
f 187 316 666
f 187 482 316
f 188 354 664
f 188 435 354
f 188 664 641
f 189 315 443
f 189 443 644
f 189 504 341
f 189 644 504
f 190 199 608
f 190 294 473
f 190 473 199
f 190 608 675
f 190 625 294
f 190 675 625
f 191 595 405
f 192 456 443
f 192 616 456
f 192 619 616
f 193 459 436
f 193 587 681
f 193 681 459
f 194 484 631
f 194 688 484
f 195 296 483
f 195 687 296
f 196 321 696
f 196 495 321
f 196 696 495
f 197 326 490
f 197 447 326
f 197 490 447
f 199 321 675
f 199 675 608
f 200 202 322
f 200 322 493
f 200 491 202
f 200 493 491
f 201 486 692
f 201 689 486
f 202 491 325
f 202 696 322
f 203 365 541
f 203 384 521
f 203 521 365
f 203 541 719
f 203 719 384
f 204 330 719
f 204 705 330
f 204 719 500
f 205 327 709
f 205 343 359
f 205 359 702
f 205 497 327
f 205 702 497
f 205 709 343
f 206 344 584
f 206 501 344
f 206 534 501
f 207 275 555
f 207 350 275
f 207 536 350
f 207 555 642
f 207 642 536
f 208 346 525
f 208 712 346
f 209 401 551
f 209 587 401
f 209 681 587
f 210 343 510
f 210 359 343
f 210 464 359
f 210 510 464
f 211 518 701
f 211 612 518
f 211 701 337
f 212 310 518
f 212 335 479
f 212 479 310
f 212 518 335
f 213 329 634
f 213 506 329
f 213 704 506
f 214 336 414
f 214 414 682
f 215 496 584
f 215 526 699
f 215 584 710
f 215 699 496
f 215 710 526
f 216 279 395
f 216 532 279
f 216 578 588
f 216 588 532
f 217 247 572
f 217 353 668
f 217 552 353
f 217 572 669
f 217 668 247
f 217 669 552
f 218 355 641
f 218 507 700
f 218 641 664
f 218 664 507
f 218 700 355
f 219 328 520
f 219 339 714
f 219 355 339
f 219 520 355
f 219 714 328
f 220 510 718
f 220 577 510
f 220 718 336
f 221 362 644
f 221 602 526
f 221 644 602
f 222 363 596
f 222 539 363
f 222 596 239
f 223 332 533
f 223 449 332
f 223 533 449
f 224 263 349
f 224 349 636
f 224 550 263
f 225 341 717
f 225 717 377
f 226 364 535
f 226 395 554
f 226 535 542
f 226 542 395
f 226 554 364
f 227 357 527
f 227 372 621
f 227 621 357
f 228 367 536
f 228 536 642
f 229 298 447
f 229 340 298
f 229 447 404
f 230 342 498
f 230 440 707
f 230 448 342
f 230 498 440
f 230 707 448
f 231 235 540
f 231 401 235
f 231 721 401
f 232 237 502
f 232 502 709
f 232 573 237
f 232 624 682
f 232 682 573
f 232 709 624
f 233 339 355
f 233 355 700
f 233 529 339
f 233 700 562
f 234 354 435
f 234 563 354
f 235 401 587
f 235 516 540
f 236 352 547
f 236 514 352
f 236 547 340
f 237 573 414
f 237 718 502
f 238 328 714
f 238 346 328
f 238 501 534
f 238 534 346
f 238 714 501
f 240 381 561
f 240 383 381
f 240 561 458
f 241 369 594
f 241 378 550
f 241 453 378
f 241 594 453
f 242 358 537
f 242 385 564
f 242 537 385
f 243 352 651
f 243 368 509
f 243 509 352
f 243 651 368
f 244 274 454
f 244 374 457
f 244 454 642
f 244 457 274
f 244 555 374
f 244 642 555
f 245 402 649
f 245 481 402
f 245 649 481
f 246 279 532
f 247 668 572
f 248 271 553
f 248 372 419
f 248 419 591
f 248 553 372
f 248 566 271
f 248 591 566
f 249 360 517
f 249 517 439
f 249 674 360
f 250 334 519
f 250 519 716
f 250 538 334
f 250 716 499
f 251 560 371
f 252 303 387
f 252 387 676
f 253 279 391
f 253 348 721
f 253 364 554
f 253 391 348
f 253 554 279
f 253 721 364
f 254 426 457
f 254 457 566
f 254 566 426
f 255 305 610
f 255 395 542
f 255 542 305
f 255 610 578
f 256 551 401
f 257 429 654
f 257 490 429
f 257 549 490
f 258 400 624
f 258 558 400
f 258 624 637
f 258 637 481
f 259 483 614
f 259 565 483
f 260 642 530
f 260 650 561
f 261 432 631
f 261 590 432
f 261 631 590
f 262 387 559
f 262 559 676
f 262 676 387
f 263 400 558
f 263 550 639
f 263 558 349
f 263 639 400
f 264 353 552
f 264 389 556
f 264 475 353
f 264 552 389
f 264 556 475
f 265 447 633
f 266 407 590
f 266 415 422
f 266 422 576
f 266 576 407
f 266 590 631
f 266 631 415
f 267 413 482
f 267 421 593
f 267 593 413
f 268 411 607
f 268 607 471
f 268 658 411
f 269 302 581
f 269 421 302
f 269 438 593
f 269 581 438
f 269 593 421
f 270 273 420
f 270 420 684
f 270 434 604
f 270 604 273
f 271 489 553
f 271 566 648
f 272 307 619
f 272 409 307
f 272 568 409
f 273 589 420
f 273 604 611
f 273 611 316
f 274 375 454
f 274 455 640
f 274 640 375
f 275 463 582
f 275 582 555
f 276 483 565
f 276 565 614
f 276 614 628
f 276 628 483
f 277 307 409
f 277 409 623
f 278 580 666
f 278 667 580
f 279 554 395
f 280 445 600
f 280 600 631
f 280 631 663
f 280 663 673
f 280 673 445
f 281 394 672
f 281 405 595
f 281 442 405
f 281 595 394
f 281 666 442
f 281 672 666
f 282 308 571
f 282 447 308
f 282 571 388
f 283 324 437
f 283 408 324
f 283 437 489
f 283 592 408
f 284 309 438
f 284 431 468
f 284 438 581
f 284 468 309
f 285 417 618
f 286 324 408
f 286 408 480
f 286 480 324
f 287 626 671
f 287 671 441
f 288 361 597
f 288 447 490
f 288 564 361
f 289 417 575
f 289 575 442
f 289 618 417
f 290 485 690
f 290 580 485
f 291 466 668
f 291 475 678
f 291 668 475
f 291 678 609
f 292 442 666
f 292 586 452
f 292 666 580
f 293 316 482
f 293 482 684
f 293 684 589
f 294 439 473
f 294 475 662
f 294 625 687
f 294 662 439
f 294 678 475
f 295 485 691
f 295 690 485
f 296 685 483
f 296 687 321
f 296 694 685
f 297 397 522
f 297 522 704
f 298 340 547
f 298 547 447
f 299 384 719
f 299 458 643
f 299 533 384
f 299 643 533
f 299 719 458
f 300 404 447
f 300 462 404
f 301 380 546
f 301 657 380
f 302 461 661
f 302 661 581
f 303 479 598
f 303 559 387
f 303 676 559
f 304 481 649
f 304 603 672
f 304 672 481
f 305 436 459
f 305 542 436
f 306 416 460
f 306 538 543
f 306 634 538
f 307 470 619
f 308 382 571
f 308 393 382
f 308 674 393
f 309 468 658
f 310 472 686
f 310 479 669
f 310 669 472
f 310 686 701
f 310 701 518
f 311 453 594
f 311 476 682
f 311 594 476
f 311 624 639
f 311 639 453
f 312 412 557
f 312 557 636
f 312 636 451
f 313 680 487
f 314 465 663
f 314 469 655
f 314 655 670
f 314 663 469
f 316 611 666
f 317 486 629
f 317 692 486
f 318 490 693
f 318 674 490
f 318 693 696
f 319 690 695
f 320 427 599
f 320 491 493
f 320 630 427
f 321 425 660
f 321 660 675
f 321 687 425
f 322 693 326
f 322 696 693
f 323 685 492
f 324 480 683
f 324 489 437
f 324 494 692
f 324 679 489
f 325 491 495
f 326 447 494
f 326 693 490
f 327 440 624
f 327 497 440
f 327 624 709
f 328 346 712
f 328 499 520
f 328 712 499
f 329 506 716
f 329 519 634
f 329 716 519
f 330 345 719
f 330 635 345
f 330 705 635
f 331 509 513
f 331 513 396
f 331 547 509
f 332 449 522
f 332 521 706
f 332 522 521
f 332 706 533
f 333 612 515
f 334 538 634
f 334 634 519
f 335 518 703
f 335 703 479
f 336 718 414
f 337 511 515
f 338 419 527
f 338 455 591
f 338 591 419
f 341 504 512
f 341 512 717
f 342 635 498
f 343 709 718
f 343 718 510
f 344 710 584
f 345 458 719
f 345 635 458
f 346 534 525
f 347 379 711
f 347 496 697
f 347 616 379
f 347 697 616
f 348 391 524
f 349 451 636
f 349 558 451
f 352 509 547
f 352 514 651
f 354 563 664
f 355 520 641
f 356 435 531
f 356 530 713
f 356 531 650
f 356 713 435
f 357 621 664
f 357 664 563
f 358 549 579
f 358 579 537
f 359 464 503
f 359 503 702
f 361 385 597
f 361 564 385
f 362 512 644
f 363 539 713
f 365 521 715
f 365 715 397
f 366 460 656
f 366 544 574
f 366 656 661
f 366 661 544
f 367 588 528
f 368 490 674
f 368 651 490
f 369 557 594
f 369 636 557
f 370 380 545
f 370 546 380
f 370 649 546
f 371 560 574
f 371 574 461
f 372 553 621
f 373 489 606
f 373 606 621
f 374 555 582
f 374 582 457
f 375 530 454
f 375 713 530
f 376 459 681
f 376 523 647
f 376 577 523
f 376 647 459
f 376 681 577
f 377 717 720
f 377 720 606
f 378 453 639
f 378 639 550
f 379 470 525
f 379 525 711
f 380 657 545
f 382 393 548
f 382 439 662
f 382 548 439
f 382 662 571
f 384 533 706
f 384 706 521
f 385 424 597
f 385 537 424
f 388 475 556
f 388 571 662
f 388 662 475
f 389 552 669
f 389 669 556
f 393 674 548
f 394 595 672
f 396 513 698
f 396 698 447
f 397 715 522
f 398 422 585
f 398 576 422
f 398 585 617
f 398 617 665
f 398 665 576
f 399 410 687
f 399 567 410
f 399 660 567
f 399 687 660
f 400 639 624
f 402 481 637
f 402 546 649
f 403 476 594
f 403 557 652
f 403 594 557
f 404 462 514
f 406 537 579
f 407 576 665
f 407 665 590
f 408 433 480
f 408 592 433
f 409 568 623
f 410 567 601
f 410 601 687
f 411 474 653
f 411 585 474
f 411 617 585
f 411 653 607
f 411 658 617
f 412 652 557
f 414 573 682
f 415 484 605
f 415 605 422
f 415 631 484
f 416 570 460
f 416 638 570
f 418 451 558
f 420 589 684
f 422 474 585
f 422 605 474
f 423 463 588
f 423 588 578
f 424 633 447
f 425 567 660
f 425 601 567
f 425 687 601
f 426 566 591
f 426 591 455
f 428 677 592
f 429 462 654
f 429 490 462
f 431 645 468
f 433 592 677
f 433 677 480
f 435 650 531
f 436 542 535
f 439 517 473
f 440 497 707
f 440 498 705
f 440 637 624
f 441 495 467
f 441 671 495
f 443 445 673
f 443 456 644
f 445 631 600
f 446 494 447
f 448 503 464
f 448 707 503
f 449 450 704
f 449 533 643
f 449 704 522
f 450 506 704
f 450 716 506
f 454 530 642
f 456 602 644
f 456 616 697
f 456 697 602
f 457 582 566
f 458 561 650
f 458 650 643
f 460 570 656
f 461 544 661
f 461 574 544
f 462 490 651
f 462 651 514
f 463 528 588
f 465 673 663
f 466 622 627
f 466 627 668
f 466 685 622
f 467 495 491
f 468 617 658
f 468 645 613
f 469 615 655
f 470 616 619
f 471 607 653
f 472 572 627
f 472 627 686
f 474 605 484
f 477 483 685
f 477 614 483
f 477 628 614
f 477 685 628
f 478 625 675
f 478 660 687
f 478 675 660
f 478 687 625
f 479 703 612
f 480 493 620
f 480 620 683
f 482 603 646
f 482 646 583
f 484 688 488
f 485 580 667
f 485 611 691
f 485 667 611
f 489 621 553
f 493 683 620
f 494 686 692
f 496 602 697
f 496 699 602
f 497 702 707
f 498 635 705
f 499 716 520
f 500 719 541
f 502 718 709
f 503 707 702
f 504 644 512
f 507 664 720
f 507 720 700
f 508 708 630
f 512 562 717
f 516 535 540
f 518 612 703
f 520 716 641
f 521 522 715
f 525 534 711
f 526 602 699
f 526 710 529
f 562 700 720
f 562 720 717
f 566 582 648
f 570 638 670
f 570 670 656
f 572 668 627
f 604 691 611
f 606 664 621
f 606 720 664
f 609 628 685
f 609 678 628
f 610 630 708
f 613 670 615
f 615 670 655
f 623 670 638
