v -0.32123710208149386 0.83067463020367238 0.47413904790473593
v -0.5278608933607597 0.82202559953890109 0.50705655420093221
v -0.72576597926945219 0.074900774425513447 0.050641676740099548
v -0.72601288009534581 0.07489687153230476 0.050784618106138331
v -0.91300958057320836 0.87060594651210965 0.15207670425223621
v -0.75675273330798432 1.4376075163631046 -0.16355859902535111
v -0.67497567177510642 1.3047150169996418 0.0039793270657707521
v -0.099168708945717721 0.14062132331730348 -0.22745370034249018
v -0.15901125602603194 0.52702117936629067 -0.33486529618992683
v -0.86200012994753761 0.96175396359662901 0.0036065917330984458
v -0.16708280915179724 0.64167056699083547 -0.32183556278072634
v -0.24639703934097859 0.14152025302592505 0.61044456379756717
v -0.78302663345001389 0.88170333333233086 0.66516751141589059
v -0.18354897614815813 0.72591468342899623 0.54897298214893542
v -0.081522534004626127 0.13687637345933557 0.5868154423819405
v -0.20374884036550331 1.2272453315616747 0.14325175306460777
v -0.38488690937266595 0.28622129086280068 0.50659216072434954
v 0.069675686872864392 0.71024629787291826 -0.17294670775560281
v -0.63778774624605006 0.73678786413207087 0.54176689689981838
v -0.60218685351947643 0.51963726940197386 0.54573248904388905
v -0.2133953338630909 0.45365631354142988 -0.33222099086642559
v -0.91184446544018694 0.66333752409982438 0.31595532982587055
v -0.68684084172972737 0.3184669013384358 0.25847082601303362
v -0.42156770951065681 0.59656770012345062 -0.13711586409822521
v -0.1709894229275136 0.53967654261446452 -0.33818433933070968
v -0.33088214638373425 0.16081227980900578 -0.2143813206715002
v -0.50318132633721768 0.4526330052280762 0.53548835665306638
v -0.30590298765411161 0.069015745007762946 0.40161572201085605
v -0.23733322267498363 0.12357847211117225 0.63412444069941698
v -0.2375836369813617 0.082417282703688644 -0.065513957854136801
v -0.25126728590662895 0.69606202576649234 0.5416459653415252
v -0.84498710418168077 0.62096522904475304 0.42042856451645289
v -0.61113618283231763 0.67120657138751572 0.56492477260955831
v 0.31610663008692269 0.75530087159371018 0.47311020363799355
v -0.44218400589135787 0.4898296646356361 -0.11207685350377526
v -0.2030039964153674 0.55521440669554956 0.66017841214745465
v -0.64492573419642762 0.40674422961789175 -0.032067963854360323
v -0.31416277832171702 0.77287137020013041 0.50646718815301683
v -0.83796081083171148 0.50541642474084481 0.35170255724733435
v -0.72693905116404467 0.81352732689284446 0.49913746414198995
v -0.62209900776416771 0.14602077347853035 0.37528063868648653
v -0.54933494946911321 0.050043538493743205 0.57144754946168519
v -0.65938219500033168 0.68304060986851634 -0.097516432581664536
v -0.38128777067465214 0.1989052838136125 -0.048640803652383706
v 0.49428287126821308 0.65483206544695549 0.22460169979935238
v -0.82482414285474237 0.44351667054630989 0.27710367480074322
v -0.60163426009065124 0.1776636048686725 0.47082997166852869
v -0.40090734781647813 0.16714280299214224 -0.16185956072501007
v -0.52214646248786523 0.256464308757335 0.23598505115440324
v -0.4601097588942038 0.095484420925129418 -0.16318542139859987
v -0.4117242930738132 0.36989068479188442 -0.067179351990758931
v -0.37742698082327608 0.44428058120141795 0.52686289688708188
v -0.71160728806826834 0.59201546241329495 -0.084017353237855419
v -0.73352025535744825 0.38292034672457437 0.34193280149381639
v -0.47945090251686645 0.49091320297264923 0.55174855343729201
v -0.50148716841193919 0.0770342198693863 -0.063753621655252821
v -0.34526188256050516 0.28445176924190796 -0.038004262818580471
v -0.82167836678823081 0.49510567832650781 0.048532812574445756
v -0.64422154056848824 0.75304588045489085 -0.093523453276044277
v 0.075905627429711089 0.75929880832682961 0.5213554383047182
v -0.19681530815685094 0.61929015107217533 0.6562853712615595
v -0.48144232097730211 0.1311732681551506 -0.039412564277467324
v -0.4842260407963262 0.03615387993397453 -0.090740679528341514
v -0.27978871237674041 0.50004857238413658 0.52722421611312997
v -0.79340603204792592 0.56822727011000285 -0.023708530373634875
v -0.258382829311608 0.58685957305821057 -0.30856077393463771
v -0.26569885774442453 0.61060556377818331 0.55083647772121158
v -0.56173095909116766 0.14593084028595052 0.55507486929850502
v -0.34064505513846 0.051069159377581878 -0.12600397720008882
v -0.40229285787764496 0.66111576544334394 0.53238730741248674
v -0.22166555764525245 0.65418435283219201 -0.28268695405817224
v -0.24790536937622834 0.56656361988686055 0.59860635642807591
v -0.64526538816847723 0.11276645612078461 0.35493695379365642
v -0.66068111858225509 0.10303170165030334 0.49217891161931587
v -0.79733491576938775 0.47845550995582042 0.40312659097648568
v 0.46791908183910463 0.71970275209558632 0.073438948765042006
v 0.4818689938524589 0.64569416964780679 0.32219381063140073
v -0.41205155268688742 0.59849024728385403 0.53507900676808684
v -0.44634053000273044 0.3006136586746328 0.49381438955320617
v -0.26949709069066841 0.25472097822349826 -0.2178699257522822
v -0.75924914333866156 0.66050276078514225 0.51137783069646259
v -0.8858710542943542 0.57882158989349519 0.28548974114027614
v -0.77996449501356235 0.39248306870311078 0.16592436706485114
v -0.64197739152705247 0.39539922255861065 0.46015095167384912
v -0.37478539309237052 0.030975205428499703 0.13654979393544139
v -0.5542258022031058 0.16232746179785332 0.24293660618569279
v -0.86989324312286898 0.50923917489157378 0.28140588750129525
v -0.48038767148275074 0.12218165253275186 0.54622450970678638
v -0.42979087111492875 0.22868054709102567 -0.033705180887030568
v -0.86116342961953884 0.70345858824159624 0.065233102148198593
v -0.42297979970128102 0.045074841071025475 -0.016013245724219048
v 0.34374249871199136 0.20400775889149228 -0.043671128628161797
v 0.32765308929491643 0.74380363860180343 -0.10170613517986743
v -0.0050735893416803072 0.556609459068375 -0.31660931220174909
v 0.11777930853087952 0.75220733937037609 -0.14654654087316504
v -0.41974984657155201 0.069025742569414794 -0.22811202399862707
v -0.51231435155047544 0.70058358009547628 -0.14283215630086565
v -0.25676621013924311 0.7231024893627116 -0.17041531427953516
v -0.43214386893792534 0.14979274428510142 -0.1567235614345944
v -0.40829884630883467 0.13079835714269097 0.52395912270345857
v -0.62679915344077497 0.34060218208436788 0.37748055836091132
v -0.58400176126170877 0.038418641191813999 0.54937466345255892
v -0.2551564073319772 0.6645312802220833 0.55916917306875524
v -0.7662018331190884 0.71824925133157946 0.48964867863668515
v -0.5225430218037459 0.25278141238411489 0.38653210972352731
v -0.47041284247725129 0.031061325400235932 0.37241139103842014
v -0.47394895099862994 0.19240489433848179 0.48695507610845418
v -0.71180909359507327 0.48582565684485585 -0.061274755939328129
v -0.35827386694280239 0.032355788559829457 0.4432524823227102
v -0.90644891692095719 0.61134817870225489 0.29545084064329413
v -0.46117007439926888 0.066915683982206986 0.55785297222854913
v -0.55556465516831188 0.66319160956645962 0.56861224914905106
v -0.26835163098841019 0.74249235213636677 0.53172172182635735
v -0.44413646667555107 0.35208358168054049 -0.061307818856872559
v -0.83449788579279249 0.47683486843881401 0.28938846827163489
v -0.63146576687313871 0.16207628481218964 0.43455047137024627
v -0.51458397652461041 0.1678848320842804 -0.015585699519026067
v -0.35757738899289915 0.51754823210079837 -0.15757804433344555
v -0.80733157941289857 0.69858066920920259 0.46374530175879236
v -0.75110472257051708 0.49966382476938925 -0.037499488644591523
v -0.90540485596496967 0.66469231171338761 0.1892933136086529
v -0.37574080118848646 0.53695514096428498 0.54591472996197377
v -0.75104189739335525 0.091216459902043676 0.15894949434433836
v -0.53108258867847669 0.38943697992847409 -0.042279811989376047
v -0.84740010964848289 0.53634625978435602 0.082537633559600282
v -0.84529536636639568 0.48689661275473883 0.22729083824905599
v -0.59569514992052142 0.1157836820877698 0.30642061221887112
v -0.473952396508247 0.72400390284989036 0.54664990186566065
v -0.53137602707241383 0.20630257427377327 0.3381341622186847
v -0.47954842227824346 0.05750686928167234 -0.15562294904453033
v -0.73816581275504567 0.045081055786429354 0.16763741522898373
v -0.67501889375068713 0.076922835546629195 0.38085445517076727
v -0.22769619005112085 0.75956273067008329 -0.1679322503760014
v -0.39558109816405496 0.47829839665305013 -0.1067938398555304
v -0.59393049110311025 0.28823163433849108 0.1505681271319009
v -0.81145485723848376 0.45810149465524214 0.069173498805764747
v -0.55219296365403103 0.23932373169706742 0.021050439225282814
v -0.20829282117657341 0.23973157456901609 -0.25674836611533042
v -0.38848094867157984 0.094625718840505538 0.52036856797356346
v -0.52547202107426283 0.20096299786289379 0.43413394510113024
v 0.17007021758220026 0.72716782489956966 0.56955571382893944
v 0.4437292736059435 0.71842640476143482 0.014782285206213211
v -0.33141343658667072 0.70410796374462559 0.53963038659091489
v -0.3228657210199336 0.29571573110321975 -0.10684827462701685
v -0.64719578931115573 0.31867735395550995 0.11351332777680327
v -0.74180867166004127 0.35213738268013689 0.19388954856341817
v -0.82868346247651226 0.44383256492225087 0.1727216062827939
v -0.25769231712691698 0.2776318880057187 0.47135131753744253
v -0.39743201606109052 0.48754221501541911 0.54223856092446676
v -0.70705188588997281 0.1145609575894611 0.067339794178095172
v -0.91291461420171571 0.6304890383406544 0.26646302322561605
v -0.58783960377286515 0.31397102823728751 0.061969860589970477
v -0.57761681767874451 0.45606554534167804 0.53270401952425961
v -0.54842660454091097 0.73020210203379265 0.54929534882223952
v -0.4185406917433569 0.032151059213795651 0.084081762101528554
v -0.34839747565937451 0.02919813794398186 0.22504934860326134
v -0.56803721995774958 0.26625254106379648 0.041792187945752228
v -0.40461338360553645 0.047670666340481019 0.17993573400542023
v -0.45539055356982233 0.036017606632106049 0.40093431464029844
v -0.27162063921035029 0.30654512440064891 -0.2455123911299541
v -0.77544879854836968 0.49849621870182526 0.45097035369077232
v -0.42025472238851153 0.1340427644775545 -0.1711423809732614
v -0.43206072148953212 0.18842927587946007 -0.040900181458247406
v -0.77328777828406492 0.39735786137818546 0.28286616137976861
v -0.63036474531382847 0.086066628273726145 0.31604043593197961
v -0.89614327055090481 0.70439965136330096 0.14401572661806772
v -0.68199747769168262 0.1326647309975299 0.20368739373867945
v -0.32896443728224856 0.19317866131548228 0.48672589777804337
v -0.63804825614325755 0.56576625238007128 -0.108312861416447
v -0.29391481744289438 0.079614062756169307 -0.1141487840099487
v -0.4305689094709933 0.58283945493493183 0.55010708496958449
v -0.452036632596437 0.041298418487636608 -0.19673007121109118
v -0.28804727552507997 0.40019115730684873 0.4954104204973771
v -0.29677181184878781 0.56499839330724422 -0.28956548588980757
v -0.7020588143855222 0.67719179140927255 0.5428695073952351
v -0.34038679474504413 0.36282715998502713 -0.10336105010653091
v -0.86258344518083441 0.55401007511929545 0.34010046264645588
v -0.52456307274355574 0.59869025456788172 -0.13554548693525353
v 0.20885800327974086 0.10774954989163356 0.52323659597462091
v 0.29160787314759246 0.20396193823850636 -0.15554263988544487
v 0.2904658996214689 0.73074155436734245 -0.12599195390657197
v -0.28885877407490745 0.073542148175410896 -0.12440863613646465
v -0.2718307664458729 0.063234764216424266 0.26753090933682294
v -0.72127167112741464 0.35212619712532639 0.12860512193165555
v -0.85344374827511127 0.68408882186414111 0.41901726663904254
v -0.79566369875239529 0.55699490603212054 0.47444230250008157
v -0.43319402071066765 0.4200178862009088 0.53031474874362305
v -0.46684919414898379 0.23935159682472842 0.47711495385392855
v -0.43287255742804182 0.29510235699074072 -0.041083944340432013
v -0.37775472848450276 0.51383618227725925 -0.12389399817705815
v -0.68134278275228333 0.072455237319826976 0.43634287998027582
v -0.53158532446736317 0.12787767804711914 0.56571189660527976
v -0.88150549201597461 0.69672518074001122 0.10867864801883538
v -0.37823028622792121 0.08047969031226429 0.0022169574132446497
v -0.52906581453877599 0.30106218887220837 0.38101537022328652
v -0.52220463321420596 0.060521908939071056 -0.053947447684826975
v -0.33331046022391497 0.028786154465396677 0.18902407728478343
v -0.55062007392389911 0.38669323487879986 0.4824689429360362
v -0.78392032801961464 0.42026009566203609 0.33672931268758888
v -0.73078587003313389 0.12005254399113441 0.1693165600264018
v -0.1957725768658361 0.68211460158577619 0.55529835342536704
v -0.59165346146293563 0.69258462601934645 -0.12594682170436433
v -0.29762444330609272 0.61460818836400377 -0.25183609467413204
v -0.82110441575790838 0.68635617602030241 0.0022698174660094931
v -0.35610495878926435 0.24452911294602203 -0.026794641184770551
v -0.42016807432104586 0.23058562959413081 0.4964232619100305
v -0.35284309586143431 0.71759267840705443 -0.15223832704236739
v -0.6442567705819936 0.075232511706538871 0.53523352951282588
v -0.34907868582810092 0.55658082390942532 -0.17523448499312799
v -0.43006894151473279 0.15804728110366686 0.51229734898164947
v -0.29737830032987927 0.21537596482406463 0.46794994671359769
v -0.33786293561261455 0.48707401255929011 -0.21979659928372963
v -0.62235974216074119 0.034571466877745059 0.1696189511389197
v -0.018604633626468067 0.73686375664801829 0.53824013846279084
v -0.069130966004679648 0.72170713140580289 -0.1815399829844421
v -0.16235558107548095 0.067442154015122338 0.49566357068830275
v -0.80950417953455767 0.64062369474852643 0.4630470949018165
v -0.3924728931537948 0.077886279740328176 -0.021669922373915042
v -0.27511592055731604 0.19878843326581599 0.53049941534921541
v -0.7517443404711176 0.81273300193270426 0.49440177313606254
v -0.42612875684590534 0.03480479474442346 -0.19174257897102603
v -0.62326233557581678 0.13914746110337212 0.016458180433396755
v -0.71957405984714107 0.34361513009662176 0.29576441994859221
v -0.3914386266150725 0.4358232968207465 -0.095912207558741538
v -0.31017114195353179 0.70576680542705483 -0.1603982210851409
v -0.55572859646823702 0.32738415148209088 -0.0024386352522976699
v -0.50774432322791141 0.5681050296977801 -0.13711779756245132
v -0.58141868597524393 0.099469338078169739 0.5775710657172709
v -0.84474002526340575 0.50606767544409403 0.095997970742898328
v -0.27146899473151603 0.32294103926434969 0.47228765643205883
v -0.32777738169809112 0.4879013023051777 -0.25652492829494505
v -0.73980301705979001 0.10269371940555229 0.099325781009162242
v -0.51586221845410463 0.22506768658766038 -0.003783868380456449
v -0.52706525911375146 0.61521017847746906 0.56601019827370791
v -0.42409762799244854 0.04938698912258023 0.2533177900848812
v -0.6968995695232526 0.14640390867155573 0.17948138643825881
v -0.68663447802971422 0.5141043257716732 -0.086139350750841268
v -0.26184239752962862 0.071322025342480125 0.37758294176628093
v -0.36915925751161022 0.23702935592297672 0.49265586128133249
v -0.52638951745297657 0.25934162646450992 0.3328730533337661
v -0.71777928572209337 0.057685767018343957 0.21522560742321448
v -0.283640133807887 0.78127341557063956 -0.15620616450795832
v -0.59943334071989884 0.60543906993970387 -0.12785807715821715
v -0.45905102748184445 0.16867141203948458 -0.034012671840517136
v -0.88286722188634448 0.57673307339944369 0.11858946225039037
v -0.84569467165567758 0.4714992358889411 0.17683527100706917
v -0.22083265768986376 0.58724808206957757 0.63013881891138257
v -0.27877506801902824 0.19448670440709706 -0.19416955166629637
v -0.37593187911325138 0.50988889000749438 0.53813447247675883
v -0.88673115712950656 0.53980499701351425 0.26114379484049449
v -0.67151895213261437 0.14707472172840216 0.058697658578541617
v -0.47586950415511436 0.63681194741742508 0.55664111667396121
v -0.26872755876718429 0.63302103786929642 0.54703836186318733
v -0.22393844709556887 0.71690724473746104 0.55094628904548659
v -0.642644620232946 0.49305006358479203 0.53177188593707947
v -0.23552517299611048 0.67755906001730626 0.54154750848520161
v -0.22712684832961841 0.4952483405458315 0.63064727531388276
v -0.425897038834401 0.036074178413225778 -0.081749315382442206
v 0.2135069340269245 0.11903032849104686 -0.16127285712822961
v -0.017837997870766325 0.71173372309399274 -0.21105400006724237
v 0.29054243095455173 0.24422048645028863 0.51339255691483432
v 0.021343630772223256 0.5668532503003918 -0.29846874530880874
v 0.35249467609527396 0.42526395099163311 -0.13134950728473307
v 0.21116263238501035 0.73074355413298164 0.55742465632348126
v 0.038771774020036301 0.26366164592240382 0.63745550091674952
v 0.45560054138298184 0.60920050307073215 -0.034860729315320346
v 0.073657108520428449 0.72443852645435891 0.54371013637300691
v 0.29331995642771413 0.070838873286969917 0.38086227535420153
v 0.31411917525826921 0.73438789366601509 0.4905063583478575
v 0.4495140172474022 0.74250203533112025 0.054305346964084671
v -0.25885019397185677 0.36172559007580113 -0.27432228222958233
v -0.61032316939460851 0.16716107839138214 0.045855267908334482
v -0.57634836334494066 0.34180777285329322 0.023887776664786666
v -0.24121672746014669 0.6875501508032178 -0.18330825590168118
v -0.5101728196919314 0.23518862326057 0.42607610557704917
v -0.5372473830889003 0.03262783808917212 0.32972428696226813
v -0.52179912548842999 0.26249424099024121 0.26727952592242066
v -0.65918762639491779 0.35916563597960272 0.03799044203473894
v -0.7948886150009854 0.41664991655389005 0.16916345818508266
v -0.23829203801905097 0.077545193098596865 0.024774008427305181
v -0.72479799168843584 0.70123060659707148 -0.066313439013701472
v -0.3304157623374594 0.7630059697880639 -0.1453167288510567
v -0.38238799652029809 0.12636787265219865 -0.22673814065883505
v -0.30302388532455315 0.67966971426590495 0.55515745714450204
v -0.4131890829359216 0.034396023202277012 0.4931638189882297
v -0.71958747036488502 0.70197792668114134 0.52944951684294927
v -0.64744896151622 0.048000816781312503 0.33016657152225165
v -0.49945772929304155 0.41320631498469884 0.494494677093686
v -0.21167764414722953 0.31703544815372509 0.53615458794044635
v -0.50403646765308385 0.32025078689621705 -0.038358982846015494
v -0.87148470114648724 0.51342052895967294 0.21782304292337332
v -0.69177903656224782 0.43996892203825866 -0.030007095056012019
v -0.41436588966243726 0.32444604103232788 0.51369300909125193
v -0.23968935871042174 0.4165858733666078 -0.31698798516819243
v -0.5200909883346071 0.72521237641969316 0.54031063857576012
v -0.72936538946869378 0.043905075744217009 0.061292743673216542
v -0.87766247367928596 0.61208791966764464 0.08789231900984322
v -0.32611714722923463 0.21823879753992875 0.47377845200913654
v -0.33263379800749548 0.38470052713978548 0.51648089808083908
v -0.45419749745618765 0.6335289924855575 -0.14334592421663864
v -0.81719927367031531 0.57647109563373111 0.45644028091481231
v -0.6591029321373103 0.040019958483125097 0.24739429950418068
v -0.82679259056960508 0.55072008367373659 0.030765705093982871
v -0.80208291219725092 0.44772726327370732 0.10410809068940806
v -0.55974991945288666 0.17743960453617172 0.51208654461255254
v -0.65035710506743782 0.076538430561894938 0.27272964901491542
v -0.59975006083867366 0.13791532590716191 0.3400236669619216
v -0.58898748845441129 0.35557245503222762 0.43241212541869684
v -0.60834212905488538 0.29728345959075142 0.16049677055570349
v -0.44052744788859732 0.71958670822572257 -0.13590016934911062
v -0.60965417062981275 0.60991957252215845 0.57564229311797621
v -0.58200585258437021 0.17893639281932014 0.19879280044613581
v -0.36841369008219677 0.042976641156102703 0.26649694371693716
v -0.51693059676569986 0.033998665073939491 -0.017707720683665142
v -0.20793191034933467 0.59128536392972542 -0.32100805192344317
v -0.32526207741015745 0.11650689052144471 0.59318675489176653
v -0.67716374595507889 0.060231204028725935 0.48436507554029945
v -0.34569976656782686 0.048132075735703293 0.57218128809447066
v -0.25503670186104799 0.35766162757054559 0.4866886938077517
v -0.77785058708558907 0.60267497900843514 0.50166202123910419
v 0.060417993011985797 0.66657033724051318 -0.25849822534354355
v 0.090257414405906719 0.24267747310005691 -0.25671829475893843
v 0.49901783708141262 0.59531181867801508 0.28514777608910935
v 0.14871405621506817 0.50592192896362131 0.64085782751326537
v 0.53098014215999823 0.35150961615691517 0.34299830781180785
v 0.16595473102663988 0.47042637473753962 -0.24513128224622807
v 0.32773281366395629 0.13021954123960086 -0.010502165152097804
v 0.22833755366737454 0.72797596601843018 -0.16196535725724096
v 0.57998295210556372 0.26279610050371555 0.019365492334959319
v -0.022614679074186395 0.72561045864490914 -0.17151830181840233
v -0.1292969100638329 0.34865783194230948 -0.31419332618495965
v -0.67707831585695 0.73015682590644104 -0.073683394774479313
v -0.88143143012473324 0.53192135818400776 0.17874277256385598
v -0.84213161065036379 0.47134883058232907 0.13378555892224589
v -0.42705203970208783 0.18260345033737022 0.50024606493910651
v -0.67189326176973629 0.47480228559617788 -0.079154241832265382
v -0.52327620622065762 0.037505893081568244 0.4487209489378014
v -0.62570340295656135 0.29425196159677941 0.2356983524603129
v -0.36255562456966101 0.048392465473844445 0.22879338666730301
v -0.53525055953657474 0.20241750669981848 0.38480561328382784
v -0.59216252373037859 0.19348774297919641 0.062915520127722072
v -0.79177756390905374 0.67631971393892931 -0.032785857879438544
v -0.91763191086271934 0.64664394268790126 0.2408512710270361
v -0.30577963651109535 0.29440587186256784 -0.15797259682226933
v -0.69913937516413716 0.067121644288197502 0.014026599429420604
v -0.75121617431290522 0.063630829645367232 0.18169986026517318
v -0.62000009212846929 0.68391300120373277 -0.10314722975989953
v -0.29133279725929445 0.47288926116044322 0.51105953328589615
v -0.71993681982586655 0.51791596312256105 0.51059114037275377
v -0.50091314145239629 0.052755620231241286 -0.073848988150538017
v -0.33383819930174313 0.12453851542127616 -0.23925869444665845
v -0.35201084761256585 0.09334396719955286 0.56563545366868773
v -0.35775990182395562 0.32730358121795861 0.51678810971273503
v -0.40561499088808012 0.54323352192210939 0.53123119316123424
v -0.39232102231885502 0.61687838051195676 0.53505534911336761
v -0.46403352981295792 0.24539792586428777 -0.029258188848449392
v -0.66291138511885139 0.13086490652840388 0.45118138392629947
v -0.68212766718559892 0.16415174498670207 0.11737097251310587
v -0.21815883027443728 0.52373530734511575 0.65314136380261467
v -0.5900127879046041 0.51044342006234122 -0.11379474013936643
v -0.41383448376201437 0.03883884271626227 -0.21871775979736557
v -0.52520972074853289 0.031646935330230684 0.15940088976080438
v -0.89338486062160094 0.698667791554062 0.36129507191633897
v -0.86756989641392812 0.57154870681478875 0.071753462241408481
v -0.31039006743687791 0.35602135977363308 -0.2086966276871674
v -0.74215305578591539 0.043235605203294107 0.10491554851925619
v -0.56336754164038483 0.6330151039329498 -0.14184918753529982
v -0.84888791670372554 0.52744725566413764 0.3844059616283193
v -0.49353643346521897 0.053832032789514574 0.56826199182047277
v -0.5679886077854277 0.58431480767597488 0.55962510775477681
v -0.48271185946525763 0.22774233280512612 0.46633654264702762
v -0.68163712496628126 0.64540550979880096 0.54479969868605771
v -0.59660093075894249 0.039731873603444767 -0.017887831940531489
v -0.39301079302753261 0.21122910987933846 -0.034809013494765582
v -0.28350225990626088 0.53219751440468488 -0.30622775559940768
v -0.45509882516703137 0.77712258758033403 -0.13085785106697684
v -0.60310021806613789 0.18448010806431983 0.16354059680714295
v -0.68449093873066702 0.34871721645254022 0.064606584680112517
v -0.48169237569911522 0.32331829206254836 -0.045425511663267575
v -0.38922392212042611 0.066943835348886774 0.52720892578937506
v -0.45116182080301337 0.46197237261756846 0.53091680440525335
v -0.3254513883819426 0.14207296419285603 0.55910674930620663
v -0.68447962462806677 0.053609542358284315 0.41853002044356163
v -0.42666165138951501 0.55861182203185045 -0.13392405283953462
v -0.81380777272254523 0.42138764387360494 0.25431376555263713
v -0.28127482236481754 0.24967429106956179 0.4575109666780427
v 0.11619157074836489 0.028140771722688713 -0.030361873853030689
v 0.24497338935094065 0.039737928798432007 0.21967258970210979
v 0.46563077794658098 0.33861043903302895 0.040431208733460899
v 0.064308521763494317 0.61939696732463845 -0.27905858585845328
v 0.23566383633034504 0.5895560064464469 0.57753052284220296
v 0.1481847366235487 0.025459773720186919 0.36550896815802741
v 0.42358420754058462 0.53034272005012295 -0.092015050322542549
v 0.45513609636710528 0.30092249180320385 0.35977901135032642
v 0.16721870156107155 0.45223873910180834 0.64176001848426334
v -0.033860143447185811 0.48674209035047905 0.67941193520076071
v 0.45145446138259232 0.56032966210014334 0.40837014302487634
v 0.3626438920340388 0.028052046143617577 0.15694526334723941
v 0.60995371975366497 0.17150848622572101 0.16894876048399526
v 0.59081754193037539 0.39079731248298144 0.084729919364153874
v 0.15891494444208262 0.74539773930652287 -0.16319106199968961
v 0.64700463780737461 0.29134394014865339 0.10866109600032259
v 0.15338433220924336 0.34375192353977113 0.63238148644582315
v 0.26524733762074343 0.53422488711651295 -0.20147852492962687
v 0.44590994263978656 0.6678892710925014 -0.0081886073824068567
v 0.32863669536690515 0.65064934893325133 0.5281646566688033
v 0.52192540726561187 0.42173313934807366 0.23106118314046867
v -0.023825542841917825 0.68229588857297796 -0.26397533706469301
v -0.6967375272745252 0.69538918691089524 -0.073896054662151434
v -0.77543637185102376 0.42463227611037963 0.091221925217787325
v -0.70215747921668881 0.067648733394599814 0.23643553721732463
v -0.61784873543055296 0.095970727024415933 0.28867742727232426
v -0.38303800054560827 0.6959785649217326 0.52904027687442656
v -0.91169718339431971 0.6878912934063921 0.27269908272859622
v -0.47179226150973008 0.59744650236856089 0.56956393166930785
v -0.81722078344501992 0.57251871755647421 -0.0015097185949321257
v -0.41294176314038433 0.38535744729455812 0.52077859148655603
v -0.70329942856760497 0.040626222139985312 0.032612603858180822
v -0.32201000180417783 0.078440395558863438 0.070037270897680998
v -0.37314415853509242 0.029281977680251522 0.17968270555007235
v -0.422940949670155 0.77129808702999203 0.52896485518613812
v -0.3432943972606482 0.55051009797963613 0.54652434082133494
v -0.22974904003635813 0.37146367413019549 0.53412415672240543
v -0.36936667295485454 0.081214031313717502 -0.066263182124933956
v -0.70267676727596162 0.43712981568458398 0.47082559137142022
v -0.5433370538508645 0.45369353805672202 0.5277187363807343
v -0.28327454708603483 0.05479156665498329 0.63260384744278375
v -0.24916525430779632 0.47183864080533627 -0.32236362559010484
v -0.58436474044311293 0.4823234527214193 -0.10645994470753485
v -0.56179344943558052 0.70082483043765031 -0.13355299657731792
v -0.41678028730425232 0.045867111363487256 0.53294793056316547
v -0.42684426521490038 0.17541485951579652 -0.087148027470778378
v -0.36546873163172167 0.62083681599852436 0.54340491918917089
v -0.24804936916940831 0.52581902207086639 0.60149966062996041
v -0.55796359341270751 0.0317386479231394 0.20479068924343591
v -0.51538603540796846 0.1747026314408828 0.26870290975125705
v -0.6085028024954009 0.7268241470341168 -0.10218105550849563
v -0.65844525063881287 0.74345102691290565 0.53363757951316781
v -0.25430698874900742 0.61782046255311529 -0.29688379907751272
v -0.3843775940168116 0.55396866220154195 -0.14678702384591327
v -0.89298914001691854 0.63724717098659789 0.36254645400715901
v -0.56424313630896938 0.36805677591179248 -0.0058052110013333521
v -0.71188746410924708 0.43298498489198045 -0.0062769174467360864
v -0.42088292431275759 0.66967582665870495 -0.1532883674508963
v -0.23838803045918339 0.12369728461267793 -0.23054447445212836
v -0.39143235717769664 0.3075337028478507 -0.039169839649935541
v -0.73033890962099768 0.11517317121195449 0.13727646554667372
v -0.2948628555766471 0.3125719993997324 -0.20527688421681761
v -0.38180509899864246 0.043120429844338726 0.33872180496434545
v -0.61755329341166321 0.036564587204424501 0.31484554460406194
v -0.47718541373816908 0.095381668024925426 -0.14775039882992608
v -0.78572480701793301 0.44255389331619704 0.38298326146950756
v -0.59588318932131401 0.63673379002252062 0.57369634122502366
v -0.28852203849019598 0.72060440380012447 0.54376676302216531
v -0.88904259773705208 0.5762639538452563 0.22803962971096542
v -0.28970600532490415 0.65962541404109698 -0.18185520389175194
v -0.47833500310961297 0.67535124841955718 0.5643779597398082
v -0.74271299777673294 0.35629467584336366 0.27800636399005935
v -0.40732230945708708 0.74818644350296626 -0.13371859476586975
v -0.33934266215653236 0.040875865790140554 0.41597314821978476
v -0.24911415031208231 0.076644713957455715 0.45930299521848617
v -0.34864306874822465 0.48156469258514639 -0.1968289676237463
v -0.66953108835128128 0.3748050525369736 0.41323763871354097
v -0.49578067984008567 0.098580421949756372 -0.043013270211130758
v -0.77416297995241468 0.60260116236191574 -0.054561282766665928
v -0.45588753473938587 0.12653004276380717 0.54144148869740971
v -0.64887197703359945 0.049972762726887887 0.52891933065710739
v 0.10726710520530701 0.072499989420462249 0.38196126159312355
v 0.19789968271806191 0.033364159181073008 0.00043390387493711508
v 0.070679148503195649 0.4993206897950816 0.66482163100094338
v 0.28877915506527935 0.3467957575931323 -0.1675899939267266
v 0.14641522765311016 0.50938433347216638 -0.2577109627009605
v 0.16367539596725672 0.034511944020588554 0.096679965396910567
v 0.40559681130082875 0.217727142889582 0.38598028031020848
v 0.60735825171070235 0.42157395006120146 0.18103963893469405
v 0.030015929943572443 0.10456971564302764 0.55236226907782138
v 0.13023229312722479 0.28080194912934137 0.62057988022206123
v 0.2463274228673375 0.24316078651018608 0.56686949946832299
v 0.58760181658481236 0.17375800974447148 0.080459586522929422
v 0.38878282433347988 0.58033829107617041 0.49821977832891234
v 0.38240214836385006 0.66192827355666251 -0.081742827870564402
v 0.54428206710038463 0.31324436430953206 0.011443876584590973
v 0.12530644612735181 0.66896335167369669 -0.22497214595727991
v 0.12665136823408407 0.41445473090984097 -0.27043105371222359
v 0.27381079821422527 0.53837814937945738 0.5856484322697787
v 0.53779573641510903 0.16464822622025882 0.33805004054863674
v 0.47454588349475202 0.4320164461522451 0.022932114257998605
v 0.33110947532137214 0.15252785818942338 0.42790958446792643
v 0.13144018474971553 0.18667203831110787 -0.223960906287477
v 0.25644631428781001 0.70633851358179223 -0.15562004262232354
v 0.14792391873323407 0.069009389829358322 -0.17452135798437818
v 0.26087662459445959 0.097570331519175713 -0.011958014893689729
v 0.4979922894219222 0.096809207018966129 0.27586269701478183
v 0.59973349514856378 0.32133209236269938 0.34664340484838074
v 0.66843707836284727 0.3194733675329367 0.18489461682286781
v 0.32150970725363442 0.17989525404495527 -0.076779352366073222
v 0.33011362151188345 0.34736098522734121 0.50695001135325102
v 0.4164774800817343 0.43016288906055422 -0.068324622467457102
v 0.0017032611639258416 0.76991702096502068 0.54178157216473266
v -0.17287563489003011 0.27957837927956575 -0.29221094730774155
v 0.072330461688191294 0.079821822572109444 -0.040320881771062043
v -0.2720606888092551 0.050116596594167867 0.65359994070829808
v -0.085079894305502196 0.032425697748012676 -0.19720869847149539
v -0.046810188392637973 0.13143841548826921 -0.2141167943664358
v -0.27783512439599495 0.073890491662611649 0.14416287991466986
v -0.29242959214683911 0.10037777121197047 0.61942738506563155
v -0.44690755115653996 0.67087160245499455 0.54947906736577423
v -0.38478461029489686 0.046714920843701241 0.52814770528504817
v -0.53010977330285791 0.56316467239787904 0.57042477748756792
v -0.51996468498337844 0.041478559886098471 0.18829233205122953
v -0.44284807022981737 0.1576668777856326 -0.097476232545504304
v -0.21687960330280515 0.53624400983398957 -0.33192692570644672
v -0.53889039086986623 0.73947294527855301 -0.13606927148167641
v -0.29916026265548612 0.54058025339862081 0.52051503280270794
v -0.50603102633241392 0.22847427447898433 0.25317106860475019
v -0.80237316269362002 0.52738998544638882 0.011880482552712245
v -0.39380055239818934 0.045863298509499557 -0.089014124118242596
v -0.48262172386823693 0.37042890759916297 -0.062380087544740503
v -0.61630514302536965 0.41788125561305101 -0.059381927134726578
v -0.26416934446209417 0.42848197578628872 0.50751387752772026
v -0.63883524308043849 0.058518046823183081 -0.013250111638378664
v -0.51186663027710699 0.36095187770118775 0.46148018351381687
v -0.57408378003902538 0.28831581071127599 0.29273547683042628
v -0.52838676648606153 0.081613595035687089 0.58145376454527242
v -0.32650348382209704 0.032589526362290254 0.48926033129330176
v -0.56697452989886221 0.064191475005901985 -0.041869172555540971
v -0.29214911336122146 0.065989602505944669 0.34100157323167712
v -0.90500358246733992 0.59842697878933893 0.22731170541280715
v -0.58367040702584783 0.27577322554677042 0.08849540639073028
v -0.47928880059267576 0.03629298081357625 -0.12546646350204796
v -0.54951023444164981 0.13988950896159794 0.28129232403545701
v -0.60984056237809736 0.4554765963149634 0.52504839535526548
v -0.51247261566276503 0.19396723920677089 0.46784006674483258
v -0.6181854210038108 0.16084516002871266 0.50821787021975684
v -0.85623198622658026 0.7607284922163865 0.39400805409679673
v -0.37752778524684721 0.12978037421282412 0.51206416018132894
v -0.72619810017359943 0.12997956420491194 0.10318781849956456
v -0.33218555329648364 0.28617440814998291 -0.059763498658590458
v -0.71148041350848623 0.32799896132600181 0.19890745543469959
v -0.37622268744015402 0.36919666444001475 0.5232636342744047
v -0.34432093406932202 0.029822618882531734 0.31214424377659211
v -0.72084486230374079 0.60435703772715565 0.53479698359954919
v -0.44009015705304139 0.035356513062668328 0.03004046169408232
v -0.35775102537161008 0.36434987583620027 -0.072502265122087892
v -0.75175924085803025 0.063950803595231226 0.11299752121525269
v -0.87000803979219399 0.52196032753067556 0.30599166604715639
v -0.87908808912683434 0.55872692094307896 0.1654231739826591
v -0.86667634225336021 0.64638940144299839 0.050878913870554036
v -0.33545024350129149 0.64588986520124514 0.55615674463558784
v -0.76014417068960849 0.38791211074819454 0.11738657700610133
v -0.56799898090588985 0.17784955231520755 0.021688346014852141
v -0.23838916498035212 0.64625045296464512 0.55734077674340132
v -0.37876075791239439 0.61466769635373353 -0.16414577664519617
v -0.50399794631600625 0.45282149691229989 -0.079140646369053061
v -0.64892948699775832 0.051042753956682105 0.28441901701997213
v -0.60010564649610254 0.31544434135708604 0.079934042335658734
v -0.66503768330813184 0.042924620802352577 0.3740038008859618
v -0.33033064771756804 0.28438908094179194 0.48814819247032076
v -0.29879301812365711 0.19538552181267352 -0.17744925115348589
v -0.62015577399545552 0.70891819551290369 0.54539941494715527
v -0.37854960949002986 0.74650815933116599 0.5145916867179624
v -0.36439695104781678 0.45029238195109461 -0.11321660590958213
v -0.34036119994148661 0.21526201397662456 -0.032123208236049881
v -0.56728971245511983 0.53965592922464212 -0.13374854994970328
v -0.46656756108542535 0.4439468500148237 0.52675980963947411
v -0.6897353767761556 0.16162907589735886 0.16239418941890016
v -0.25766595890582694 0.65368100078614821 -0.25684080109630292
v -0.60135422381497139 0.0601530907395183 0.57207139162436316
v 0.19332100977293246 0.61431362487134888 0.61856924648810974
v 0.39562221224372868 0.28242346073712921 -0.056350329618458497
v 0.48766803162752081 0.36935251961105198 0.31492013369402866
v 0.28893526034503975 0.43106759430625186 -0.19695629424655348
v 0.46222794031702835 0.49561692951129233 -0.0051347948837221699
v 0.073019040695849344 0.022627809155620241 0.29461974407857588
v 0.50330520910026544 0.64023050254955072 0.13476788443367083
v 0.62710568473359107 0.37363716127714436 0.091096757440599349
v 0.3956719020180936 0.4503419302019101 0.4798021751787192
v 0.22229472586292556 0.023099701574371929 0.073886287022438241
v 0.51401409620984784 0.25445657722432324 0.39114378609769013
v 0.34108430717586036 0.083415578694499989 0.34715131560765172
v 0.0049574221136325742 0.4307658781630741 0.69559312505726123
v 0.21851921204401728 0.29612303792183403 0.57689189208839287
v -0.090176642190268302 0.16003897889382826 0.57535247424469005
v 0.12220974242275719 0.11801675414963196 0.53655590412830279
v 0.23598468905752107 0.14352807429820114 -0.13861896585544176
v 0.62787828652224864 0.20354079099251984 0.26352867443120542
v 0.34515698990851557 0.62409209830557066 -0.14169183526212914
v -0.010220311310985818 0.17776450681205594 -0.25023496348265029
v 0.39226104199110651 0.079045206273663127 0.030940696400526577
v 0.17989230942600096 0.66804618754246892 -0.19040618779921176
v 0.38693398486813563 0.30441678278480466 0.46952513482203662
v 0.15080268559740981 0.02616121058602771 0.52091434614316634
v 0.04834479633807115 0.31113844664034701 0.66488911034988107
v 0.22389958232828866 0.25136024861702139 -0.22190738674608446
v 0.25341050619678829 0.76198314221387653 0.51489140166864356
v -0.26723373398102995 0.041560834020938776 -0.14105975948048219
v 0.037407581413220301 0.47747839801971032 -0.30524432571183907
v 0.047660569834055297 0.020714764680606103 -0.16347288393573611
v -0.025683659381844099 0.68155482142675428 0.64658119204291553
v -0.32296487120217243 0.075893244734505719 0.60835507505959296
v -0.77476050418732378 0.44378440095213156 0.034034301080751318
v -0.48715738974566303 0.089069431252962947 -0.10385798090128662
v -0.55170815265516782 0.11696838996755404 -0.027473127034112702
v -0.3338406718084127 0.19922472072874933 -0.11832826853630146
v -0.54001708158494555 0.52895020234844092 0.5679696968558422
v -0.45775390792398157 0.35795458988307183 0.49113073678757535
v -0.32329559515203604 0.032682570534430612 0.33672990753201487
v -0.48802013829780072 0.17469810156196205 0.50195672885945042
v -0.44619647781604227 0.43273167197792833 -0.10187852519517926
v -0.82743048630257676 0.61571377691159901 0.019125176045786452
v -0.60731007123192005 0.19097231631949518 0.11303195584827087
v -0.33242368769383324 0.38904818053918178 -0.14445755445765257
v -0.52454191878053347 0.19373235385595836 0.23883251667851751
v -0.75318422000880636 0.78629863485639362 0.48147313130015534
v -0.52661630975855256 0.26981988622860276 0.30410526549328432
v -0.64667431026453182 0.037199963595649047 0.0050580038640749498
v -0.31775760153086019 0.5752520006531413 0.53056326952434474
v -0.47411442016850441 0.049224378058049842 0.16165353022799778
v -0.71880668597901154 0.40742854664450717 0.043521157905426829
v -0.50585402915375943 0.036086938738042931 0.54012931284541765
v -0.26704058950297987 0.16299455601714327 0.59593528740990964
v -0.64800264418123765 0.38522995593961673 0.0045300107222312471
v -0.36732046209805441 0.060900782278982067 -0.24894165108553618
v -0.63912425744097701 0.54678434538517251 0.55956884561367504
v -0.34873905111393549 0.034337689198760381 -0.1545830958129297
v -0.30805263527149768 0.21667072366808254 -0.14917519087125622
v -0.29625446706720987 0.44655556677519292 -0.28378306103651896
v -0.73596227975166439 0.41028793169576661 0.40637704991462242
v -0.34071601602949508 0.035322098803839713 0.55384321761389355
v -0.52206591229407007 0.67786119083708896 0.55232120658086781
v -0.39756427152056073 0.032801455677274806 0.36530202032933673
v -0.45180236519098976 0.54474470284339604 0.55287742807535878
v -0.83896681644020132 0.52906523460531529 0.40953968535828372
v -0.86466773754196469 0.5813320621921596 0.37623348908678672
v -0.59625383084040107 0.46270704052930256 -0.092253172665487132
v -0.3658382685592193 0.56476873422190077 -0.15127535363932393
v -0.48393134206544924 0.65599423450584871 -0.13569674836556431
v -0.55226935984196401 0.033366365013134142 0.075891234911987765
v -0.55880630140671428 0.27114448724714307 0.1986573979590229
v -0.71430329620655542 0.036994349239544859 0.10242684735327937
v -0.50741306399263264 0.42033128227852062 -0.064904233455758562
v -0.35248821408075498 0.17236846039388912 0.4932888529347757
v -0.5389762631532673 0.32013194581548182 0.38350209726577861
v -0.61833635893732564 0.1357616298826729 0.53666274164963945
v -0.35051627125033019 0.47949352226376707 0.52817081698241475
v -0.58676206268380193 0.25618526863003022 0.11943287174154704
v -0.89058115525974535 0.6702156136918952 0.14973564219221638
v -0.67340170958706569 0.32880175890182911 0.31581294503422785
v -0.43097579624510918 0.72161268055436589 0.53915153552915296
v -0.67478361972838208 0.57545070010190424 -0.10308881208536773
v -0.33619853595023563 0.54630134094785354 -0.22571938157671687
v -0.55230309444836068 0.19154213028311423 0.40529745420427588
v -0.45996089657361366 0.077790127521198113 -0.19763100208589648
v -0.7730894689674852 0.39105711209195965 0.23935801478715221
v -0.65440235225545806 0.13296164156531104 0.39936965476460495
v -0.90795413399074276 0.61179072171645199 0.15767035401949595
v -0.71914313768624549 0.077469907290731096 0.040759978966522267
v -0.22246285884051473 0.35383103488066786 -0.30024448936889281
v -0.69199400692134105 0.11322739673264791 0.026018924787122047
v -0.21413323178034505 0.42641799391561985 0.58949695266486168
v -0.65745686818017746 0.040063638699513342 0.47799636765347081
v -0.25095757607314589 0.22478380278160517 0.48142238714513091
v -0.23724532260379882 0.16631917469764324 -0.21494160831638323
v 0.40403244731865418 0.24288993404546469 -0.011091054387609947
v 0.43817524561663934 0.36140567046893318 0.41042156175013944
v 0.45075333235222875 0.13620465416819247 0.38285873491351136
v 0.15512526545395017 0.030537245042736562 -0.14053879619047185
v 0.35439896146305316 0.49545290081890475 -0.1417585720249662
v 0.25834229374240153 0.38662468708454095 0.57680540525458857
v 0.019478172928522924 0.20693750593452789 0.63698981705030122
v 0.2123696071568319 0.15885522882034905 0.50981492125771255
v 0.50354261039047443 0.6236115995988416 0.091964244366459502
v 0.32628469506426161 0.48790542920118846 0.54391488720916836
v 0.31143966372311405 0.29522556658357213 -0.15120314415347313
v 0.23219402993555188 0.32591645905288386 -0.21924235223592603
v 0.092262858400624814 0.59323131081868929 -0.27387459167598299
v 0.090679346248768805 0.43272715983269311 0.66172216653038218
v 0.030179334255877415 0.024265711791063807 0.10741816096375062
v 0.50784351208957601 0.41042312697307204 0.10472957584987522
v 0.10781045184240121 0.57159518712748092 0.66460847264833367
v 0.50281218921263016 0.49772151251769037 0.30072830933579298
v 0.274377212001508 0.023323047397500293 0.26190990621389082
v 0.49292649351347123 0.081866734260595 0.12775292426820578
v 0.61360546115149184 0.40501882908184905 0.27498222070278872
v 0.20903329994468889 0.030067695074295599 0.50417912849233815
v 0.11380680779779825 0.18194223452372862 0.61131039626378469
v 0.15096691478049842 0.68381536234644646 0.58865226524675096
v 0.47844472255500142 0.182849175141933 -0.02183705068252733
v 0.075579659018231632 0.17174620663992801 -0.22583877582375486
v -0.080356926515731841 0.34195779939640825 0.65714207181305995
v 0.024103628067543639 0.069090721404480859 0.41172545732700089
v -0.05702069175730165 0.72955081266219568 0.54018519351128491
v -0.33556428799415283 0.037466104788625554 -0.23672046749388118
v 0.086112773974152262 0.35824431573613341 -0.27216065050232008
v -0.11590528796151531 0.17500278541723477 0.61419632708007166
v -0.093856491259880326 0.055869073162748174 -0.17979395188986749
v -0.056013033698310621 0.025878927443561073 0.57827069993526947
v -0.72407880307730499 0.76834952214776819 0.49816613496426376
v -0.75992072637758623 0.47654459106950464 -0.0075455755861497664
v -0.57067097130591182 0.23757043147940529 0.18058761090371764
v -0.27850259968920477 0.57314255324430796 0.54076950956181791
v -0.50312508125046029 0.52743454113300903 0.55575345685083677
v -0.67212777807780144 0.60436036315628627 0.56172480352786347
v -0.50125431902033568 0.32997749725774839 0.44119670385896498
v -0.513801972147506 0.037695774301487378 -0.05099802231294031
v -0.54530791371950293 0.16753875287164277 0.33333168937600682
v -0.5925607770661373 0.036617266489818792 0.366814556130999
v -0.76121377321533246 0.56283606960619303 -0.06123006704206764
v -0.33868898702908101 0.14999511473986485 0.54722515471551214
v -0.31774238406242061 0.22155296334178942 -0.086011292123201993
v -0.72990898643021651 0.45770170305383445 0.47157858273753511
v -0.33198205385085527 0.085441022848882817 -0.094121284555151827
v -0.30606887515104281 0.031051655872704267 0.24002552042160799
v -0.30916055522636804 0.39354549247461978 -0.22424497295246085
v -0.47012999380776915 0.031200580822695532 0.13923818109054784
v -0.76928881117554948 0.71213413287155558 -0.040072075773099881
v -0.63897521095427134 0.046514560396257267 0.30419935815820748
v -0.38362228232711099 0.16651757670878115 -0.1884674370289387
v -0.32089386603490883 0.61307303092509746 -0.18045905949655908
v -0.66916959958973299 0.11581608833660646 0.23455187999909599
v -0.49059628145570028 0.51328480892177752 -0.11276436742809846
f 1 13 561
f 1 38 454
f 1 113 254
f 1 254 13
f 1 454 113
f 1 561 38
f 2 13 438
f 2 19 154
f 2 128 649
f 2 154 295
f 2 295 128
f 2 421 13
f 2 438 19
f 2 649 421
f 5 10 716
f 5 13 10
f 5 90 166
f 5 121 414
f 5 166 647
f 5 363 535
f 5 414 363
f 5 535 13
f 5 647 121
f 5 716 90
f 6 7 10
f 6 10 13
f 6 13 7
f 7 13 16
f 7 16 10
f 8 331 504
f 8 504 696
f 8 696 331
f 9 11 331
f 9 21 512
f 9 25 315
f 9 315 11
f 9 331 21
f 9 512 25
f 10 11 274
f 10 16 11
f 10 59 332
f 10 98 133
f 10 133 242
f 10 242 282
f 10 274 98
f 10 281 716
f 10 282 459
f 10 332 281
f 10 376 513
f 10 437 59
f 10 459 376
f 10 513 437
f 11 16 331
f 11 71 567
f 11 315 439
f 11 439 71
f 11 567 274
f 12 29 502
f 12 502 621
f 12 506 29
f 12 621 506
f 13 14 201
f 13 40 698
f 13 61 16
f 13 201 61
f 13 220 40
f 13 254 14
f 13 421 561
f 13 535 614
f 13 614 220
f 13 698 438
f 14 254 201
f 15 476 583
f 15 583 690
f 15 690 697
f 15 697 476
f 16 18 483
f 16 34 406
f 16 45 575
f 16 60 267
f 16 61 692
f 16 76 270
f 16 77 323
f 16 93 181
f 16 94 597
f 16 95 590
f 16 141 264
f 16 142 405
f 16 181 490
f 16 214 499
f 16 215 260
f 16 260 408
f 16 262 94
f 16 264 595
f 16 267 687
f 16 269 34
f 16 270 142
f 16 321 390
f 16 323 45
f 16 328 401
f 16 330 215
f 16 390 676
f 16 397 681
f 16 401 95
f 16 405 481
f 16 406 480
f 16 408 321
f 16 480 397
f 16 481 93
f 16 483 330
f 16 490 328
f 16 499 599
f 16 575 672
f 16 590 18
f 16 595 269
f 16 597 331
f 16 599 60
f 16 672 76
f 16 676 262
f 16 681 77
f 16 687 141
f 16 692 214
f 17 206 239
f 17 239 558
f 17 293 206
f 17 353 293
f 17 558 353
f 18 590 483
f 19 438 560
f 19 560 154
f 20 255 605
f 20 370 624
f 20 605 370
f 20 624 255
f 21 294 428
f 21 331 294
f 21 428 512
f 22 110 441
f 22 151 110
f 22 343 151
f 22 363 414
f 22 414 343
f 22 441 363
f 23 223 458
f 23 338 648
f 23 458 539
f 23 539 338
f 23 648 223
f 24 300 553
f 24 384 300
f 24 440 384
f 24 553 636
f 24 636 440
f 25 512 315
f 26 351 718
f 26 559 663
f 26 663 351
f 26 718 559
f 27 55 702
f 27 288 565
f 27 426 288
f 27 565 55
f 27 702 426
f 28 460 527
f 28 461 525
f 28 525 460
f 28 527 461
f 29 506 502
f 30 182 280
f 30 280 712
f 30 712 182
f 31 103 256
f 31 113 454
f 31 254 113
f 31 256 254
f 31 454 103
f 32 185 441
f 32 217 185
f 32 301 217
f 32 441 634
f 32 634 301
f 33 112 560
f 33 311 453
f 33 372 703
f 33 453 112
f 33 560 372
f 33 703 311
f 34 269 406
f 35 134 609
f 35 384 134
f 35 554 721
f 35 609 554
f 35 721 384
f 36 61 247
f 36 247 359
f 36 359 61
f 37 292 519
f 37 443 292
f 37 519 622
f 37 622 443
f 38 143 454
f 38 561 143
f 39 75 368
f 39 177 546
f 39 368 177
f 39 546 75
f 40 220 614
f 40 614 698
f 41 73 655
f 41 116 652
f 41 307 73
f 41 652 307
f 41 655 116
f 42 102 620
f 42 369 524
f 42 524 568
f 42 568 102
f 42 620 369
f 43 332 347
f 43 347 650
f 43 409 332
f 43 650 409
f 44 163 374
f 44 374 563
f 44 432 163
f 44 563 432
f 45 323 575
f 46 115 246
f 46 199 115
f 46 246 385
f 46 385 199
f 47 116 534
f 47 305 533
f 47 533 652
f 47 534 305
f 47 652 116
f 48 99 432
f 48 162 99
f 48 432 604
f 48 604 718
f 48 718 162
f 49 277 639
f 49 515 277
f 49 639 700
f 49 700 515
f 50 130 451
f 50 162 653
f 50 451 162
f 50 653 130
f 51 114 609
f 51 224 544
f 51 446 114
f 51 544 446
f 51 609 224
f 52 149 187
f 52 187 417
f 52 417 540
f 52 540 645
f 52 645 149
f 53 281 409
f 53 409 650
f 53 465 281
f 53 650 708
f 53 708 465
f 54 164 458
f 54 199 164
f 54 223 463
f 54 458 223
f 54 463 628
f 54 628 199
f 55 381 632
f 55 565 381
f 55 632 702
f 56 196 464
f 56 350 196
f 56 464 602
f 56 602 350
f 57 205 446
f 57 446 544
f 57 538 563
f 57 544 538
f 57 563 205
f 58 125 303
f 58 136 229
f 58 229 125
f 58 303 516
f 58 516 699
f 58 601 136
f 58 699 601
f 59 437 332
f 60 599 267
f 61 201 256
f 61 256 552
f 61 257 695
f 61 359 257
f 61 552 247
f 61 599 692
f 61 690 599
f 61 695 690
f 62 117 244
f 62 244 511
f 62 464 603
f 62 511 602
f 62 602 464
f 62 603 117
f 63 258 314
f 63 314 705
f 63 350 530
f 63 530 258
f 63 705 350
f 64 348 520
f 64 434 701
f 64 514 348
f 64 520 434
f 64 701 514
f 65 120 516
f 65 416 465
f 65 465 708
f 65 516 416
f 65 708 120
f 66 174 439
f 66 315 512
f 66 375 174
f 66 439 315
f 66 512 375
f 67 72 247
f 67 247 552
f 67 253 701
f 67 552 253
f 67 701 72
f 68 192 608
f 68 228 192
f 68 305 534
f 68 534 644
f 68 608 305
f 68 644 228
f 69 170 712
f 69 517 625
f 69 596 170
f 69 625 596
f 69 712 517
f 70 355 413
f 70 413 507
f 70 507 355
f 71 439 567
f 72 434 247
f 72 701 434
f 73 127 165
f 73 132 655
f 73 165 132
f 73 307 127
f 74 208 644
f 74 317 208
f 74 357 317
f 74 534 357
f 74 644 534
f 75 161 633
f 75 452 711
f 75 546 452
f 75 633 368
f 75 711 161
f 76 142 270
f 76 405 142
f 76 672 405
f 77 681 323
f 78 171 354
f 78 252 171
f 78 354 355
f 78 355 507
f 78 507 252
f 79 188 206
f 79 206 293
f 79 293 417
f 79 417 606
f 79 606 188
f 80 138 248
f 80 160 138
f 80 248 626
f 80 365 160
f 80 448 365
f 80 626 448
f 81 104 217
f 81 175 286
f 81 217 320
f 81 286 104
f 81 320 542
f 81 542 175
f 82 110 151
f 82 151 455
f 82 177 110
f 82 250 546
f 82 455 250
f 82 546 177
f 83 146 654
f 83 279 550
f 83 550 146
f 83 654 279
f 84 198 532
f 84 308 198
f 84 425 463
f 84 463 308
f 84 532 425
f 85 155 194
f 85 194 419
f 85 197 420
f 85 419 505
f 85 420 715
f 85 505 197
f 85 715 155
f 86 312 566
f 86 436 613
f 86 531 436
f 86 566 720
f 86 613 312
f 86 720 531
f 87 115 546
f 87 126 115
f 87 250 291
f 87 291 126
f 87 546 250
f 88 111 466
f 88 192 524
f 88 369 111
f 88 466 192
f 88 524 369
f 89 163 356
f 89 189 446
f 89 205 374
f 89 356 379
f 89 374 163
f 89 379 189
f 89 446 205
f 90 204 548
f 90 548 166
f 90 716 204
f 91 218 543
f 91 258 517
f 91 424 218
f 91 517 424
f 91 543 258
f 92 492 496
f 92 496 570
f 92 570 664
f 92 664 492
f 93 481 181
f 94 262 597
f 95 401 590
f 96 283 623
f 96 361 653
f 96 623 361
f 96 653 283
f 97 310 637
f 97 376 310
f 97 430 513
f 97 513 376
f 97 637 430
f 98 242 133
f 98 274 282
f 98 282 242
f 99 162 451
f 99 451 511
f 99 511 432
f 100 111 380
f 100 139 536
f 100 210 466
f 100 335 210
f 100 380 139
f 100 466 111
f 100 536 335
f 101 308 463
f 101 463 648
f 101 643 308
f 101 648 643
f 102 467 661
f 102 568 467
f 102 661 620
f 103 253 552
f 103 284 253
f 103 454 284
f 103 552 256
f 104 119 217
f 104 286 698
f 104 614 119
f 104 698 614
f 105 195 240
f 105 240 340
f 105 275 195
f 105 340 275
f 106 159 707
f 106 276 449
f 106 449 631
f 106 631 159
f 106 707 276
f 107 188 371
f 107 210 335
f 107 335 188
f 107 371 533
f 107 466 210
f 107 533 608
f 107 608 466
f 108 120 708
f 108 237 336
f 108 292 120
f 108 336 292
f 108 708 237
f 109 159 631
f 109 285 159
f 109 460 525
f 109 525 285
f 109 607 460
f 109 631 607
f 110 177 634
f 110 634 441
f 111 369 431
f 111 431 380
f 112 234 630
f 112 453 234
f 112 630 560
f 114 189 518
f 114 446 189
f 114 518 609
f 115 126 246
f 115 199 452
f 115 452 546
f 116 357 534
f 116 655 357
f 117 233 244
f 117 551 233
f 117 603 551
f 118 190 440
f 118 209 212
f 118 212 462
f 118 440 636
f 118 462 562
f 118 562 190
f 118 636 209
f 119 185 217
f 119 535 185
f 119 614 535
f 120 292 443
f 120 443 699
f 120 699 516
f 121 343 414
f 121 647 656
f 121 656 343
f 122 249 645
f 122 354 249
f 122 355 354
f 122 422 433
f 122 433 355
f 122 645 422
f 123 200 447
f 123 346 200
f 123 447 545
f 123 545 346
f 124 379 442
f 124 442 622
f 124 518 379
f 124 519 641
f 124 622 519
f 124 641 518
f 125 229 547
f 125 245 364
f 125 364 303
f 125 547 245
f 126 291 246
f 127 307 706
f 127 412 165
f 127 531 412
f 127 706 531
f 128 295 457
f 128 457 507
f 128 507 649
f 129 240 436
f 129 340 240
f 129 436 706
f 129 706 340
f 130 172 530
f 130 350 602
f 130 530 350
f 130 602 451
f 130 653 172
f 131 241 346
f 131 302 241
f 131 346 545
f 131 366 640
f 131 545 366
f 131 640 302
f 132 165 287
f 132 191 655
f 132 287 557
f 132 383 191
f 132 557 383
f 134 190 562
f 134 224 609
f 134 384 190
f 134 562 224
f 135 309 556
f 135 529 646
f 135 556 529
f 135 639 309
f 135 646 639
f 136 304 229
f 136 410 304
f 136 601 410
f 137 157 226
f 137 226 290
f 137 233 551
f 137 290 233
f 137 551 157
f 138 160 658
f 138 500 663
f 138 658 500
f 138 663 248
f 139 352 709
f 139 380 352
f 139 709 536
f 140 275 340
f 140 340 652
f 140 371 275
f 140 533 371
f 140 652 533
f 141 687 264
f 143 413 549
f 143 549 454
f 143 561 413
f 144 176 612
f 144 344 626
f 144 538 176
f 144 612 344
f 144 626 710
f 144 710 538
f 145 184 378
f 145 309 539
f 145 378 556
f 145 539 184
f 145 556 309
f 146 184 539
f 146 458 654
f 146 539 458
f 146 550 184
f 147 246 334
f 147 279 385
f 147 334 279
f 147 385 246
f 148 230 386
f 148 289 319
f 148 319 230
f 148 386 662
f 148 662 289
f 149 249 354
f 149 354 381
f 149 381 187
f 149 645 249
f 150 232 537
f 150 251 659
f 150 537 251
f 150 657 232
f 150 659 657
f 151 343 528
f 151 528 455
f 152 157 529
f 152 226 157
f 152 273 226
f 152 529 556
f 152 556 273
f 153 426 702
f 153 532 426
f 153 605 532
f 153 702 605
f 154 560 630
f 154 630 295
f 155 218 194
f 155 543 218
f 155 715 543
f 156 197 541
f 156 313 339
f 156 339 420
f 156 420 197
f 156 541 313
f 157 551 529
f 158 235 618
f 158 339 235
f 158 420 339
f 158 618 715
f 158 715 420
f 159 285 337
f 159 337 707
f 160 271 658
f 160 365 714
f 160 714 271
f 161 186 633
f 161 711 186
f 162 718 653
f 163 244 356
f 163 432 511
f 163 511 244
f 164 199 385
f 164 385 654
f 164 654 458
f 165 412 717
f 165 717 287
f 166 193 647
f 166 548 193
f 167 200 241
f 167 236 200
f 167 241 411
f 167 411 720
f 167 566 236
f 167 720 566
f 168 211 298
f 168 219 211
f 168 298 642
f 168 642 709
f 168 709 219
f 169 243 564
f 169 347 243
f 169 360 650
f 169 564 360
f 169 650 347
f 170 182 712
f 170 596 182
f 171 252 415
f 171 415 632
f 171 632 354
f 172 221 530
f 172 361 221
f 172 653 361
f 173 230 319
f 173 299 558
f 173 319 348
f 173 348 299
f 173 558 230
f 174 203 439
f 174 231 651
f 174 375 231
f 174 651 203
f 175 372 438
f 175 438 286
f 175 542 372
f 176 538 544
f 176 544 562
f 176 562 612
f 177 368 634
f 178 227 564
f 178 243 367
f 178 300 227
f 178 367 637
f 178 564 243
f 178 637 300
f 179 476 592
f 179 584 476
f 179 592 685
f 179 671 584
f 179 685 671
f 180 496 585
f 180 585 594
f 180 594 674
f 180 674 496
f 181 481 587
f 181 587 490
f 182 183 713
f 182 216 238
f 182 238 527
f 182 503 696
f 182 505 280
f 182 527 183
f 182 596 503
f 182 696 216
f 182 713 505
f 183 527 713
f 184 550 378
f 185 363 441
f 185 535 363
f 186 301 633
f 186 320 301
f 186 349 320
f 186 711 349
f 187 381 565
f 187 565 606
f 187 606 417
f 188 275 371
f 188 335 206
f 188 606 704
f 188 704 275
f 189 379 518
f 190 384 440
f 191 357 655
f 191 383 357
f 192 228 524
f 192 466 608
f 193 297 647
f 193 548 297
f 194 218 424
f 194 424 712
f 194 712 419
f 195 275 704
f 195 615 240
f 195 643 615
f 195 704 643
f 196 350 705
f 196 526 464
f 196 705 526
f 197 505 713
f 197 713 541
f 198 288 532
f 198 308 522
f 198 522 288
f 199 628 452
f 200 236 566
f 200 346 241
f 200 566 447
f 201 254 256
f 202 243 347
f 202 347 437
f 202 367 243
f 202 430 367
f 202 437 430
f 203 456 567
f 203 567 439
f 203 651 719
f 203 719 456
f 204 342 610
f 204 610 548
f 204 716 342
f 205 563 374
f 206 335 239
f 207 225 444
f 207 282 225
f 207 310 459
f 207 444 310
f 207 459 282
f 208 228 644
f 208 317 467
f 208 467 568
f 208 568 228
f 209 553 719
f 209 636 553
f 209 651 212
f 209 719 651
f 211 219 695
f 211 386 298
f 211 662 386
f 211 695 662
f 212 231 714
f 212 651 231
f 212 714 462
f 213 302 640
f 213 362 435
f 213 435 450
f 213 450 302
f 213 638 362
f 213 640 638
f 214 599 499
f 214 692 599
f 215 330 260
f 216 461 238
f 216 501 691
f 216 502 629
f 216 525 461
f 216 629 525
f 216 691 697
f 216 696 501
f 216 697 502
f 217 301 320
f 219 382 621
f 219 621 695
f 219 709 382
f 221 258 530
f 221 361 693
f 221 625 258
f 221 693 625
f 222 251 272
f 222 272 551
f 222 551 603
f 222 603 659
f 222 659 251
f 223 648 463
f 224 562 544
f 225 274 456
f 225 282 274
f 225 456 719
f 225 719 444
f 226 273 442
f 226 442 290
f 227 300 384
f 227 384 721
f 227 721 564
f 228 568 524
f 229 304 334
f 229 333 547
f 229 334 333
f 230 558 386
f 231 375 627
f 231 627 714
f 232 447 537
f 232 545 447
f 232 657 545
f 233 290 356
f 233 356 244
f 234 370 509
f 234 415 630
f 234 453 370
f 234 509 415
f 235 276 510
f 235 313 449
f 235 339 313
f 235 449 276
f 235 510 618
f 237 360 635
f 237 635 336
f 237 650 360
f 237 708 650
f 238 461 527
f 239 298 386
f 239 335 642
f 239 386 558
f 239 642 298
f 240 515 436
f 240 615 515
f 241 302 555
f 241 555 411
f 245 297 364
f 245 547 656
f 245 656 297
f 246 291 333
f 246 333 334
f 247 434 359
f 248 559 626
f 248 663 559
f 250 333 291
f 250 455 333
f 251 358 272
f 251 537 358
f 252 457 630
f 252 507 457
f 252 630 415
f 253 284 549
f 253 549 701
f 255 349 711
f 255 532 605
f 255 624 349
f 255 711 532
f 257 359 434
f 257 434 660
f 257 660 695
f 258 543 314
f 258 625 517
f 259 489 585
f 259 491 489
f 259 585 667
f 259 667 491
f 260 321 408
f 260 330 483
f 260 483 321
f 261 478 671
f 261 488 591
f 261 497 478
f 261 591 497
f 261 671 488
f 262 676 597
f 263 471 572
f 263 498 674
f 263 572 668
f 263 668 498
f 263 674 471
f 264 391 485
f 264 406 595
f 264 485 406
f 264 687 391
f 265 477 593
f 265 593 670
f 265 670 686
f 265 686 477
f 266 393 587
f 266 405 672
f 266 481 405
f 266 587 481
f 266 672 393
f 267 599 687
f 268 488 685
f 268 580 488
f 268 682 580
f 268 685 682
f 269 595 406
f 271 294 658
f 271 627 294
f 271 714 627
f 272 341 551
f 272 358 611
f 272 611 341
f 273 278 442
f 273 556 278
f 274 567 456
f 276 435 510
f 276 707 435
f 277 515 615
f 277 523 639
f 277 615 523
f 278 378 619
f 278 556 378
f 278 619 622
f 278 622 442
f 279 304 410
f 279 334 304
f 279 410 550
f 279 654 385
f 280 419 712
f 280 505 419
f 281 332 409
f 281 465 716
f 283 351 623
f 283 653 718
f 283 718 351
f 284 454 549
f 285 431 620
f 285 508 431
f 285 525 629
f 285 620 337
f 285 629 508
f 286 438 698
f 287 450 557
f 287 717 450
f 288 426 532
f 288 522 606
f 288 606 565
f 289 423 319
f 289 662 695
f 289 695 423
f 290 379 356
f 290 442 379
f 292 336 519
f 293 353 540
f 293 540 417
f 294 331 658
f 294 627 428
f 295 630 457
f 296 345 418
f 296 366 545
f 296 418 640
f 296 545 657
f 296 640 366
f 296 657 345
f 297 548 610
f 297 610 364
f 297 656 647
f 299 348 645
f 299 353 558
f 299 540 353
f 299 645 540
f 300 444 553
f 300 637 444
f 301 634 633
f 302 450 717
f 302 717 555
f 303 364 610
f 303 416 516
f 303 610 416
f 305 608 533
f 306 411 555
f 306 412 720
f 306 555 717
f 306 717 412
f 306 720 411
f 307 652 706
f 308 643 522
f 309 338 539
f 309 639 338
f 310 376 459
f 310 444 637
f 311 370 453
f 311 624 370
f 311 703 624
f 312 377 566
f 312 613 700
f 312 700 377
f 313 541 449
f 314 373 705
f 314 543 638
f 314 616 373
f 314 638 616
f 316 352 600
f 316 382 352
f 316 600 621
f 316 621 382
f 317 357 383
f 317 383 661
f 317 661 467
f 318 352 508
f 318 427 600
f 318 508 629
f 318 600 352
f 318 629 427
f 319 423 520
f 319 520 348
f 320 349 542
f 321 483 390
f 322 489 689
f 322 594 489
f 322 689 594
f 323 681 575
f 324 391 569
f 324 395 485
f 324 470 677
f 324 485 391
f 324 569 680
f 324 677 395
f 324 680 470
f 325 394 474
f 325 474 579
f 325 494 684
f 325 571 394
f 325 579 494
f 325 684 571
f 326 404 572
f 326 472 404
f 326 484 472
f 326 572 675
f 326 675 484
f 327 492 664
f 327 589 492
f 327 664 688
f 327 688 589
f 328 490 401
f 329 402 479
f 329 479 688
f 329 482 402
f 329 688 482
f 331 500 658
f 331 503 500
f 331 588 504
f 331 594 689
f 331 597 694
f 331 689 588
f 331 694 594
f 331 696 503
f 332 437 347
f 333 455 547
f 335 536 642
f 336 635 519
f 337 620 661
f 337 661 707
f 338 523 648
f 338 639 523
f 340 706 652
f 341 529 551
f 341 611 646
f 341 646 529
f 342 416 610
f 342 465 416
f 342 716 465
f 343 656 528
f 344 448 626
f 344 612 448
f 345 521 616
f 345 616 418
f 345 657 659
f 345 659 521
f 348 514 645
f 349 624 703
f 349 703 542
f 351 445 503
f 351 503 623
f 351 663 445
f 352 380 508
f 352 382 709
f 354 632 381
f 355 433 549
f 355 549 413
f 358 537 566
f 358 566 611
f 360 429 635
f 360 564 721
f 360 721 429
f 361 623 693
f 362 510 435
f 362 618 510
f 362 638 715
f 362 715 618
f 365 448 612
f 365 612 714
f 367 430 637
f 368 633 634
f 369 620 431
f 370 605 509
f 372 542 703
f 372 560 438
f 373 521 526
f 373 526 705
f 373 616 521
f 375 428 627
f 375 512 428
f 377 611 566
f 377 646 611
f 377 700 646
f 378 550 619
f 380 431 508
f 383 557 661
f 387 469 578
f 387 501 598
f 387 578 678
f 387 598 469
f 387 678 501
f 388 473 578
f 388 574 473
f 388 578 682
f 388 682 574
f 389 400 482
f 389 482 664
f 389 487 679
f 389 664 487
f 389 679 400
f 390 483 676
f 391 687 569
f 392 468 574
f 392 574 682
f 392 592 691
f 392 682 685
f 392 685 592
f 392 691 468
f 393 498 668
f 393 573 498
f 393 668 587
f 393 672 573
f 394 571 665
f 394 591 474
f 394 665 591
f 395 403 669
f 395 669 485
f 395 677 403
f 396 470 680
f 396 581 470
f 396 599 690
f 396 680 599
f 396 690 581
f 397 480 577
f 397 577 665
f 397 665 681
f 398 493 682
f 398 578 589
f 398 589 683
f 398 682 578
f 398 683 493
f 399 479 495
f 399 495 586
f 399 586 683
f 399 683 479
f 400 475 576
f 400 576 482
f 400 679 475
f 401 490 590
f 402 482 576
f 402 495 479
f 402 576 495
f 403 477 582
f 403 582 669
f 403 593 477
f 403 677 593
f 404 472 676
f 404 587 668
f 404 590 587
f 404 668 572
f 404 676 590
f 406 485 673
f 406 673 480
f 407 475 679
f 407 571 684
f 407 679 681
f 407 681 571
f 407 684 475
f 410 601 619
f 410 619 550
f 412 531 720
f 413 561 649
f 413 649 507
f 415 509 632
f 418 616 640
f 421 649 561
f 422 514 617
f 422 617 433
f 422 645 514
f 423 660 520
f 423 695 660
f 424 517 712
f 425 532 711
f 425 628 463
f 425 711 628
f 427 502 506
f 427 506 600
f 427 629 502
f 429 554 635
f 429 721 554
f 430 437 513
f 432 563 604
f 433 617 549
f 434 520 660
f 435 707 450
f 436 515 613
f 436 531 706
f 443 619 699
f 443 622 619
f 444 719 553
f 445 663 503
f 447 566 537
f 449 541 631
f 450 707 557
f 451 602 511
f 452 628 711
f 455 528 656
f 455 656 547
f 460 607 527
f 462 612 562
f 462 714 612
f 464 526 603
f 468 691 574
f 469 492 578
f 469 585 492
f 469 598 667
f 469 667 585
f 470 581 677
f 471 674 675
f 471 675 572
f 472 484 597
f 472 597 676
f 473 574 678
f 473 678 578
f 474 488 580
f 474 580 666
f 474 591 488
f 474 666 579
f 475 495 576
f 475 684 495
f 476 584 583
f 476 697 592
f 477 686 582
f 478 497 582
f 478 582 671
f 479 683 688
f 480 673 577
f 482 688 664
f 483 590 676
f 484 675 694
f 484 694 597
f 485 669 673
f 486 493 586
f 486 494 579
f 486 579 666
f 486 586 494
f 486 666 493
f 487 498 573
f 487 570 498
f 487 573 679
f 487 664 570
f 488 671 685
f 489 491 689
f 489 594 585
f 490 587 590
f 491 504 689
f 491 598 504
f 491 667 598
f 492 585 496
f 492 589 578
f 493 666 682
f 493 683 586
f 494 586 684
f 495 684 586
f 496 674 570
f 497 577 673
f 497 591 577
f 497 673 582
f 498 570 674
f 500 503 663
f 501 678 691
f 501 696 598
f 502 695 621
f 502 697 695
f 503 596 625
f 503 625 693
f 503 693 623
f 504 588 689
f 504 598 696
f 506 621 600
f 509 605 702
f 509 702 632
f 514 701 617
f 515 700 613
f 518 641 609
f 519 635 641
f 521 603 526
f 521 659 603
f 522 643 704
f 522 704 606
f 523 615 643
f 523 643 648
f 527 607 713
f 536 709 642
f 538 710 563
f 541 607 631
f 541 713 607
f 543 715 638
f 549 617 701
f 554 609 641
f 554 641 635
f 557 707 661
f 559 604 626
f 559 718 604
f 563 710 604
f 569 687 680
f 571 681 665
f 573 575 679
f 573 672 575
f 574 691 678
f 575 681 679
f 577 591 665
f 580 682 666
f 581 690 677
f 582 673 669
f 582 686 671
f 583 584 686
f 583 670 690
f 583 686 670
f 584 671 686
f 589 688 683
f 592 697 691
f 593 677 690
f 593 690 670
f 594 675 674
f 594 694 675
f 599 680 687
f 601 699 619
f 604 710 626
f 616 638 640
f 639 646 700
f 690 695 697
