v -0.37419999999999998 1.0278 0.16350000000000001
v -0.73816704977844971 0.93048452166197615 0.66246254031063645
v 0.096990247253360626 1.0459448116488086 0.27417768913524987
v -0.33065378186797911 0.16960613845500849 0.47645726173466252
v -0.55327853540148475 1.157461125448118 0.44325204189837814
v -0.2745450922194409 0.25925618827357333 -0.23248806322886423
v -0.034666369320585387 0.20291945782181797 0.67491012414695817
v -0.7720698628817948 1.2531831217413594 0.57217902314475166
v 0.2649164307965316 0.28825529471896744 0.55716482706976755
v -0.4847070704591957 1.039419919482327 0.054344976796006313
v -0.69719958623973965 1.5911983513238881 -0.50622674717085836
v 0.21047728628701307 0.23182117982949804 -0.22968982404425967
v -0.69677987798183072 1.2725470376622832 0.10225598338158398
v -0.16902610132504009 0.67283359898536266 -0.28756006695240677
v 0.24299720957670948 0.21422997792588219 -0.21472685580500397
v -0.72576597926945219 0.074900774425513447 0.050641676740099548
v -0.72601288009534581 0.07489687153230476 0.050784618106138331
v 0.48920185701180735 0.88463515180025398 0.23303016780819427
v -0.95297645413582455 0.62764412311060902 0.24577356941605369
v 0.69000306248842003 0.38722350570594921 0.14366381967262831
v -0.37719940695620385 1.0220268579164991 0.23600333042591876
v -0.75232418995944228 0.98029111292673143 0.66192634948127904
v -0.42901547665159556 0.98865276655221679 0.33734047940878709
v 0.14652870989275266 0.7754983755249949 -0.1400303684641965
v -0.47811760415836219 0.82305169251190258 -0.10907317282558586
v -0.53411544985601767 0.26029853260031544 0.24051633553091453
v 0.27845604851078382 0.32646810276694455 0.54439507914791829
v -0.5006078904499347 0.16807669592685365 0.47277903145062328
v -0.36657535087565424 1.4191474183372548 0.067462894402766954
v -0.40664714587746176 0.045576995210673661 -0.065044489236451827
v -0.57426444218647799 0.34473046315221317 0.020113946397681458
v -0.26361387301736872 0.30565307205314168 0.46899490945922928
v -0.34015268583344849 0.034497352189389041 -0.14722001973068197
v -0.24639703934097859 0.14152025302592505 0.61044456379756717
v -0.22507911372496592 0.11912940195683876 -0.23031493538753164
v -0.32615288131573944 0.035111106690041013 0.18341889149679003
v 0.61699041164647028 0.13990940046856104 0.20957616965140693
v -0.03950764588372211 0.2231377573252748 0.67241087130982413
v -0.7171761285812186 0.95378624037418092 0.67016094486842004
v -0.34411238639888869 1.0018472758440999 0.30000216092252791
v -0.58796178136208144 0.13322150996623186 0.57159474863620441
v 0.31497276120396495 0.95152773734371143 0.13360912642500605
v 0.21759102604674113 0.72564782627797741 0.55888861464355899
v -0.82131459593972234 0.90946308342649373 0.6248705248536558
v -0.6277206046738073 0.7762960341492684 -0.092911102959596467
v 0.016787497420716002 0.829599769332518 0.53312292996074617
v -0.48506351595571667 0.51926840963596843 0.56128681276861292
v -0.26620958176060849 0.56494370728016918 -0.33123078948102291
v -0.37379269968858486 0.049388615363214622 0.22994753950633237
v -0.41104335556076732 0.97670176168079281 -0.020179971493254751
v -0.44637365084668656 0.12405940891327417 0.53948947525819069
v -0.48582777201404015 0.033048370309441362 0.14436194993232204
v -0.66335906031024117 0.17095345849877144 0.11518311489688757
v -0.67683383052929047 0.088323775748672936 0.3896214967286567
v 0.10852177035203787 0.062247062770437338 0.3957775851299315
v 0.46905304809965642 0.81890468266753991 0.031523530580767629
v -0.51623754222091356 0.96436509846467577 0.48737080697343532
v -0.30628472963379338 1.0002470430717154 0.27794665908348992
v -0.35454604030462322 0.99917351888030814 0.031979809437151341
v -0.35616263610731674 0.80002000887867297 0.49410236211463282
v -0.39610662278094 0.36751533523238156 0.52860654346759173
v 0.047562309554026849 0.71922894670962179 -0.20159190558777168
v -0.87274594927586513 0.8390001184980318 0.45348120583968499
v -0.476354140254304 0.031287142438346162 0.37383719958794309
v -0.66979797815146791 0.10724339690738638 0.014190713154995694
v -0.65560923962021855 0.04252098137335656 0.35574336200936379
v -0.66149431307168549 0.9036776688744802 0.64365338113774939
v -0.64805688015034268 0.053344133854070198 0.53008407621594988
v -0.4977463855198751 0.95728126061617402 0.46428554598408606
v -0.050610810708249444 0.10926107959456147 0.58118681829691521
v -0.59899160779002936 0.96220412693981328 0.55437574869494
v -0.33851965641463749 0.031833985648913231 0.53785885808807288
v 0.021255758166931042 0.12770113696744673 0.55287362499965309
v 0.20734332973814501 0.31585095937513485 -0.23007446902140238
v -0.8953532056943827 0.93358721226840824 0.10963383027131206
v -0.87059009922455943 1.0216112057792328 0.67550517247962871
v -0.53707833133845329 0.032590780136263688 0.33390642194914522
v -0.49241054790769689 0.049181164398328849 0.5669500412033005
v 0.074467926567407847 0.069864302512210527 -0.061393651896968611
v 0.097862672173194068 0.9276472877824572 -0.083954911311753089
v -0.074728007777106267 0.020867276724961092 0.56857693022758482
v 0.10436637974960661 0.073096790084073979 0.38625652525249343
v -0.20480735486408161 0.3533504369186547 -0.32308232825731709
v 0.44738638537176284 0.44836690511636251 -0.034566850422959143
v 0.45194644030033604 0.053841464002248048 0.12282316273622886
v -0.5828720897168338 0.2689275684549724 0.069358830208374772
v -0.7448068176045326 0.80625116716485623 0.52011492239905222
v -0.63411249006989712 0.39778898479369007 0.49214570365158394
v -0.72986684730999007 0.82852812051411373 -0.048012074437757721
v 0.23673704828694958 0.47506134752031975 0.68294014612968201
v -0.4214589902885495 0.12113161414462378 -0.19602026666511654
v -0.38006893434575917 0.032888247748317771 0.35036017102078015
v -0.48512013246899638 0.036147623620912783 -0.088574725251879094
v -0.67253606582474368 0.044615860714005556 0.40110363138196825
v -0.62116963789254742 0.1008366456430366 0.27987344418917753
v -0.48230046897876344 0.090626483728083185 -0.13325699803687299
v -0.44709828685494896 0.045849222849119603 -0.2023176607597863
v -0.62949244222046652 0.15621481190917633 0.49391299982821607
v -0.44993015421516547 0.95449570853391397 0.38125534841972042
v -0.655258328915993 0.13089695989530006 0.4156070006805665
v -0.48244051042061303 0.12641612501105667 -0.046235835483871959
v -0.69194837309476132 0.1604703697424178 0.15358840947924976
v 0.17268019303938872 0.039998401204090268 -0.12131407859595966
v -0.45360521334279791 0.10363110977134328 -0.16654846474879284
v -0.62492631005173094 0.085049077414930924 0.30322260684223618
v -0.4006048769312518 0.16172813248620424 -0.17187027750100292
v -0.5475722247877215 0.18518904528075816 0.36774925498670602
v -0.6297892343027065 0.14424066138882652 0.021860386009968095
v -0.19573528510257907 0.028528193993520898 -0.15668707373120122
v -0.052864234032716638 0.29363141226484879 0.65759121387006814
v -0.24542639926357573 0.34220845510270764 -0.2854511219865794
v -0.50259356894494767 0.24236117133376053 0.24885279317698411
v -0.63170835100862566 0.99202852978810718 0.61053357931638697
v -0.20757216079558527 0.15240585850013827 0.62523190943772877
v -0.57543534259757345 0.92822733111377687 0.52418978868114874
v -0.079528813240550805 0.048220673583601145 -0.19372867598692581
v -0.33899447381426645 0.035000549387888338 0.39037361660838726
v 0.11327868931433495 0.029445804717715691 -0.021683966363923377
v 0.23089642200719057 0.3249806794679666 0.57406399874451086
v -0.13068465622564246 0.96863327469908667 0.010205297699960592
v -0.3398580861605684 1.0110797790110111 0.087727656055867867
v -0.15944440235092416 0.031104824546305802 -0.13937162154920638
v -0.01180692842360175 0.34959866636620668 0.66436272012532882
v -0.19385209245296228 0.15326592177281867 -0.22469053763442939
v -0.31336748256420532 0.92720137306282768 0.4028906756443596
v -0.4850513328084462 0.25099332109920935 -0.026786927309511696
v -0.54476513291918482 0.091007468991333176 0.5950853548102476
v -0.38071744089750109 0.1582384397423135 0.49925711308641174
v -0.80454672829944818 0.41273035765179555 0.26236403578916867
v -0.0075242951763323813 0.86217499934466513 -0.13848510590128821
v -0.32994684998098345 0.81701857093235952 -0.12819517710607412
v 0.219829645640336 1.0004964690150211 0.37437332703791898
v 0.033557504823841566 0.38685288132566703 -0.28724321464938107
v 0.39895205123434485 0.25486280752216195 0.4302754995526602
v 0.40728878537554086 0.09141591436196185 0.3657987076957821
v -0.58073022648282679 0.77495639124587912 0.53899535740608073
v 0.43681520204761126 0.70596514001636745 -0.053077945638609167
v -0.026888634905275034 0.72978802201345083 0.59312217850457294
v -0.41371569405275904 1.001385739923665 0.29740944974770783
v -0.42867912989481688 0.044831914767329242 0.53449612218916853
v -0.46780431296857095 0.1067180743511443 -0.15115899241599678
v -0.39073706548139364 0.03396624348281322 0.17291070477227691
v -0.41781489320508147 0.045541469071642762 0.2965766249622025
v -0.43642189481030852 0.96436954840535138 0.3615204406633209
v -0.66072467946814162 0.05217529475219633 0.3537761432801641
v -0.43957078496244428 0.15989684878728577 -0.098532934530872349
v -0.63771651654036343 0.03728654072385168 0.0029181940163685461
v -0.66167913374997256 0.13288207968055532 0.4484587066423259
v -0.44658612133534625 0.036686758821322253 -0.19292405405821672
v -0.69459912480626884 0.064212375707194499 0.24320975567023007
v -0.63512307201992058 0.088021796374205166 0.541055732802459
v -0.69913937516413716 0.067121644288197502 0.014026599429420604
v -0.37736557038570739 0.043920447003788055 0.33487028762882243
v -0.27754727398110129 0.99719818265826821 0.20742442948127812
v -0.58988504714793089 0.16950117056508526 0.029501074616398299
v -0.67486327658718059 0.13777986702927719 0.2062284531326731
v -0.45823992543192921 0.90568316147839878 -0.071911333303053687
v 0.18330846592943068 0.95309782221217754 0.42011201562381656
v -0.36196601024802261 0.15556963905992607 0.50287634756557875
v 0.13926971988862016 0.16354546950215582 -0.20836265356394379
v 0.23070337462302379 0.036029920307765001 0.2411667824525654
v -0.69801869908772451 0.91999759463187403 0.66684111493978948
v 0.033529054640126107 0.025865721772649179 0.10179871656309779
v -0.0029066397906242418 0.18147953821835563 0.61082686349695614
v -0.25771185321472223 0.87813725643402174 -0.087512631437952529
v 0.3655238355381692 0.14525785555932372 0.3928778773104929
v -0.73203585105914737 0.040389551504678947 0.15055608170019102
v -0.48857160476335315 0.031413056206050095 0.13347280258386029
v 0.12236106775106027 0.1535127934006961 0.57520056882192971
v -0.0099229971492804051 0.17331766501922188 -0.24814088140930562
v -0.38889458904012636 0.16758368156816414 -0.18258376120250633
v -0.32181494112611997 0.035009696451586483 0.49495288025960116
v 0.20419201367766443 0.027155507538553052 0.49380821139515363
v -0.61034106358243978 0.95090535472793969 -0.00080504361577771774
v -0.048518705311404002 0.12443637310812074 -0.19799475698840063
v 0.2221161117347987 0.027484925655322359 0.062097314490211129
v -0.55794502951846126 0.16445889812934972 -0.00011920289069952648
v -0.33769862584454041 0.23611276938424447 -0.022154681081629976
v -0.053373168577640497 1.0180437155468993 0.3622020126887151
v 0.33015687042454034 0.32694552461345061 -0.14498814286045117
v 0.31501670239065049 0.85401562122765107 0.43608366158543149
v 0.13072382107095895 1.0508840771772914 0.039525094106805055
v 0.37712550617134982 0.18560268515920769 -0.040424076982388216
v -0.75710305960183188 0.50038307826615536 -0.069997950711493659
v 0.026440729940603168 0.39210084495496944 0.72204373313578096
v -0.61184834268115207 1.208405727481578 -0.0077831799541699812
v -0.39168326987592 0.045763885250461336 0.52667217382870668
v -0.47707298611811733 0.058102336796342476 -0.16026516177230959
v -0.35218874820364998 0.029762511137540255 0.3296396161084465
v -0.38315361362401051 0.1252227927155127 0.51330756995387783
v -0.43018220525690315 0.15234865984823046 -0.1562859183616192
v -0.43122180056213566 0.030841669785426195 0.15014639958303472
v -0.37857062223536225 0.050996193076994781 -0.097470052919604838
v -0.47080372235627466 0.054773476190635662 0.560130373297411
v -0.40568696196312443 0.032353756600256557 0.36511282453021399
v -0.43006894151473279 0.15804728110366686 0.51229734898164947
v -0.48089764512716993 0.036026558650467534 -0.11451363433486528
v -0.49134913933949287 0.065490624193904876 -0.11383892258237267
v -0.42772383981962997 0.040885389918423262 -0.014746295597941845
v -0.66566976250817111 0.10122398967541291 0.48381247931233784
v -0.51600081187725588 0.17513495529670753 0.26804177170520338
v -0.65035710506743782 0.076538430561894938 0.27272964901491542
v -0.68499364950576958 0.055769695892429853 0.43705283875682682
v -0.38704295031523023 0.12211603826968699 -0.22577455366394328
v -0.45482492252540807 0.91128940179338103 0.41834201371760149
v -0.41075625165390939 0.034589073863823955 -0.21326367508580843
v -0.25945649442383301 0.068025709962384204 0.2311164565853559
v -0.4070145481306523 0.036191834719523398 0.5079672998319904
v -0.62449895409589207 0.18590717591322298 0.12629697772443554
v 0.19935988070905589 0.95960371206209516 -0.0013409482406596084
v -0.65190904193217525 0.12317872851383502 0.37380692677706268
v -0.65010371178067594 0.87478821797908302 0.59543432970394439
v -0.36047199965536708 0.046411248501613239 0.22648238125098219
v -0.42062125238039 0.97423926115845583 0.34311300198427735
v -0.46887056697222268 0.92649286595013014 0.42112458789456769
v -0.60007967280351671 0.9299044231428838 0.54278368738835936
v 0.22102544125441798 0.11333370667474069 -0.13809564033857832
v -0.67208879163991264 0.9223118821695232 0.0071691993546119303
v -0.50167275431115543 0.087204667451462811 -0.046025032279121809
v -0.10552443880516922 0.16070537662701823 0.57546395169720366
v -0.014410347977657324 0.072794058512780369 0.11072738991698015
v -0.72710556447302721 0.1308372032165982 0.10266929109201142
v -0.2388208657482255 0.078126936675326081 0.014710263998481798
v -0.59415315589731477 0.07225507647531329 0.58008586489854264
v -0.73275486523943723 0.039554629486901124 0.068491691699421403
v 0.0068825065786659806 0.03184611008386052 0.22232244790111555
v -0.036152538110086924 0.0238418126944706 0.51346534727505377
v -0.2546518637182717 0.98584026451656659 0.27047369238347158
v -0.34600984292836351 0.10420293641935442 0.57605707149785468
v -0.66728471085149998 0.31172175713635075 0.17531016767227967
v 0.054568384249199145 0.30886314982767799 0.66601465104017687
v -0.049482862462937885 0.95860104458450579 0.44836880690220404
v -0.55347507131380791 0.19417230091368659 0.45156683875112918
v -0.28980556299661731 0.19947904371725267 -0.19090071381882096
v 0.15468242954246728 0.051104983622470061 -0.16453044704600572
v -0.60175725426633497 0.98245523947961411 0.55821952767278593
v -0.51608714639851849 0.036945682144422565 0.39585854303927975
v -0.30035531643335606 0.034658876834689517 0.24746755273470925
v -0.55548966648541198 0.033319799450429316 0.19051402981317461
v -0.7447613615304457 0.055079994048030594 0.18588466115052785
v -0.51391443724202701 0.034891583177876738 -0.044341666504507792
v -0.022536511188374079 0.066445647008688935 0.2275876085232387
v -0.18953723810091808 0.19745881778000349 0.55501402684616929
v -0.291702513666736 0.034213589236034361 -0.21850312195724006
v -0.7477023056142621 0.057633050768445528 0.084927735832164994
v 0.065368680687511435 0.076025834304588563 -0.011766393144750883
v -0.73506552643473444 0.11519630269799611 0.15117664247269602
v -0.66255740883616221 0.3599348291696714 0.040723212454974601
v -0.31701693192874586 0.036627217450966254 0.59555943622181406
v -0.42097640999216879 0.18454687616606882 -0.050727683405203429
v 0.0087185557401318094 0.033078027264198076 -0.17634638226862509
v -0.5280771794984831 0.1628121063605093 0.26233406753510979
v -0.13826647204349135 0.32208581280040749 0.63144306050526788
v -0.18443269770899101 0.074643605933553153 0.47400297674638664
v -0.051076833368437068 0.08238920164285192 -0.084448510700954771
v -0.53522474776819473 0.88497291819857749 0.4704873177007371
v -0.31661042538538797 0.14722327376472902 -0.23385991865982023
v 0.28355162252677485 0.021663150973914191 0.20516824096725289
v -0.529641210559331 0.21009528244732106 0.4488464577404831
v -0.33943715831586868 0.16268990439521602 0.53347159544002065
v -0.048730302287488633 0.048229924157260115 -0.20073360290165795
v 0.059474280727373444 0.019480837317793459 0.53287226045875724
v -0.12864171400120386 0.24031589190926381 -0.28233185565233898
v 0.07953850238630146 0.94292853219546524 0.45803596310869438
v 0.075264371102044716 0.023966576297531902 0.27833018429295003
v -0.13195818887657076 0.84003256180003538 -0.13280856843949823
v -0.62946088768836883 0.28403283438781185 0.26961917836081134
v -0.3812163733389004 0.57266494713790117 -0.15393641495944241
v -0.1769103263021897 0.77082658298648155 0.53986703489521148
v 0.23552864587675326 0.15400820341765759 -0.14795484580180934
v -0.72508788158293902 0.57733759171896815 0.55886672041894525
v 0.19929548446077294 0.58246425953271241 -0.24159865631594782
v 0.55305460306959586 0.45623061756562111 0.23152036831773168
v -0.83100781384855538 1.2241096588004581 0.092530025211809447
v -0.27515179071146617 0.63810812800310857 0.5859662976386848
v -0.41682522841908581 0.061718734629705736 0.54041110529539749
v -0.45716605207517835 0.074196004501518475 -0.20103879032157851
v -0.38953493676028278 0.043055100903824806 0.32852408856429388
v -0.41496047429605615 0.036529621462665654 -0.094690645339292195
v -0.42131114586125801 0.13368598086920563 -0.17073218690438227
v -0.67716374595507889 0.060231204028725935 0.48436507554029945
v -0.68500415981831264 0.06728918579700699 0.40970290518651203
v -0.4376176368538589 0.048011596193479084 0.16708896321979722
v -0.40407548702310969 0.13617385130481383 0.52057692622156637
v -0.4577002372645636 0.034225295128393923 0.024770658874962843
v -0.44806678819141438 0.1550319433909664 -0.092210800393972406
v -0.45810240385594042 0.036342196823699137 0.45427299936451393
v -0.64597146138230399 0.05280794386843899 0.28819003464446136
v -0.40373262134184634 0.06326492513809491 -0.23851093495432105
v -0.47331535763440236 0.042899541636072736 -0.15933885020679292
v -0.26183583787098419 0.068911136254404273 0.27476242687395275
v -0.46294299183619897 0.95138242774311099 0.40247296607500943
v -0.41291255761299411 1.0092121148395301 0.023782411665761432
v -0.69882528928187548 0.040682302172185741 0.02904165880397893
v -0.64013319928921752 0.050950279321266209 0.31154747729739635
v -0.39033793196763994 0.081025625754692493 -0.024829015651152517
v -0.26403410765852792 0.94423595567345131 0.35640963083260918
v -0.68168698867949484 0.14801892164111424 0.072537468138822753
v -0.62030796451080672 0.87032361328789731 0.50343294223490698
v -0.28837980863485163 0.074329821533734228 0.12529557423310747
v -0.65034522825017183 0.039939070494854179 0.49879738584549482
v 0.18022654771041957 0.17511269958748324 -0.19023889782786899
v -0.63864203655119922 0.15302911569009439 0.40984324933985239
v -0.030404580472267378 0.14330591304342916 0.56243202377605794
v -0.21561734263590221 0.12431330613420184 0.64169677977945327
v -0.6119164748008159 0.14960867178498516 0.53439422689141469
v -0.63519495598075193 0.9358770690940893 0.63491833751086346
v -0.51008516621587396 0.061940339403221412 -0.057950569804157394
v -0.69780913111926712 0.091200775037108384 0.22266329918566166
v -0.34205510964266395 0.028628948711399357 0.21564530938836829
v -0.66108346123517947 0.036808333926105462 0.21998906341889188
v 0.15622505714530743 0.93858353752733992 -0.06137125782841911
v -0.59151435117957141 0.31504684234375752 0.069692572240922554
v 0.14132215267221557 0.12880728774152578 0.53057135010393985
v -0.39167985830231383 0.96223453333631659 -0.033669856030665704
v -0.23848568108283089 0.076653011038432403 0.46519178406414735
v 0.20005082865103632 0.036472515892734675 -0.014095603197188403
v -0.69985386755880186 0.87106815160188955 0.64065910538433535
v -0.39917108513428146 0.97543806061198168 0.35673198901654862
v -0.30007997635711964 0.088145514612229997 0.62352810052986285
v -0.072060858800906 0.075290056440601938 0.45704798066897989
v -0.21428790048062085 0.052544901700211158 -0.2212785509163373
v -0.46782380035589222 0.90534718155700322 0.42971671761530211
v -0.43958728752626475 0.1357865854572809 0.52717487995971402
v -0.10231696682245191 0.1555616769274927 0.58247220109027376
v -0.092128997710601221 0.08159698373144976 -0.047204927710888689
v 0.19943167196409961 0.99322605897495153 0.35516879015369363
v -0.57663574556044273 0.051522546712215178 -0.040227805175369211
v 0.15033451508294954 0.023450698529356478 0.42571118991900536
v -0.525001887259408 0.30541153038501895 0.40614030147119251
v -0.26277899049845471 0.99980484886664467 0.18301715862149259
v -0.61726410734310122 0.94152688421563291 -0.021557487729678759
v 0.011438727113359482 1.0393427288196657 0.04977277984578643
v -0.6732498275473936 0.96545908324121688 0.66262116040822217
v -0.38989718247892519 0.084247328380417624 0.52338928214129365
v -0.48094959412998689 0.049200921090317103 0.16446122510324909
v -0.46773213496888977 0.15689084521141111 -0.034753657509745316
v -0.23855895596014315 0.92340305934062317 0.403499099976806
v -0.43037145180260644 0.033763982878552999 0.061047627304765116
v -0.7025474136692631 0.10817633761203008 0.02857303847753908
v -0.58535853524966786 0.036938349294054186 0.54712615360446504
v -0.34660688775911663 0.044331324957034013 -0.24384864981978285
v -0.75497608157613061 0.070419269838887397 0.17781422123926233
v -0.25446379220145132 0.96975691287851962 0.037728228186624503
v -0.55897536247993307 0.034732096621615444 -0.030651747838654434
v -0.30550443517245857 0.068839146708826154 0.39362135957292971
v -0.24347042317039838 0.18131578745742627 0.59021213350920498
v -0.57879847880142432 0.11792957823057938 0.2902749573000859
v 0.052226229996081341 0.022785970687755792 0.27498959868531858
v -0.074742113886476183 0.068414988438954744 0.28249835229619913
v 0.10688003436812303 0.11088530538873476 0.5400244258277126
v -0.60780818288190608 0.033160962378230317 0.29940835120085929
v -0.3141271171819473 0.084885905830921399 -0.11004906119882819
v -0.27986053754663015 0.91645493999571093 -0.051260690269160018
v 0.085578221624542872 0.027602738984231098 -0.10022125988844609
v -0.47855720333291563 1.0336032378768705 0.051650498363136357
v 0.13184363512249309 0.29874410871455959 0.62915362229911065
v -0.21827295660327981 0.049583593337457071 0.6449686929278492
v 0.20125807358371497 0.15936430786402561 0.51826336380052873
v 0.14904249191656921 0.024719075743310774 0.52490824740161091
v 0.15709057806558704 0.03060324631127603 0.081222119446020216
f 1 76 121
f 1 121 356
f 1 356 76
f 2 22 76
f 2 76 318
f 2 318 22
f 3 132 182
f 3 179 132
f 3 182 179
f 4 7 38
f 4 28 128
f 4 38 28
f 4 128 7
f 5 8 76
f 5 29 8
f 5 76 29
f 6 83 263
f 6 111 83
f 6 178 268
f 6 234 178
f 6 263 234
f 6 268 111
f 7 73 351
f 7 128 260
f 7 164 73
f 7 169 314
f 7 220 164
f 7 243 325
f 7 260 347
f 7 314 359
f 7 325 220
f 7 347 243
f 7 351 169
f 7 359 38
f 8 29 274
f 8 274 76
f 9 27 38
f 9 38 134
f 9 134 27
f 10 186 356
f 10 274 186
f 10 356 274
f 11 13 186
f 11 186 274
f 11 274 13
f 12 15 263
f 12 74 272
f 12 83 133
f 12 84 273
f 12 133 74
f 12 180 84
f 12 183 15
f 12 263 83
f 12 272 180
f 12 273 183
f 13 29 186
f 13 274 29
f 14 48 268
f 14 62 272
f 14 131 62
f 14 268 131
f 14 272 48
f 15 183 270
f 15 270 263
f 18 56 181
f 18 84 137
f 18 90 273
f 18 137 56
f 18 181 90
f 18 273 84
f 19 63 89
f 19 88 271
f 19 89 184
f 19 129 88
f 19 184 129
f 19 271 63
f 20 37 183
f 20 134 37
f 20 183 273
f 20 273 134
f 21 40 58
f 21 58 76
f 21 76 40
f 22 39 76
f 22 318 39
f 23 76 144
f 23 144 214
f 23 214 76
f 24 130 137
f 24 137 272
f 24 272 130
f 25 45 332
f 25 89 45
f 25 131 89
f 25 157 315
f 25 315 131
f 25 332 157
f 26 61 88
f 26 86 112
f 26 88 267
f 26 112 61
f 26 267 86
f 27 90 119
f 27 119 38
f 27 134 90
f 28 32 275
f 28 38 32
f 28 61 330
f 28 112 259
f 28 259 128
f 28 275 61
f 28 330 112
f 29 76 186
f 30 193 296
f 30 199 279
f 30 279 193
f 30 296 199
f 31 86 313
f 31 248 86
f 31 313 248
f 32 38 275
f 33 109 353
f 33 193 279
f 33 206 342
f 33 244 109
f 33 279 206
f 33 342 244
f 33 353 193
f 34 114 347
f 34 305 114
f 34 320 305
f 34 347 320
f 35 124 322
f 35 234 124
f 35 257 234
f 35 322 257
f 36 117 310
f 36 238 117
f 36 296 353
f 36 300 238
f 36 310 339
f 36 339 296
f 36 353 300
f 37 85 183
f 37 134 166
f 37 135 85
f 37 166 135
f 38 90 357
f 38 110 253
f 38 119 90
f 38 123 110
f 38 231 123
f 38 253 275
f 38 357 231
f 38 359 134
f 39 162 76
f 39 318 162
f 40 76 319
f 40 125 58
f 40 319 125
f 41 127 233
f 41 224 127
f 41 233 306
f 41 306 224
f 42 56 182
f 42 132 56
f 42 182 132
f 43 90 181
f 43 138 90
f 43 181 138
f 44 63 87
f 44 76 63
f 44 87 76
f 45 89 332
f 46 181 264
f 46 232 269
f 46 264 232
f 46 269 181
f 47 88 275
f 47 271 88
f 47 275 271
f 48 83 268
f 48 133 83
f 48 272 133
f 49 143 336
f 49 213 143
f 49 283 213
f 49 336 283
f 50 293 315
f 50 315 332
f 50 332 293
f 51 196 324
f 51 284 196
f 51 324 284
f 52 168 192
f 52 192 336
f 52 336 168
f 53 102 209
f 53 209 298
f 53 222 102
f 53 298 222
f 54 100 211
f 54 145 282
f 54 203 100
f 54 211 295
f 54 282 203
f 54 295 145
f 55 82 265
f 55 265 329
f 55 329 82
f 56 130 182
f 56 132 181
f 56 137 130
f 57 69 76
f 57 76 256
f 57 256 69
f 58 125 297
f 58 228 76
f 58 297 228
f 59 121 165
f 59 131 315
f 59 165 131
f 59 293 356
f 59 315 293
f 59 356 121
f 60 87 136
f 60 125 87
f 60 136 138
f 60 138 269
f 60 269 125
f 61 112 330
f 61 275 88
f 62 130 272
f 62 131 266
f 62 266 130
f 63 76 89
f 63 136 87
f 63 271 136
f 64 77 143
f 64 143 195
f 64 195 237
f 64 237 77
f 65 108 328
f 65 152 340
f 65 328 152
f 65 340 108
f 66 94 145
f 66 145 295
f 66 295 352
f 66 301 94
f 66 352 301
f 67 162 318
f 67 212 307
f 67 307 162
f 67 318 212
f 68 151 281
f 68 224 151
f 68 281 301
f 68 301 341
f 68 341 224
f 69 215 76
f 69 256 323
f 69 323 215
f 70 73 304
f 70 220 325
f 70 262 73
f 70 304 220
f 70 325 358
f 70 358 262
f 71 76 236
f 71 216 76
f 71 236 307
f 71 307 216
f 72 117 172
f 72 172 249
f 72 187 208
f 72 189 117
f 72 195 189
f 72 208 287
f 72 249 187
f 72 287 195
f 73 164 304
f 73 262 360
f 73 360 351
f 74 133 272
f 75 76 274
f 75 89 76
f 75 274 89
f 76 87 318
f 76 99 144
f 76 113 236
f 76 115 256
f 76 139 319
f 76 154 121
f 76 162 334
f 76 214 139
f 76 215 292
f 76 216 115
f 76 228 154
f 76 292 99
f 76 307 113
f 76 334 307
f 76 356 186
f 77 237 352
f 77 239 336
f 77 336 143
f 77 352 239
f 78 127 341
f 78 194 324
f 78 208 194
f 78 324 127
f 78 341 208
f 79 118 246
f 79 246 326
f 79 255 355
f 79 326 255
f 79 355 118
f 80 130 333
f 80 182 130
f 80 312 182
f 80 333 312
f 81 172 316
f 81 249 172
f 81 254 321
f 81 262 358
f 81 316 254
f 81 321 262
f 81 358 249
f 82 226 349
f 82 227 321
f 82 242 226
f 82 321 350
f 82 329 360
f 82 349 265
f 82 350 242
f 82 360 227
f 83 111 268
f 84 180 272
f 84 272 137
f 85 135 258
f 85 258 270
f 85 270 183
f 86 108 209
f 86 126 177
f 86 155 108
f 86 177 155
f 86 184 126
f 86 209 252
f 86 248 184
f 86 252 112
f 86 267 313
f 87 125 323
f 87 212 318
f 87 256 299
f 87 299 212
f 87 323 256
f 88 129 267
f 89 131 268
f 89 268 184
f 89 274 332
f 90 123 231
f 90 134 273
f 90 138 185
f 90 185 275
f 90 231 357
f 90 253 123
f 90 275 253
f 91 104 280
f 91 106 204
f 91 204 277
f 91 277 104
f 91 280 106
f 92 153 189
f 92 189 195
f 92 195 153
f 93 197 279
f 93 241 308
f 93 279 285
f 93 285 241
f 93 308 197
f 94 203 282
f 94 282 145
f 94 301 203
f 95 105 348
f 95 202 105
f 95 348 202
f 96 141 188
f 96 146 191
f 96 188 198
f 96 191 141
f 96 198 286
f 96 286 146
f 97 149 290
f 97 206 149
f 97 277 289
f 97 289 206
f 97 290 277
f 98 148 200
f 98 200 306
f 98 233 303
f 98 303 148
f 98 306 233
f 99 205 144
f 99 215 205
f 99 292 215
f 100 148 211
f 100 203 148
f 101 198 219
f 101 219 337
f 101 286 198
f 101 337 286
f 102 156 252
f 102 222 247
f 102 247 156
f 102 252 209
f 103 217 317
f 103 235 217
f 103 317 235
f 104 141 280
f 104 188 141
f 104 277 188
f 105 202 288
f 105 211 348
f 105 288 295
f 105 295 211
f 106 171 204
f 106 191 171
f 106 280 191
f 107 112 201
f 107 201 252
f 107 233 259
f 107 252 348
f 107 259 112
f 107 303 233
f 107 348 303
f 108 155 177
f 108 177 328
f 108 298 209
f 108 340 298
f 109 122 353
f 109 244 322
f 109 322 122
f 110 123 253
f 112 252 201
f 113 307 236
f 114 305 325
f 114 325 347
f 115 216 299
f 115 299 256
f 116 122 261
f 116 251 122
f 116 261 251
f 117 189 310
f 117 238 346
f 117 346 172
f 118 163 246
f 118 355 361
f 118 361 163
f 120 165 354
f 120 331 333
f 120 333 165
f 120 344 331
f 120 354 344
f 121 154 331
f 121 331 344
f 121 344 354
f 121 354 165
f 122 251 355
f 122 255 353
f 122 322 261
f 122 355 255
f 124 170 175
f 124 175 322
f 124 234 263
f 124 263 170
f 125 269 338
f 125 319 323
f 125 338 297
f 126 178 177
f 126 184 178
f 127 224 341
f 127 259 233
f 127 324 259
f 128 159 335
f 128 229 260
f 128 249 229
f 128 259 324
f 128 324 159
f 128 335 249
f 129 184 267
f 130 266 333
f 131 165 266
f 132 158 327
f 132 179 232
f 132 232 264
f 132 264 158
f 132 327 181
f 134 359 166
f 135 166 173
f 135 173 258
f 136 271 138
f 138 181 269
f 138 271 275
f 138 275 185
f 139 214 319
f 140 187 276
f 140 194 208
f 140 208 187
f 140 276 194
f 141 191 280
f 142 192 310
f 142 213 283
f 142 283 192
f 142 310 213
f 143 213 278
f 143 278 195
f 144 205 214
f 146 171 191
f 146 286 171
f 147 225 294
f 147 294 328
f 147 328 345
f 147 345 225
f 148 203 281
f 148 281 200
f 148 303 211
f 149 197 290
f 149 206 279
f 149 279 197
f 150 202 309
f 150 240 288
f 150 288 202
f 150 309 240
f 151 200 281
f 151 224 306
f 151 306 200
f 152 225 340
f 152 294 225
f 152 328 294
f 153 195 278
f 153 278 310
f 153 310 189
f 154 228 331
f 156 247 343
f 156 309 348
f 156 343 309
f 156 348 252
f 157 332 315
f 158 264 327
f 159 190 335
f 159 196 284
f 159 284 190
f 159 324 196
f 160 175 270
f 160 235 175
f 160 270 302
f 160 302 235
f 161 176 258
f 161 258 265
f 161 265 361
f 161 361 176
f 162 307 334
f 163 221 246
f 163 226 221
f 163 265 349
f 163 349 226
f 163 361 265
f 164 220 304
f 165 333 266
f 166 359 173
f 167 225 311
f 167 240 343
f 167 245 225
f 167 311 240
f 167 343 245
f 168 239 241
f 168 241 285
f 168 285 339
f 168 336 239
f 168 339 192
f 169 351 314
f 170 263 270
f 170 270 175
f 171 234 257
f 171 250 234
f 171 257 204
f 171 286 250
f 172 346 316
f 173 329 258
f 173 359 360
f 173 360 329
f 174 218 274
f 174 274 356
f 174 332 218
f 174 356 332
f 175 235 261
f 175 261 322
f 176 270 258
f 176 317 270
f 176 361 317
f 177 178 250
f 177 219 328
f 177 250 337
f 177 337 219
f 178 184 268
f 178 234 250
f 179 182 333
f 179 228 297
f 179 269 232
f 179 297 338
f 179 331 228
f 179 333 331
f 179 338 269
f 181 327 264
f 182 210 333
f 182 312 210
f 184 230 267
f 184 248 230
f 187 249 335
f 187 335 276
f 188 277 290
f 188 290 198
f 190 284 335
f 192 283 336
f 192 339 310
f 193 353 296
f 194 276 324
f 195 287 237
f 197 198 290
f 197 308 198
f 198 308 219
f 199 285 279
f 199 296 339
f 199 339 285
f 202 348 309
f 203 301 281
f 204 257 289
f 204 289 277
f 205 215 323
f 205 319 214
f 205 323 319
f 206 289 342
f 207 238 300
f 207 291 346
f 207 300 350
f 207 346 238
f 207 350 291
f 208 341 287
f 210 312 333
f 211 303 348
f 212 216 307
f 212 299 216
f 213 310 278
f 217 235 270
f 217 270 317
f 218 332 274
f 219 308 328
f 221 226 242
f 221 242 350
f 221 326 246
f 221 350 326
f 222 245 343
f 222 298 245
f 222 343 247
f 223 255 326
f 223 300 353
f 223 326 350
f 223 350 300
f 223 353 255
f 225 245 340
f 225 345 311
f 227 262 321
f 227 360 262
f 229 249 320
f 229 320 260
f 230 248 313
f 230 313 267
f 235 251 261
f 235 302 270
f 235 317 355
f 235 355 251
f 237 287 341
f 237 301 352
f 237 341 301
f 239 352 241
f 240 309 343
f 240 311 288
f 241 328 308
f 241 345 328
f 241 352 345
f 243 347 325
f 244 257 322
f 244 342 257
f 245 298 340
f 249 358 320
f 250 286 337
f 254 291 350
f 254 316 346
f 254 346 291
f 254 350 321
f 257 342 289
f 258 329 265
f 260 320 347
f 276 284 324
f 276 335 284
f 288 311 352
f 288 352 295
f 293 332 356
f 305 320 358
f 305 358 325
f 311 345 352
f 314 351 359
f 317 361 355
f 351 360 359
