v -0.32123710208149386 0.83067463020367238 0.47413904790473593
v -0.5278608933607597 0.82202559953890109 0.50705655420093221
v -0.72576597926945219 0.074900774425513447 0.050641676740099548
v -0.72601288009534581 0.07489687153230476 0.050784618106138331
v -0.91300958057320836 0.87060594651210965 0.15207670425223621
v -0.75675273330798432 1.4376075163631046 -0.16355859902535111
v -0.67497567177510642 1.3047150169996418 0.0039793270657707521
v -0.099168708945717721 0.14062132331730348 -0.22745370034249018
v -0.86200012994753761 0.96175396359662901 0.0036065917330984458
v -0.16708280915179724 0.64167056699083547 -0.32183556278072634
v -0.78302663345001389 0.88170333333233086 0.66516751141589059
v -0.20374884036550331 1.2272453315616747 0.14325175306460777
v 0.069675686872864392 0.71024629787291826 -0.17294670775560281
v 0.31610663008692269 0.75530087159371018 0.47311020363799355
v 0.49428287126821308 0.65483206544695549 0.22460169979935238
v -0.64422154056848824 0.75304588045489085 -0.093523453276044277
v 0.075905627429711089 0.75929880832682961 0.5213554383047182
v -0.19681530815685094 0.61929015107217533 0.6562853712615595
v 0.4818689938524589 0.64569416964780679 0.32219381063140073
v -0.0050735893416803072 0.556609459068375 -0.31660931220174909
v 0.11777930853087952 0.75220733937037609 -0.14654654087316504
v 0.17007021758220026 0.72716782489956966 0.56955571382893944
v 0.4437292736059435 0.71842640476143482 0.014782285206213211
v -0.27162063921035029 0.30654512440064891 -0.2455123911299541
v -0.63804825614325755 0.56576625238007128 -0.108312861416447
v -0.29762444330609272 0.61460818836400377 -0.25183609467413204
v -0.22083265768986376 0.58724808206957757 0.63013881891138257
v -0.88673115712950656 0.53980499701351425 0.26114379484049449
v -0.017837997870766325 0.71173372309399274 -0.21105400006724237
v 0.021343630772223256 0.5668532503003918 -0.29846874530880874
v 0.073657108520428449 0.72443852645435891 0.54371013637300691
v 0.31411917525826921 0.73438789366601509 0.4905063583478575
v -0.72479799168843584 0.70123060659707148 -0.066313439013701472
v -0.38238799652029809 0.12636787265219865 -0.22673814065883505
v -0.55974991945288666 0.17743960453617172 0.51208654461255254
v -0.60965417062981275 0.60991957252215845 0.57564229311797621
v 0.060417993011985797 0.66657033724051318 -0.25849822534354355
v 0.49901783708141262 0.59531181867801508 0.28514777608910935
v 0.22833755366737454 0.72797596601843018 -0.16196535725724096
v -0.1292969100638329 0.34865783194230948 -0.31419332618495965
v -0.66291138511885139 0.13086490652840388 0.45118138392629947
v -0.28127482236481754 0.24967429106956179 0.4575109666780427
v 0.11619157074836489 0.028140771722688713 -0.030361873853030689
v 0.064308521763494317 0.61939696732463845 -0.27905858585845328
v 0.15891494444208262 0.74539773930652287 -0.16319106199968961
v -0.023825542841917825 0.68229588857297796 -0.26397533706469301
v -0.91169718339431971 0.6878912934063921 0.27269908272859622
v -0.47179226150973008 0.59744650236856089 0.56956393166930785
v -0.70329942856760497 0.040626222139985312 0.032612603858180822
v -0.422940949670155 0.77129808702999203 0.52896485518613812
v -0.3432943972606482 0.55051009797963613 0.54652434082133494
v -0.36936667295485454 0.081214031313717502 -0.066263182124933956
v -0.49578067984008567 0.098580421949756372 -0.043013270211130758
v 0.38878282433347988 0.58033829107617041 0.49821977832891234
v 0.38240214836385006 0.66192827355666251 -0.081742827870564402
v 0.12530644612735181 0.66896335167369669 -0.22497214595727991
v 0.4164774800817343 0.43016288906055422 -0.068324622467457102
v 0.0017032611639258416 0.76991702096502068 0.54178157216473266
v -0.17287563489003011 0.27957837927956575 -0.29221094730774155
v -0.085079894305502196 0.032425697748012676 -0.19720869847149539
v -0.32650348382209704 0.032589526362290254 0.48926033129330176
v -0.54951023444164981 0.13988950896159794 0.28129232403545701
v -0.85623198622658026 0.7607284922163865 0.39400805409679673
v -0.34432093406932202 0.029822618882531734 0.31214424377659211
v -0.56799898090588985 0.17784955231520755 0.021688346014852141
v -0.34036119994148661 0.21526201397662456 -0.032123208236049881
v -0.56728971245511983 0.53965592922464212 -0.13374854994970328
v -0.60135422381497139 0.0601530907395183 0.57207139162436316
v 0.50330520910026544 0.64023050254955072 0.13476788443367083
v 0.0049574221136325742 0.4307658781630741 0.69559312505726123
v 0.39226104199110651 0.079045206273663127 0.030940696400526577
v 0.17989230942600096 0.66804618754246892 -0.19040618779921176
v 0.25341050619678829 0.76198314221387653 0.51489140166864356
v -0.77476050418732378 0.44378440095213156 0.034034301080751318
v -0.33242368769383324 0.38904818053918178 -0.14445755445765257
v -0.71880668597901154 0.40742854664450717 0.043521157905426829
v -0.26704058950297987 0.16299455601714327 0.59593528740990964
v -0.64800264418123765 0.38522995593961673 0.0045300107222312471
v -0.63912425744097701 0.54678434538517251 0.55956884561367504
v -0.45180236519098976 0.54474470284339604 0.55287742807535878
v -0.86466773754196469 0.5813320621921596 0.37623348908678672
v -0.55880630140671428 0.27114448724714307 0.1986573979590229
v -0.67340170958706569 0.32880175890182911 0.31581294503422785
v -0.33619853595023563 0.54630134094785354 -0.22571938157671687
v -0.90795413399074276 0.61179072171645199 0.15767035401949595
v 0.50354261039047443 0.6236115995988416 0.091964244366459502
v 0.50281218921263016 0.49772151251769037 0.30072830933579298
v 0.61360546115149184 0.40501882908184905 0.27498222070278872
v 0.47844472255500142 0.182849175141933 -0.02183705068252733
v -0.11590528796151531 0.17500278541723477 0.61419632708007166
v -0.72407880307730499 0.76834952214776819 0.49816613496426376
v -0.57067097130591182 0.23757043147940529 0.18058761090371764
v -0.27850259968920477 0.57314255324430796 0.54076950956181791
v -0.50312508125046029 0.52743454113300903 0.55575345685083677
v -0.50125431902033568 0.32997749725774839 0.44119670385896498
v -0.31774238406242061 0.22155296334178942 -0.086011292123201993
v -0.76928881117554948 0.71213413287155558 -0.040072075773099881
v -0.32089386603490883 0.61307303092509746 -0.18045905949655908
v -0.66916959958973299 0.11581608833660646 0.23455187999909599
v -0.43402656942409606 0.35131623251267718 -0.060003929272323994
v -0.23964494589220325 0.68135317819999608 0.54169156430108067
v -0.39039056089295138 0.07630545072218671 0.52568682336619066
v -0.74724408204269099 0.10194629338778623 0.16461092056583951
v -0.39547948022354379 0.62477496888339201 0.53412761982600265
v -0.46751385240307175 0.1598493460715914 -0.032998929624606828
v -0.26545523990749642 0.78189043937177038 -0.16087838432148027
v -0.73665660008213796 0.35068381898212236 0.28353031447662574
v -0.82100704867445051 0.42888838403570773 0.26232052911398451
v -0.4742762951326509 0.23442923566990745 0.47213800681147883
v -0.38282740138424415 0.50865028724508066 -0.11817308716011204
v -0.61339609143649243 0.17503242791829621 0.45032325427124592
v -0.35554855332699892 0.47160820869155223 0.52838633612648978
v 0.25211653819062946 0.24984923779653484 0.56019026987770948
v 0.601202958104047 0.17071301466554939 0.10495247747864218
v 0.47560545338889332 0.14909112593753965 0.38408887066088598
v 0.24236558307948172 0.33579881033033815 0.57144388875090135
v 0.22626813372387819 0.72205026230258718 0.55128243196967297
v 0.31047625808112672 0.65713558570553332 -0.15270431053464176
v 0.50376307800492748 0.41057123704798554 0.095798863413801769
v 0.20158361878312148 0.028022797089752183 0.50765452067671268
v 0.26267425395205113 0.30292073888757709 -0.2001345411085132
v -0.012054887058894332 0.022741027694094935 0.19624584287135802
v 0.46002535191243832 0.73683365301625703 0.066829555748046998
v -0.74330141405449035 0.81158980845477136 0.49912539267217026
v -0.57221223148848133 0.17525315247774717 0.21284685526382965
v -0.81634933945121613 0.57527724414794734 -0.0016978487255190492
v -0.26446495031403516 0.62446047039705577 0.54628952043124879
v -0.38927006305644751 0.080627120531425817 -0.015756647863263026
v -0.6770292657854633 0.48118323325375373 -0.080900925264949519
v -0.62838447983695966 0.49250036511496703 0.53605599224232403
v -0.35048001952454599 0.028775219900225808 0.17116380612244164
v -0.7967387264113569 0.68574801563561183 -0.026231584397556601
v -0.48183811467395754 0.46659272619664038 0.54669290693252715
v -0.44579591232092597 0.23990376667981686 -0.033912402206808148
v -0.67240275444004927 0.30863767118521235 0.23824206053878905
v -0.31829287959118141 0.29741611129656148 -0.12300396608778391
v -0.51863418529945349 0.23688427633481862 0.40994240017625938
v -0.82955612096758413 0.69196411372255917 0.44595954160476819
v -0.73255025792012851 0.1212010495429718 0.099994872110211144
v -0.34614111169208728 0.48029719412780492 -0.2009000193405156
v -0.20621325854097422 0.53955334111972597 -0.334163943959494
v -0.41997119356589596 0.73869079055285725 -0.13496778565349221
v -0.77257469717914673 0.38215048808600593 0.17551473603064086
v -0.35102412664312327 0.033147038434561273 0.42179144714220823
v -0.59430069678314024 0.17753981791538745 0.04920002959434927
v -0.47854275315166395 0.068098243983280002 -0.15950046765353762
v -0.52249278299296542 0.56727443054709958 -0.13578868468114791
v -0.47027440237608625 0.12807983808551829 0.54291383123767212
v -0.67803158915964645 0.42179610705494963 0.47082442935553792
v -0.41788147549565929 0.16227711811691142 -0.15567452025371001
v -0.88923242795516688 0.57844733018560934 0.24680820377884832
v -0.32803165801475392 0.72404631296362876 0.53138030298329919
v -0.67697897697585174 0.065995897365383305 0.48871838243654331
v -0.61880346315263068 0.036840933579808187 0.28820672736704755
v -0.34219263683489304 0.18356588404599078 0.48970242400370556
v -0.8512047051101147 0.52586125022077268 0.3439091695330812
v -0.35429689802788439 0.3652355209676777 -0.074657967396647748
v -0.36568044435602504 0.047157602639391366 0.22684066467972452
v -0.69106659441649598 0.72265809719357332 -0.070880888813953602
v -0.68873158539061063 0.11568331873489629 0.025933052653754146
v -0.2441632292695107 0.72043412565349119 0.54550448243227534
v -0.58182213647247516 0.68959302131313249 -0.13115666575187576
v -0.29364215924955306 0.55114354717732483 -0.29897598900738498
v -0.71268710065671403 0.060485549496793793 0.22346096989709457
v -0.33183172541197548 0.11596859759154721 0.58525134485465258
v 0.27127074239459736 0.10328245122270159 -0.0089103964317401013
v 0.29989212469266624 0.47429686365197976 -0.19100834390301177
v 0.62317947473516178 0.40419502561405851 0.10942892596320029
v -0.07751505442510763 0.15256579770547199 0.57858236811096442
v 0.18019568388685062 0.64770937683070595 0.60758786393506559
v 0.04921532424862568 0.2192705101585041 0.64106734422193257
v 0.51390596245797582 0.082456026205856681 0.18933245379748825
v 0.14509213796784959 0.05313520560037796 -0.1743069101635375
v -0.039090537488726151 0.72588049169689917 -0.17503436349931967
v 0.16494910799349335 0.19422170761227578 -0.23025166901539787
v -0.10071627926384225 0.60016229580479852 0.70294952599556038
v -0.59882650159292949 0.29412334880203772 0.15693330801632113
v -0.18701126466996787 0.68598235870276925 0.5560536116332897
v -0.71213076566103495 0.6836443240408675 0.5398602972090234
v -0.74342263782639806 0.49986436009961616 -0.045393030422198541
v -0.23655978104856554 0.64800908325270634 0.55788762693778882
v -0.68712716464783974 0.14462571803086205 0.19044967362660445
v -0.39714797863681256 0.30944077244692769 -0.040016280703241605
v -0.82146016370321484 0.63330896858901919 0.45131354470689705
v -0.81636282937194848 0.53642855107661158 0.022618576584169436
v -0.51877313555328142 0.032286331737107113 0.35136223850212861
v -0.78920403268437056 0.48581087924301164 0.4262858852361297
v -0.59230094266115785 0.45825108321809949 0.53287801530837509
v -0.38941084960648342 0.045923215719828339 0.52411195142918643
v -0.27269074389456449 0.3473279729427412 0.47862933234799276
v -0.43144216712423233 0.17131006437493745 -0.096410193399610156
v -0.87382660597850237 0.51824058009312102 0.2906212206081048
v -0.35216774716490346 0.029039819135728999 0.20239659502657822
v -0.63745706989201034 0.046054591961332957 0.31061026635156425
v -0.35357256147268123 0.54441689527341874 -0.17118137651621063
v -0.75710513871255469 0.38946922276599977 0.31247082861532804
v -0.40858152884395765 0.037521322278546806 -0.08615643536547489
v -0.68676377828538149 0.1415873297683499 0.065374435821733412
v -0.46073695345784771 0.44801219961286437 0.52938524148705313
v -0.65177597272555921 0.053975690593739502 0.53172712072374273
v -0.53470778561538335 0.31418043550793767 0.37674595828105673
v -0.50785567250669639 0.062133916281302534 -0.060670996397629524
v -0.62460379802113764 0.037040641682976362 -0.0050918679224544608
v -0.4775103493016602 0.049152178334603801 0.16289480248546093
v -0.7470464082311189 0.053801444331164058 0.18667193980933702
v -0.24637332139363813 0.65383358107540945 -0.27200886800723045
v -0.28167363359367326 0.27740328207089909 -0.21617082600440982
v -0.72218310452759449 0.33507023240429956 0.18230662273015477
v -0.47534346213336492 0.69090444556179853 0.56224674502286798
v -0.38187097256613223 0.5110126298548302 0.54082001665276958
v -0.41371720817103524 0.57139636848409259 -0.13664893459287106
v -0.65659215113366398 0.12519422883470213 0.38373024775036529
v -0.51928275206897812 0.15168093216742959 -0.021105544797717153
v -0.51054381283260142 0.18527094615158349 0.25867043454884592
v -0.28244886693391208 0.064717759889796458 0.31122143015259213
v -0.38114130309305855 0.72709105294399634 0.52321497041043119
v -0.91620146586272844 0.63639684691655918 0.29060428713349107
v -0.86550694917878079 0.65084753692764996 0.049931394228625393
v -0.84073241384781394 0.46124642262308835 0.1508421981997157
v -0.51299462230469461 0.36369246681140516 0.46672940808430297
v -0.5243494785486339 0.39849318389265709 -0.050898814837591989
v -0.33523524575424751 0.75231999769018254 -0.14652249104398721
v -0.89884018850383596 0.67070383694751634 0.16883265596504241
v -0.56411382427167167 0.36264768845298995 -0.0039002507788994129
v -0.44574101768697699 0.43555344288491965 -0.10154683952143399
v -0.43928618735135994 0.036086721601634883 -0.20444744088614084
v -0.55164920383636429 0.037504544956800306 0.55761122991030243
v -0.58619257676298431 0.6570592424754067 0.57458565483523782
v -0.41729742387664182 0.37252998456937869 0.51900806737933647
v 0.11205608220873756 0.54206453804316435 -0.27143914931262775
v 0.31086006020129542 0.19100882138352721 -0.11257739741506943
v 0.56743281465174411 0.30405065924220653 0.37469530153127001
v 0.14495597374501593 0.039319599912694826 0.37910489632811195
v 0.43566281470959445 0.43267691519639501 0.43164392973358456
v 0.32262924044958441 0.019733600127931728 0.20114680613536673
v 0.11233185157194352 0.55887942845481076 0.66107516228539331
v 0.45331177439553422 0.56845863751165759 -0.048618780551233552
v 0.6565406657433539 0.24682809099419759 0.25015854756774408
v 0.11439061504651658 0.050993955656074508 -0.13856290550830413
v 0.30074299391359699 0.7346757980956794 -0.12018604136782989
v -0.33357415259572065 0.035732132463862309 -0.14928040355142536
v -0.22057912475451402 0.45714384809900005 0.60414139342207029
v 0.073490081235498453 0.42284499296599748 -0.28813225723770391
v 0.055881570660121407 0.039969810181701496 0.51406898020891323
v -0.59618217733769707 0.31499490470793789 0.075946482134347959
v -0.84519797467998892 0.52854366531095842 0.39952013982898221
v -0.88104310288984677 0.52429946004487948 0.18735629020336675
v -0.29310127078600184 0.69544834349606066 0.55501190783949617
v -0.5249193439683566 0.2358262937845115 0.33293266174945912
v -0.65389156811992732 0.055437508834670808 0.28240682563432118
v -0.76914389972313457 0.57494071096716792 -0.059469602958819867
v -0.29313388586717004 0.075725473566785842 0.1143274830954228
v -0.30375429171795859 0.55760289573716881 0.52403176753769287
v -0.5589516924268092 0.031795954450178507 0.18361509846612323
v -0.42114171336936324 0.19369819012713824 -0.041376188360636772
v -0.71187135884500441 0.073105317594031147 0.022093704524266893
v -0.53523390515583469 0.70637579539997908 0.55083792307966783
v -0.25401672587782487 0.60501225871720365 -0.30510261269150729
v -0.75396946016559163 0.78175511133344477 0.48170350346459234
v -0.91792197596304037 0.62753004681779956 0.23277849782662915
v -0.40198975992266034 0.56688548867788013 0.53299710413157175
v -0.81983167964695824 0.47018732810382596 0.06159475191683772
v -0.23525225751575088 0.35872328845895191 -0.2959085712213268
v -0.37659818454618293 0.13412983389356242 0.51187808644693844
v -0.50660377047690019 0.25170109930984547 0.25180376139377242
v -0.37799783966736494 0.034051839554508405 0.51257467586321792
v -0.60815338149495324 0.19292061593858958 0.13412829155986805
v -0.54099080533994814 0.54034178262705101 0.56930605625920028
v -0.574200855717243 0.63082382994763764 -0.13920194460789451
v -0.36581371930291351 0.5546064657379306 -0.1517320774419596
v -0.45274467434344928 0.077733068036631048 -0.20738159344065779
v -0.61635954509814184 0.15245013456133902 0.52780548516871195
v -0.42732337400072729 0.39505045183276655 0.52511907595124618
v -0.31096066966634639 0.20343688921437536 -0.14161959746737865
v -0.33620985041395329 0.14345469110358117 0.55336393118562732
v -0.41267853453149339 0.052821651748338458 0.1869532979384364
v -0.30657835104711345 0.029470886300305182 0.24918864331837218
v -0.28195702327022482 0.47516105131229758 0.511646286720017
v -0.58862841226778928 0.48209547350448823 -0.10460011835676736
v -0.31558047379897064 0.4695687512737467 -0.27357802512922247
v -0.75458380432957439 0.47038754116576131 -0.0080313241275966462
v -0.47830504525309192 0.091424220507982129 -0.14292017448690009
v -0.6411351574483164 0.36294769190359472 0.41987362771911946
v -0.44039079411038373 0.69668877756976599 0.54621941714485811
v -0.62364176866478227 0.70342363921344098 -0.10055933659237955
v -0.36005637295089471 0.25800449268123243 0.49501165624915205
v -0.75491577960965839 0.074983288500288348 0.12769346710718973
v -0.508354649061321 0.058545645094324208 0.57609451636560627
v -0.68565798142240353 0.06077947079175313 0.40212077605645707
v -0.49620554036083803 0.19141216302943462 0.48207048493744364
v -0.27780253163061813 0.67435399658105888 -0.17783583888676885
v -0.36983758585969789 0.44671785894455412 -0.10394886913563273
v -0.38351913506975249 0.63086160375421318 -0.16538623298876087
v -0.44142110307028781 0.035576043514977104 0.034295344060114585
v -0.86302648681115779 0.56570930513780227 0.068477201324307221
v -0.76707923326920791 0.42450395748266229 0.39226871346042147
v -0.27769535930171202 0.10703743836621347 0.6238997084025043
v -0.54585729375845726 0.03740043670222893 0.40185881276320906
v -0.7890363075990634 0.40325898705989865 0.19826980858002066
v -0.54731132946494787 0.16367690896104414 0.32724996983877713
v -0.70026821993161836 0.61115152257973815 0.5466976548038478
v -0.55112038152509168 0.23594894382442089 0.01614380032859259
v -0.79045949168501661 0.58945560145005993 0.49321809420210072
v -0.5026054583388031 0.43429440764887295 0.51356734034349416
v -0.22875712712242624 0.17087273170078793 -0.21437204945319677
v 0.42409794142675311 0.27368053184521068 -0.0072289514825792447
v 0.33026433626543866 0.42895090496297317 -0.15456530370270102
v 0.38328974766319202 0.32561494536615249 0.47281823511958115
v 0.22401477408601719 0.034330864040146944 0.071575963973780563
v 0.50301295502610843 0.40509954917027863 0.29848380084643011
v 0.35020900402217281 0.13063575847639014 0.39062430665791775
v 0.31716819444297251 0.57542167905711394 0.5601354698029708
v 0.60600249951290897 0.32079027816351557 0.024534975700061429
v 0.084473020187664255 0.33628644150548381 0.66199825505347609
v 0.22067866267787303 0.17274395032062226 -0.19713015501647904
v 0.1458351315988495 0.13558837703029497 0.54937885782655516
v -0.040604360634485213 0.73212554137849295 0.5385091532782641
v -0.27445055796377299 0.23092653983841016 0.45658398882843715
v -0.23109459073323446 0.48361215989307071 -0.33930997655528233
v -0.36014822846429739 0.05128509375797724 -0.25430005188996396
v -0.18276950819986892 0.0988897301591454 0.28735808026551668
v -0.84004174563523792 0.48223012600683129 0.27219121563782889
v -0.67926069727938831 0.57277404888088723 -0.10110325457842201
v -0.61572804992517827 0.093827147860839677 0.2960692161811268
v -0.89937187673451402 0.66217114095544582 0.35961293205320122
v -0.47517373978910732 0.64427682334285596 -0.13833195412986693
v -0.54564700057846527 0.61456752906448531 0.56667957729260976
v -0.31519960714674494 0.38748661411564128 -0.21192773218726713
v -0.49482515288559809 0.34520840546818393 -0.049322231853234082
v -0.86924605910729136 0.54787019733811693 0.13856714043146345
v -0.58862635344369485 0.26286539395810421 0.10605498365390821
v -0.28901446704351269 0.19428665140708115 -0.18567523206578773
v -0.62754371067527204 0.41373799510096892 -0.052335199046211076
v -0.29097827228876971 0.073135638187716234 0.41749607762667573
v -0.52972095289889576 0.27508096438277874 0.3006813456861388
v -0.68517550132538496 0.16938613096858202 0.1488849948268598
v -0.60015626568308633 0.061351927640709181 -0.030309654429040885
v -0.35718673177904858 0.3465212834466474 0.52081156456561817
v -0.73474145250256206 0.038674716949415676 0.078388450939757173
v -0.48132640447402592 0.031811205659028424 0.13798678319692334
v -0.67624225014787298 0.34198868799402216 0.066019458488868976
v -0.56002835508175042 0.12878897188473998 0.57127735527603984
v -0.49931138046304585 0.65449801750574377 0.55735668445460829
v -0.31938716899517328 0.05706710621729575 0.60897236204964855
v -0.53952488352152939 0.19713000167621267 0.40395031297222944
v -0.73521440220623968 0.48015608480051913 0.48401372975985019
v -0.25116374300283256 0.34491876374504221 0.48518774645811852
v -0.53260091162243994 0.7281928881698152 -0.14208075103422094
v -0.3394759063087216 0.26330432669702242 -0.029649028070378319
v -0.386536197084206 0.16843838833885705 -0.18022930975594434
v -0.36460939492065197 0.63782844407020978 0.54824873205762126
v -0.43242725367551993 0.1916489296249731 0.49272514481567675
v -0.3091082881060559 0.084438910111402213 -0.107920711603535
v -0.22237987678220164 0.53233907015012372 0.65151518355686411
v -0.67740391523858723 0.041113700593850437 0.4130186513146149
v -0.485380043588447 0.48868342865137188 -0.1012449120686765
v -0.38939994945457612 0.038961923866036884 0.35204487508997301
v -0.49826182922176698 0.03570103804523473 -0.058714091096080327
v -0.87941707704856842 0.6570471348263226 0.093519451838976989
v -0.65096778578494785 0.72720607814640981 0.53960454224162613
v -0.7709523867486453 0.40769995878218396 0.1077813857766998
f 1 11 216
f 1 152 248
f 1 161 11
f 1 216 152
f 1 248 161
f 2 11 360
f 2 50 11
f 2 209 284
f 2 257 209
f 2 284 50
f 2 360 257
f 5 9 97
f 5 11 9
f 5 47 325
f 5 63 11
f 5 97 218
f 5 218 359
f 5 223 47
f 5 325 63
f 5 359 223
f 6 7 9
f 6 9 11
f 6 11 7
f 7 11 12
f 7 12 9
f 8 40 173
f 8 173 239
f 8 239 40
f 9 10 291
f 9 12 10
f 9 16 159
f 9 33 97
f 9 106 222
f 9 142 348
f 9 159 33
f 9 222 142
f 9 285 16
f 9 291 106
f 9 348 285
f 10 12 40
f 10 40 319
f 10 206 291
f 10 258 206
f 10 319 258
f 11 18 12
f 11 50 216
f 11 63 259
f 11 91 360
f 11 124 91
f 11 161 178
f 11 178 18
f 11 259 124
f 12 13 56
f 12 14 312
f 12 15 69
f 12 17 31
f 12 18 317
f 12 19 38
f 12 20 243
f 12 21 72
f 12 22 117
f 12 23 237
f 12 29 46
f 12 30 20
f 12 31 170
f 12 32 14
f 12 37 44
f 12 38 15
f 12 39 45
f 12 44 230
f 12 45 21
f 12 46 37
f 12 54 234
f 12 55 240
f 12 56 174
f 12 58 176
f 12 69 86
f 12 72 13
f 12 73 32
f 12 86 123
f 12 87 19
f 12 117 73
f 12 118 39
f 12 123 23
f 12 170 22
f 12 174 29
f 12 176 17
f 12 230 30
f 12 234 87
f 12 237 55
f 12 240 118
f 12 243 40
f 12 312 54
f 12 317 58
f 13 72 56
f 14 32 312
f 15 38 69
f 16 285 159
f 17 176 31
f 18 27 354
f 18 90 176
f 18 101 181
f 18 176 317
f 18 178 101
f 18 181 27
f 18 242 90
f 18 354 242
f 19 87 38
f 20 30 243
f 21 45 72
f 22 170 117
f 23 123 237
f 24 207 328
f 24 263 305
f 24 305 207
f 24 328 263
f 25 67 279
f 25 269 67
f 25 279 323
f 25 285 269
f 25 323 285
f 26 84 98
f 26 98 291
f 26 163 84
f 26 206 258
f 26 258 163
f 26 291 206
f 27 127 354
f 27 181 127
f 28 151 247
f 28 192 151
f 28 247 192
f 29 37 46
f 29 56 37
f 29 174 56
f 30 230 243
f 31 176 170
f 32 73 312
f 33 159 323
f 33 251 97
f 33 323 251
f 34 271 350
f 34 320 271
f 34 350 320
f 35 111 272
f 35 272 342
f 35 290 111
f 35 342 290
f 36 79 327
f 36 228 301
f 36 301 79
f 36 327 228
f 37 56 44
f 38 87 69
f 39 118 45
f 40 59 263
f 40 60 59
f 40 175 173
f 40 239 60
f 40 243 175
f 40 263 319
f 41 111 212
f 41 153 272
f 41 212 289
f 41 272 111
f 41 289 153
f 42 190 286
f 42 286 318
f 42 318 347
f 42 347 190
f 43 122 239
f 43 239 309
f 43 309 122
f 44 56 230
f 45 118 72
f 47 217 325
f 47 223 260
f 47 260 217
f 48 80 261
f 48 261 343
f 48 268 80
f 48 327 268
f 48 343 327
f 49 203 339
f 49 256 203
f 49 339 256
f 50 284 216
f 51 112 253
f 51 210 112
f 51 253 351
f 51 351 210
f 52 128 294
f 52 197 353
f 52 294 197
f 52 353 128
f 53 105 282
f 53 202 337
f 53 213 105
f 53 282 202
f 53 337 213
f 54 312 234
f 55 118 240
f 55 237 118
f 56 72 230
f 57 119 306
f 57 121 307
f 57 237 119
f 57 306 121
f 57 307 237
f 58 317 176
f 59 60 305
f 59 305 263
f 60 239 321
f 60 241 320
f 60 320 305
f 60 321 241
f 61 144 334
f 61 266 144
f 61 321 266
f 61 334 321
f 62 99 324
f 62 125 99
f 62 214 125
f 62 300 214
f 62 324 300
f 63 138 259
f 63 325 138
f 64 131 277
f 64 158 193
f 64 193 131
f 64 277 357
f 64 357 158
f 65 145 331
f 65 160 145
f 65 213 160
f 65 302 213
f 65 331 302
f 66 96 274
f 66 191 255
f 66 255 349
f 66 274 191
f 66 349 96
f 67 147 356
f 67 269 147
f 67 356 279
f 68 200 227
f 68 227 288
f 68 288 342
f 68 342 200
f 69 87 119
f 69 119 237
f 69 237 86
f 70 176 314
f 70 236 176
f 70 314 236
f 71 89 172
f 71 166 89
f 71 172 235
f 71 235 309
f 71 309 166
f 72 118 167
f 72 167 230
f 73 117 312
f 74 76 361
f 74 262 281
f 74 281 76
f 74 361 262
f 75 136 157
f 75 140 328
f 75 157 292
f 75 207 136
f 75 292 140
f 75 328 207
f 76 78 341
f 76 281 78
f 76 341 361
f 77 90 318
f 77 165 344
f 77 275 165
f 77 297 321
f 77 318 275
f 77 321 90
f 77 344 297
f 78 221 224
f 78 224 341
f 78 281 333
f 78 333 221
f 79 130 327
f 79 301 346
f 79 346 130
f 80 94 133
f 80 133 199
f 80 199 261
f 80 268 94
f 81 156 246
f 81 184 325
f 81 217 156
f 81 246 303
f 81 303 184
f 81 325 217
f 82 92 265
f 82 135 177
f 82 177 331
f 82 265 335
f 82 331 92
f 82 335 135
f 83 107 135
f 83 135 335
f 83 201 283
f 83 283 107
f 83 335 201
f 84 140 195
f 84 163 280
f 84 195 98
f 84 280 140
f 85 151 260
f 85 223 359
f 85 260 223
f 85 295 330
f 85 330 151
f 85 359 295
f 86 237 123
f 87 234 310
f 87 310 119
f 88 168 310
f 88 232 238
f 88 238 168
f 88 310 232
f 89 114 172
f 89 166 306
f 89 306 313
f 89 313 114
f 90 242 347
f 90 244 176
f 90 321 244
f 90 347 318
f 91 124 259
f 91 179 360
f 91 259 179
f 92 125 214
f 92 214 265
f 92 267 125
f 92 331 267
f 93 127 351
f 93 253 278
f 93 278 354
f 93 351 253
f 93 354 127
f 94 188 304
f 94 268 188
f 94 304 133
f 95 109 273
f 95 137 109
f 95 201 137
f 95 220 201
f 95 273 220
f 96 136 274
f 96 349 136
f 97 132 218
f 97 251 132
f 98 195 293
f 98 222 291
f 98 293 222
f 99 125 336
f 99 164 250
f 99 182 164
f 99 250 324
f 99 336 182
f 100 157 183
f 100 183 329
f 100 225 292
f 100 292 157
f 100 329 225
f 101 161 248
f 101 178 161
f 101 248 181
f 102 165 275
f 102 189 165
f 102 264 288
f 102 275 264
f 102 288 189
f 103 164 182
f 103 182 336
f 103 205 164
f 103 287 205
f 103 336 287
f 104 210 351
f 104 216 284
f 104 261 210
f 104 284 261
f 104 351 216
f 105 134 255
f 105 191 282
f 105 213 302
f 105 255 191
f 105 302 134
f 106 291 222
f 107 143 208
f 107 196 299
f 107 208 135
f 107 283 196
f 107 299 143
f 108 196 296
f 108 219 299
f 108 296 322
f 108 299 196
f 108 322 219
f 109 137 345
f 109 229 273
f 109 290 352
f 109 345 290
f 109 352 229
f 110 195 292
f 110 211 270
f 110 225 211
f 110 270 195
f 110 292 225
f 111 290 345
f 111 300 212
f 111 345 300
f 112 210 273
f 112 229 338
f 112 273 229
f 112 278 253
f 112 338 278
f 113 116 316
f 113 308 116
f 113 311 308
f 113 316 311
f 114 238 172
f 114 313 238
f 115 172 238
f 115 232 311
f 115 235 172
f 115 238 232
f 115 311 235
f 116 171 316
f 116 308 312
f 116 312 314
f 116 314 171
f 117 170 236
f 117 236 312
f 118 237 307
f 118 307 167
f 119 168 306
f 119 310 168
f 120 169 244
f 120 233 235
f 120 235 311
f 120 244 233
f 120 311 316
f 120 316 169
f 121 167 307
f 121 175 243
f 121 230 167
f 121 231 175
f 121 243 230
f 121 306 231
f 122 233 244
f 122 235 233
f 122 244 239
f 122 309 235
f 125 267 336
f 126 132 251
f 126 180 185
f 126 185 295
f 126 251 180
f 126 295 132
f 127 181 248
f 127 248 351
f 128 131 294
f 128 252 131
f 128 353 252
f 129 180 251
f 129 251 323
f 129 279 333
f 129 323 279
f 129 333 180
f 130 188 268
f 130 268 327
f 130 346 188
f 131 193 340
f 131 252 277
f 131 340 294
f 132 295 218
f 133 304 199
f 134 183 349
f 134 302 329
f 134 329 183
f 134 349 255
f 135 208 177
f 136 207 274
f 136 349 157
f 137 201 249
f 137 249 345
f 138 184 259
f 138 325 184
f 139 198 256
f 139 256 287
f 139 287 336
f 139 336 198
f 140 280 328
f 140 292 195
f 141 163 258
f 141 258 319
f 141 319 163
f 142 222 293
f 142 293 326
f 142 326 348
f 143 299 361
f 143 361 208
f 144 215 334
f 144 266 298
f 144 277 215
f 144 298 357
f 144 357 277
f 145 160 198
f 145 198 336
f 145 267 331
f 145 336 267
f 146 202 282
f 146 226 358
f 146 271 226
f 146 282 350
f 146 350 271
f 146 358 202
f 147 211 356
f 147 269 326
f 147 326 211
f 148 264 352
f 148 288 264
f 148 290 342
f 148 342 288
f 148 352 290
f 149 188 346
f 149 220 188
f 149 283 220
f 149 296 283
f 149 346 296
f 150 191 274
f 150 274 350
f 150 282 191
f 150 350 282
f 151 156 217
f 151 192 156
f 151 217 260
f 151 330 247
f 152 216 351
f 152 351 248
f 153 200 272
f 153 289 355
f 153 355 200
f 154 164 205
f 154 194 250
f 154 205 339
f 154 250 164
f 154 254 298
f 154 298 355
f 154 339 254
f 154 355 194
f 155 264 275
f 155 275 318
f 155 286 352
f 155 318 286
f 155 352 264
f 156 187 246
f 156 192 187
f 157 349 183
f 158 276 193
f 158 357 276
f 159 285 323
f 160 213 337
f 160 256 198
f 160 337 256
f 162 269 285
f 162 285 348
f 162 326 269
f 162 348 326
f 163 319 280
f 165 189 344
f 166 231 306
f 166 309 315
f 166 315 231
f 168 238 313
f 168 313 306
f 169 171 176
f 169 176 244
f 169 316 171
f 170 176 236
f 171 314 176
f 173 175 315
f 173 309 239
f 173 315 309
f 175 231 315
f 177 208 341
f 177 245 331
f 177 341 245
f 179 259 303
f 179 301 360
f 179 303 301
f 180 281 185
f 180 333 281
f 184 303 259
f 185 262 330
f 185 281 262
f 185 330 295
f 186 204 276
f 186 254 204
f 186 276 357
f 186 298 254
f 186 357 298
f 187 192 296
f 187 296 346
f 187 303 246
f 187 346 303
f 188 220 304
f 189 227 266
f 189 266 344
f 189 288 227
f 190 278 338
f 190 338 286
f 190 347 278
f 192 247 322
f 192 322 296
f 193 276 340
f 194 289 324
f 194 324 250
f 194 355 289
f 195 270 293
f 196 283 296
f 197 226 241
f 197 241 353
f 197 294 358
f 197 358 226
f 199 210 261
f 199 273 210
f 199 304 273
f 200 342 272
f 200 355 227
f 201 220 283
f 201 335 249
f 202 358 337
f 203 256 337
f 203 337 358
f 203 340 339
f 203 358 340
f 204 254 340
f 204 340 276
f 205 287 339
f 207 305 332
f 207 332 274
f 208 361 341
f 209 257 343
f 209 343 284
f 211 225 356
f 211 293 270
f 211 326 293
f 212 300 324
f 212 324 289
f 214 249 265
f 214 300 249
f 215 277 321
f 215 321 334
f 218 295 359
f 219 247 262
f 219 262 361
f 219 322 247
f 219 361 299
f 220 273 304
f 221 225 329
f 221 279 356
f 221 329 224
f 221 333 279
f 221 356 225
f 224 245 341
f 224 302 245
f 224 329 302
f 226 271 320
f 226 320 241
f 227 298 266
f 227 355 298
f 228 327 343
f 228 343 360
f 228 360 301
f 229 286 338
f 229 352 286
f 232 310 311
f 234 308 310
f 234 312 308
f 236 314 312
f 239 244 321
f 241 321 353
f 242 278 347
f 242 354 278
f 245 302 331
f 247 330 262
f 249 300 345
f 249 335 265
f 252 321 277
f 252 353 321
f 254 339 340
f 256 339 287
f 257 360 343
f 261 284 343
f 263 280 319
f 263 328 280
f 266 321 344
f 274 332 350
f 294 340 358
f 297 344 321
f 301 303 346
f 305 320 332
f 308 311 310
f 320 350 332
