v -0.060184229704116625 0.40374642353051093 0.68350793155241651
v -0.90197813099934421 0.87118861744209009 0.24261685304933475
v 0.061215699460195852 0.7638482295488972 -0.15577196831381726
v -0.72576597926945219 0.074900774425513447 0.050641676740099548
v -0.72601288009534581 0.07489687153230476 0.050784618106138331
v -0.36090028722243872 0.038930098483487829 0.31248524586142529
v -0.16687848752078521 0.64702913419777208 0.64288366304212374
v -0.084772662741077101 0.87354697381524027 -0.10359997290846816
v -0.49244863166748881 0.19457659988835238 0.29477092747937544
v -0.24802686305971144 0.74040840930013885 0.53700860764696201
v -0.010216763420859188 0.86927409444926684 -0.11496563211934922
v -0.24172428237588617 0.021173159193657098 -0.17624946875766109
v -0.1619736136489533 0.026179649947160009 0.56120959277556259
v -0.4912307330004082 0.89358423819452837 0.44631772381057527
v -0.52115927388156624 0.031743041249476502 0.15670548880174764
v -0.47495280655082234 1.2287420626856644 0.26977307303683407
v -0.36967175272088226 0.93359668962186049 0.41602187063805141
v -0.21814381976776875 0.75022113241057931 0.53832609677732246
v 0.22832586485855783 0.23623856460593753 -0.21803659132233094
v -0.097900473448172973 0.074710537094096072 -0.091851620718312099
v -0.24120840746554528 0.96274818702907983 0.32769308634523259
v -0.30642040886009764 0.88429285476941588 -0.084529721665188906
v 0.067784772668268212 0.37601796959367262 -0.27459222726556354
v 0.19138949305497083 0.35548052234531408 -0.24014329864260214
v -0.31532102861535866 0.77553416064702851 0.50407326197539304
v 0.15347155345079089 0.76847889118838586 0.53012012717207957
v 0.12546323867967285 0.40795550587956553 -0.27020731351882887
v -0.25634565173810586 0.98555147479364913 0.099643664471974383
v 0.10236624276808685 0.33430654040375712 -0.26482980107679949
v -0.093662706619933866 0.95137458961186183 0.43719332753856149
v -0.3729394375928255 0.78476049645273882 -0.12831048118869931
v -0.11420200978373582 0.17957751595838239 0.58346784322220346
v -0.56212346587547712 0.97327851639038832 -0.011290019724474569
v 0.36037200219533966 0.15866458178985537 -0.098775735754580637
v 0.49578805383673513 0.37246744237617652 0.31283350084042416
v 0.62120503097858826 0.38994833861226291 0.094120035775697969
v -0.12108913105810303 0.16245425349519546 0.58690290550497992
v -0.52384677730725338 0.26347504696526475 0.38098308838807149
v -0.055064103044980134 0.36963332063662757 -0.29710126817840243
v 0.2041271536335752 0.93209305065377268 0.42164405195016902
v -0.11949674949214424 0.1470807050571975 0.60266257265100709
v -0.12276562889463355 0.12573895323626919 -0.21282110777717789
v -0.57485692535004262 0.34581655487460444 0.44640381907288201
v -0.53737958330770652 0.48664801431861721 0.55702908129386297
v 0.52878494823111277 0.32643955179357065 0.34150037353663037
v 0.23127593548067682 1.1759541553142532 0.33578907233897143
v -0.33897013175591217 0.34979925577490617 -0.10152828352141378
v 0.17979522056947203 0.53016979768494654 0.62179087479580997
v -0.20324626313172139 0.026437970849879637 -0.18973720415720885
v 0.34865779568074889 0.03809946708888709 0.31970829617911328
v -0.27840407660563848 0.90553185926406687 0.41560850407265354
v -0.34336825971515472 0.32299042329591543 0.50877958459070249
v 0.11820558701145524 0.12477378441601562 -0.20044353481853078
v 0.13242434331131128 0.5473344900889362 -0.25652446259161499
v -0.63161563238009266 0.038367372878258206 -0.0096319086950501301
v 0.50570337013011768 0.90940539412983989 0.19125892721893251
v -0.15119748733348437 0.61449820908361252 -0.33562245527901224
v -0.38636635061743985 0.35457377672669677 -0.080480042613884403
v -0.33770049986472078 0.031417811073200193 0.1757715215508448
v -0.49993724158293945 0.53674284933610472 0.55562056235453261
v -0.34063321218914755 0.51285520857228162 -0.20783534977558732
v -0.46051676549696108 0.60322729391673136 0.56345489802224757
v -0.37011058595328228 0.57055426594389913 -0.15088033445681251
v -0.2584656104911473 0.92029017222960474 0.40343765046928892
v -0.026602237127952871 0.89671514557468601 0.48792605019343854
v -0.32798941241484847 0.96880826034399203 0.35674633243790516
v 0.21324474838866547 0.67400996937937352 -0.17712058441664152
v -0.45662326828798649 1.1977873657476434 0.14055038812513795
v 0.15916918937501628 0.63696908185940704 0.64845665666023611
v -0.48474233996699795 0.033617731117767301 0.14516096624074901
v 0.21644026181295631 0.38205896034373221 -0.23835521930535672
v -0.34739437349895036 0.09811292380272163 0.56741246434157599
v -0.47523307127823322 1.0893679097694182 0.3631062289285843
v -0.43227744962445502 0.60097702338462611 -0.13811944320062494
v -0.47649548401128167 0.63811291517882185 0.55583753555510562
v -0.31677727103301717 1.0114929513340345 0.20805225671080649
v -0.39568670734542138 0.96853687291749269 -0.026150153308977086
v -0.31407100967369522 0.52825380669611888 0.5226004456911485
v 0.19254698552586919 0.7791515517668407 -0.1235083074094431
v -0.40394331058087452 0.58364645140360205 0.53370372814301448
v -0.2301851663234129 0.71703962336790383 0.54921296809922082
v -0.0072280693091478472 0.91128085434600492 0.48413841779782235
v -0.47333404491795189 1.0786822748912432 0.11997523345031853
v -0.45975751080439542 1.1010378013102107 0.24619011855232045
v -0.48572119957849319 1.1468061438246224 0.29681269475208255
v -0.3523114182595099 0.94664376740192002 0.39549461607352093
v -0.4068508384827827 1.0328596744095364 0.13729695041563378
v -0.44941744172910236 0.73624073140972257 0.53361044612243935
v -0.34816317611715419 0.48320237954747525 -0.20062181540244717
v -0.49346295252994216 1.2035962953357504 0.24626645502553576
v -0.033854808296465505 0.78588311671127864 0.54154628338945043
v 0.12729067446476819 0.49952929860098183 -0.26810634313327703
v -0.47066471842806173 0.33168824720795148 -0.051602173367261868
v -0.44637365084668656 0.12405940891327417 0.53948947525819069
v 0.060001275355029506 0.86463618237538931 -0.13492480498123707
v -0.31906268935677345 0.27880374314054635 -0.11618702205700243
v -0.22892007604690356 0.31018589162563953 -0.27859750957728657
v 0.17740723839916386 0.028935538005362634 0.26191335352892198
v 0.071220872179507871 0.035376440476733592 -0.16887402193419898
v 0.42427290896454312 0.16859450699438841 0.41411820630679536
v -0.279647725783021 0.12075234097444938 -0.23306716934359481
v -0.40329947546551859 0.04991286222999735 0.24170968489575595
v -0.2099313479544907 0.51399320092469536 0.65706860693990543
v 0.17277087646249961 0.89979522326241035 0.45324881988849708
v -0.21904081903827513 0.30581080733307253 -0.30680725988856655
v -0.26637672017977904 0.99283752648658685 0.14724526556862738
v -0.50415276711252399 0.32195376775348389 -0.038256480763394878
v -0.40436570386498827 0.30709810676840543 -0.039162961674983579
v -0.44219283428352996 0.10415054859988405 -0.19022119668546308
v -0.41965865131676422 0.065819177822884253 0.54117171819385812
v -0.38947594469640084 0.73235147574446602 0.52208332602516128
v -0.330898082026436 0.044367655008083713 0.42900636633433925
v -0.33937265318655946 0.11334834710866364 -0.24113095791523881
v -0.26129800244637175 0.15671953129803873 -0.21880445358373282
v -0.37792279059628286 0.51186061428969609 0.53689821246686642
v -0.36198194231031183 0.61643984996474122 -0.1691836574260776
v -0.25891837148294472 0.95197449399638534 0.34069333870209983
v -0.47260398264952924 1.1259001156025468 0.26584164218827744
v -0.27694926997376246 0.55603513079873834 0.54353565314332219
v -0.42984339822018253 1.0153985013094158 0.30732769933109788
v -0.37641265828947224 0.97065105038984911 -0.018223853038296621
v -0.39684266220370934 1.0143100418888793 0.26949090096678657
v -0.34534345111814141 0.4851093379113473 0.52688410395594998
v -0.33671031825908099 0.54762390238312897 -0.22463069430100099
v -0.22935919318101761 0.63739044010348045 -0.29456999834466069
v 0.1070712329568191 0.89353855359380985 0.47744296189282914
v -0.36344194768461868 0.67079378405369627 -0.1621154154437407
v -0.47762527866242327 0.56907820038365275 0.56964453008263582
v -0.4794687853494054 1.1845416762473082 0.1357087713538781
v 0.13564620337712432 0.92941383857015503 -0.075841714076199773
v -0.48298754424127927 1.0597894639678114 0.41685995306994528
v -0.48744852239457415 1.0616203921855212 0.081088163949370518
v -0.40260578427524779 0.59451285285491873 -0.14212676978788005
v -0.37714405724211558 0.92963395693703355 0.40811429941239635
v -0.051313970740093744 0.54896093704177995 0.680628753333402
v -0.30136974998578281 0.66551276836615636 0.55456759290923785
v -0.47060568921531654 1.19347922230796 0.17538379573445995
v -0.33162055981592731 1.0118326614474191 0.11579856723657378
v -0.40739502387609694 0.78383980311033163 0.51890687291782278
v -0.32516795629618644 0.28556598594493715 0.48615120889497876
v 0.089039705449682163 0.47690420358232316 -0.28976570950634434
v -0.31594784343794147 0.47394922670045808 -0.26998807547388259
v -0.83595014659170908 0.48996073406788487 0.075801907209438926
v 0.68066830309640747 0.28326936376008743 0.3758130860950642
v -0.44379377041151546 0.86994107149839228 0.45689600932843982
v -0.30398408598287047 0.33066271091068589 -0.18690010077316271
v -0.31005283036495473 0.19685996156850141 -0.16325356732424284
v -0.29073439484082936 0.37766374911545875 -0.24227378813031605
v -0.23733322267498363 0.12357847211117225 0.63412444069941698
v -0.41003320380786989 0.24752379745093245 0.49958401209839554
v -0.23835684336856114 0.18135539085801514 -0.21786533591422852
v -0.2664587122572718 0.61123945604074126 -0.29186051100126426
v -0.35595226234288097 0.034472811696130257 0.52786997031006655
v -0.41914871168986645 0.036258652666537307 -0.091831821775121447
v -0.45010737416328789 0.16111669035059781 -0.072161175216285831
v 0.20816792288001701 0.033853890685047322 0.12359528608240485
v 0.19231327879967169 0.23722188257752672 -0.23378180163628398
v -0.47995500426978388 0.04864910684647631 0.16197077837347743
v -0.31425207438429309 0.9848938877365162 0.054985641852782721
v 0.12518784071403805 0.036076681530658655 0.35718468359944144
v 0.19018617937208074 0.88868565362794694 -0.08136952774984138
v 0.13984816955666302 0.032386882765772937 0.3846480257539926
v 0.17771464538495388 0.024832525664054739 0.07522777321201958
v 0.10869669041539001 0.38806345958622701 -0.26013959424012162
v 0.41882527383676105 0.27118265638118944 0.42338680840674309
v 0.61723473389465555 0.34193511476963939 0.34322694481938509
v -0.44228217938171727 0.49113772008014195 -0.11237022940420692
v -0.74594413143169847 0.25585612570863153 0.24793529622080687
v -0.34985187041862315 0.13144450432469795 0.54948253310054029
v -0.48778987229411391 0.21021718149755295 -0.016364792207518866
v -0.35972240786279669 0.19324638848765702 -0.10556790447471077
v -0.24325995989776336 0.18745210481550231 0.57358979152459555
v -0.29843342743574047 0.048888373836104893 0.61737797479013978
v -0.3204369413794802 0.2267212654865029 -0.079248321243600178
v 0.18211590970957253 0.037592850540860812 0.095945534166299085
v -0.5056002219846637 0.091681135469677946 -0.043989077303460439
v -0.38755906239805754 0.61835750891703301 0.53650972923173534
v -0.41875478807411037 0.13568095078552597 -0.17043289491130845
v 0.096416458475484315 0.023024058178363355 0.075609151077401529
v -0.39047242263291404 0.079835974050148334 -0.023192900478034361
v -0.50863474581130919 0.24580705271984629 0.42693646666928037
v -0.28191430341409279 0.50643567963238001 0.52603503458181566
v -0.30434373780830526 0.080258104852826265 -0.016480902346422275
v -0.48702958757153736 0.30664984942910789 -0.039641719129087656
v -0.38929958741742537 0.030045335276550764 0.16835214379189506
v -0.36142954516605058 0.079205148173835976 -0.079105123586041645
v 0.17910855496173836 0.17926549392484858 -0.19270483527310264
v -0.19956262683076395 0.62483081376787253 0.62628597663764252
v -0.32849196376648615 0.59720659890670158 -0.18517769930539607
v -0.25660556463848011 0.25006967126819685 -0.22683776802485442
v -0.24169799327319327 0.96220926043560684 0.019456780854646884
v -0.041070301927004081 0.86638725420151863 -0.12098989006837275
v -0.32851985413565282 0.63604971818966105 0.55581408700681945
v -0.33650235422845953 0.3211210941185309 -0.078848090413253136
v -0.37799496101569102 0.30073118689857958 -0.038044262137486115
v -0.10575510188047695 0.16624459420280227 0.57567262677064068
v -0.0025715468177220911 0.076538127043748655 0.059445448230986749
v -0.087622850560210561 0.68548549022602145 -0.26040715393647706
v 0.10175805208733119 0.037640100053804679 -0.020719245669003381
v 0.017804550282567902 0.77184798490805107 0.54017979386043635
v 0.1559835985705437 0.68418860057220532 -0.18304126574676316
v -0.017955822187728985 0.89889729086292813 -0.089608981638251192
v 0.219400506623259 0.10623083784737224 -0.13000308936274479
v -0.0081183688326160602 0.97786460527809838 0.42022543821923092
v 0.074712402218259602 0.61617670426497817 -0.27872813229004945
v 0.58006860274768512 0.24497397935421034 -0.019272704625280367
v -0.529689218851086 0.27722618565305257 0.32518467980205168
v -0.24337994726733553 0.083648176221919057 -0.096779902574554627
v -0.062420565831053522 0.1631517316620445 -0.24529098360954071
v -0.13259292529289379 0.71106891136033068 0.54514109201030103
v -0.11565870978983653 0.71939996796012851 -0.1807655881301902
v -0.57677486829920444 0.96168105202095733 0.54592484652386442
v -0.23103577494380673 0.88160901146743798 0.43916660755147985
v -0.48298869418349499 0.12832898304253784 -0.03939968801400457
v -0.36369425425396762 0.091246280010959635 0.55353042272578667
v 0.22848541685799142 0.037551813973862765 0.23850264823413536
v -0.36530271830419192 0.60465770486017356 0.54508197836704342
v -0.40090734781647813 0.16714280299214224 -0.16185956072501007
v -0.35463045091942563 0.16545774874147681 0.49780843686718756
v -0.34014696523010562 0.031886762431737457 0.48268703169304356
v -0.24230335148989526 0.032078968028686962 -0.19515330473882403
v -0.52403718053722892 0.2222100708728921 0.40231111898049299
v -0.2150842659777509 0.24569870788559092 -0.2552528920306163
v 0.099670635777896602 0.055662766635264489 -0.18262301372690407
v -0.40133833008935438 0.044772107197652941 -0.079282376713625577
v -0.25582879762817085 0.51474037699413799 0.58061579865142587
v -0.46780431296857095 0.1067180743511443 -0.15115899241599678
v -0.37827825797344194 0.12761009752584995 -0.22801555750580541
v -0.41273008388104843 0.53016299518729426 0.52931260031949923
v -0.32420810780942938 0.090345200723249391 0.60638213586843137
v -0.46382155214521475 0.33709429338219338 0.4827746067370417
v -0.26569885774442453 0.61060556377818331 0.55083647772121158
v -0.23748396363756036 0.98515799840348217 0.27810759385410699
v -0.24790536937622834 0.56656361988686055 0.59860635642807591
v -0.44709828685494896 0.045849222849119603 -0.2023176607597863
v -0.26767893001930448 0.032749585429163161 0.54366189025321299
v -0.37140767228652216 0.19107694461076441 0.49362292629403992
v -0.28620258365841561 0.97109845023286656 0.038741761771124997
v -0.35929550174928609 0.99603513120439469 0.31791538378009726
v -0.27190878832466697 0.30387775305258447 -0.24401872357352067
v 0.18784943185093972 0.16485738128809657 -0.18260620243367373
v -0.44479022233600007 0.15333602826420398 -0.098696530780743447
v -0.37478539309237108 0.030975205428500047 0.13654979393543953
v -0.36954343807712753 0.5025592636869699 -0.12750887314351514
v -0.28578949833507883 0.14089193109631817 0.60211299876892477
v 0.075918923982091643 0.068495344342625122 0.34954035074509754
v 0.05816395905586759 0.020694122233804246 0.21035989254966891
v -0.046733284908915998 0.27429867804356967 -0.27856394949270846
v -0.024557496843885505 0.55060632699020573 0.67124430143298108
v -0.026818023732777162 1.0314872008498737 0.32101818405406873
v -0.084353194387553329 0.64195784631705943 0.66441166419811271
v 0.20774156542913944 0.051655937695784568 -0.036346882751600515
v 0.027415387529905005 0.90637127985593779 0.48774545556886517
v 0.1498847689995419 0.90546054839384893 -0.089515869007364343
v -0.024532181573247439 0.68600245068905474 -0.25843166834106435
v 0.19209532339549529 0.21638499988032761 0.56390306537574808
v 0.20892758873617887 0.024290482454260385 0.41497168146716562
v 0.12910953235992287 0.73252191267917188 0.55913167962256194
v 0.01269928196487647 0.034264899733212409 -0.10771939938063503
v 0.12595789879501074 1.0183867874653165 0.35312178618982293
v -0.87717919994240234 0.98338276145789782 0.077998354299086359
v -0.70738409129678315 0.68603206652416626 0.54223569064805754
v 0.37302715095145611 0.54597261860181501 -0.14065160214007646
v -0.21503911788437408 0.050311821443282265 -0.21688733750389966
v -0.43232215366167215 0.56421562011444637 -0.13455932099245058
v -0.18618581722628288 1.0310741768976053 0.096800670746442982
v -0.046483072178770103 0.34958500334918086 0.68643784309687772
v -0.7574962501016429 1.2743309125616973 0.59318129128225194
v -0.35246254419635109 0.77407490066088025 0.49936012423280435
v 0.17015307607955593 0.30251557388752115 -0.23503429788869001
v -0.43082813849028367 0.18645439836963079 -0.043338923472902378
v -0.48230046897876344 0.090626483728083185 -0.13325699803687299
v -0.46972033092799154 0.035881343768485091 -0.14371655600540223
v -0.36119822655062306 0.028422525223862308 0.19382918877927646
v -0.25003687253903345 0.99415072349232736 0.22702971844744729
v -0.44632695508663284 0.69521268579209372 0.54518774094752376
v -0.29323842700617714 0.090073962605421082 0.62109009233303958
v -0.40870033082372159 0.037419685362022892 -0.21835784492395469
v -0.47254373862749255 0.19224277925078903 0.48737572500011522
v -0.46348188393792389 1.2058924196615493 0.17696393624452295
v -0.4097629913780787 0.20546823990071036 -0.036276777626045024
v -0.27298350321254378 0.31449746079910684 0.47083549479985787
v -0.42297979970128102 0.045074841071025475 -0.016013245724219048
v -0.39084477757571556 0.77014511369481198 -0.12685793412977114
v -0.32125384592223633 0.059208922241400452 0.12810835335912063
v -0.49028762297741785 1.1142352302294203 0.11378835166433959
v -0.41630901964010575 1.0204666458629761 0.27416678328013294
v -0.32282160699072654 0.21464245471091928 -0.086191870233859713
v -0.31848210685147849 0.032806094310970924 -0.16506517951001587
v -0.26691490564419984 0.071116988608669177 0.3779706674262801
v -0.45046265071796066 0.048383733024424537 0.16555959850861923
v -0.29782513582808506 0.56822444176642062 -0.28597237504835782
v -0.23118092940105386 0.22319378666104406 0.50706415076259836
v -0.31082158649642405 0.70976437011688476 -0.15871371957109195
v -0.40329271808333328 0.55819783753026575 0.53346027529395224
v -0.28398112331249525 0.2539416341447111 0.45885705016701117
v 0.066559499133407682 0.072752214795705913 0.40851753879784203
v -0.25087896902874085 0.07690471140875417 -0.11716335080482222
v -0.23928100464254035 0.64528814750043562 0.55672905495035685
v -0.48085822669658601 0.053302141368095336 -0.15202142721950471
v -0.29930872718793738 0.70031390292949103 0.55142276101786869
v -0.28115053439087812 0.27450352867465855 -0.21238885950036296
v -0.43191971518341182 0.29166719246202349 -0.040465513679383072
v -0.30838164969419168 0.03246487629109767 0.26546544898766156
v -0.33148430404430212 0.13231908806000434 -0.23534009017676608
v -0.40936400710154364 0.92275578515188705 -0.058535704046968805
v 0.17554207616597717 0.03098125316437627 -0.070949356884623477
v -0.52681024018274458 0.24191113131352546 0.33571230081898229
v 0.090640313316756663 0.14189029592703728 0.57663407934834021
v -0.38522286675312178 0.60904050099489382 -0.15890129217500729
v -0.26741608895480173 0.067211401059594805 0.28131132736738379
v 0.024421820699120647 0.33362052297623335 0.66582299246520449
v 0.089603593809798501 0.56848911494784649 0.66908039500611782
v -0.063353129783378384 0.06925978890072465 0.26943772684243988
v 0.071550611696254859 0.35747966065797698 -0.27605686395681223
v 0.1366890983945436 0.31843574228758909 0.63844819810635889
v 0.022524829234716243 0.22845285962366055 0.64544197978263851
v 0.032819359508763864 0.1661730185184058 -0.23736794632912717
v 0.029141174752958552 0.068143818701080591 -0.19532432018805024
v 0.078006531910361818 0.03835717960009212 0.5433652622780103
v 0.13608316514977795 0.031764329148505341 -0.14377783077970166
v 0.087227985541094427 0.56369501086895557 -0.27608582167594348
v 0.033030034702819566 0.11667093272539314 0.54769261994448948
v 0.0087990977548310177 0.033786198854201949 0.14791924522967329
v -0.081019290646407616 0.58101083336739689 0.67351450336095553
v 0.19451239946133003 0.25080529815959607 0.57768566692644985
v 0.17121234482959283 0.021987737824723231 0.065326072128120555
v 0.070667188150221757 1.0496726199040782 0.17391136363657597
v 0.16501838885739159 0.85727030708273588 -0.10722476261061178
v -0.016216027019667671 0.66866076125358276 -0.27650667700011222
v 0.15883061823531841 0.77142121628218352 -0.13550112300307934
v 0.19264890492001341 0.64137334756141073 0.60100570840082401
v 0.11681470454975135 0.083660507053725644 -0.18123157496194556
v 0.40942242364829162 0.26150020793577172 -0.021181650334732256
v -0.86377440202074063 1.0292790021154101 0.64428895365356464
v -0.70219133068450423 0.046178881460366958 0.45787224250272535
v -0.86532653819677519 1.1263444286664843 0.094286568593979367
v -0.43476511785990007 0.51158561778845368 0.53065725026694832
v -0.53110819924829034 0.30286825455458949 0.37470253628072209
v 0.18093740174453016 0.34130909305436652 0.61637848095710202
v -0.45065515112787219 0.034520738529569363 0.023536734788064607
v -0.50636341810702001 0.19718230939565787 0.26784056198603018
v -0.1578322701205653 0.066790551791837655 0.49186336175163659
v 0.10466428810406565 0.88734189816541864 -0.14012847747275944
v -0.37604103003037503 1.4096952748315206 0.080198099203369982
v -0.28685215594726282 0.7661798290454167 0.51893657060591925
v 0.2201302668206653 0.025735908163509555 0.27133774281988188
v -0.45918188049151332 0.23896320997413817 -0.030242474956796508
v -0.38994351781289321 0.061006657183385715 -0.24304936895042048
v -0.37727554085604675 0.08108405964334145 -0.052479282974081116
v -0.26162944638319224 0.22222379315697149 0.47572983490415094
v -0.29217546231009262 0.19024905823332944 -0.18539999322508391
v -0.45607000735382724 0.10072740222559458 -0.16416176839370969
v -0.25098995215532804 0.032873080699028646 -0.15247610977142079
v -0.26643398077736768 0.73135807898108907 0.53580079615021836
v 0.11083202903721079 0.062842427244237872 0.39640865565648215
v -0.424888585516427 0.21088309900097241 0.49554614347970555
v -0.28167108049773892 0.66271535166720408 -0.18897467101576865
v -0.43147915272622683 0.58356471329790649 0.55086660579629509
v -0.42525717731698048 0.96622891319045257 0.35466417764000441
v -0.42841573923983661 0.61863288174393316 0.54044387827406482
v -0.34556017008577627 0.21177152740362803 -0.035447726894286637
v -0.22840976727479484 0.59139514964513784 0.61697787026407236
v -0.4185406917433569 0.032151059213795651 0.084081762101528554
v -0.34839747565937451 0.02919813794398186 0.22504934860326134
v -0.49008871182219349 0.21559428241159403 0.46676238064830977
v -0.33044814774993497 0.70520372256073072 0.53909118704245096
v -0.45782273933758194 1.0326744637914487 0.38707118230423965
v -0.4090693310167558 0.03426886190823674 0.4965400571577398
v -0.38557732637097031 0.031547602866148383 0.35698540499907039
v -0.40461338360553645 0.047670666340481019 0.17993573400542023
v -0.32531515998316624 0.2765617104928626 -0.074768765607324664
v -0.35679437914132017 0.032463732191317769 0.43633662286153807
v -0.25993105506290187 0.045561367393374956 0.5139823410394917
v -0.43794569320953619 1.0427042443891594 0.14282244206813025
v -0.32896443728224856 0.19317866131548228 0.48672589777804337
v -0.47148696500494819 1.1424411154110568 0.21394103339472145
v -0.27423518774619554 0.072352811722728672 0.15543882747862151
v -0.24273253900750719 0.52032007954144155 0.61288317449499952
v -0.32075885590657699 0.57239359236326404 -0.23523680569738162
v -0.51122825569892338 1.1243071506186972 0.39373714812169047
v -0.29905179158506356 0.218579565536895 -0.16584372242994483
v -0.25556137463696282 0.35465051480702031 -0.2740065407473089
v -0.39770342002804393 1.0300669507095468 0.21705239612032548
v -0.26294751934259059 0.16871163008462603 0.59226878190174903
v 0.00097717302617622635 0.2779869058858645 0.63370933280982045
v -0.48109179781496331 0.48905676057816427 0.55159116643388784
v -0.34176248124532049 0.94825397384743282 -0.014659799547821357
v 0.014371648364221881 0.3843866199321152 0.66605275934302077
v -0.27511592055731604 0.19878843326581599 0.53049941534921541
v -0.28973286607237458 0.066133123256012755 0.33260792781876336
v -0.35599653205908605 0.054881427196834601 0.56005147290793111
v -0.31197698092825948 0.029623341006489032 0.22611669562925682
v -0.25732270119634398 0.91323585069580915 -0.056225064845095082
v -0.33412411426169142 0.039731596268556213 0.39474311120595795
v -0.2603832822751182 0.067791097728822622 0.23638787244771353
v 0.072229705764450439 0.064423092002858381 -0.06882683082852363
v -0.32439537291427623 0.58238295838102661 0.53400327750169152
v -0.34280269825744325 0.046460641654139982 -0.24427015808482111
v -0.34907868582810092 0.55658082390942543 -0.17523448499312808
v -0.46879955007533758 0.92921094864561227 0.41640760947796512
v -0.32454632410042589 0.077674603948956089 -0.10862484014669151
v -0.26435674377248219 0.58250667461717553 -0.30760984214252507
v 0.11250056563351381 1.0365636593069683 0.098032191188814677
v -0.3910470041542779 0.077738835512328894 0.52446715360649376
v -0.065582729890939453 0.766176835324206 0.53642316546518642
v 0.19125613949706752 0.026579865119345195 0.49115139042991252
v 0.042770906600331934 0.027332258859667811 -0.13452940489796353
v 0.032411023447494844 0.062976719917010246 0.3077697731535442
v 0.064962158350396232 0.67501249682120923 -0.24557652537842053
v 0.093104604292354731 0.94801213487748115 -0.06337002348720007
v 0.062904504320063948 0.30500308854841335 -0.25748434613718352
v 0.034523968115558877 0.72487941167759395 0.54361062737095045
v 0.039734065211129287 0.17498865164625607 0.60709765672395899
v 0.032348807775208668 0.080833916045706514 -0.0025748424631222605
v 0.051576189174578617 0.60138692057005039 0.66191673811805674
v 0.04714027411623109 0.023745896601186284 0.15678335287625805
v 0.035609813562343218 0.02438520607279859 0.48245390527430959
v 0.039371601153127371 0.89564297329284992 -0.11393289867574469
v 0.13534048169528998 0.66158166307708299 0.60621336730928221
v 0.17031935844499821 0.33564109874251263 -0.24706005954387733
v 0.13178396139597229 0.97263427924138246 0.4175830548642076
v -0.072240560470652374 0.18017063844902922 0.59856106721852009
v 0.041849797963991187 0.21942941943035893 -0.24716309350750068
v 0.13549769297874889 0.93363743879353867 0.45181267438881689
v 0.1635287948862737 0.023880270713657451 0.36075393077244822
v 0.13671317457602783 0.12674794933233013 0.53049370046270472
v 0.19524840128191465 0.99545883148648251 0.35810126239874751
v 0.15564021087570024 0.29855613967314631 0.60597134102807682
v 0.024826468044357616 0.59333408996767167 -0.28909525992171803
v 0.16248110100103269 0.25830175257640398 -0.24259673332465345
v 0.053622625890055065 0.13690561850718108 -0.20133381216025628
v -0.0060137702128601148 1.0082276867378883 0.38293994187869235
v -0.011369467511829247 0.65459079387807351 0.65632604500069747
v -0.012390409496206074 0.49847741357248859 -0.30802133907040902
v 0.15646113144176677 0.73876967744785582 -0.16707712665431046
v 0.096387418910886119 0.54938925054954013 0.67137714382334934
v 0.024677854695205236 0.9863155954674605 -0.003624763005446546
v 0.10985970293826183 0.26230992400227654 0.62251514171694544
v -0.93239415591003494 0.90830158867706856 0.56741604927760703
v -0.8151418321410131 0.87191752266110201 0.060286602004812818
v 0.49475441403360504 0.64883214142915491 0.042066447534039035
v -0.68471140702623545 0.32538976421632476 0.10602179327040304
v -0.8204474099742064 0.78151236369872246 0.44975052406202126
v -0.65928759119324487 0.075549735512108293 0.47548336404781483
v -0.25879975007075867 0.32081774768418564 0.4760792016038099
v -0.50840786423262452 0.34276228173534706 0.44377584501352801
v -0.24467713473919089 0.068994946000181995 0.30326925944142769
v 0.18869545835674964 0.152079451376393 0.51887935962745357
v -0.25358218510307146 0.051345872261103501 -0.22968865733328178
v -0.45957266773087008 0.91844852521206 -0.067929669887176108
v -0.43467262099935722 0.72513044771553592 -0.13761426779994498
v -0.062514274805762021 0.54217880471544566 -0.3282918952377934
v -0.18674309991589197 0.71158204086111287 -0.19180684715319377
v -0.14490359554062004 0.32432137986455845 0.6289653425025481
v -0.15158745728245226 0.034812565841127643 0.6149466252397795
v -0.50373956598128455 0.1609043787748102 0.53356509950735143
v 0.32163817336859662 0.99671499871155256 0.25561087458870685
v -0.39530360726289049 0.91106955542440049 0.42402689984151831
v -0.35939258314047251 0.46485947587025495 -0.12977595815551879
v -0.37472521252650798 0.036057801513183517 -0.13547424076274267
v -0.42225161242520615 0.17663347062883442 -0.089297218382112742
v -0.41902294761187958 0.066440106338379393 -0.22926809669700027
v -0.26747700189758322 0.047074590831015298 -0.1363896347282218
v -0.36152164782274782 0.17491516855315944 -0.18287235500583396
v -0.47832682792329279 1.1846277927105182 0.20477827826663991
v -0.41843878765075182 0.99921558254189369 0.30088692662446143
v -0.32769427150238312 0.16630678961959774 0.53694467269974266
v -0.41761379939356558 0.046657992655046346 0.029226759310317513
v -0.2904175341413785 0.660499227982284 -0.18167826207180723
v -0.357240737261386 0.99667566534995089 0.027224559845944102
v -0.21650673482586769 0.56031636210219682 0.6476546974896974
v -0.29762444330609389 0.61460818836400455 -0.25183609467412871
v -0.35960020147402466 1.0249383196347968 0.16540103271854339
v -0.21780590884576601 0.20606235260415182 0.5299873669018409
v -0.43537440762938556 0.16720243160029891 0.50653926666593063
v -0.3118677104097734 0.033084197941483116 0.50224488310602045
v -0.33614295875109995 1.0098156558358922 0.26709290122706408
v -0.29737830032987927 0.21537596482406463 0.46794994671359769
v -0.29003838484583705 0.92647880322899356 0.39295210556897703
v -0.42375627462617377 0.66112014451949064 -0.15374874208705905
v -0.35696754957366383 0.24642921940089627 -0.026871673223603725
v -0.48411079458468248 0.097551577867903735 -0.097774623891999077
v -0.42119386535231196 0.7322010413272666 0.53565532941166105
v -0.38331882033234904 0.68446604777535347 0.53120730359957813
v -0.52818315577470432 0.20008725622602747 0.42997107314520105
v -0.29634865550762968 0.044862061314311509 -0.23425085348729946
v -0.26616630070761432 0.99379220497446519 0.20108109459031631
v -0.48515628484544354 0.036493199439559872 -0.095040730528718573
v -0.30897124886321209 0.067904884163253923 0.39862761928823082
v -0.36915925751161022 0.23702935592297672 0.49265586128133249
v 0.10620992548023991 0.78158733571169769 -0.14578129890846181
v -0.45239781623564829 1.0384874096027006 0.10611341480085502
v -0.27877506801902824 0.19448670440709706 -0.19416955166629637
v -0.21670066721096135 0.36111494568855407 -0.30489707595849741
v -0.26872755876718429 0.63302103786929642 0.54703836186318733
v -0.46003130470335346 1.0925295724108073 0.1987895552517947
v -0.38343366812292262 0.11370845444021525 0.51715138459036247
v -0.30009747056153074 0.56131030078419519 0.52466874488759252
v 0.0078782722475010721 0.19073380139719803 -0.25498841999745414
v -0.41791155255965157 0.047569876082760983 0.53457478549310522
v 0.12337788368840605 0.029099038643747275 0.52750029243972285
v -0.49466782279955585 1.1686695730019658 0.11947703864305692
v -0.32284859221097845 0.085480357894745632 -0.089671060945574005
v -0.47231227982025076 0.052722425426889048 -0.17084969751312293
v 0.039188451397419735 0.70663582779934375 0.59664453265227657
v -0.31179348999209289 0.95415807482792026 0.0047104807098233802
v 0.050451007973998929 0.91181076717890586 0.4826092882125404
v -0.27311540348930158 0.086589760607146335 0.63954805116209945
v -0.29578324798231859 0.076676281810645563 0.10095105513898546
v -0.36841369008219677 0.042976641156102703 0.26649694371693716
v -0.26295375553116906 0.6742812228506444 0.55860981657048092
v -0.32526207741015745 0.11650689052144471 0.59318675489176653
v -0.30873360627436636 0.21504266459724317 -0.14830262806676858
v -0.40394602186173001 0.13311764290425795 -0.20494838875634486
v -0.32534546776887713 0.051863948883545972 0.59979648760787752
v 0.0064294689551060852 0.039837481178514128 -0.18700231069102494
v 0.19146817657633508 0.042709063575596236 -0.082216752845903282
v -0.44624361714062111 0.96173978717668251 0.3741317663611296
v -0.36346569693278907 0.54798622120721241 -0.15355985659441568
v -0.011162479047266416 0.067067620931936286 0.25369513619692596
v 0.14348367361150072 0.5144096700190206 0.64432823493777269
v -0.51277035801273563 0.25010260624490371 0.26246393829279174
v 0.094913664719727564 0.025838357640578725 0.45466088476873456
v -0.28271461053832786 0.53042259518527368 -0.30712765392323244
v -0.37911249698752181 0.75181053064352155 0.51288071829198101
v -0.42263511672604825 0.55228866303276636 -0.13206956918698126
v -0.37802108851432692 0.53032478185916099 0.54466156055135218
v -0.0078366698077021058 0.082299737423339597 -0.068162895839449789
v -0.057867922577911325 0.074654849783744967 0.10486689800575116
v -0.26035647842480625 0.90085698582890616 -0.065643348319462363
v -0.3440717956367052 0.029558710423781928 0.31258071810597948
v 0.025727977186536775 1.041368704507889 0.10854371223102874
v 0.013070965778657366 0.34682311075221844 -0.29395553095924393
v -0.0052226128786067721 0.70971389132705576 -0.21065589970361834
v 0.065844280926097468 0.6558883370029035 -0.26397805080935544
v -0.030486815543083745 0.24389381702001831 0.63313244735178709
v 0.09649267537779968 0.072249866700575593 0.37124789885868709
v 0.0034085455420959803 0.10307497563164009 0.56225854134025532
v 0.023878295152237619 0.074366453073388919 0.42493271758000045
v 0.10537900056959565 0.026594699292196333 -0.096527764453263276
v 0.085114314269227817 0.24055492157417599 -0.25790644252729544
v 0.14826657963390452 0.23328712968628712 0.61425394829793689
v 0.16557418748485461 1.0310962611143686 0.26944818154997197
v 0.082286965887726882 0.52716421468256891 -0.28479465383050445
v 0.09799403996602675 0.024285263067521781 0.28157548505911734
v 0.0020184963735951403 0.068212814657575685 0.09367898843294295
v 0.14030033347584286 0.3588598653128397 0.63815648472578757
v 0.12692434590434182 0.15100083760413982 0.57004841072194479
v 0.15392231643135018 0.69502638346939438 -0.17717804631129636
v -0.083163795606583879 0.7238631493764216 0.5418082341552426
v 0.10430794044108216 1.0032039972082496 0.013741038398291862
v 0.072730507088291735 1.0295152465960498 0.33823040960145906
v 0.18428047401153091 0.94988110594441966 0.42219983977057335
v -0.032425476148241247 0.31000968672454571 0.66257151842635531
v 0.047934171643647619 0.023917538093386516 0.11645115557610279
v 0.1440317680372605 0.63961203504400987 -0.23665951478474831
v -0.019355866652768776 0.55745424690613898 -0.32163034585071809
v 0.14786241487851629 0.35015863612976639 -0.25330197239047497
v 0.036802739063054049 0.71579141902905719 -0.17324318411563761
v -0.033432627507443628 0.17195874596267879 0.59509535506297517
v 0.08182676063104341 0.63774465853966478 0.6455154325499235
v -0.046439930254580049 0.60924399906831617 0.67496374070406784
v 0.049709869664321504 0.031679372198653438 0.28922107732308111
v 0.1969275251959362 0.12599219663902234 -0.17873862835259147
v 0.044330226055729983 0.24417804644165075 -0.25599151120659686
v 0.038771774020036301 0.26366164592240382 0.63745550091674952
v 0.10263679002465609 0.76161326970642529 0.51980474166922741
v -0.092115477269683013 0.34239149478098058 -0.30502430865688868
v 0.013012755887690733 0.95241083081395661 -0.038726015391232195
v -0.031101156562536793 0.95576822651961713 0.44923417095797291
v 0.14331277153179822 0.163414820514448 -0.20656784869823153
v 0.16935522778119122 0.68270319641322041 0.58058098105858691
v 0.12833330859222614 0.044303485731394331 -0.16712208240939064
v -0.033223665956356362 0.14100293705105801 -0.2183607366116995
v 0.12767059641726339 0.083463947817785739 0.53603119748318062
v 0.15679069897810846 0.027338941751660937 -0.055911749444018548
v -0.89022496383425131 0.54556197039362775 0.22528849000232157
v -0.8328710643583096 0.54457294241072496 0.44542249562291025
v -0.87734170675623524 0.63389159692908592 0.051489634916710193
v -0.9659181986599723 0.93939981147008489 0.32806988730343356
v 0.45754347221343578 0.64950420110556317 0.41481926926748031
v -0.60682369019834081 0.26711541011628076 0.26861101572697282
v -0.79611697156629047 0.050052686577721807 0.094155494934657552
v -0.29913843474438734 0.50127250432410919 0.51455736755273684
v -0.42412966286632159 0.2956454899193024 0.50563889492253633
v 0.019275479480275255 0.037535745063078808 0.55751128943549777
v -0.22305913303420272 0.076389503991437555 0.051126600643364453
v 0.18809512673265411 0.041531604653978427 0.51851854629117122
v 0.14389790232850286 1.04115389644524 0.17265138726703921
v -0.2175169528172744 0.1629610961054099 -0.21957167653168594
v -0.46256750202558006 0.64149710797219306 -0.14124501393384586
v -0.088877108659137172 0.9957170350296709 0.020275107567021687
v -0.50364187585331432 0.040804547107193459 -0.068196835185620794
v -0.21423366240616998 0.67097833505655358 0.55727663743524147
v -0.51859792789300629 1.0208325493478012 0.026944166730019814
v -0.47011179285063942 1.0011484678138083 0.42888922179633404
v -0.1487475607785517 0.66544980153495692 -0.29635096132443095
v -0.12498504736054289 0.15934601859623024 0.62473720807934363
v -0.35445598571050912 0.035777861179444835 0.51778316380751499
v -0.058843246641585682 0.071443362866512802 0.45492649160236032
v -0.59320941377884551 0.78268586159990217 0.53471035111961551
v -0.34572281852900455 0.072523062227735871 -0.18576337548991112
v -0.606398838240509 0.23482298788412631 0.12388848002041754
v 0.13377843507422008 0.10577440915292012 -0.23581917569804781
v -0.72297976889011262 1.2412068665326379 0.019231004075408373
v -0.22166575782044667 0.92179168624585994 0.41459757148909238
v 0.21502905510899525 0.050119788068416674 -0.0032255241702336588
v -0.33113411527900627 0.49817698067545346 -0.24915620185466314
v -0.45716605207517835 0.074196004501518545 -0.20103879032157851
v -0.37793429137928369 0.92326179401442654 -0.049944663048683946
v -0.34111151821005548 0.034349144592664402 -0.21913554788048958
v -0.4913491393394937 0.065490624193904487 -0.11383892258236965
v -0.28569442701790343 0.99369669668336336 0.12650875119773466
v -0.33857557006669203 0.23404038400227997 -0.029414013835589635
v -0.36173183464717446 0.061208338106675413 -0.24857772492306349
v -0.49407105674182544 0.099919178374280035 -0.043671583716004617
v -0.38162839245514346 0.51558356967209151 -0.1235098022392543
v -0.48479924101846117 1.1522569800394862 0.14468612195035752
v -0.33168566011770328 0.19873678147443019 -0.12312084385384821
v -0.37194739715061786 0.13924121118926419 0.50823934077706567
v -0.29789479873892855 0.33025469377671463 -0.21651982859398688
v -0.32611714722923463 0.21823879753992875 0.47377845200913654
v -0.31696668721530796 0.61984982734096472 -0.17891706464594098
v -0.27861337495833488 0.96120951662427068 0.33158059740622825
v -0.04480148309299696 0.93469270341578747 -0.062406460393367225
v -0.43769923180592024 1.0501396147853577 0.3142141937392201
v -0.28073592136597375 0.57750101141679977 0.54122358015441618
v -0.36255562456966101 0.048392465473844445 0.22879338666730301
v -0.49808070534301913 1.1314447864013895 0.34372096998206814
v -0.4535599333147125 0.91369407773792388 0.4157250154774218
v -0.50719073960056194 0.31192361495331161 0.42984497549722928
v -0.26184243341634922 0.070654304837903442 0.19471705907955741
v -0.38005441797277273 0.04250691779918464 0.33842317250954579
v -0.048251818926606509 0.6858025305949772 0.62967541632675772
v -0.38397402405721726 0.045968973299574216 0.52769103886677504
v -0.43141924121403863 0.991043423379254 0.33439389789234059
v -0.26543978933296358 0.98336888204961803 0.28313754135952246
v -0.42785444662758843 1.0485063105911456 0.21161087169175063
v -0.25272834593518784 0.051892637303752161 0.64382022327517618
v 0.17367086360542056 0.72739093473410543 0.56889969892883796
v -0.4300150308826039 0.1528351729861796 -0.1557916873242042
v -0.41414971155662178 0.1228817961381834 0.52778027638206126
v -0.25300958938253165 0.65036287517281033 -0.26645091668214826
v -0.36737366624515805 0.081330519567486367 0.01511176389967833
v -0.3254513883819426 0.14207296419285603 0.55910674930620663
v -0.34650065159028498 0.045384170761011394 -0.13087846102392792
v -0.3432943972606482 0.55051009797963613 0.54652434082133494
v 0.0025479819146741957 0.54742161283298385 0.67626444348352865
v -0.37693825094273925 0.20575843000872543 -0.037440014373268549
v -0.24525003444575688 0.077146853528400311 0.46156079538486167
v -0.45823088860319167 0.16872569936271156 -0.035288990854660592
v -0.25490856465751133 0.13787607383383149 0.6102698871775819
v -0.34643428478534199 0.29243547519594137 -0.041499091194123011
v -0.35091141648136981 0.64798952996184589 0.55087468188010413
v -0.43892753141424679 0.030010289838538817 0.1464922629787957
v -0.53391380229595886 0.20731481907654375 0.34758901055668612
v -0.24486141468987715 0.68737191911766371 0.54145851150709101
v -0.35979022366104185 0.15576519739607961 -0.21430343733441362
v -0.38062963707253644 1.0194489157017521 0.076552065925280022
v 0.016477072130208791 0.069583165736456329 0.31139671307584865
v 0.0021619790856929047 0.071764077417599229 -0.086331050462719341
v -0.36046571359248847 0.95705587541810766 0.38798056506662759
v -0.36039215604654767 0.5194212097895049 -0.14943190121805483
v -0.33968112893571167 0.92532194413757995 -0.037147486518972005
v -0.30740159930143662 0.29830727555581082 -0.15473572273592667
v 0.085667684109199921 0.11999591700989307 0.54400612072990484
v -0.43938196878333013 0.65674689352644688 0.54535710207122101
v -0.32332793026280077 0.032641765944105589 0.33644373233563185
v 0.1248990866745566 0.30653657294116754 -0.24667484607110846
v 0.10314710918817904 0.70467307243918054 0.56919085721032403
v -0.300132709779244 0.033931311904457653 0.59659128683394402
v 0.14507084698550263 0.023754839408829821 0.41430165822966625
v -0.37572763500565998 0.30483653687543766 0.51285675243929074
v -0.4457482897713167 0.035715243081430266 -0.19125047667551562
v -0.34253277274376681 0.74603919423123377 -0.14759713910547181
v -0.51053930977173034 1.1938447532095589 0.099780925485269817
v -0.45163455613552933 0.54352934667490149 0.55292693016203642
v -0.014768721365621684 0.32927470759821725 -0.29351063618057543
v 0.1647835949565839 0.040344457594881693 -0.13407655925711823
v -0.020981637210489915 0.1285185484921206 -0.19710836733188325
v -0.025209914030371174 0.067997726731132163 0.17191672376974476
v -0.47203466988807002 0.24977750208264554 0.47287876496092113
v -0.4342659740897909 0.24364410497255401 -0.033878024134766635
v -0.26495794754632257 0.25499768623383551 0.46144127281658254
v -0.038035149682780219 0.73013025943480059 0.54038592730098611
v -0.068223779172594437 0.22020078510987598 0.61801233215295359
v 0.092974299516976597 0.73100180190884056 -0.15349413450283364
v 0.14277792331220041 1.0391135451265738 0.2740634867258131
v 0.13547275324822849 0.60417526318628001 -0.25726932763480032
v 0.017294181834045224 0.028560721235385892 0.23234149160204734
v 0.073467725991348404 0.31207581196733619 0.66405125522436892
v 0.036124904385508159 0.51940212952879905 -0.29411798161686048
v 0.0022124201485255921 0.30188191828711758 0.65515371068160577
v 0.11440674892831222 0.021341079254040933 0.50305332889384424
v -0.039418219196441166 0.144523825612973 0.56390743161092372
v 0.13410201237834871 0.67872129196898412 -0.20275219708481471
v 0.058074014996001434 0.97893848538567851 0.41852442894697667
v 0.027737395609783024 0.19057638352088452 0.62524602619033864
v 0.097877048528478908 0.96805697387565526 -0.031561529974301013
v 0.092269062013992584 0.039920623815989459 -0.077442170506977617
v 0.083248085168914424 0.18263188715952877 -0.23194162697585505
v 0.12659489368653432 0.031262453557241859 0.10258611247466763
v -0.010905503275518624 0.23363575039278719 -0.25869054999527114
v -0.026844841102635093 0.62525810234045398 -0.30006342368580236
v 0.066082842079530385 0.67881443960559107 0.6275843611829518
v 0.044629617808744242 0.030434353926987442 0.072821918888592352
v 0.075102860277107011 0.074229540805947777 -0.022445322189711927
v 0.180769596468628 0.17196521125657366 0.54044221119292779
v 0.086914774047019638 0.19951856747840188 0.62047649419938111
v 0.18559168953737623 0.1990238603319926 -0.21088301978883867
v -0.023641253774308632 0.72627289968457742 -0.17259247702617397
v 0.036620077619040216 1.0493928979573715 0.23266304853884334
v 0.039810876370827898 0.7365797576461045 0.53760111173470249
v 0.082499010365499753 0.89343747042994526 -0.11347141962741852
v 0.19361787219314136 0.61382041706634527 0.61851575613833842
v -0.042001474742589522 0.99776288528202051 -0.004704323951234911
v 0.21769649618401749 0.13102668179876367 -0.16278906584645378
v -0.088579382975129614 0.33722363336782157 0.65194085588067252
v -0.92965085814875448 0.67542615629691849 0.29342419503516509
v -0.66669266426753782 0.5493921225435735 -0.12702175853418329
f 1 45 267
f 1 267 455
f 1 312 548
f 1 340 45
f 1 389 312
f 1 455 719
f 1 548 340
f 1 719 389
f 2 440 581
f 2 441 606
f 2 444 440
f 2 581 441
f 2 606 444
f 3 344 492
f 3 492 688
f 3 560 712
f 3 688 560
f 3 712 344
f 6 511 532
f 6 532 634
f 6 634 511
f 7 188 472
f 7 210 595
f 7 267 210
f 7 472 267
f 7 595 188
f 8 192 344
f 8 202 192
f 8 344 202
f 9 222 657
f 9 342 604
f 9 445 457
f 9 457 486
f 9 486 222
f 9 604 445
f 9 657 342
f 10 17 355
f 10 81 17
f 10 355 81
f 11 192 202
f 11 202 419
f 11 344 192
f 11 419 344
f 12 20 464
f 12 42 49
f 12 49 20
f 12 221 264
f 12 264 42
f 12 354 221
f 12 464 354
f 13 236 343
f 13 343 456
f 13 456 236
f 14 17 631
f 14 597 17
f 14 631 597
f 15 55 341
f 15 70 158
f 15 158 55
f 15 341 656
f 15 656 70
f 16 68 345
f 16 85 90
f 16 90 466
f 16 131 381
f 16 137 280
f 16 212 597
f 16 280 68
f 16 345 212
f 16 381 630
f 16 466 137
f 16 597 131
f 16 630 85
f 17 18 595
f 17 21 117
f 17 25 346
f 17 28 106
f 17 46 266
f 17 51 86
f 17 64 607
f 17 81 18
f 17 86 663
f 17 88 484
f 17 106 488
f 17 117 480
f 17 134 459
f 17 139 526
f 17 145 631
f 17 210 46
f 17 212 444
f 17 213 51
f 17 233 21
f 17 266 28
f 17 269 25
f 17 275 233
f 17 346 355
f 17 444 602
f 17 459 145
f 17 480 64
f 17 484 139
f 17 488 275
f 17 526 269
f 17 595 210
f 17 597 212
f 17 602 88
f 17 607 213
f 17 663 134
f 18 81 595
f 19 157 605
f 19 605 711
f 19 711 157
f 20 49 603
f 20 208 298
f 20 290 448
f 20 298 464
f 20 343 290
f 20 448 633
f 20 588 208
f 20 601 343
f 20 603 601
f 20 633 588
f 21 233 117
f 22 266 665
f 22 531 266
f 22 665 531
f 23 164 559
f 23 315 605
f 23 559 315
f 23 605 164
f 24 71 421
f 24 421 559
f 24 559 605
f 24 605 71
f 25 269 346
f 26 46 568
f 26 258 46
f 26 568 258
f 27 164 605
f 27 559 164
f 27 605 559
f 28 238 614
f 28 266 238
f 28 614 106
f 29 315 559
f 29 412 315
f 29 559 670
f 29 670 412
f 30 46 571
f 30 266 46
f 30 571 266
f 31 211 454
f 31 284 452
f 31 294 676
f 31 452 721
f 31 454 294
f 31 606 211
f 31 676 284
f 31 721 606
f 32 37 196
f 32 196 423
f 32 423 687
f 32 455 37
f 32 687 719
f 32 719 455
f 33 266 606
f 33 345 596
f 33 451 266
f 33 596 451
f 33 606 345
f 34 45 334
f 34 50 605
f 34 206 50
f 34 263 45
f 34 334 206
f 34 605 263
f 35 45 100
f 35 100 166
f 35 166 45
f 36 45 144
f 36 144 206
f 36 206 45
f 37 41 456
f 37 455 41
f 37 456 539
f 37 539 696
f 37 696 196
f 38 181 339
f 38 207 308
f 38 222 181
f 38 308 657
f 38 339 207
f 38 657 222
f 39 569 605
f 39 605 679
f 39 679 569
f 40 428 554
f 40 458 428
f 40 554 458
f 41 455 599
f 41 599 456
f 42 101 591
f 42 105 605
f 42 209 575
f 42 264 450
f 42 450 101
f 42 575 603
f 42 591 105
f 42 603 49
f 42 605 209
f 43 44 168
f 43 168 443
f 43 207 339
f 43 231 586
f 43 267 44
f 43 339 447
f 43 443 583
f 43 447 231
f 43 523 207
f 43 583 604
f 43 586 674
f 43 604 523
f 43 674 267
f 44 60 128
f 44 128 602
f 44 267 338
f 44 338 387
f 44 387 60
f 44 602 168
f 45 50 165
f 45 56 442
f 45 69 267
f 45 165 100
f 45 166 144
f 45 206 334
f 45 256 709
f 45 263 56
f 45 326 256
f 45 340 429
f 45 407 605
f 45 427 576
f 45 429 326
f 45 442 582
f 45 449 427
f 45 576 589
f 45 582 69
f 45 589 407
f 45 605 50
f 45 709 449
f 46 56 344
f 46 65 571
f 46 69 56
f 46 82 65
f 46 91 200
f 46 104 425
f 46 126 508
f 46 200 714
f 46 210 406
f 46 253 82
f 46 258 641
f 46 344 458
f 46 406 91
f 46 425 126
f 46 458 104
f 46 508 253
f 46 573 69
f 46 641 573
f 46 714 568
f 47 58 666
f 47 194 58
f 47 666 194
f 48 69 716
f 48 522 69
f 48 716 522
f 50 144 165
f 50 206 144
f 51 64 480
f 51 213 64
f 51 480 86
f 52 140 267
f 52 267 674
f 52 674 140
f 53 333 432
f 53 432 572
f 53 565 333
f 53 572 565
f 54 322 690
f 54 344 545
f 54 545 322
f 54 690 344
f 55 58 176
f 55 102 634
f 55 158 102
f 55 168 58
f 55 176 594
f 55 336 584
f 55 584 168
f 55 594 341
f 55 600 336
f 55 634 600
f 56 69 582
f 56 263 344
f 56 582 442
f 57 105 525
f 57 125 454
f 57 211 598
f 57 403 125
f 57 453 605
f 57 454 211
f 57 525 403
f 57 598 453
f 57 605 105
f 58 61 609
f 58 89 61
f 58 93 107
f 58 105 622
f 58 107 184
f 58 108 303
f 58 142 105
f 58 146 666
f 58 167 527
f 58 168 721
f 58 170 652
f 58 184 684
f 58 194 654
f 58 195 108
f 58 214 617
f 58 244 460
f 58 303 93
f 58 348 170
f 58 460 664
f 58 527 618
f 58 609 142
f 58 617 176
f 58 618 244
f 58 622 146
f 58 652 214
f 58 654 195
f 58 664 89
f 58 684 348
f 58 721 167
f 59 243 285
f 59 274 243
f 59 285 378
f 59 378 393
f 59 393 274
f 60 387 678
f 60 678 128
f 61 89 664
f 61 124 609
f 61 400 124
f 61 664 400
f 62 75 602
f 62 128 359
f 62 359 361
f 62 361 75
f 62 602 128
f 63 133 310
f 63 310 400
f 63 400 520
f 63 520 133
f 64 213 607
f 65 82 571
f 66 86 480
f 66 239 663
f 66 480 625
f 66 625 638
f 66 638 239
f 66 663 86
f 67 344 550
f 67 436 344
f 67 550 436
f 68 129 677
f 68 137 129
f 68 280 137
f 68 677 345
f 69 135 325
f 69 210 267
f 69 249 135
f 69 251 635
f 69 325 563
f 69 332 716
f 69 437 649
f 69 522 437
f 69 563 251
f 69 573 332
f 69 635 686
f 69 649 249
f 69 686 210
f 70 656 158
f 71 605 421
f 72 169 215
f 72 215 392
f 72 230 513
f 72 392 230
f 72 513 646
f 72 646 169
f 73 131 627
f 73 381 131
f 73 627 630
f 73 630 381
f 74 133 527
f 74 265 592
f 74 527 265
f 74 592 133
f 75 361 668
f 75 668 602
f 76 138 474
f 76 384 478
f 76 474 384
f 76 478 638
f 76 488 614
f 76 614 138
f 76 638 488
f 77 121 306
f 77 306 451
f 77 451 596
f 77 596 121
f 78 123 585
f 78 398 648
f 78 499 398
f 78 585 499
f 78 648 123
f 79 331 344
f 79 344 436
f 79 436 331
f 80 177 361
f 80 217 177
f 80 295 528
f 80 361 295
f 80 528 217
f 81 355 658
f 81 658 595
f 82 253 571
f 83 132 286
f 83 286 377
f 83 375 493
f 83 377 497
f 83 493 132
f 83 497 375
f 84 118 627
f 84 377 118
f 84 497 377
f 84 627 639
f 84 639 497
f 85 118 377
f 85 377 90
f 85 630 118
f 87 375 639
f 87 384 474
f 87 474 660
f 87 639 384
f 87 660 375
f 88 276 484
f 88 602 276
f 90 377 466
f 91 406 714
f 91 714 200
f 92 141 545
f 92 344 605
f 92 545 344
f 92 605 141
f 93 184 107
f 93 303 684
f 93 684 184
f 94 457 600
f 94 476 457
f 94 600 643
f 94 643 476
f 95 344 419
f 95 419 715
f 95 715 344
f 96 174 372
f 96 194 666
f 96 372 194
f 96 514 174
f 96 666 514
f 97 105 223
f 97 223 240
f 97 240 383
f 97 383 495
f 97 495 105
f 98 216 347
f 98 347 605
f 98 546 216
f 98 605 546
f 99 321 408
f 99 408 517
f 99 517 574
f 99 574 321
f 100 144 166
f 100 165 144
f 101 113 305
f 101 114 591
f 101 305 114
f 101 450 113
f 102 158 291
f 102 291 371
f 102 371 629
f 102 511 634
f 102 629 511
f 103 267 472
f 103 379 267
f 103 472 379
f 104 458 554
f 104 554 425
f 105 142 525
f 105 148 622
f 105 151 190
f 105 190 223
f 105 383 148
f 105 495 383
f 105 591 151
f 106 614 488
f 108 195 303
f 109 178 515
f 109 353 178
f 109 515 610
f 109 610 353
f 110 405 643
f 110 501 405
f 110 600 501
f 110 643 600
f 111 139 484
f 111 484 668
f 111 485 526
f 111 526 139
f 111 668 485
f 112 373 395
f 112 395 490
f 112 490 373
f 113 228 305
f 113 450 616
f 113 616 228
f 114 305 659
f 114 352 494
f 114 494 591
f 114 659 352
f 115 229 338
f 115 267 528
f 115 338 267
f 115 528 229
f 116 127 624
f 116 189 310
f 116 310 592
f 116 481 127
f 116 592 481
f 116 624 189
f 117 233 638
f 117 625 480
f 117 638 625
f 118 630 627
f 119 182 226
f 119 226 379
f 119 234 628
f 119 379 234
f 119 499 182
f 119 628 499
f 120 287 627
f 120 467 287
f 120 627 637
f 120 637 467
f 121 388 611
f 121 471 388
f 121 596 471
f 121 611 306
f 122 239 478
f 122 287 467
f 122 384 287
f 122 467 239
f 122 478 384
f 123 267 585
f 123 528 267
f 123 648 528
f 124 189 380
f 124 380 609
f 124 400 189
f 125 152 644
f 125 403 152
f 125 644 454
f 126 425 698
f 126 698 508
f 127 294 624
f 127 481 676
f 127 676 294
f 128 678 359
f 129 137 466
f 129 466 619
f 129 503 677
f 129 619 503
f 130 254 715
f 130 344 254
f 130 411 344
f 130 715 411
f 131 368 627
f 131 597 368
f 132 345 286
f 132 493 596
f 132 596 345
f 133 520 527
f 133 592 310
f 134 360 631
f 134 631 459
f 134 663 360
f 135 249 563
f 135 563 325
f 136 193 496
f 136 301 655
f 136 496 512
f 136 512 301
f 136 655 193
f 138 159 471
f 138 471 660
f 138 614 159
f 138 660 474
f 140 282 267
f 140 296 282
f 140 491 296
f 140 674 491
f 141 605 693
f 141 693 545
f 142 292 525
f 142 609 292
f 143 168 579
f 143 578 580
f 143 579 578
f 143 580 721
f 143 721 168
f 145 459 631
f 146 622 666
f 147 352 659
f 147 382 352
f 147 465 620
f 147 514 382
f 147 620 514
f 147 659 465
f 148 240 622
f 148 383 240
f 149 509 599
f 149 599 653
f 149 653 509
f 150 357 491
f 150 491 674
f 150 586 357
f 150 674 586
f 151 494 190
f 151 591 494
f 152 292 473
f 152 403 292
f 152 473 644
f 153 220 477
f 153 236 672
f 153 369 220
f 153 477 236
f 153 636 369
f 153 672 636
f 154 225 283
f 154 273 461
f 154 283 341
f 154 341 489
f 154 461 225
f 154 489 273
f 155 214 652
f 155 242 483
f 155 271 462
f 155 462 642
f 155 483 214
f 155 642 242
f 155 652 271
f 156 175 605
f 156 605 703
f 156 703 175
f 157 431 605
f 157 711 431
f 158 656 291
f 159 238 507
f 159 507 471
f 159 614 238
f 160 162 538
f 160 246 564
f 160 426 162
f 160 538 246
f 160 564 426
f 161 254 344
f 161 329 254
f 161 344 329
f 162 356 538
f 162 426 673
f 162 673 356
f 163 175 703
f 163 327 605
f 163 605 175
f 163 703 327
f 167 265 527
f 167 721 265
f 168 262 579
f 168 583 443
f 168 584 604
f 168 602 262
f 168 604 583
f 169 468 621
f 169 498 215
f 169 621 498
f 169 646 468
f 170 348 652
f 171 362 620
f 171 462 362
f 171 620 462
f 172 385 599
f 172 390 385
f 172 475 390
f 172 599 475
f 173 277 516
f 173 509 277
f 173 516 672
f 173 640 509
f 173 672 640
f 174 288 615
f 174 514 288
f 174 615 372
f 176 617 594
f 177 217 655
f 177 485 668
f 177 655 485
f 177 668 361
f 178 218 515
f 178 353 642
f 178 642 218
f 179 327 703
f 179 556 707
f 179 577 327
f 179 703 556
f 179 707 577
f 180 283 350
f 180 350 504
f 180 469 283
f 180 504 645
f 180 645 469
f 181 222 486
f 181 486 683
f 181 632 339
f 181 683 632
f 182 267 226
f 182 499 585
f 182 585 267
f 183 504 588
f 183 510 645
f 183 588 510
f 183 645 504
f 185 243 274
f 185 274 371
f 185 371 656
f 185 656 243
f 186 225 647
f 186 350 225
f 186 402 504
f 186 504 350
f 186 647 402
f 187 241 572
f 187 572 711
f 187 605 241
f 187 711 605
f 188 363 472
f 188 595 363
f 189 400 310
f 189 624 380
f 190 240 223
f 190 302 240
f 190 494 302
f 191 238 266
f 191 266 507
f 191 507 238
f 193 398 628
f 193 628 496
f 193 655 398
f 194 372 654
f 195 482 684
f 195 654 482
f 195 684 303
f 196 696 423
f 197 415 547
f 197 530 415
f 197 547 682
f 197 682 530
f 198 255 330
f 198 330 598
f 198 598 255
f 199 577 707
f 199 701 577
f 199 707 708
f 199 708 701
f 201 344 697
f 201 550 344
f 201 560 550
f 201 697 560
f 202 344 626
f 202 570 419
f 202 626 570
f 203 252 518
f 203 518 680
f 203 605 252
f 203 680 718
f 203 718 605
f 204 266 571
f 204 433 266
f 204 571 698
f 204 698 433
f 205 322 430
f 205 430 536
f 205 536 557
f 205 557 690
f 205 690 322
f 207 523 308
f 208 504 298
f 208 588 504
f 209 500 575
f 209 605 704
f 209 704 500
f 210 551 406
f 210 686 551
f 211 344 712
f 211 535 598
f 211 606 344
f 211 712 535
f 212 268 444
f 212 345 268
f 214 483 617
f 215 405 392
f 215 498 405
f 216 546 703
f 216 605 347
f 216 703 605
f 217 398 655
f 217 528 648
f 217 648 398
f 218 462 620
f 218 465 659
f 218 620 465
f 218 642 462
f 218 659 515
f 219 237 621
f 219 376 623
f 219 468 376
f 219 621 468
f 219 623 237
f 220 369 373
f 220 373 477
f 221 289 612
f 221 354 289
f 221 450 264
f 221 487 450
f 221 612 487
f 224 319 333
f 224 333 574
f 224 574 319
f 225 350 283
f 225 461 647
f 226 267 379
f 227 272 642
f 227 300 272
f 227 353 505
f 227 505 300
f 227 642 353
f 228 463 515
f 228 515 659
f 228 616 463
f 228 659 305
f 229 295 359
f 229 359 338
f 229 528 295
f 230 245 513
f 230 277 245
f 230 392 516
f 230 516 277
f 231 447 632
f 231 632 683
f 231 683 586
f 232 234 363
f 232 299 496
f 232 363 595
f 232 496 628
f 232 595 299
f 232 628 234
f 233 275 638
f 234 379 363
f 235 278 675
f 235 463 278
f 235 505 610
f 235 610 463
f 235 675 505
f 236 374 343
f 236 456 672
f 236 477 374
f 237 357 476
f 237 476 621
f 237 491 357
f 237 623 491
f 239 467 663
f 239 638 478
f 240 302 622
f 241 565 572
f 241 605 565
f 242 272 483
f 242 642 272
f 243 364 645
f 243 645 285
f 243 656 364
f 244 618 664
f 244 664 460
f 245 277 653
f 245 385 513
f 245 653 385
f 246 409 564
f 246 538 661
f 246 661 409
f 247 417 703
f 247 546 691
f 247 691 417
f 247 703 546
f 248 569 679
f 248 605 569
f 248 679 704
f 248 704 605
f 249 649 563
f 250 266 433
f 250 433 553
f 250 553 713
f 250 713 266
f 251 434 635
f 251 563 434
f 252 307 518
f 252 577 307
f 252 605 608
f 252 608 577
f 253 508 571
f 254 329 715
f 255 410 330
f 255 535 410
f 255 598 535
f 256 326 543
f 256 543 709
f 257 407 695
f 257 426 605
f 257 605 407
f 257 673 426
f 257 695 673
f 258 568 671
f 258 573 641
f 258 671 573
f 259 397 662
f 259 408 541
f 259 541 701
f 259 603 408
f 259 662 603
f 259 701 397
f 260 422 428
f 260 428 689
f 260 553 698
f 260 689 553
f 260 698 422
f 261 337 441
f 261 441 581
f 261 581 337
f 262 444 579
f 262 602 444
f 263 605 344
f 265 721 592
f 266 306 611
f 266 344 606
f 266 394 507
f 266 451 306
f 266 531 394
f 266 533 717
f 266 593 344
f 266 611 665
f 266 713 533
f 266 717 593
f 267 282 446
f 267 446 455
f 268 335 444
f 268 345 606
f 268 606 335
f 269 367 346
f 269 526 367
f 270 421 605
f 270 605 670
f 270 670 421
f 271 281 650
f 271 650 462
f 271 652 281
f 272 300 613
f 272 613 483
f 273 300 505
f 273 489 300
f 273 505 675
f 273 675 461
f 274 365 629
f 274 393 365
f 274 629 371
f 275 488 638
f 276 602 668
f 276 668 484
f 277 509 653
f 278 349 399
f 278 399 612
f 278 463 349
f 278 612 675
f 279 357 683
f 279 366 457
f 279 457 476
f 279 476 357
f 279 683 366
f 281 482 650
f 281 652 684
f 281 684 482
f 282 296 685
f 282 685 446
f 283 469 341
f 284 676 452
f 285 510 378
f 285 645 510
f 286 345 503
f 286 503 619
f 286 619 377
f 287 384 639
f 287 639 627
f 288 362 615
f 288 514 620
f 288 620 362
f 289 354 647
f 289 461 675
f 289 647 461
f 289 675 612
f 290 343 651
f 290 391 448
f 290 490 391
f 290 651 490
f 291 656 371
f 292 380 473
f 292 403 525
f 292 609 380
f 293 351 475
f 293 455 685
f 293 475 599
f 293 599 455
f 293 685 351
f 294 454 470
f 294 470 624
f 295 361 359
f 296 479 685
f 296 491 623
f 296 623 479
f 297 356 524
f 297 524 540
f 297 538 356
f 297 540 538
f 298 402 464
f 298 504 402
f 299 512 496
f 299 595 512
f 300 489 613
f 301 346 367
f 301 367 655
f 301 512 346
f 302 382 666
f 302 494 382
f 302 666 622
f 304 391 669
f 304 393 396
f 304 396 391
f 304 532 393
f 304 669 532
f 307 321 680
f 307 541 321
f 307 577 541
f 307 680 518
f 308 342 657
f 308 523 342
f 309 414 561
f 309 549 710
f 309 561 667
f 309 667 549
f 309 710 414
f 311 391 396
f 311 396 448
f 311 448 391
f 312 389 719
f 312 692 548
f 312 694 692
f 312 719 694
f 313 416 649
f 313 437 716
f 313 562 416
f 313 649 437
f 313 716 562
f 314 521 661
f 314 530 682
f 314 601 603
f 314 603 530
f 314 661 601
f 314 682 521
f 315 412 534
f 315 534 605
f 316 429 548
f 316 439 429
f 316 548 692
f 316 692 439
f 317 386 537
f 317 537 687
f 317 567 386
f 317 687 699
f 317 699 567
f 318 424 702
f 318 432 681
f 318 500 424
f 318 575 500
f 318 681 575
f 318 702 432
f 319 517 603
f 319 574 517
f 319 603 681
f 319 681 333
f 320 456 587
f 320 502 589
f 320 576 456
f 320 587 502
f 320 589 576
f 321 541 408
f 321 574 680
f 322 545 430
f 323 427 667
f 323 539 576
f 323 576 427
f 323 667 696
f 323 696 539
f 324 417 691
f 324 547 707
f 324 556 417
f 324 682 547
f 324 691 682
f 324 707 556
f 326 429 543
f 327 577 605
f 328 404 533
f 328 533 713
f 328 590 404
f 328 689 590
f 328 713 689
f 329 344 715
f 330 410 536
f 330 536 705
f 330 705 598
f 331 436 688
f 331 492 344
f 331 688 492
f 332 420 716
f 332 573 420
f 333 565 574
f 333 681 432
f 335 440 444
f 335 581 440
f 335 606 581
f 336 445 584
f 336 600 445
f 337 581 606
f 337 606 441
f 338 359 678
f 338 678 387
f 339 632 447
f 340 548 429
f 341 364 656
f 341 469 364
f 341 594 489
f 342 523 604
f 343 374 651
f 343 601 456
f 344 404 590
f 344 411 700
f 344 552 404
f 344 557 697
f 344 590 458
f 344 593 717
f 344 690 557
f 344 700 552
f 344 717 626
f 345 677 503
f 346 512 355
f 348 684 652
f 349 463 616
f 349 616 399
f 351 479 475
f 351 685 479
f 352 382 494
f 353 610 505
f 354 464 647
f 355 512 658
f 356 673 524
f 357 586 683
f 358 454 644
f 358 470 454
f 358 473 470
f 358 644 473
f 360 467 637
f 360 519 631
f 360 637 519
f 360 663 467
f 362 462 650
f 362 650 615
f 363 379 472
f 364 469 645
f 365 393 532
f 365 511 629
f 365 532 511
f 366 486 457
f 366 683 486
f 367 485 655
f 367 526 485
f 368 519 637
f 368 597 519
f 368 637 627
f 369 501 600
f 369 600 373
f 369 636 501
f 370 373 600
f 370 532 669
f 370 600 634
f 370 634 532
f 370 669 373
f 372 615 654
f 373 490 651
f 373 651 477
f 373 669 395
f 374 477 651
f 375 497 639
f 375 660 493
f 376 390 479
f 376 468 390
f 376 479 623
f 377 619 466
f 378 510 633
f 378 633 393
f 380 624 473
f 382 514 666
f 385 390 646
f 385 646 513
f 385 653 599
f 386 555 537
f 386 567 694
f 386 694 555
f 388 471 507
f 388 507 665
f 388 665 611
f 390 468 646
f 390 475 479
f 391 395 669
f 391 490 395
f 392 405 636
f 392 636 516
f 393 633 396
f 394 531 665
f 394 665 507
f 396 633 448
f 397 529 662
f 397 701 708
f 397 708 529
f 398 499 628
f 399 450 487
f 399 487 612
f 399 616 450
f 400 664 520
f 401 519 597
f 401 597 631
f 401 631 519
f 402 647 464
f 404 552 717
f 404 717 533
f 405 498 643
f 405 501 636
f 406 551 686
f 406 686 714
f 407 502 695
f 407 589 502
f 408 603 517
f 409 521 564
f 409 661 521
f 410 535 697
f 410 557 536
f 410 697 557
f 411 570 700
f 411 715 570
f 412 542 566
f 412 566 534
f 412 670 542
f 413 506 671
f 413 568 714
f 413 671 568
f 413 686 506
f 413 714 686
f 414 699 561
f 414 710 699
f 415 529 708
f 415 530 603
f 415 603 529
f 415 708 547
f 416 434 563
f 416 562 434
f 416 563 649
f 417 556 703
f 418 524 695
f 418 601 524
f 418 695 601
f 419 570 715
f 420 562 716
f 420 573 671
f 420 671 706
f 420 706 562
f 421 670 559
f 422 425 554
f 422 554 428
f 422 698 425
f 423 561 687
f 423 696 561
f 424 500 704
f 424 542 702
f 424 566 542
f 424 704 566
f 426 546 605
f 426 564 546
f 427 449 709
f 427 549 667
f 427 709 549
f 428 458 544
f 428 544 689
f 429 439 543
f 430 545 693
f 430 558 705
f 430 693 558
f 430 705 536
f 431 542 670
f 431 670 605
f 431 711 542
f 432 702 572
f 433 698 553
f 434 562 706
f 434 706 635
f 435 453 558
f 435 558 693
f 435 605 453
f 435 693 605
f 436 550 688
f 437 522 716
f 438 552 700
f 438 570 717
f 438 700 570
f 438 717 552
f 439 567 710
f 439 692 567
f 439 710 543
f 444 580 720
f 444 606 580
f 444 720 579
f 445 600 457
f 445 604 584
f 446 685 455
f 452 481 592
f 452 592 721
f 452 676 481
f 453 598 705
f 453 705 558
f 456 576 539
f 456 599 640
f 456 601 695
f 456 640 672
f 456 695 587
f 458 590 544
f 463 610 515
f 470 473 624
f 471 596 660
f 476 643 621
f 482 615 650
f 482 654 615
f 483 613 617
f 489 594 613
f 493 660 596
f 498 621 643
f 502 587 695
f 506 635 706
f 506 686 635
f 506 706 671
f 508 698 571
f 509 640 599
f 510 588 633
f 512 595 658
f 516 636 672
f 520 618 527
f 520 664 618
f 521 682 691
f 521 691 564
f 524 601 540
f 524 673 695
f 529 603 662
f 534 566 679
f 534 679 605
f 535 560 697
f 535 712 560
f 537 555 719
f 537 719 687
f 538 540 661
f 540 601 661
f 541 577 701
f 542 711 702
f 543 549 709
f 543 710 549
f 544 590 689
f 546 564 691
f 547 708 707
f 550 560 688
f 553 689 713
f 555 694 719
f 561 696 667
f 561 699 687
f 565 605 718
f 565 718 574
f 566 704 679
f 567 692 694
f 567 699 710
f 570 626 717
f 572 702 711
f 574 718 680
f 575 681 603
f 577 608 605
f 578 579 720
f 578 720 580
f 580 606 721
f 594 617 613
