v -0.69622256425229456 0.13991668703761068 0.08000265028042261
v -0.36035801071799506 0.15130928120506898 -0.22953411507105806
v -0.79910547525606612 1.2759959717142506 0.48556810334348433
v -0.3967382259660141 0.23548864515364187 0.49994198223773428
v -0.72576597926945219 0.074900774425513447 0.050641676740099548
v -0.72601288009534581 0.07489687153230476 0.050784618106138331
v -0.93018917128937029 0.6850367497924964 0.23260423470142505
v 0.34092505989254501 0.12456620414155282 0.38390082442394408
v -0.91544181751533504 1.0209326090257054 0.61005089759241249
v 0.20091963668401722 0.10459611163669968 0.52442496956384754
v -0.34099155509034529 0.051326002881055315 -0.12443204295987094
v 0.094624343991255452 0.91709218837111639 0.46839344568143926
v -0.87201796578322888 0.85747264091103503 0.56577996161136357
v -0.12466909581619955 0.3256016814480287 0.63405400134302026
v -0.73229694522151645 0.10886153423561899 0.088808823808716672
v 0.18400999762665912 0.99647244786559652 0.36867726998319095
v -0.59939033338561576 1.2526836357113191 0.062937602588186772
v 0.0269054496851313 0.12172251991043738 0.54848663398955388
v -0.64898481827722998 0.1479486640742845 0.41415699390238808
v 0.30775128251588546 0.14359496011264825 -0.017103171011671432
v 0.085440806140472281 1.0522128381842366 0.1345352386984689
v 0.19017111741564072 0.95144136482603736 0.42149917633303258
v -0.64341662194744409 1.2716712924309823 0.50150710406881382
v -0.41988220657434544 1.0249635444286309 0.29908028361786049
v 0.40861739688501514 0.4492876732082548 0.46174099718893802
v 0.087316237299351687 0.73500015226998761 -0.16177439615830277
v -0.16903176097815095 0.7164485105506545 0.54486211539774476
v 0.42442954939645688 0.79276304211103177 0.40019180687364991
v -0.87696178505997691 1.2550120347699951 0.16856201258905393
v -0.36305170483456661 0.030652555461852169 0.3381108896602007
v -0.75010921745818226 0.071183835749074317 0.10757290198623946
v -0.75280307732316643 0.0589114697625613 0.17266355528810789
v 0.2799405114175248 0.021095402286379572 0.18280947181433152
v -0.43325064788184525 0.032713465228782775 0.077712999631738028
v 0.26694102041444978 0.076573036539540257 0.0078792200375165863
v -0.17788663544849806 0.91463178087121189 -0.056480714382329912
v -0.50564822680069954 0.18637045953266396 0.49563364245482527
v -0.11986165826970271 0.27129256538287722 -0.29637608339299459
v 0.528867777488227 0.44537136863090937 0.11950880404841979
v -0.58581877561703299 0.26314409861852511 0.20061602460946384
v 0.48175998849615043 0.38034614885138818 0.38706071536056214
v -0.3192067286937727 0.043973951954705603 0.36448758134382264
v -0.46939334652184245 0.03692891171149932 -0.1481013107149716
v -0.42119603593772875 0.046155680747487188 0.024288551703902768
v -0.12653708252531204 0.072679158652816489 0.14935723017511771
v 0.039826889152769593 0.026867230970396543 0.26124011181499951
v 0.19477554777320394 0.024442459393460896 0.47461506633861372
v -0.10906036185198249 0.027924160487299184 0.53524523570452986
v -0.35746744576435624 0.032794271800644474 0.20437602370013136
v -0.35081868855897552 0.11253193347007816 0.56227483240471088
v 0.39942801008295192 0.060895093980745191 0.05573269050000472
v 0.29385899328234316 0.17235572509985841 -0.083435055573236508
v -0.19113574554006565 0.74412962857079601 -0.19465521691842572
v 0.52456091717771391 0.45999283276504321 0.22930657140960617
v 0.067950408275954596 0.33842805715261493 0.67090720363156942
v -0.45905440513523504 0.073730451189485249 -0.19863000238770409
v -0.34840281883305341 0.032591665487835209 0.4579266411253578
v 0.22930955132552916 0.053275391319844115 0.011193439330180511
v -0.35906396354862957 0.99970623170131789 0.31524817370943242
v -0.44473053896742887 0.053288357368667195 0.17712247491531849
v -0.66915625988748995 0.084572479727030303 0.49800540513835367
v -0.13739073068390228 0.99326397326152582 0.045791644943666568
v -0.020388696619705132 0.16101856756273131 -0.24304359961046199
v 0.1162063985366919 1.0249669063906703 0.052287179521657672
v -0.087965357667981386 0.93909829273895562 0.45697663724839865
v 0.066726272692355162 1.0422933899042377 0.32195172325796301
v -0.26856167108060547 0.1773343434411252 0.58110246302984536
v -0.62686997481043505 0.1922070522164181 0.12270380103465728
v -0.49497163609745753 1.046130413531654 0.066365444847714672
v -0.66822176157224611 0.76696151600535434 -0.077419445839635032
v -0.70442462513509208 0.86047993735997286 0.63899488989180575
v 0.40578440575748026 0.19264385202201839 0.39997197290615349
v 0.29373177423509839 0.29468244212170625 0.53724298813506655
v 0.040523539768960365 0.68965722675159447 -0.26024210065907094
v -0.17022807445865537 0.50295313760148697 0.67713285418450697
v -0.90650422446147183 0.86789500715946055 0.22177511433225008
v -0.24947819930090281 0.18205433451155348 -0.23142015524257262
v 0.52422145928382635 0.60580511399669057 0.018355957971553798
v -0.65103775821240328 1.5011695574733654 -0.52941714711382504
v -0.3235127468551805 0.089340367013113736 0.60607305972172787
v -0.27925496739573941 0.06111537663138529 0.28197962875132576
v -0.39469037527242939 0.053779492678174078 0.049739118419085543
v -0.38871998921101864 0.03146514613282661 0.35899054094167115
v -0.36148582268658963 0.047744814970962141 0.23479293138130042
v -0.015242241104163399 0.066056448203013096 0.13608697488562768
v 0.11634092571972955 0.080198803433027419 -0.18103669197305319
v -0.32307881768095442 0.03226925216200098 0.49724837709069369
v -0.50076446322140544 0.087267979054248032 -0.049618901871587406
v -0.48631440743250909 0.083777069271184695 -0.11598624030290025
v 0.0076720118534682876 0.081994151060257398 -0.062687170256030045
v -0.22105549132656585 0.08317131942326704 -0.096102630237160577
v 0.23244125966330079 0.037180095966088927 0.24293184678040097
v -0.30065670659383537 0.076679926630320722 0.094978833538978125
v 0.1997215716665669 0.023497778497838122 0.31236258660102967
v -0.6017427882149321 0.03529196038177284 -0.0099755458524548798
v 0.091382434760065329 0.027567323143367069 -0.095116669152218974
v -0.75567369441196075 0.080170879780615781 0.16891203682261913
v -0.12460482284141917 0.042776916832226945 -0.12210057287043249
v 0.21946346453480131 0.06112247147867645 0.50974111159412749
v 0.42147786620840522 0.075921867776199442 0.30440388002507401
v 0.53396804450852098 0.10517171306436519 0.14011531566754221
v -0.38651646778199872 0.14067723831952816 0.51519067847949462
v -0.97506696677319238 0.97007078427465909 0.30882125526624432
v -0.3226171840929119 0.034359465099698283 -0.21499451886133877
v -0.19087227871735421 0.050973743957412256 -0.21301269792513966
v -0.065588927403225153 0.027092503062707659 0.56287110939451457
v 0.18134308711559732 0.02274419273877305 0.071485544952204522
v -0.23547670439655832 0.076934601679453929 0.46520153791945934
v -0.23628308409532942 0.035470959194662373 -0.14329916206898322
v 0.085620601947766606 0.072219363927567976 0.36169421089372289
v 0.060427465000990215 0.031223326366305339 0.29762418490349701
v -0.015627640944614891 0.07852739999666164 0.037736964920504677
v -0.6457852489887671 0.064636117935133991 0.53548035241678693
v -0.14374193040534936 0.076872933000060401 0.47628114647315267
v -0.27982865593451034 0.065951679658911327 0.31250458070991449
v -0.69698133210595414 0.040171320337998903 0.21006457043425125
v -0.48668391940257844 0.037142463103169224 0.4040779362920992
v 0.0039903592484333067 0.06992559476645506 0.32459057089191912
v 0.42437070909336144 0.058915616608201556 0.22254102586397406
v -0.35532673234717699 0.035444168190529327 0.27914758415957175
v 0.16515876560948942 0.033846738134697935 0.52136114297633129
v -0.46489631697527478 0.040688944261608601 0.54476512460886317
v -0.22273416664727 0.97908558730408124 0.29874870573189094
v -0.26610148283380441 0.98764261137026754 0.11950453831405776
v -0.53897364618584376 0.048285492842676477 -0.051418343187001184
v 0.038443101348658838 0.18152369065855667 0.61694698454916097
v 0.57573973188600136 0.25728509796624305 0.36402689629813373
v -0.57696883994769321 0.12507531744554304 0.29600277934514269
v -0.44456809038588391 0.17871512172385029 -0.043866062410980899
v -0.67917024910462764 0.9903321989904732 0.66032888304486059
v 0.11797592404334993 0.9367330153347222 -0.078293305236566149
v -0.7799001429771163 0.88257632030834821 0.040610112924489745
v 0.2129070092127211 0.44413526877505016 0.62811541212081212
v 0.16337579794810186 0.19156099480754343 -0.22769275010300088
v -0.83261387134831777 0.58281176990980454 0.45614127849979824
v -0.33276426482917676 0.52025330653806434 -0.26654086057769377
v -0.43498060013770501 0.14669076043881066 0.50750085918139254
v -0.28170064501766134 0.61066234141408937 0.55984920417726647
v -0.77655499379432202 1.2631850472149826 0.055201184359240221
v -0.51103344045847532 1.2039563801583355 0.07697953330660183
v -0.58967837245382637 0.71944159885331949 0.56074697407925078
v -0.80219665659390216 0.53580385700626498 -0.036636493122282607
v -0.50625513130636235 1.3180904056395777 0.23287237309903455
v 0.37092091575707808 0.80856930429206075 0.43085854745857421
v -0.62500135345001129 1.1906094671943197 0.00094805361726817627
v -0.48215270757213841 0.40420379890494579 0.53098041811759322
v 0.34703044951976136 0.47750784432166404 -0.19086085801059874
v -0.30289288916563173 0.066028863391337053 0.37369652000957299
v -0.41029422306332897 0.034969674015844145 0.35654301949969769
v -0.38979069428124735 0.030967421940995644 0.1231352804298422
v -0.018917035181068197 0.06175764187026412 0.20191376696841218
v -0.2659519582273745 0.063793069490495041 0.23637824398877474
v 0.11131703074482063 0.062612604427766186 0.39605853594540924
v 0.12438828343308068 0.050097812261368981 -0.17403867544727092
v 0.20375381601321876 0.030308372416804338 0.034528136180555821
v 0.0086961450582038174 0.073874009794747494 0.42982904125099186
v -0.32678390496575049 0.034596642970556514 0.56507460629206219
v -0.37989006339456982 0.076315910277602109 -0.056523118334533266
v 0.23081702080511474 0.022945392398433146 0.10304722567080336
v 0.026854532645151467 0.032957201922183821 0.55032574696090519
v 0.10885134381808324 0.023580521531973909 0.07300301109470296
v -0.73218648297706646 0.061571435799485791 0.056310751949291651
v -0.34084229007936823 0.040424337289112856 0.42119951651794091
v -0.12461506964714572 0.077825938868287883 -0.098146040222608324
v -0.71207643897343464 0.044194986859856483 0.034133454380722399
v -0.45320302179096356 0.034967560515962441 0.019943209910825026
v -0.63783752101578506 0.039625061322826845 0.32223278245127085
v -0.2714100736907783 0.046795719470195826 -0.23163590645594725
v 0.0030211217986287741 0.070284346611162951 -0.086642510903109343
v -0.31111688256520653 0.085005991063852787 -0.10197438900880967
v -0.59234819307563635 0.041391380964652717 0.56055057217618565
v 0.024811856704324224 0.023059526231606869 0.17551915891537945
v -0.21945389656980804 0.043466211303920706 0.64223386108789693
v -0.62183871067757623 0.04197931031586833 -0.013052542104869169
v -0.50982579645646131 0.044399303203304867 0.18808298512105753
v -0.42982852902393132 0.15768698422256586 -0.15291825623925281
v 0.30496932867220305 0.12347100492201174 0.44335775039952846
v -0.1955543239119783 0.78136935787329087 0.52992252593345601
v -0.50191872111423075 1.2387517474865619 0.32598184645469686
v 0.12032984230540748 0.023069962738385991 0.51548527049326176
v -0.29167819384254284 0.039104009121474978 -0.14345248820737641
v -0.20914738035995747 0.0782693326554494 0.018789431806411801
v 0.13648951177981125 0.029252051154516179 0.41228905399827015
v -0.35118508202745663 0.059880324399274237 0.56808011158418348
v -0.4791917837556075 0.045897808721264421 0.15932586706300689
v -0.4093810205386047 0.036601732306550915 -0.21701930080033718
v 0.02974442157025876 0.065445716765709025 0.3089606919511978
v -0.10663258886709204 0.075292520506300559 0.08509185750177152
v -0.21295329948499042 0.031456434539485427 -0.18252299937906261
v -0.34362398698513785 0.071411829622562595 0.066704575061548532
v 0.4786455298920107 0.080406941210692154 0.17101067436281175
v -0.15621146383307444 0.069792831227514188 0.3029888544658777
v 0.051875496279428619 0.038442926222236433 -0.17834023151748873
v 0.035327240278419998 0.026275042703132905 0.095374041108804125
v -0.06878471558570845 0.049984786527314987 -0.19457162730120084
v -0.26489612493489889 0.074879472449741802 0.44307672238215856
v -0.70911567920220786 0.036966705673418115 0.088215440147133922
v 0.15182119704654076 0.024935923400901751 0.28317135054731818
v 0.3745299429751815 0.060119906990042424 0.054519300668635182
v -0.565297529395414 0.033507259058372783 0.076188669204743556
v -0.34030691631863474 0.027556194413293086 0.18460072179446615
v -0.021856126426198202 0.032530405849885508 -0.11518783549485585
v 0.23848884019413583 0.097542459808694471 -0.03199346097467954
v 0.020747603171269995 0.042001726639494495 0.55729066905339186
v 0.28762500404831459 0.066541337202435977 0.38236395705767579
v 0.18201436151222714 0.036172614421343806 0.099679842836860127
v -0.041313842775270775 0.10708308184413413 0.57689955101462098
v -0.36321976556521912 0.065203076715015518 -0.094502584144542753
v -0.26642469359756626 0.99282162402771945 0.25943233949383654
v 0.27892474887288859 0.024326383084719409 0.2152802699961443
v -0.3106165666849372 0.063175961823191323 0.63219832511865415
v -0.16445847359577115 0.1164344001594938 -0.21827388083049906
v 0.15653410125909839 0.060857520753494647 -0.16491515598115664
v -0.09702192421773087 0.15954961502595266 0.57499220543213425
v -0.22888946192791587 1.004683946193164 0.19161376919949608
v -0.47494596086490781 0.90355863021431604 0.43086439146965927
v -0.45428419255571845 1.0196288933143762 0.025202991784806318
v -0.25989250514754747 0.057625547067790717 0.5078191744360665
v -0.62751961439704229 0.16469100663165287 0.50907213739288937
v 0.036523238403668799 0.061423863801929331 0.43524167025694599
v 0.24146926714303868 0.15489177441004437 0.50273638812321797
v -0.34939302692092805 0.84909371533776601 -0.11348698236192613
v 0.1260654918745214 0.13026108317775989 -0.19235726038065418
v 0.12360024027798852 1.060295953244897 0.13437887310913402
v -0.27962410974290008 0.17981470160004243 -0.22053712653824825
v 0.51017315009458164 0.17560650862086627 -0.0093500804041806145
v -0.17959872996174933 1.6349795356872225 -0.037981989990298094
v 0.33788262100077709 0.86328834412293531 -0.025161692003057196
v 0.21928041198759621 0.62378662689119257 -0.20938855090609104
v 0.24812789630412188 0.25744892311209711 -0.21185180580614221
v -0.49808783329121481 0.32502840090296153 -0.033528537637809067
v -0.23424429255138235 0.20053342376104993 0.51388452201592316
v -0.71418657246338291 1.2841879638239131 -0.41015232829260329
v -0.86054570440505185 1.0472306003827998 0.074376292190780083
v -0.89840826092044812 0.54076354745398314 0.17747217195080806
v -0.4246103196200493 0.68103987761077367 0.55698125844260815
v -0.05090619458687972 1.4667158963511693 -0.17745894157327138
v -0.54883996799550649 1.1692219923855609 0.43534653936586865
v 0.20001794874066417 0.76920882064491791 0.53083463133046238
v -0.55785324260187752 0.21093979981744113 0.23122762390617269
v -0.65247874896711877 1.3336854139529106 0.20172644131093503
v -0.31471036555476622 0.036656932176458268 0.32125222944525494
v -0.37358087350839381 0.031047934829076994 0.18291132719993503
v 0.024050317639955923 0.025741948675408667 0.16976192470489568
v -0.42007330419351957 0.045848378578579478 -0.026346285152150387
v -8.7143947462009323e-05 0.06637164978243533 0.2721794730838854
v -0.39113748739511844 0.079117545916924187 -0.021927009472647981
v -0.38283688629272106 0.044929196729903635 0.27716901493110213
v -0.2804277659322999 0.033035785295641253 0.53283872674648602
v 0.0084502049648362484 0.037813704204748708 0.23924539684623006
v 0.11700721557880271 0.031353114141206395 -0.15246937462040253
v -0.74394504977792975 0.045166959156284832 0.10333673104109603
v 0.10515404202358064 0.070488019975104732 0.3872968019622326
v 0.12711872061386298 0.026736135251411244 -0.034598166660924447
v -0.29420442856082912 0.042796232455105478 0.61826483281917699
v 0.14034927322462312 0.027634221716930252 0.36330601070140606
v -0.7359412511627127 0.042850550272877957 0.16568303945182092
v -0.20271436314478569 0.071187295822513513 0.20697390639634194
v -0.7128559725165059 0.078355874186701591 0.024863777150439598
v 0.22571596665417318 0.027771592520908824 0.4167400707621931
v -0.074871314798919522 0.075419192829283624 0.45551452769445461
v -0.26471280870433034 0.073686856359944222 0.16273767328663524
v -0.39030024440952127 0.050123302857321639 0.52871045763598601
v -0.44430269619487378 0.035509995744653591 -0.19180341209906032
v -0.46349425291692425 0.044750994787495522 -0.18770480563180961
v 0.23383783622232138 0.037516233759412182 0.19280852206896096
v -0.67658979563326604 0.043647080381953834 0.40927410077772169
v -0.57015174226132526 0.075620939406485371 0.58426554430285138
v -0.64080140045997513 0.042386918476170508 0.28683221463210457
v 0.03787938715841422 0.021705554252174471 0.50715786392734541
v 0.083353277920155275 0.067024821592756911 -0.036043147114913542
v -0.093397093324014982 0.033180956697620029 -0.17422400243379924
v -0.41200985599409745 1.0018217399634288 0.30196357449964401
v -0.71861989413098259 0.0617508399878922 0.2175226122679115
v -0.55540096074132228 0.033073441189184954 0.25604825240290585
v -0.47902973911933178 0.14329078241225035 -0.042280581075597963
v -0.27766178947105741 0.031995832629050515 -0.15928761965667093
v -0.19997159566191086 0.0754576275938076 0.074818264431747342
v 0.050862031212057721 0.063105280250611101 -0.19213404602944187
v -0.48117242810830785 0.062324784161070054 -0.15157336461153342
v -0.39341029852628506 0.035529349579578574 0.50221083346350792
v -0.25739640873073133 0.077381951239146068 -0.1177257546762676
v 0.098890466606267532 0.031669782924335921 0.32931484271835726
v 0.16406877033897307 0.02307544456101171 0.39430678477614189
v 0.22093594398643684 0.04767522076981684 0.49400143657983009
v 0.010766987690406692 0.027929389202589618 -0.1418491112935866
v -0.36858299322537325 0.028174438915880791 0.15157086226637131
v -0.3753246922544502 0.082984352691172131 -0.021768751419655941
v 0.06647540329916074 0.030839210752986016 0.041627471308621045
v -0.35215193983148618 0.051790218052688825 -0.24834948738898871
v -0.11201176690039841 0.082885626620354813 -0.074485238892791683
v -0.60764348634405785 0.034155978989210328 0.25852703158161688
v -0.25158230075406085 0.068199998997679506 0.27589883667122345
v 0.19013925967403181 0.059693126192429148 -0.12131163795644354
v -0.15159604016924896 0.03361443126312734 -0.13693919412038863
v 0.090193928782855468 0.023112552576189268 0.25960119023248335
v -0.50877489200916926 0.035080981506124299 -0.052737561812037495
v -0.32551357230631395 0.047025393749408992 0.59678327925372276
v -0.65978644157684474 0.036551410382276175 0.014486604550680267
v 0.063039438925836924 0.077914962897513762 -0.010641584051332332
v -0.53635251772205983 0.036499280700406575 0.51107530088712072
v -0.0066468603781195566 0.02614746246008939 0.49773827803931819
v -0.10711476374690701 0.042880371653714965 0.60005096516387391
v -0.13872649097755774 0.053710353669137761 -0.20369039708931408
v -0.031422974319561592 0.068571239721284441 0.20388421122942393
v -0.47770067826123319 0.031169140673183715 0.1371944685911696
v 0.17512609951761263 0.032779661801937164 -0.086569488656315294
v 0.096079589126333506 0.028761636716655496 0.11401970817214918
v 0.085574009019042094 0.056244125821050178 0.5418961474678109
v -0.10451087953465558 0.068842104156339554 0.30868721739147559
v -0.34501284268582261 0.029807831868503047 0.3469314827300608
v 0.35730757621360765 0.02701451048909104 0.16093631293388366
v -0.4269434828924456 0.032721932041348475 0.37955692625756504
v 0.082045689512090611 0.049830640638716499 -0.078426981608836627
v 0.25980822557544547 0.025682435243948629 0.29058811115669614
v -0.67674435176262326 0.0446884480150209 0.48405795394174106
v -0.36931616386492094 1.0307987377080088 0.14562937771323678
v -0.18922405493582109 0.024670136131633009 0.57367717520322048
v 0.22599720332810305 0.028015441979988082 0.054924161419979176
v -0.45345342820064649 0.033756619892585882 -0.12233625751071631
v -0.19774904540552871 0.14131969427780056 0.63731854517148534
v -0.66997064502283077 0.077796541942109831 0.36957768593728679
v -0.56521976292410947 0.07154242638873369 0.59593562103551423
v -0.37325981159838229 0.12727761043073596 -0.24012535831937196
v -0.29805501571191484 0.95561537412552411 0.0084344771236966702
v -0.021648944006322134 0.98323602412350608 -0.01641400409128943
v -0.03026937538606549 1.0059962201556101 0.39187452673883921
v -0.68429014068223648 0.11810875863754487 0.017856938394700463
v 0.48418564575546436 0.12503862152832668 0.35353375822108174
v 0.25871510717679658 1.0034796435260209 0.21985507291673353
v -0.27343086547119777 0.91469535125028534 0.40439997966692509
v -0.061442218326319853 0.8303685818647456 -0.14753386793599244
v -0.5566401177294813 0.98740218798704105 0.53561767510798264
v -0.81888667243621782 1.0559043670786494 0.66499734517946796
v -0.7129947346896961 0.91397344500610433 -0.0038711224963938941
v 0.39576775022784383 0.27213110502039012 -0.060375547594656152
v 0.1086480916907539 0.19769118324856788 0.61901047161545575
v -0.38130568637121182 0.52926383551215184 -0.12892251756603695
v -0.69919881780171533 0.13375243428235367 0.19164757731597101
v -0.69025435233095256 0.45184226543757594 0.51626018611910296
v 0.052977866482716178 0.64288623462829353 0.66937608930415093
v -0.71266112148338001 1.6166461368387519 -0.48420304543042397
v -0.68568368670269297 0.81495408377921807 0.52564634681045597
v 0.34936303487658987 0.75895413588843597 -0.096166144737848111
v -0.21493883784086845 0.55274515497788146 -0.35344704145326544
v -0.68077955955039815 0.27947532935500458 0.1456459004091597
v -0.14534125647123067 1.3605765005604948 -0.0041975491250802787
v -0.16186689632858811 1.6332014216235611 -0.14560666772861228
v -0.47634743334342133 0.68311308976132101 -0.16842714015044721
v 0.69980964026559767 0.35939666430552364 0.11743543126283811
v -0.30549734984864091 0.069309050823493409 0.40160732659731363
v -0.29097031435425652 0.066011087903473861 0.33559738123378113
v -0.38115949732448884 0.043175031515264757 0.33833920841311599
v -0.39701338249765422 0.048969407957141442 0.18906077982852687
v 0.009043700869708524 0.033854474070265636 0.14535126324655614
v -0.30448421960705729 0.031513077930005934 0.24094270157103079
v -0.40736308704554619 0.065555929739283994 -0.23665019218234196
v -0.28840256480723098 0.092983744014915645 0.62477408405068691
v -0.50180822609785092 0.050337312997895914 -0.073750072864203875
v 0.0069633007619481933 0.07055957347219606 0.081078057500230158
v 0.21569020379870457 0.058354377929240066 -0.027912910486289022
f 1 15 339
f 1 162 15
f 1 328 162
f 1 339 328
f 2 56 176
f 2 176 324
f 2 290 357
f 2 324 290
f 2 357 56
f 3 9 334
f 3 23 241
f 3 29 103
f 3 103 9
f 3 241 29
f 3 334 23
f 4 137 232
f 4 146 240
f 4 232 146
f 4 240 137
f 7 76 142
f 7 135 76
f 7 142 235
f 7 235 135
f 8 72 177
f 8 177 329
f 8 329 72
f 9 13 71
f 9 71 334
f 9 76 13
f 9 103 76
f 10 99 221
f 10 221 309
f 10 309 99
f 11 170 208
f 11 208 320
f 11 320 170
f 12 22 65
f 12 65 239
f 12 239 22
f 13 76 71
f 14 55 75
f 14 75 232
f 14 232 337
f 14 337 55
f 15 31 339
f 15 162 31
f 16 22 330
f 16 66 327
f 16 327 22
f 16 330 66
f 17 69 145
f 17 140 69
f 17 145 241
f 17 241 140
f 18 207 309
f 18 214 207
f 18 309 337
f 18 337 214
f 19 61 219
f 19 128 322
f 19 219 240
f 19 240 128
f 19 322 61
f 20 52 336
f 20 226 52
f 20 336 226
f 21 62 215
f 21 64 326
f 21 215 224
f 21 224 64
f 21 326 62
f 22 144 330
f 22 239 144
f 22 327 65
f 23 179 241
f 23 238 179
f 23 334 238
f 24 59 273
f 24 69 179
f 24 179 238
f 24 216 331
f 24 238 333
f 24 273 317
f 24 317 69
f 24 331 59
f 24 333 216
f 25 28 73
f 25 41 28
f 25 73 41
f 26 74 332
f 26 131 228
f 26 228 344
f 26 229 74
f 26 332 131
f 26 344 229
f 27 75 341
f 27 138 75
f 27 178 138
f 27 239 178
f 27 341 239
f 28 41 54
f 28 54 78
f 28 78 330
f 28 144 73
f 28 330 144
f 29 139 103
f 29 241 139
f 30 83 353
f 30 120 311
f 30 311 83
f 30 353 120
f 31 162 252
f 31 252 339
f 32 97 339
f 32 252 257
f 32 257 274
f 32 274 97
f 32 339 252
f 33 210 319
f 33 312 210
f 33 319 312
f 34 150 306
f 34 166 150
f 34 200 297
f 34 297 166
f 34 306 200
f 35 52 319
f 35 58 203
f 35 203 52
f 35 319 58
f 36 53 222
f 36 62 326
f 36 222 325
f 36 325 62
f 36 326 53
f 37 102 137
f 37 137 240
f 37 219 102
f 37 240 219
f 38 77 136
f 38 134 77
f 38 136 345
f 38 147 134
f 38 345 147
f 39 54 350
f 39 78 54
f 39 336 78
f 39 350 336
f 40 146 346
f 40 240 146
f 40 346 240
f 41 72 54
f 41 73 177
f 41 177 72
f 42 148 163
f 42 163 311
f 42 242 352
f 42 311 242
f 42 352 148
f 43 264 320
f 43 265 264
f 43 320 265
f 44 82 166
f 44 166 245
f 44 245 247
f 44 247 82
f 45 188 305
f 45 258 278
f 45 278 188
f 45 305 310
f 45 310 258
f 46 111 250
f 46 172 296
f 46 250 172
f 46 296 111
f 47 121 180
f 47 180 284
f 47 260 285
f 47 284 260
f 47 285 121
f 48 106 318
f 48 114 302
f 48 218 114
f 48 302 106
f 48 318 218
f 49 84 354
f 49 120 84
f 49 201 120
f 49 243 287
f 49 287 201
f 49 354 243
f 50 67 137
f 50 102 263
f 50 137 102
f 50 184 211
f 50 211 67
f 50 263 184
f 51 52 226
f 51 101 191
f 51 119 312
f 51 191 119
f 51 199 319
f 51 226 101
f 51 312 199
f 51 319 52
f 52 134 336
f 52 203 294
f 52 213 223
f 52 223 134
f 52 294 213
f 53 74 345
f 53 136 349
f 53 326 332
f 53 332 74
f 53 345 136
f 53 349 222
f 54 72 127
f 54 127 350
f 55 73 133
f 55 133 239
f 55 239 341
f 55 337 73
f 55 341 75
f 56 265 280
f 56 280 176
f 56 357 265
f 57 87 313
f 57 163 351
f 57 196 87
f 57 311 163
f 57 313 311
f 57 351 196
f 58 155 361
f 58 319 155
f 58 361 203
f 59 209 317
f 59 317 273
f 59 331 209
f 60 84 248
f 60 175 185
f 60 185 306
f 60 243 354
f 60 248 313
f 60 306 243
f 60 313 175
f 60 354 84
f 61 113 323
f 61 316 113
f 61 322 316
f 61 323 219
f 62 124 215
f 62 325 124
f 63 134 223
f 63 223 225
f 63 225 134
f 64 131 326
f 64 224 228
f 64 228 131
f 65 123 331
f 65 178 239
f 65 327 123
f 65 331 178
f 66 215 327
f 66 224 215
f 66 330 224
f 67 211 321
f 67 232 137
f 67 321 232
f 68 129 276
f 68 231 129
f 68 240 231
f 68 276 328
f 68 328 339
f 68 339 240
f 69 140 179
f 69 217 335
f 69 317 217
f 69 335 145
f 70 76 132
f 70 132 335
f 70 142 76
f 70 335 349
f 70 349 142
f 71 76 343
f 71 130 334
f 71 343 130
f 72 329 127
f 73 144 133
f 73 221 177
f 73 337 221
f 74 147 345
f 74 229 147
f 75 138 232
f 76 103 132
f 76 135 343
f 77 129 231
f 77 134 225
f 77 225 129
f 77 231 338
f 77 338 136
f 78 147 344
f 78 228 330
f 78 230 147
f 78 336 230
f 78 344 228
f 79 139 241
f 79 145 233
f 79 233 139
f 79 241 342
f 79 342 145
f 80 211 298
f 80 298 358
f 80 358 211
f 81 115 352
f 81 152 115
f 81 242 356
f 81 352 242
f 81 356 152
f 82 150 166
f 82 190 287
f 82 247 190
f 82 287 150
f 83 149 353
f 83 311 313
f 83 313 149
f 84 120 248
f 85 151 305
f 85 194 355
f 85 305 360
f 85 355 151
f 85 360 194
f 86 154 279
f 86 213 154
f 86 223 213
f 86 279 223
f 87 108 249
f 87 157 281
f 87 196 108
f 87 249 157
f 87 281 313
f 88 89 359
f 88 129 176
f 88 176 89
f 88 276 129
f 88 359 276
f 89 176 280
f 89 280 359
f 90 112 291
f 90 169 314
f 90 271 300
f 90 291 169
f 90 300 112
f 90 314 271
f 91 164 291
f 91 170 282
f 91 182 170
f 91 282 164
f 91 291 182
f 92 94 198
f 92 198 266
f 92 210 94
f 92 266 210
f 93 190 288
f 93 262 287
f 93 287 190
f 93 288 262
f 94 210 315
f 94 256 198
f 94 260 284
f 94 284 256
f 94 315 260
f 95 174 297
f 95 200 299
f 95 297 200
f 95 299 174
f 96 202 286
f 96 251 254
f 96 254 314
f 96 286 251
f 96 314 202
f 97 274 339
f 98 164 282
f 98 169 164
f 98 202 169
f 98 282 295
f 98 295 202
f 99 121 285
f 99 205 221
f 99 285 205
f 99 309 121
f 100 101 329
f 100 119 101
f 100 315 119
f 100 329 315
f 101 119 191
f 101 226 350
f 101 350 329
f 102 122 263
f 102 219 323
f 102 323 122
f 103 139 234
f 103 234 132
f 104 168 189
f 104 186 290
f 104 189 277
f 104 264 186
f 104 277 320
f 104 290 168
f 104 320 264
f 105 168 212
f 105 189 168
f 105 212 304
f 105 304 189
f 106 160 303
f 106 270 160
f 106 302 270
f 106 303 318
f 107 155 159
f 107 159 206
f 107 161 254
f 107 206 161
f 107 254 307
f 107 307 155
f 108 196 218
f 108 218 318
f 108 318 249
f 109 181 277
f 109 189 272
f 109 272 295
f 109 277 189
f 109 282 181
f 109 295 282
f 110 118 187
f 110 187 283
f 110 220 118
f 110 253 220
f 110 256 253
f 110 283 256
f 111 187 250
f 111 256 283
f 111 283 187
f 111 296 256
f 112 188 291
f 112 300 360
f 112 305 188
f 112 360 305
f 113 171 268
f 113 268 323
f 113 316 171
f 114 196 310
f 114 218 196
f 114 261 302
f 114 310 261
f 115 148 352
f 115 152 293
f 115 196 351
f 115 293 196
f 115 351 148
f 116 197 292
f 116 257 197
f 116 269 274
f 116 274 257
f 116 292 269
f 117 275 313
f 117 301 275
f 117 313 301
f 118 220 261
f 118 246 187
f 118 261 310
f 118 305 246
f 118 310 305
f 119 315 312
f 120 201 311
f 120 353 248
f 121 160 270
f 121 270 180
f 121 309 160
f 122 171 301
f 122 268 171
f 122 281 263
f 122 301 313
f 122 313 281
f 122 323 268
f 123 209 331
f 123 215 209
f 123 327 215
f 124 209 215
f 124 317 209
f 124 325 317
f 125 174 328
f 125 276 359
f 125 297 174
f 125 328 276
f 125 359 297
f 126 214 337
f 126 232 214
f 126 337 232
f 127 329 350
f 128 240 339
f 128 339 322
f 129 225 176
f 130 238 334
f 130 333 238
f 130 343 333
f 131 332 326
f 132 234 335
f 133 144 239
f 134 147 230
f 134 230 336
f 135 141 343
f 135 235 340
f 135 340 141
f 136 338 349
f 138 146 232
f 138 178 236
f 138 236 146
f 139 145 234
f 139 233 145
f 140 237 347
f 140 241 348
f 140 347 179
f 140 348 237
f 141 216 343
f 141 236 331
f 141 331 216
f 141 340 236
f 142 346 235
f 142 349 346
f 143 179 347
f 143 227 348
f 143 241 179
f 143 347 227
f 143 348 241
f 145 335 234
f 145 342 241
f 146 236 340
f 146 340 346
f 147 229 344
f 148 351 163
f 149 313 353
f 150 287 306
f 151 246 305
f 151 250 246
f 151 355 250
f 152 262 293
f 152 356 262
f 153 183 220
f 153 220 253
f 153 253 256
f 153 256 183
f 154 193 279
f 154 213 251
f 154 251 193
f 155 307 361
f 155 319 159
f 156 220 302
f 156 261 220
f 156 302 261
f 157 249 318
f 157 255 298
f 157 298 281
f 157 318 255
f 158 208 288
f 158 245 208
f 158 247 245
f 158 288 247
f 159 266 206
f 159 319 266
f 160 204 303
f 160 309 204
f 161 194 289
f 161 206 308
f 161 289 254
f 161 308 194
f 162 165 252
f 162 259 165
f 162 328 259
f 164 169 291
f 165 174 299
f 165 197 252
f 165 259 328
f 165 299 197
f 165 328 174
f 166 297 320
f 166 320 245
f 167 267 322
f 167 269 292
f 167 275 267
f 167 292 275
f 167 322 269
f 168 290 324
f 168 324 212
f 169 202 314
f 170 182 262
f 170 262 288
f 170 288 208
f 170 320 282
f 171 316 301
f 172 194 308
f 172 244 355
f 172 250 244
f 172 308 296
f 172 355 194
f 173 211 318
f 173 303 321
f 173 318 303
f 173 321 211
f 175 275 306
f 175 306 185
f 175 313 275
f 176 225 324
f 177 205 315
f 177 221 205
f 177 315 329
f 178 331 236
f 180 270 284
f 181 282 320
f 181 320 277
f 182 188 278
f 182 278 262
f 182 291 188
f 183 256 284
f 183 270 220
f 183 284 270
f 184 263 298
f 184 298 211
f 186 264 265
f 186 265 357
f 186 357 290
f 187 246 250
f 189 304 272
f 190 247 288
f 192 258 310
f 192 293 258
f 192 310 293
f 193 195 279
f 193 251 286
f 193 272 195
f 193 286 272
f 194 360 289
f 195 212 279
f 195 272 212
f 196 293 310
f 197 200 275
f 197 257 252
f 197 275 292
f 197 299 200
f 198 256 296
f 198 296 266
f 199 312 319
f 200 306 275
f 201 262 356
f 201 287 262
f 201 356 311
f 202 295 286
f 203 361 294
f 204 207 303
f 204 309 207
f 205 260 315
f 205 285 260
f 206 266 308
f 207 214 321
f 207 321 303
f 208 245 320
f 210 266 319
f 210 312 315
f 211 255 318
f 211 358 255
f 212 223 279
f 212 225 223
f 212 272 304
f 212 324 225
f 213 294 307
f 213 307 251
f 214 232 321
f 216 333 343
f 217 317 325
f 217 325 349
f 217 349 335
f 220 270 302
f 221 337 309
f 222 349 325
f 224 330 228
f 226 336 350
f 227 237 348
f 227 347 237
f 231 240 346
f 231 346 349
f 231 349 338
f 235 346 340
f 242 311 356
f 243 306 287
f 244 250 355
f 248 353 313
f 251 307 254
f 254 271 314
f 254 289 271
f 255 358 298
f 258 262 278
f 258 293 262
f 263 281 298
f 265 320 280
f 266 296 308
f 267 275 316
f 267 316 322
f 269 322 339
f 269 339 274
f 271 289 300
f 272 286 295
f 275 301 316
f 280 320 359
f 289 360 300
f 294 361 307
f 297 359 320
