v -0.14665449445878109 1.645901057911314 -0.095036988972158634
v -0.73313891357017535 1.4960833379906335 -0.19754808500026419
v -0.49421519014860438 1.1850383376460156 0.10694389753177619
v -0.55053461007966942 0.11548970747354986 -0.02844315636343946
v 0.56443087597816166 0.27778585422134838 0.36724957861370011
v 0.10431465507980009 1.0536193593772261 0.22436130300792564
v -0.52348034047009862 0.10953713468879273 0.56968490236462488
v -0.69622256425229456 0.13991668703761068 0.08000265028042261
v -0.27049730639415082 0.2357489115494594 0.45409087939388904
v -0.10642068855336217 0.57815621494420588 -0.32916484935671836
v -0.24982464862624773 0.5969266296066762 -0.32745687670611484
v 0.57035312358227674 0.24374367062548019 0.36583750708838875
v -0.60396146052158983 0.97441668895055611 0.59271104183783818
v -0.27591664336305988 0.60490134548171448 0.5456084249085662
v 0.18791003233331657 0.76011388024737814 -0.15116824099918713
v -0.20032448808176939 0.12368995435177757 -0.22424047164887881
v -0.30733796188955309 0.36909041460410064 -0.21583787102812774
v -0.89767106206223901 0.94156711915697811 0.11935142761456137
v -0.34335229865064121 0.27678496485976306 -0.033025700775603364
v 0.074188446000616776 0.74844926887935392 0.53687483844195827
v -0.69837055652171209 0.1048132331099304 0.20626244768240631
v -0.44397032211785953 0.90657560091945222 0.42451836643808899
v 0.14144085368050482 0.33965110697656647 0.63999593237071317
v -0.69318704663092578 1.3710794312882477 -0.4780044027873056
v -0.84667894032894653 0.5469146961568756 0.40443995788335729
v -0.5818070306361538 1.3244312036820347 0.20092351574743794
v 0.011637813820779188 0.19736573376329755 0.63112502514227808
v -0.63927378561404991 0.12691172713252977 0.36365347978692358
v -0.094276059750741686 1.5092910945138474 -0.1307282854574896
v -0.36035801071799506 0.15130928120506898 -0.22953411507105806
v -0.66174803108812785 0.68985001430149018 0.55354759089987182
v -0.73045853070157019 0.52030583964725641 -0.076679719926274453
v -0.36918851724194868 0.77537879453536551 0.51414901293583959
v -0.79910547525606612 1.2759959717142506 0.48556810334348433
v -0.3967382259660141 0.23548864515364187 0.49994198223773428
v -0.49786483357963884 0.68955741215642929 -0.14362103347800437
v -0.72576597926945219 0.074900774425513447 0.050641676740099548
v 0.33428494984221557 0.29469798433005495 -0.13325892636138859
v -0.80580863457057872 0.6117451816159899 0.4863974654110792
v -0.72601288009534581 0.07489687153230476 0.050784618106138331
v 0.63998632037580794 0.20592689407049705 0.19905423336029873
v 0.43095828944355086 0.67064096940878848 -0.039836114253458461
v -0.93018917128937029 0.6850367497924964 0.23260423470142505
v 0.67506460046514494 0.37677454664204085 0.22348418170290218
v -0.41314996691100797 0.039064711297547912 0.3411910794191339
v -0.27370309682845584 0.032180681521337469 0.59386226273406206
v -0.013627314676633006 0.068387288485128594 0.26591012019938737
v 0.34092505989254501 0.12456620414155282 0.38390082442394408
v 0.52924355707108417 0.13717512443111504 0.05783570949727064
v 0.29360707046319323 0.97609352133817817 0.20375802922433331
v 0.31003489385030075 0.94845741521927163 0.33754036585989089
v 0.31597635875476382 0.1485689419774435 -0.034502137434297274
v -0.19081118048311815 0.14790871490918162 -0.21658541226647157
v 0.5486073772983594 0.20508985358046561 0.011956902815575448
v -0.50231079970631376 0.40749631840304601 -0.068292791749526446
v -0.52174525549339512 1.2868177744018334 0.36424983231308566
v -0.45274935189094301 0.038045459499724071 0.52712154638865139
v 0.37368990905863225 0.062491751314394398 0.050300176935053051
v -0.28059618442104511 0.072908657419968076 0.41709119639970682
v -0.28961587768005104 0.092780478731678162 0.62214965322135607
v 0.0066481090074961792 0.039750735516678098 0.13725103032988872
v 0.23554303410547114 0.10807661224640035 -0.060609899330066982
v -0.41010913222669154 0.075740221998667243 -0.23005273977162943
v -0.40700124250003017 0.045403175524559539 -0.064743152468133128
v -0.36183220453371051 0.030335686281582824 0.19656377816452178
v -0.74455249177257277 0.048635195662153685 0.16321532140013031
v -0.37465999748297424 1.0257903966887707 0.21650512166454663
v -0.53105832827974608 0.33971872927962565 0.434119716967451
v -0.038167696862885396 1.4590790585153983 -0.20129683169880436
v -0.91544181751533504 1.0209326090257054 0.61005089759241249
v 0.13678925051114235 0.021637490259203356 0.49622765088397686
v 0.39886978775698578 0.061171727164140162 0.071442596079124718
v -0.42473679698591671 0.11444493814239204 0.53328804227959359
v -0.090782070333051745 0.11418375084790301 0.59493572391027449
v 0.14873072530624015 0.13268356369441989 0.52704882912336848
v -0.6859057756771767 1.0630588844390674 0.63076841614346102
v 0.23405491906339915 0.24214046670589157 0.5685813563670411
v 0.21701063308660967 0.069091797038191807 0.50765728346377859
v 0.42066894982349629 0.054334551810646003 0.1591173690562607
v -0.39638017992561708 0.047603066384415769 0.18872037202446407
v -0.70300824957763042 0.059243753942273047 0.23349734008847853
v -0.6475551218243204 0.06029580250593853 0.53200604700125453
v 0.20091963668401722 0.10459611163669968 0.52442496956384754
v -0.34099155509034529 0.051326002881055315 -0.12443204295987094
v 0.23252385502253042 0.059270030790618725 0.49068935625207483
v 0.17407857756806236 0.028834941338010154 0.26358496739157294
v -0.7746564205556814 1.0052628618498392 0.027632872051923073
v -0.27111587087386496 0.93201105230064485 0.37822050341361169
v -0.6104528295706757 0.15857213718828453 0.53133342189724742
v -0.32945208229636452 0.87166543289621379 -0.095424350587598461
v 0.30600370826018608 0.86697861185922498 -0.041101340172814048
v -0.59261324091207279 0.29111970485638911 0.12294978425170131
v -0.33094902606682358 0.52576727049898453 -0.27015271851476019
v -0.30890890566141083 0.65196098054870344 0.55799790269121319
v -0.48476089343862572 1.1557947335190411 0.18009814272008146
v -0.6025522001421405 1.2993792639920947 -0.14569409019028071
v -0.45180411428682998 0.03615082245979833 0.4396230292896765
v -0.016568738201479759 1.0106205826730605 0.024033221277469711
v -0.63816719808692557 0.064621364013347282 -0.01242947721210573
v -0.34863730782161273 1.022285310321029 0.16273516759388856
v -0.3183364958541981 0.084337270985088419 0.61847594977059328
v -0.67443314387176878 0.12735007078463897 0.21717970053926669
v 0.06747772118445125 0.16508057482462168 0.60108960035478487
v -0.64583246667800875 0.16258326966728759 0.45671578706273525
v 0.094624343991255452 0.91709218837111639 0.46839344568143926
v -0.87201796578322888 0.85747264091103503 0.56577996161136357
v -0.37977574734427677 0.79878555016195874 -0.12668705580170883
v -0.74269487314682181 1.0414532167010113 0.012655040370301395
v -0.25206733596667202 0.7655426461757564 0.52785315911430475
v 0.24818257062174776 0.4817963665271397 0.60934004901916494
v 0.049790956827653596 0.23232550790581888 -0.26054986316789996
v -0.12466909581619955 0.3256016814480287 0.63405400134302026
v -0.60395985893269244 0.52453431535737505 -0.12398145237940128
v -0.17082819279007627 1.3873626539558157 -0.08082023070347702
v -0.51023684203899555 1.1357819939919289 0.39948789358501985
v 0.22850943789592765 0.64093087792215575 -0.1930855700291908
v -0.89601677438597849 0.55960688143825732 0.14147390871898985
v -0.2994078620599735 0.061365057160034431 0.34929175500129056
v -0.014377374964635294 0.057631184246591999 0.1813052005784897
v -0.29066407487658852 0.062557841315458537 0.32119910687157732
v 0.12683668586495048 0.035386575699297422 0.35783234869493596
v -0.38106718445547083 0.035665967218846267 0.34737600512385808
v -0.30493736380382896 0.034031669651204785 0.23048663566830782
v -0.38996930408614039 0.078705521264317124 -0.028990622832721448
v -0.28688505469029169 0.032784937391841601 0.53712960938565601
v -0.40519534931456347 0.033690001225741457 0.35914887895781211
v 0.0071628263617653006 0.067052328884075391 0.43989338173066328
v 0.0066551719485028818 0.068189826426936259 0.29172347857022601
v -0.37586039040402441 0.042437487980110378 0.33504153499040246
v 0.035023695050507606 0.024515981968097421 0.16904278404979242
v -0.50765649837446636 0.059795957737877298 -0.063459740972218751
v -0.3203566572487625 0.050156109340266257 0.43324366263486563
v 0.024616239748842646 0.027835715404409701 0.23191563363856285
v 0.21262076815349562 0.050280470930493718 -0.010469400962733863
v 0.23734466227255246 0.023553508412489935 0.11294484747373768
v -0.29150436624518594 0.0793628345495693 -0.11381361839605338
v -0.015854302333522353 0.062132079848811708 0.21934454271496337
v -0.5917508880722645 0.078819500005345822 0.57586612009623817
v -0.087732252802465951 0.045260633983616447 -0.11380232766294295
v -0.36225258787018266 0.07663298109849577 0.034221011173331234
v -0.62854987807558049 0.03787049325733486 0.3987740055930295
v 0.12306497717630753 0.026895918211351736 0.0089504220686710267
v 0.13689717060860748 0.032718616244851124 0.39874619324561544
v -0.23534982779297764 0.079228445263423652 -0.0098919393044401196
v -0.67443042164489853 0.053662613349080762 0.48217707540146348
v -0.69934991101495603 0.038377254497796172 0.16849123476610109
v -0.42342040461017977 0.070026177376796533 -0.22651028599345438
v 0.25636894882154876 0.023144710495179875 0.24750684348285851
v 0.14611613197497136 0.025899055400606507 0.35609435480941587
v 0.24700743255766303 0.09973899421649314 -0.02396879065322945
v -0.73229694522151645 0.10886153423561899 0.088808823808716672
v -0.72796062117152927 0.070131923117274383 0.20184853262252428
v -0.31765017970875936 0.20680374634657064 0.47554569823838178
v 0.30333168483961576 0.11316229864958446 0.43390883210689418
v -0.55423124890571851 0.033837762718085536 0.22865950880518052
v -0.45928188647624629 0.12033750919687272 -0.15280548459568258
v 0.18400999762665912 0.99647244786559652 0.36867726998319095
v -0.68407138917415877 0.1313177441342657 0.037043953903895803
v 0.12998951689572646 0.16667909588732258 -0.21269849129541712
v -0.63514062606440969 0.84575033456116611 0.49252878264843591
v -0.59939033338561576 1.2526836357113191 0.062937602588186772
v 0.031455231594288112 0.07360397347992452 0.42414666480793339
v 0.36400417028466886 0.031137949392657592 0.16042196627022615
v -0.070012639911279637 0.070016566161463387 0.23224853254082581
v -0.45822914264225167 0.045997495683289299 0.16207467296511055
v -0.34636952558006207 0.084453462654994968 -0.061882250884014577
v 0.070791118698892305 0.04392078783363923 -0.084115614132101321
v -0.03079284433504384 0.03185333801019908 0.56517517241044002
v 0.32441740999619756 0.05317541691402887 0.049711599607523825
v -0.026088510488343427 0.038920333489787129 -0.18253913443387257
v 0.058283644267416765 0.045651254669132328 0.54782345049736925
v 0.048049022030273746 0.036146432115096667 0.29279333938794189
v 0.12238849161345487 0.08873269738332118 0.5371318487229958
v -0.54830930001779976 0.036155497159823122 0.53137115315196559
v 0.059669454028581252 0.023127423601630618 0.51992368539399914
v -0.24844483821827842 0.083189230161720473 -0.10096682503389542
v -0.65441739837785939 0.039666055666210058 0.0052502038050881361
v 0.24337801264834444 0.028566143177090272 0.33050002528273914
v 0.057618559445599966 0.025764570474396432 0.12822208218698408
v 0.14672529466243273 0.026958902632145211 -0.019394027274561621
v -0.14583656706054013 0.049164681671032946 -0.20086963819958045
v 0.081488565669166846 0.039376951744221067 0.32327784440170193
v -0.14170669650382717 0.048483052567333179 0.61371180806609071
v 0.48786792949293939 0.08461043528636647 0.17500338277427266
v -0.34937767231128186 0.06214974424854542 0.57082712168345395
v -0.66099496403403368 0.087090732963306397 0.3617146138222857
v -0.58025087682097287 0.037380251806530353 -0.02197794121045769
v -0.36104782437218647 0.030881490893010614 0.3529750116311603
v 0.0269054496851313 0.12172251991043738 0.54848663398955388
v 0.32793021052472376 0.032394469928632735 0.25130427882254752
v -0.2201559181657631 0.99795037178978818 0.13095013432697949
v -0.11001173680731238 0.97136606524966596 0.40501024226747045
v -0.50453569124436382 0.040311800399118289 0.26714461234925985
v 0.45714233647747715 0.14470246851386687 0.38338741787632163
v -0.58040941696471859 0.10849929751032425 0.57373936656524438
v -0.20243520346876356 0.15666655047435829 0.62362877130514061
v 0.23868623637636241 1.0024313868737893 0.17549347178884944
v -0.50393900064260699 1.0220815650661383 0.044250248510754868
v -0.64898481827722998 0.1479486640742845 0.41415699390238808
v -0.32389281017816907 0.92964724244215602 -0.027313547053745342
v -0.23843752001400825 0.91970076812895496 0.40805281696653856
v 0.30775128251588546 0.14359496011264825 -0.017103171011671432
v 0.05282733762023703 0.89442707773449892 -0.11454207246132299
v -0.54586246226222868 0.12929656287171193 0.29520392851981497
v -0.15922056395113929 0.79097029941640173 -0.15590102566552419
v -0.6692341727936536 0.97126312225628986 0.66472145209137468
v 0.2753641105383528 0.94499942847900431 0.029756346486428369
v 0.085440806140472281 1.0522128381842366 0.1345352386984689
v -0.73126797810655286 0.89142106697276058 0.019188362167431867
v -0.36214499489749513 1.3649327216869782 -0.038800241471976159
v 0.19017111741564072 0.95144136482603736 0.42149917633303258
v -0.64341662194744409 1.2716712924309823 0.50150710406881382
v 0.16679535095806605 0.55771125848655523 -0.24937375280558169
v -0.78558295629477515 0.95916738064324658 0.64694489960272039
v -0.41988220657434544 1.0249635444286309 0.29908028361786049
v -0.24092401585847575 0.48018088321070107 -0.33581057384323398
v 0.20560108227395582 0.35454112852115494 -0.23724683273521829
v -0.46175385528038554 0.58916311068258387 -0.14218605779081089
v -0.46755556402052528 0.89392617744171687 -0.079290919735906615
v -0.71770176370194361 1.1792178536731091 0.016851740430574316
v -0.49516362165028444 0.24108734523125164 -0.025223000315046613
v 0.40861739688501514 0.4492876732082548 0.46174099718893802
v -0.71689000758116417 0.41468266084252753 0.4485811093632398
v -0.74899042474313127 0.8028400626978297 0.48606822148144485
v -0.88138498149562117 1.1287265465567324 0.14769167410791573
v 0.087316237299351687 0.73500015226998761 -0.16177439615830277
v -0.16903176097815095 0.7164485105506545 0.54486211539774476
v 0.42442954939645688 0.79276304211103177 0.40019180687364991
v -0.87696178505997691 1.2550120347699951 0.16856201258905393
v -0.39347751699710021 0.042327252347492121 0.1808106550874716
v -0.31204053605958282 0.030604839138550107 0.25490257640586711
v 0.11769625655757249 0.05619632605100975 0.39636616843257055
v -0.3180092946340719 0.033549926628542996 0.30987509744534392
v -0.30228452489453844 0.069810300260157609 0.40477861853576924
v -0.36948221223645855 0.04460532602928579 0.25508381496090932
v 0.0084264449888574351 0.078584525415315853 0.029504850897881477
v -0.38167020278420366 0.03053944190784233 0.13314884399848539
v -0.36634861762610532 0.054183308576215686 0.5497277004289961
v -0.40435534371571963 0.062933512895540333 -0.0027967369511337661
v 0.19847643187367336 0.034182208323398057 0.0052699378965953177
v 0.2094930380787165 0.090312366739583372 -0.12559668090126649
v -0.48735245445025088 0.034642568570119658 -0.053234442554541787
v 0.083043342929709538 0.038053074142036972 0.010037924734450315
v 0.13514655554685343 0.05318484050905644 -0.17001447356251148
v -0.73755244889314642 0.04418050989418517 0.090246098312073364
v -0.58270380809715971 0.034238796626589928 0.09809833667341239
v -0.42232654847658918 0.034901212595525762 0.068671235684262671
v -0.4907790354111195 0.044015803479088206 -0.098083588486883894
v -0.61038107133454289 0.034908875462145494 0.2802826368495957
v -0.71572291067111449 0.037912595203567295 0.080100329863468586
v -0.30703736234402373 0.039534561192162664 0.2031571388821371
v 0.036894743749754266 0.069690030045709242 0.037029593246757093
v 0.10737149634783749 0.031306502378251333 0.097658955138167497
v -0.50201844383255556 0.063004387602947354 -0.072744871328140892
v 0.32346273316082219 0.056248798958489096 0.31673209746503045
v -0.27994494622221489 0.068301783844252381 0.35298790700560317
v -0.17432060175647848 0.078637397214353741 0.025213411679135773
v -0.20293464753944709 0.074085945283199409 0.12767072793080458
v -0.46672730052839928 0.080159752116565383 -0.16616367018716074
v -0.284050764849824 0.036139627584922819 0.61220249950731653
v -0.0086867636835569178 0.071258111665539636 0.10350811475726462
v -0.084491518544289879 0.030554976748221177 -0.15753534307080455
v -0.29779692624942727 0.086969692387302122 0.61899124127462335
v -0.68470881890291391 0.043857829095087918 0.23380191279905987
v -0.72512686718852137 0.054055459053305194 0.047716793158697417
v -0.21672276617012742 0.063373498030881201 -0.22207681194959028
v -0.36305170483456661 0.030652555461852169 0.3381108896602007
v -0.75010921745818226 0.071183835749074317 0.10757290198623946
v -0.41725715634304233 0.064901499186314715 -0.23020569251601503
v 0.17686774226403182 0.031382831469462719 -0.072092732761305692
v -0.3436761889576086 0.046370091182022642 -0.24415518404933209
v -0.66749302145447753 0.055255177205349275 0.36560449750038276
v -0.072174745733619178 0.048368680941470545 0.58951538072024212
v -0.25674722317200488 0.068850369937919556 0.22992610454945828
v -0.54729450606852803 0.033192438551611483 0.18281950811681719
v -0.75280307732316643 0.0589114697625613 0.17266355528810789
v 0.099218658575127405 0.071175751437277557 0.39265225220234312
v -0.50751750433620357 0.032213960535791904 0.35710888422224518
v -0.6942408933438956 0.047126891476033224 0.020688404854401262
v -0.64651655500530303 0.064360565535885525 0.5353871567032471
v 0.39783681821919875 0.045208015827230504 0.19932632412700901
v 0.28743387611748744 0.065763609073890186 0.024868513298237579
v 0.2799405114175248 0.021095402286379572 0.18280947181433152
v -0.52708851690997438 0.038828780446313743 -0.046465831667837867
v -0.22171435627252548 0.98500117663635389 0.28474375962433696
v 0.033702436517135094 0.023212647880865293 0.15707680070781591
v -0.40398158579836396 1.0006924502657648 0.0045445873601485534
v -0.31811898247904574 0.11469249107090411 -0.2386821345172605
v -0.19894616872840007 0.15470455740029046 -0.22385460265311266
v -0.37614416343454232 0.14789351459243941 -0.2196252575451049
v -0.035170501069934169 0.98497319802561989 -0.016999625632634321
v -0.53874034189944242 0.17380066771093486 0.30010911558513398
v -0.32356762277106649 0.071478115290388847 0.088318255016304761
v 0.017311348971050248 0.070670360243795555 0.32511736690617987
v 0.036418070948545198 0.080604489640417804 -0.0063632712834805665
v -0.34413140379984358 0.034463859378447051 0.54200209447032022
v -0.41088375246555808 0.035262110589024995 0.50140934710694751
v -0.22483652700801171 0.031171856680066785 0.55293720251887724
v -0.064644257327873447 0.075819950047532544 0.078519842017403349
v -0.14576076867894613 0.072937837344288145 0.40176063615380014
v 0.061471558000721252 0.02452512186623813 0.083348352601109649
v 0.052397469887092547 0.065501244847170931 0.3269278017557472
v 0.073368998530880289 0.027397031272828939 -0.10824278105328107
v -0.44220158957539479 0.035649422080354855 -0.029929548113049268
v -0.25691971348728659 0.032673232505645931 -0.15385766128511913
v -0.34742357775986077 0.085898783700767325 -0.24381844550933862
v -0.35634295297471402 0.037510913762582337 0.25228674148941399
v -0.044616695576592071 0.04519566255819564 -0.19160655068915866
v -0.066093226991002577 0.080925570333881786 -0.081295711513104232
v 0.07017664833648439 0.058477766226305308 -0.18786019642566595
v -0.069401134861988331 0.075335336001262285 0.45270433052776138
v -0.15794439945588196 0.077222476422816586 0.47685541638442686
v 0.073785392768609501 0.078566101333349778 0.54414701551880906
v 0.27293976737224901 0.028956855010869441 0.28902831251962963
v -0.6287636109566539 0.038865258029113878 0.51718842591034986
v 0.070387473790342533 0.071291914278134111 -0.010165525982427663
v 0.07041153523305585 0.064223415964167974 -0.070003159843511992
v -0.13669088836572529 0.030577600009815041 -0.17117811461101601
v -0.68247534560511813 0.076407574598496203 0.40607245090028532
v -0.44572067118407405 0.036962755176993746 -0.19419613330264746
v -0.58836701277037429 0.033706663642643811 0.053781589342023303
v -0.22798735592302211 0.070306806597737692 0.22467671180308915
v -0.43325064788184525 0.032713465228782775 0.077712999631738028
v 0.19429589207958659 0.035592889970916849 0.18391684541575815
v -0.32595454692550435 0.029856099626319351 0.31092317171704881
v 0.13751516277970488 0.031337056669765828 0.10250580134543655
v 0.26694102041444978 0.076573036539540257 0.0078792200375165863
v -0.39948687290968793 1.0096742311890419 0.28378276099650118
v -0.63447997661703781 0.081242125033038487 0.3166650075340921
v -0.26884187914245494 0.053514166110294206 0.64195822933252222
v 0.10120520545642268 0.97591800380132665 0.4193805401762018
v 0.27277173565233448 0.063193716086198379 0.41576053176578603
v -0.36026158889635979 1.0186913641539832 0.09270112259732656
v -0.63830531578809702 0.040316693766086188 0.28529927905356828
v 0.25727954517206608 0.027831243256891989 0.072864245742390088
v -0.050871902473398976 1.0216594331773183 0.34525440830464149
v -0.56641894159045814 0.073700618126301576 0.58419936210681433
v 0.4035776137836633 0.08282247769227595 0.33223933506692055
v -0.22258717842259593 0.97102779892669688 0.3164984917444908
v 0.15691337572633912 0.096520844562349647 -0.18109346238269611
v 0.19311336907836768 1.0119866511634656 0.085984652019453184
v -0.043172754072994049 0.12786247117353183 -0.20049213616956163
v -0.036939636004646025 0.14301577427952811 0.56181334287934603
v -0.13065781283973524 1.0245074435881303 0.15915720140288628
v -0.40444585674746764 0.16779742450072824 -0.16063049748294125
v 0.30878036090228178 0.15071183599821197 0.44748297376933205
v -0.40006468363267872 0.19274272179482158 -0.047105664770620906
v -0.17788663544849806 0.91463178087121189 -0.056480714382329912
v -0.040140409439057556 0.95121797724346124 -0.047095456854523675
v -0.50564822680069954 0.18637045953266396 0.49563364245482527
v -0.48308217768926276 0.90537428393122232 0.43703393599620471
v -0.16701423635958323 0.18967972103813874 0.5717631920166607
v -0.47755016748176188 0.14601113820717482 -0.042830300627619639
v -0.15549037572108246 0.81033181139592059 0.52176024805624543
v -0.79524645610607281 1.0476740316448685 0.6769414109895715
v -0.24974324356383817 1.5677743135041882 0.033619869170587249
v -0.7880789355986717 1.3789771421788486 -0.15028084557020641
v 0.06684455679850923 0.85104863730788016 0.51563258270167833
v -0.86512299648155644 0.50667285504244364 0.27290997291213343
v -0.50333256181154828 1.005445385677002 0.47712311851400807
v -0.029108658362373033 0.50108203747090496 -0.31741668252979877
v 0.24740272113190784 0.23188080531541447 -0.21318835767891184
v -0.85850606632540061 0.9957721735252163 0.066147035457228429
v -0.28769470161993133 1.3954386799027401 0.049318929752070639
v -0.62404281423211372 0.50994828829136962 0.55573955127891228
v 0.10343363692764858 0.56502013263194339 0.66851733457490214
v -0.53520038784873147 0.74220582561681325 0.54997338928288619
v -0.11511229423019377 1.3650986156526905 -0.0042371812334362057
v -0.73273421408441641 1.6212210288902413 -0.47936490921617775
v 0.42007404730450737 0.56054660658311195 -0.10553813934163432
v -0.71559680512314494 1.2788646645649016 -0.39606298788489047
v -0.11986165826970271 0.27129256538287722 -0.29637608339299459
v -0.38593087729757625 0.47017957312725467 0.53970217632310458
v 0.528867777488227 0.44537136863090937 0.11950880404841979
v -0.58581877561703299 0.26314409861852511 0.20061602460946384
v 0.48175998849615043 0.38034614885138818 0.38706071536056214
v -0.3192067286937727 0.043973951954705603 0.36448758134382264
v -0.31063718898192705 0.065612542635432494 0.40305012918959382
v -0.29853089805952099 0.06628639529583838 0.3671312151922333
v -0.3842601945420332 0.056739857528315174 -0.080890050446676895
v 0.0039884617533082504 0.036526166026505491 0.17121426823853073
v 0.0041451937822192539 0.037747260385350145 0.21354533485470673
v -0.26301201881435898 0.065508757026121134 0.24383971272827312
v -0.31051654115708494 0.040645197300798117 0.32146282969772089
v -0.2914324135348384 0.047706103445998307 -0.13563225172320978
v -0.38561384905837587 0.042857106193137352 0.34076245875358591
v -0.39093385560284044 0.049710532610624449 0.21087982362506977
v 0.10693224832519589 0.064746065041033529 0.37396369997302675
v -0.40419504956422586 0.031525598239200134 0.10445830242650289
v -0.30341111568866191 0.035277746231567361 0.26330816562859877
v 0.10246397561228032 0.03732250202833462 -0.024494454458236156
v 0.23253587147136912 0.027805250407448908 0.36877243074337923
v -0.38026306773351959 0.03209444075081614 0.40645387910638403
v -0.46939334652184245 0.03692891171149932 -0.1481013107149716
v -0.38474636576233967 0.046031577663185809 0.26703741973918121
v -0.30413766933508263 0.051255727047400855 0.61362895424599628
v 0.23358382386053905 0.0809002619178677 -0.029049324383425532
v 0.015283298584958967 0.061476195497494231 0.083145703554541414
v -0.28193778376840456 0.07199937542610417 0.1450336763204382
v -0.37893866058416803 0.047597180070014233 0.53366049006699356
v -0.20650234304785428 0.036211239874815504 0.54120654487581399
v -0.3854659038464846 0.031958517451278395 0.1747523373572234
v -0.48036384526704323 0.059975192476941108 -0.15317836593561349
v -0.2027467054060253 0.071047807192250151 0.2186544371396357
v 0.21016649729729531 0.029306434573648298 0.045104507486626436
v -0.00084568028599709669 0.063121657356023389 0.26357299267449236
v -0.49692744843128961 0.043717575453014891 -0.078942110899282755
v -0.42119603593772875 0.046155680747487188 0.024288551703902768
v -0.39164540698840955 0.077630994201353332 -0.013397641836892018
v 0.23128601866215831 0.032380023892768964 0.1500829331626358
v -0.29402130973411794 0.031806343963435929 -0.17526233608128175
v 0.022864808416656484 0.030279047560143449 0.12019589972413348
v -0.50461094601470213 0.033151637704251308 0.084468748191196347
v -0.38968278920399591 0.063300786680361917 -0.2425821482258044
v 0.20278015706652128 0.047219500941908084 -0.041784359688684818
v 0.11567779167728531 0.049885938262921592 -0.17653047938896338
v -0.077895886776314982 0.070437312636987381 0.35486198681535963
v -0.70824309235431726 0.044311361542514652 0.2041002020412557
v -0.33896428949389301 0.080965076154424456 0.016429049415242793
v -0.20947898803105741 0.044859311212598986 0.63708661890639717
v 0.12536032626166613 0.027673578438421793 0.42640242021150093
v -0.2775246171273455 0.090467981105517126 0.63454870270472763
v 0.24369476842759527 0.037884620251693729 0.20431511448493822
v -0.48859439903945678 0.060690984854620003 -0.12446273865046416
v 0.19126564977924465 0.049662967277145885 -0.099003141181566737
v 0.015407005843593861 0.036647861550822745 -0.10533005669369563
v -0.51127528764665475 0.080177041908417054 -0.048326708697106022
v -0.58060468990167591 0.037730209076485791 0.42935975197849335
v 0.096303048542149827 0.031489224835768624 -0.1580105304695282
v -0.72748633811703911 0.079470056868238603 0.065253721540902587
v 0.1071105566646092 0.035507617151455742 -0.057825512768669568
v -0.41316996397290301 0.036348179744229991 -0.1023006653383392
v -0.066836599930887017 0.086283500017449624 -0.20400072153901858
v 0.24320955127820751 0.022390216004070412 0.26474378104924534
v 0.10859638843037445 0.033330720236800511 0.53440624349100907
v -0.59889406694405878 0.069223224229123942 -0.027515331452075013
v -0.12653708252531204 0.072679158652816489 0.14935723017511771
v -0.69510099388089053 0.080612842177081159 0.23614406295415952
v 0.0082418155557976332 0.029739997231117556 -0.15206984378590316
v 0.039826889152769593 0.026867230970396543 0.26124011181499951
v -0.27727820813057391 0.06555743528066689 0.30153096190492706
v -0.17047263838275736 0.083068701981760792 -0.081175305713180254
v -0.51393206842055084 0.036709667785383024 0.38798540764729161
v 0.33822432672260627 0.077926734255341953 0.34446020684483086
v -0.70811264289412157 0.072085805984408502 0.020765278430873901
v 0.19477554777320394 0.024442459393460896 0.47461506633861372
v -0.68342235304851395 0.060261026960033964 0.45074328086251747
v -0.030186618450582813 0.071543692902048803 0.14341106161679013
v -0.41303278168336338 1.0034989760633581 0.29412844190442389
v -0.34988477588244588 0.033055311968192884 0.30032106593096369
v -0.10906036185198249 0.027924160487299184 0.53524523570452986
v -0.10591938210020285 0.032147074319785397 -0.13607544069521985
v -0.48529036991653662 0.048915676397015148 0.56106846803487476
v -0.74429433509989695 0.04488461862014765 0.1031555578612455
v -0.072517120377978569 0.039997077097818412 0.58691668703012922
v -0.6396440520917821 0.036149376638811563 0.23312771761437109
v -0.25556340887500278 0.045465943411974137 -0.22712412294494394
v -0.67623888580266944 0.036149428578095666 0.035728120552890784
v -0.35746744576435624 0.032794271800644474 0.20437602370013136
v -0.26956369643872724 0.98348348530006713 0.28427381426200155
v -0.27345659409899425 0.98957336191245671 0.12352991432738926
v -0.35081868855897552 0.11253193347007816 0.56227483240471088
v 0.22772829772354081 0.023792487636133362 0.07265641286952064
v 0.39942801008295192 0.060895093980745191 0.05573269050000472
v -0.21862126170865157 0.11388356919010713 0.64568642058032133
v 0.13130096255430249 0.93649115718464082 -0.075156720204202332
v -0.72238076945465723 0.14350193228452268 0.16125966761104052
v 0.29385899328234316 0.17235572509985841 -0.083435055573236508
v -0.19113574554006565 0.74412962857079601 -0.19465521691842572
v 0.52456091717771391 0.45999283276504321 0.22930657140960617
v 0.067950408275954596 0.33842805715261493 0.67090720363156942
v 0.013837559880953454 0.068939912952708279 -0.086492098051634533
v -0.13839358824281017 0.081444030123933669 -0.032123033990540756
v -0.373431422879685 0.036064423818716607 0.51822576862652714
v 0.082366218985688119 0.028576682802908739 0.30866550981859253
v 0.0018078300559914336 0.041934917532053445 0.56479588019630289
v 0.01965133997125014 0.039488889867933141 -0.18322629211747304
v -0.26900045081041341 0.074299756241685999 0.44055870837458877
v -0.37705509067676896 0.0338957878287535 -0.1871382424594332
v -0.23587685018601126 0.031996101134559633 -0.19278700766539844
v 0.05020033359530237 0.07435058198537986 0.40353059465547109
v -0.060737186162808598 0.079385272900666673 0.011381983446595212
v -0.16188175287979634 0.071624156618492835 0.18784509923121731
v 0.45315135517484012 0.072793496383386946 0.23073270021529016
v -0.38269746077014793 0.080998359031029185 -0.010329963588034407
v 0.16024326173342474 0.021837463422854822 0.42782892118963201
v -0.44746297995912393 0.034561577949838801 0.028921499492161003
v -0.20485386835714892 0.031606985739648763 -0.17874993876174505
v 0.18610275189996139 0.079133225136343938 -0.14620472142538457
v 0.068172210038968922 0.074929896614681316 -0.020994279316538703
v 0.0040694791956270276 0.023342498275439993 0.52980547228228292
v 0.14169491097636755 0.048560627817515772 0.52974887916480684
v -0.23551937525257821 0.05533238877307136 0.64436850917564314
v -0.026360602853352639 0.074668916245295008 0.44074901071885231
v 0.16599340910838203 0.031589384396198308 -0.10631586620830863
v 0.054054812651382095 0.033911437800126738 0.054806313702458538
v -0.044753686020146816 0.070392257349205165 0.34979034964523165
v -0.30754355247791898 0.081310198470724002 -0.031810636251166639
v 0.07045952064833616 0.021357026113763312 0.22561869094408299
v 0.18281774395157138 0.035504113586459073 0.51372894770573763
v -0.1323088480501885 0.075007579199009036 0.47544915861197318
v -0.27993434280262192 0.033383522443710317 0.53202580162615476
v -0.45905440513523504 0.073730451189485249 -0.19863000238770409
v -0.16688033404405905 0.029416064666095528 0.54684524586683669
v 0.29461176207598683 0.02833868189100722 0.26464280160285569
v -0.32301972831813941 0.052558703158977517 0.60257613371115715
v -0.14442049815757049 0.077039544166811927 -0.10242790867885093
v -0.24529095298698603 0.069416053001769049 0.31920582131069336
v -0.37547214919763272 0.032669661900396919 0.13048043006853982
v -0.65028780613825732 0.047493013704385766 0.52203127609304101
v -0.23832840713257719 0.076675938321307049 -0.11613076757424007
v -0.65874961464160886 0.035244250587015115 0.11320855707228537
v -0.35477107749931075 0.055555302136760451 -0.24927935270661708
v -0.48905444356306849 0.047480300207227245 0.17247727583325864
v 0.33021281420251392 0.02814543420454841 0.12470687436035037
v -0.45629786391981031 0.035531243812103749 -0.16419951845222192
v -0.6458578198206093 0.041471228830075917 0.33510803905752262
v -0.34102325635955122 0.027084195768305255 0.2089597292323995
v 0.039322011562055545 0.065257075020828489 -0.19386796043399795
v -0.64950321222520202 0.049594083574630576 0.28229067463885238
v 0.14223609966040071 0.024151585231124397 0.29036927823095032
v -0.6410272968908769 0.055431604326584533 -0.011556507205280632
v 0.23103543383949737 0.036108535330295788 0.44208513559402784
v -0.38234128065283873 0.043861883698737524 -0.1075677271536559
v -0.13737804369739939 0.083215066996022602 -0.20805631179060222
v -0.50503611013648708 0.031446686133227764 0.1423350120693197
v -0.17057873358591891 0.036108827721500959 0.61778444687412815
v -0.34840281883305341 0.032591665487835209 0.4579266411253578
v 0.22930955132552916 0.053275391319844115 0.011193439330180511
v -0.52261900753044588 0.03411703955540922 -0.032349275203453695
v -0.025896877841508154 0.068292953665267386 0.22732916507746448
v -0.035599351215417921 0.072118499118670035 -0.089765401522744689
v -0.11584233909729194 0.039147628318198402 -0.18748877338149927
v -0.56948023706897632 0.038886061241271731 0.55676979926132997
v 0.25514638497039904 0.034301858397445179 0.19059243566085518
v 0.11185477580405186 0.029500760480642374 0.11511215462096057
v -0.44322254974861247 0.037633197936021302 0.5295735460162756
v -0.67235641255723833 0.041984424298783712 0.40721874502837413
v -0.54998823002311437 0.06163803141742305 -0.047102302360636464
v -0.023364676238073055 0.093316772200929307 0.57095231654427891
v -0.56745528226274333 0.03198540166573649 0.26548570823481987
v -0.0080611852455978964 0.99510660684417229 0.40019313243090709
v -0.35906396354862957 0.99970623170131789 0.31524817370943242
v -0.46382444725853889 0.99996175270255061 0.0006821137957959821
v -0.2148707340968202 1.0030017590260822 0.23077100827316779
v -0.22357082434430425 0.95524031277707433 -0.004643027506139802
v -0.30792183554906 0.1920660138972263 -0.17981582525338777
v -0.44473053896742887 0.053288357368667195 0.17712247491531849
v -0.11407039061316764 0.1639558988849325 0.57518819682162758
v -0.66915625988748995 0.084572479727030303 0.49800540513835367
v -0.13739073068390228 0.99326397326152582 0.045791644943666568
v 0.2227900741573475 0.089331066515156737 0.52106306599120444
v 0.074229152505147111 0.028540686250257477 0.46309427864253067
v 0.54848181696650666 0.14283249780935883 0.29935744974644701
v 0.22098374521960842 1.0079246415995418 0.2863639824942632
v 0.42936781202692342 0.14891105250161465 -0.011718950187851638
v -0.56983275341846151 0.12743279641285896 0.29835126766911207
v -0.020388696619705132 0.16101856756273131 -0.24304359961046199
v -0.34642242906107273 0.86987039080183137 0.4483495889006554
v 0.1162063985366919 1.0249669063906703 0.052287179521657672
v -0.61627119897195881 0.94935281838521424 -0.00068017600923563244
v -0.087965357667981386 0.93909829273895562 0.45697663724839865
v -0.4523018452708451 0.17259956042085614 -0.041796636179218874
v -0.58989064291555338 0.95925801523157472 0.55383305665140825
v 0.066726272692355162 1.0422933899042377 0.32195172325796301
v 0.2012984742584035 0.16372661839234334 -0.18288330773697012
v -0.26856167108060547 0.1773343434411252 0.58110246302984536
v -0.62686997481043505 0.1922070522164181 0.12270380103465728
v -0.49497163609745753 1.046130413531654 0.066365444847714672
v -0.83847270310979627 1.0730039948218333 0.63851850180119218
v -0.029410473267987187 0.83802068035938393 -0.14887765287391935
v 0.10079774879530692 0.40200829708363084 -0.27903745772146132
v 0.38555581086066393 0.817110903065148 -0.014785499334322823
v -0.66822176157224611 0.76696151600535434 -0.077419445839635032
v 0.58094277041995823 0.28050014730065609 0.0025949764175102808
v 0.058475289015568567 0.16609799506952949 0.61809696871495445
v -0.47326016003672122 1.4308392662499194 0.050661029089983385
v -0.45178351445476994 1.3114873201307067 0.19378904388987631
v -0.37663164923627279 0.54924568042507593 -0.14348108350131547
v -0.74627854702526852 0.34661306147761073 0.24189975757688426
v -0.02649772333916528 0.67293150529425372 0.65949213726761902
v -0.6824298326746181 1.5365613790177586 -0.37154881100997483
v -0.77661941317593841 1.2697470001703186 0.069340262235558198
v -0.45010694806889828 0.58746917556124323 0.55890786551879756
v -0.44086491814178047 0.14421920291904364 0.5057789689996256
v -0.63039308153806928 0.3554526045292371 0.016732120143735974
v -0.10164330592674965 1.6090178803564461 -0.19589621910091248
v -0.70442462513509208 0.86047993735997286 0.63899488989180575
v 0.40578440575748026 0.19264385202201839 0.39997197290615349
v 0.22568182982629126 0.73094965293976499 0.55411369264342802
v 0.35454260388639219 0.74219330655187066 0.47639966312312448
v -0.62812549221998004 1.1239515174793753 0.52193657547632666
v 0.29373177423509839 0.29468244212170625 0.53724298813506655
v -0.83218558233319972 0.54254287113269006 -0.005841690381436746
v 0.040523539768960365 0.68965722675159447 -0.26024210065907094
v -0.17022807445865537 0.50295313760148697 0.67713285418450697
v -0.90650422446147183 0.86789500715946055 0.22177511433225008
v -0.24947819930090281 0.18205433451155348 -0.23142015524257262
v 0.52422145928382635 0.60580511399669057 0.018355957971553798
v -0.65103775821240328 1.5011695574733654 -0.52941714711382504
v -0.30672936924752914 0.06389499769690006 0.37871923917295669
v 0.016155195687862892 0.028820420928886856 0.18281010267483275
v -0.28971557479283544 0.066519861283971748 0.33672158148326242
v -0.27342862410817687 0.058577202007109912 0.23237720021324104
v -0.37972500923107011 0.078384484194908885 -0.053255201716296191
v -0.38686388248656822 0.044187364859237278 0.29819228770553036
v 0.12648936626165047 0.043619872697345061 0.37206637586775271
v -0.30275256371659215 0.036306026300974882 -0.14978248655506024
v 0.014557439281448032 0.041049952439994195 0.25594112920547957
v -0.26570436059157804 0.068367136275998816 0.18585314645234829
v -0.30992441463274578 0.033912733421160031 0.58026059861949009
v -0.57674951471502311 0.031535979550955141 0.26424807721567078
v 0.2095123230540698 0.02300476588531946 0.085263413163624791
v -0.39228241394419283 0.045889768593243403 0.52711586157638679
v 0.22231302205295139 0.026671961549478075 0.40477746368270534
v 0.21989124178223901 0.08131424944054777 -0.062910564107203318
v -0.3235127468551805 0.089340367013113736 0.60607305972172787
v -0.28871782071475011 0.047908129446845804 0.62414943836667169
v -0.42273282853143235 0.044345389391891657 -0.02009277163213441
v -0.27925496739573941 0.06111537663138529 0.28197962875132576
v 0.10368314623287751 0.06498386575117783 0.39952173989954726
v 0.0057401527344070726 0.074239506344335626 0.065995656110137774
v 0.026387655912900907 0.033979184299849051 0.099399064974969753
v 0.11696541407045224 0.030480109623565885 -0.029405254453352035
v -0.39469037527242939 0.053779492678174078 0.049739118419085543
v -0.38871998921101864 0.03146514613282661 0.35899054094167115
v -0.17961784838043721 0.06979122101860738 0.30710059959115993
v -0.47975577692477533 0.045227068670321016 -0.14325213351868515
v -0.72833397903217112 0.040865784741664794 0.15879842989740961
v -0.40820292260341096 0.039227637475519363 -0.22034418362523614
v -0.36148582268658963 0.047744814970962141 0.23479293138130042
v 0.10823185849672222 0.022816778426953191 0.45378216765864865
v -0.37954963850549206 0.029236050086804244 0.16567981217165589
v -0.015242241104163399 0.066056448203013096 0.13608697488562768
v 0.0021685125131043113 0.074034892399507335 0.42839949286329393
v -0.507462558108421 0.039967905627162528 -0.059720147006931505
v 0.023361670323114019 0.065661858930896266 0.30250059776169641
v -0.71348012587674725 0.054964913201811322 0.21753520837534138
v 0.11634092571972955 0.080198803433027419 -0.18103669197305319
v 0.18421703536535181 0.032353069683379455 -0.025925338494398372
v 0.1328648477470416 0.031694547367666671 -0.14489348539244837
v 0.2157160989638757 0.04140760541723959 0.49325662970247275
v -0.32307881768095442 0.03226925216200098 0.49724837709069369
v -0.22641540348842096 0.072604042964612439 0.39992448382948087
v -0.72247241500805304 0.043179787525393289 0.052827133192720248
v -0.073205701180653227 0.082398768825039451 -0.073584552686678531
v -0.18629894279197617 0.077084039023983197 0.47581884402154873
v 0.037688036930097257 0.033921119065333086 0.54827879719949735
v -0.59839260818023121 0.049271000846515221 0.56517008182637252
v -0.2916286604097717 0.048955464759847522 -0.23562830540260915
v 0.093513558223760743 0.024313284161675889 0.27514529565125551
v -0.48333605698148974 0.044831710773411172 0.15904035089670718
v -0.33171995788185199 0.031555666327733475 0.18320671807329059
v -0.50076446322140544 0.087267979054248032 -0.049618901871587406
v 0.11910666613703348 0.02319535516405383 0.51621903339985531
v -0.31679942675894884 0.084237221687598701 -0.10182682505208598
v -0.33998586066057379 0.038755994788784859 0.40675729267185795
v -0.19915680026329746 0.075726797053729283 0.06460517939891737
v -0.096589706545989973 0.076022324017100892 0.46270441715012606
v -0.093706598667182811 0.069312209899878324 0.2544632228061946
v 0.11180447542402977 0.03091240406739923 0.33954867899801822
v -0.48631440743250909 0.083777069271184695 -0.11598624030290025
v -0.68199856692216565 0.050780451957707459 0.41351078919653395
v 0.0076720118534682876 0.081994151060257398 -0.062687170256030045
v 0.10384757328323067 0.023157102185418856 0.073792982511117156
v -0.71212624530887358 0.084982697630235068 0.027993556058878263
v -0.22105549132656585 0.08317131942326704 -0.096102630237160577
v -0.42206162545163972 0.97639268300447402 0.34229229703511033
v 0.23244125966330079 0.037180095966088927 0.24293184678040097
v 0.026295959763626121 0.026650236453773984 0.48229109685408184
v -0.30065670659383537 0.076679926630320722 0.094978833538978125
v -0.074806433392874738 0.050731442902752895 -0.19492200952621444
v -0.0032216877337384732 0.031010756449304323 -0.11709809211084153
v 0.28920366502709638 0.064172632270331625 0.37234514479309383
v 0.18241351063496983 0.037247919167093753 0.096392455203656677
v -0.63441720362772269 0.038715107977037158 0.31486037051999155
v 0.34195441610390948 0.026073842986494802 0.18887587321787483
v 0.1997215716665669 0.023497778497838122 0.31236258660102967
v -0.52442658439471179 0.037043386053646883 0.4634883318699497
v 0.023143082666371245 0.064057290107742609 0.55529289586913022
v -0.48102151265516119 0.035301355217078396 -0.1004163924049217
v -0.6017427882149321 0.03529196038177284 -0.0099755458524548798
v -0.22260157712823397 0.031201737795084575 0.61538553528454443
v 0.091382434760065329 0.027567323143367069 -0.095116669152218974
v -0.36451345946488595 0.035625602863222909 -0.13961161786727033
v -0.75567369441196075 0.080170879780615781 0.16891203682261913
v -0.48565335897735901 0.05965798830373735 0.56685288387331589
v -0.12460482284141917 0.042776916832226945 -0.12210057287043249
v -0.27116808154092059 0.99551669227767181 0.23247516673402582
v 0.21946346453480131 0.06112247147867645 0.50974111159412749
v 0.42147786620840522 0.075921867776199442 0.30440388002507401
v -0.63831037185604744 0.068323057099324819 0.29028658967495719
v -0.40990481873747864 0.03296860496208219 0.38196815673501366
v -0.3097789252285566 0.97077541289015645 0.027617475914699017
v 0.53396804450852098 0.10517171306436519 0.14011531566754221
v -0.38651646778199872 0.14067723831952816 0.51519067847949462
v -0.64087746510043098 1.332339762458135 0.19772367247326197
v -0.97506696677319238 0.97007078427465909 0.30882125526624432
v -0.33910695009718839 0.040126247884656956 0.56908670536167749
v -0.3226171840929119 0.034359465099698283 -0.21499451886133877
v -0.35988943763538761 0.079593746271304888 -0.08082212917186174
v -0.1229687904023591 0.07528627062728295 0.080208823652987107
v -0.38979046420802593 0.075420583394442312 0.52518407904003395
v 0.089043334226555804 0.028312092875678371 0.028758895303505966
v 0.069404015684502468 0.03757801276792859 -0.1740210210086128
v 0.16414526712074648 0.023770676137359188 0.37613203053671301
v -0.19087227871735421 0.050973743957412256 -0.21301269792513966
v -0.065588927403225153 0.027092503062707659 0.56287110939451457
v 0.077703609341221738 0.070646303602523233 -0.042628943255770158
v -0.43201200904819659 0.030890885344512353 0.1499593668424079
v 0.18134308711559732 0.02274419273877305 0.071485544952204522
v -0.18983409223680253 0.034592878129213876 -0.14004414481263083
v -0.40741680454700724 0.036083565453676872 -0.2158120354594816
v -0.45766088541166977 0.048207622180711868 -0.19577854006721718
v -0.14047561599693095 0.069598783585117674 0.30282366320602661
v -0.23547670439655832 0.076934601679453929 0.46520153791945934
v -0.043007901035427072 0.026187208868213786 0.51123568522783147
v -0.23628308409532942 0.035470959194662373 -0.14329916206898322
v 0.16253584476666813 0.044606499112144114 -0.1423403234782108
v 0.085620601947766606 0.072219363927567976 0.36169421089372289
v -0.27967074058349517 0.07589827173683561 0.1166071735939581
f 1 29 69
f 1 69 587
f 1 356 578
f 1 364 29
f 1 577 356
f 1 578 364
f 1 587 577
f 2 96 582
f 2 161 96
f 2 229 697
f 2 357 583
f 2 369 600
f 2 582 369
f 2 583 229
f 2 600 357
f 2 697 161
f 3 95 569
f 3 114 368
f 3 161 697
f 3 210 114
f 3 368 95
f 3 569 161
f 3 577 210
f 3 697 577
f 4 99 353
f 4 353 539
f 4 436 99
f 4 539 436
f 5 12 44
f 5 44 470
f 5 470 589
f 5 589 12
f 6 197 208
f 6 208 344
f 6 344 565
f 6 555 197
f 6 565 555
f 7 73 696
f 7 195 337
f 7 337 687
f 7 687 73
f 7 696 195
f 8 151 467
f 8 158 430
f 8 430 151
f 8 467 158
f 9 35 585
f 9 94 373
f 9 153 352
f 9 352 596
f 9 373 35
f 9 585 153
f 9 596 94
f 10 11 595
f 10 361 11
f 10 595 361
f 11 93 469
f 11 216 93
f 11 361 216
f 11 469 595
f 12 41 44
f 12 194 554
f 12 554 41
f 12 589 194
f 13 160 564
f 13 206 588
f 13 564 206
f 13 588 160
f 14 94 596
f 14 227 94
f 14 596 227
f 15 42 116
f 15 91 42
f 15 116 226
f 15 226 91
f 16 53 342
f 16 266 288
f 16 288 53
f 16 342 433
f 16 433 525
f 16 525 266
f 17 93 372
f 17 372 598
f 17 579 93
f 17 598 579
f 18 209 597
f 18 597 698
f 18 698 209
f 19 55 579
f 19 221 55
f 19 579 598
f 19 598 221
f 20 227 581
f 20 354 227
f 20 358 354
f 20 366 590
f 20 581 366
f 20 590 358
f 21 102 467
f 21 152 438
f 21 438 102
f 21 467 152
f 22 88 215
f 22 215 351
f 22 351 559
f 22 559 88
f 23 110 471
f 23 471 593
f 23 593 110
f 24 371 583
f 24 583 600
f 24 600 371
f 25 39 43
f 25 43 117
f 25 117 359
f 25 223 39
f 25 359 223
f 26 356 577
f 26 577 697
f 26 578 356
f 26 697 578
f 27 103 576
f 27 352 103
f 27 576 352
f 28 186 199
f 28 199 292
f 28 292 557
f 28 329 186
f 28 557 329
f 29 364 368
f 29 368 69
f 30 63 147
f 30 147 269
f 30 156 290
f 30 269 503
f 30 288 306
f 30 290 288
f 30 306 513
f 30 414 63
f 30 503 156
f 30 513 414
f 31 39 365
f 31 224 39
f 31 365 584
f 31 367 224
f 31 584 367
f 32 113 586
f 32 574 113
f 32 586 594
f 32 594 574
f 33 94 109
f 33 109 559
f 33 367 584
f 33 373 94
f 33 559 367
f 33 584 373
f 34 70 570
f 34 212 697
f 34 229 698
f 34 355 212
f 34 570 355
f 34 697 229
f 34 698 70
f 35 68 292
f 35 292 585
f 35 373 68
f 36 93 579
f 36 107 469
f 36 113 574
f 36 218 113
f 36 219 107
f 36 469 93
f 36 574 219
f 36 579 218
f 38 52 362
f 38 362 599
f 38 599 52
f 39 223 365
f 39 224 597
f 39 597 43
f 41 49 54
f 41 54 575
f 41 554 695
f 41 575 44
f 41 695 49
f 42 91 573
f 42 370 116
f 42 573 599
f 42 599 370
f 43 594 117
f 43 597 594
f 44 374 470
f 44 575 374
f 45 126 693
f 45 386 126
f 45 693 386
f 46 502 683
f 46 611 502
f 46 683 611
f 47 128 531
f 47 406 128
f 47 531 406
f 48 154 444
f 48 338 589
f 48 346 154
f 48 444 338
f 48 589 346
f 49 556 54
f 49 695 556
f 50 51 228
f 50 91 207
f 50 197 555
f 50 207 341
f 50 211 51
f 50 228 599
f 50 341 197
f 50 555 211
f 50 599 91
f 51 211 591
f 51 591 228
f 52 54 556
f 52 202 468
f 52 374 575
f 52 468 566
f 52 556 202
f 52 566 362
f 52 575 54
f 52 599 374
f 53 288 290
f 53 289 558
f 53 290 289
f 53 558 342
f 55 113 218
f 55 218 579
f 55 221 586
f 55 586 113
f 56 95 578
f 56 115 95
f 56 212 592
f 56 578 697
f 56 592 115
f 56 697 212
f 57 297 537
f 57 537 693
f 57 693 297
f 58 72 515
f 58 169 282
f 58 282 464
f 58 335 169
f 58 464 72
f 58 515 335
f 59 234 379
f 59 256 478
f 59 379 256
f 59 478 234
f 60 101 263
f 60 263 422
f 60 422 101
f 61 381 634
f 61 412 381
f 61 623 412
f 61 634 623
f 62 150 616
f 62 468 150
f 62 616 468
f 63 414 147
f 64 304 432
f 64 432 524
f 64 524 605
f 64 605 619
f 64 619 304
f 65 402 633
f 65 459 402
f 65 633 459
f 66 276 454
f 66 418 276
f 66 454 629
f 66 629 418
f 67 100 215
f 67 215 328
f 67 328 543
f 67 543 689
f 67 689 100
f 68 223 580
f 68 365 223
f 68 373 365
f 68 375 292
f 68 580 375
f 69 114 587
f 69 368 114
f 70 106 588
f 70 355 570
f 70 588 355
f 70 597 106
f 70 698 597
f 71 446 655
f 71 486 446
f 71 632 486
f 71 655 632
f 72 464 515
f 73 687 696
f 74 183 540
f 74 189 343
f 74 343 465
f 74 465 183
f 74 540 189
f 75 552 593
f 75 576 552
f 75 593 576
f 76 206 592
f 76 355 206
f 76 592 355
f 77 471 576
f 77 576 593
f 77 593 471
f 78 85 690
f 78 500 642
f 78 642 85
f 78 690 500
f 79 184 281
f 79 281 464
f 79 464 184
f 80 230 459
f 80 387 548
f 80 459 387
f 80 548 230
f 81 438 638
f 81 520 692
f 81 638 520
f 81 692 438
f 82 280 550
f 82 510 280
f 82 550 510
f 83 173 690
f 83 552 173
f 83 690 552
f 84 524 685
f 84 656 701
f 84 685 656
f 84 701 524
f 85 332 690
f 85 642 332
f 86 324 669
f 86 521 324
f 86 669 678
f 86 678 521
f 87 108 561
f 87 363 108
f 87 561 363
f 88 201 562
f 88 339 460
f 88 460 543
f 88 543 215
f 88 559 201
f 88 562 339
f 89 104 550
f 89 195 696
f 89 350 104
f 89 550 195
f 89 696 350
f 90 107 219
f 90 200 348
f 90 219 200
f 90 348 469
f 90 469 107
f 91 226 466
f 91 466 207
f 91 599 573
f 92 221 568
f 92 292 375
f 92 375 586
f 92 568 292
f 92 586 221
f 93 216 372
f 94 227 109
f 95 115 215
f 95 215 569
f 95 368 578
f 96 161 220
f 96 220 371
f 96 371 600
f 96 600 582
f 97 443 693
f 97 679 443
f 97 693 679
f 98 208 560
f 98 291 551
f 98 551 208
f 98 560 291
f 99 158 353
f 99 279 445
f 99 436 522
f 99 445 158
f 99 522 279
f 100 333 569
f 100 569 215
f 100 689 333
f 101 185 506
f 101 330 465
f 101 422 330
f 101 462 185
f 101 465 567
f 101 506 617
f 101 567 462
f 101 617 263
f 102 204 467
f 102 438 692
f 102 692 204
f 103 343 576
f 103 352 549
f 103 549 343
f 104 199 550
f 104 292 199
f 104 350 292
f 105 211 562
f 105 358 211
f 105 562 358
f 106 597 588
f 108 220 561
f 108 363 220
f 109 201 559
f 109 227 354
f 109 354 201
f 110 590 471
f 110 591 590
f 110 593 591
f 111 159 558
f 111 217 362
f 111 289 598
f 111 362 566
f 111 372 572
f 111 558 289
f 111 566 159
f 111 572 217
f 111 598 372
f 112 352 576
f 112 471 596
f 112 576 471
f 112 596 352
f 114 210 587
f 115 360 215
f 115 592 360
f 116 213 595
f 116 370 572
f 116 572 213
f 116 595 226
f 117 580 359
f 117 594 580
f 118 120 603
f 118 256 379
f 118 377 384
f 118 379 601
f 118 384 120
f 118 601 377
f 118 603 256
f 119 137 448
f 119 381 382
f 119 382 137
f 119 448 634
f 119 634 381
f 120 384 620
f 120 441 603
f 120 620 441
f 121 149 607
f 121 607 661
f 121 661 149
f 122 267 626
f 122 386 267
f 122 626 386
f 123 231 518
f 123 251 604
f 123 390 231
f 123 518 653
f 123 604 390
f 123 653 251
f 124 239 619
f 124 409 239
f 124 485 409
f 124 605 485
f 124 619 605
f 125 296 643
f 125 502 611
f 125 611 296
f 125 643 502
f 126 386 626
f 126 626 693
f 127 162 670
f 127 494 635
f 127 635 162
f 127 670 494
f 128 294 531
f 128 406 637
f 128 637 294
f 129 267 386
f 129 386 606
f 129 450 267
f 129 606 450
f 130 286 602
f 130 412 286
f 130 602 412
f 131 254 407
f 131 407 636
f 131 427 654
f 131 539 427
f 131 636 539
f 131 654 254
f 132 234 528
f 132 378 234
f 132 528 657
f 132 657 378
f 133 286 440
f 133 382 602
f 133 440 382
f 133 602 286
f 134 240 415
f 134 397 529
f 134 415 616
f 134 529 240
f 134 616 397
f 135 410 675
f 135 463 410
f 135 613 463
f 135 675 613
f 136 176 656
f 136 385 718
f 136 511 176
f 136 656 685
f 136 685 385
f 136 718 511
f 137 382 609
f 137 406 531
f 137 531 448
f 137 609 406
f 138 195 280
f 138 280 337
f 138 337 195
f 139 532 688
f 139 673 532
f 139 688 673
f 140 293 509
f 140 409 485
f 140 485 671
f 140 509 625
f 140 625 409
f 140 671 293
f 141 428 538
f 141 517 676
f 141 538 517
f 141 541 428
f 141 676 541
f 142 180 665
f 142 301 704
f 142 624 180
f 142 665 301
f 142 704 624
f 143 149 706
f 143 232 607
f 143 421 621
f 143 607 149
f 143 621 232
f 143 706 421
f 144 257 658
f 144 442 257
f 144 498 667
f 144 658 721
f 144 667 442
f 144 721 498
f 145 447 663
f 145 510 550
f 145 538 510
f 145 550 447
f 145 663 538
f 146 250 512
f 146 264 418
f 146 418 629
f 146 456 264
f 146 512 456
f 146 629 250
f 147 414 269
f 148 283 677
f 148 434 669
f 148 505 434
f 148 535 283
f 148 669 535
f 148 677 505
f 149 475 651
f 149 521 678
f 149 651 521
f 149 661 475
f 149 678 706
f 150 327 529
f 150 397 616
f 150 468 327
f 150 529 397
f 151 265 268
f 151 268 467
f 151 430 265
f 152 467 686
f 152 638 438
f 152 686 638
f 153 567 352
f 153 585 567
f 154 332 674
f 154 346 552
f 154 552 332
f 154 674 444
f 155 193 278
f 155 275 514
f 155 278 443
f 155 443 541
f 155 514 193
f 155 541 275
f 156 259 403
f 156 345 290
f 156 403 424
f 156 424 662
f 156 503 259
f 156 563 345
f 156 654 563
f 156 662 654
f 157 211 555
f 157 331 211
f 157 555 565
f 157 565 331
f 158 445 666
f 158 467 568
f 158 568 353
f 158 666 430
f 159 340 639
f 159 342 558
f 159 468 340
f 159 566 468
f 159 639 342
f 160 224 367
f 160 351 564
f 160 367 351
f 160 588 224
f 161 569 220
f 162 481 553
f 162 553 670
f 162 635 481
f 163 281 677
f 163 464 281
f 163 515 464
f 163 677 515
f 164 437 531
f 164 483 437
f 164 531 660
f 164 660 483
f 165 514 652
f 165 548 514
f 165 652 710
f 165 710 548
f 166 419 485
f 166 485 605
f 166 498 419
f 166 605 701
f 166 656 498
f 166 701 656
f 167 317 426
f 167 426 684
f 167 684 317
f 168 455 708
f 168 476 455
f 168 491 648
f 168 648 476
f 168 708 491
f 169 335 282
f 170 262 672
f 170 308 477
f 170 439 262
f 170 477 439
f 170 672 308
f 171 313 680
f 171 435 492
f 171 492 313
f 171 648 435
f 171 680 648
f 172 182 302
f 172 302 637
f 172 440 475
f 172 475 182
f 172 609 440
f 172 637 609
f 173 189 313
f 173 313 492
f 173 492 690
f 173 552 576
f 173 576 189
f 174 534 679
f 174 537 534
f 174 679 537
f 175 435 648
f 175 491 670
f 175 553 632
f 175 632 655
f 175 648 491
f 175 655 435
f 175 670 553
f 176 498 656
f 176 511 667
f 176 667 498
f 177 279 522
f 177 458 279
f 177 522 682
f 177 682 458
f 178 314 332
f 178 332 523
f 178 392 678
f 178 523 392
f 178 678 314
f 179 286 536
f 179 499 286
f 179 536 499
f 180 270 640
f 180 495 270
f 180 624 684
f 180 640 711
f 180 641 495
f 180 684 641
f 180 711 665
f 181 318 488
f 181 433 533
f 181 488 707
f 181 525 433
f 181 533 318
f 181 707 525
f 182 475 661
f 182 661 720
f 182 720 302
f 183 273 540
f 183 455 273
f 183 465 527
f 183 527 455
f 184 464 695
f 184 484 281
f 184 695 484
f 185 238 699
f 185 462 238
f 185 699 506
f 186 272 319
f 186 319 199
f 186 329 517
f 186 517 272
f 187 284 530
f 187 436 539
f 187 522 436
f 187 530 682
f 187 539 284
f 187 682 522
f 188 267 450
f 188 325 657
f 188 393 267
f 188 450 325
f 188 528 393
f 188 657 528
f 189 540 313
f 189 576 343
f 190 281 691
f 190 338 505
f 190 505 677
f 190 677 281
f 190 691 338
f 191 344 551
f 191 461 545
f 191 545 344
f 191 551 461
f 192 336 339
f 192 339 562
f 192 542 336
f 192 562 542
f 193 514 548
f 193 548 278
f 194 589 554
f 195 550 280
f 196 343 549
f 196 352 567
f 196 465 343
f 196 549 352
f 196 567 465
f 197 341 560
f 197 560 208
f 198 287 544
f 198 544 561
f 198 561 569
f 198 569 287
f 199 319 550
f 200 219 287
f 200 287 694
f 200 546 348
f 200 694 546
f 201 354 562
f 202 556 468
f 203 349 466
f 203 466 571
f 203 571 349
f 204 292 467
f 204 557 292
f 204 692 557
f 205 226 595
f 205 469 571
f 205 571 226
f 205 595 469
f 206 214 588
f 206 355 214
f 206 564 592
f 207 466 560
f 207 560 341
f 208 551 344
f 209 363 561
f 209 561 574
f 209 574 597
f 209 698 363
f 210 577 587
f 211 331 562
f 211 358 591
f 212 355 592
f 213 572 595
f 214 355 588
f 215 360 351
f 215 449 328
f 215 543 668
f 215 668 449
f 216 361 372
f 217 370 599
f 217 572 370
f 217 599 362
f 219 544 287
f 219 561 544
f 219 574 561
f 220 225 583
f 220 363 225
f 220 569 561
f 220 583 371
f 221 347 563
f 221 563 568
f 221 598 347
f 222 228 593
f 222 376 228
f 222 593 376
f 223 359 580
f 224 588 597
f 225 363 698
f 225 698 583
f 226 571 466
f 227 596 581
f 228 376 470
f 228 470 599
f 228 591 593
f 229 583 698
f 230 402 459
f 230 548 402
f 231 325 518
f 231 390 325
f 232 277 388
f 232 388 607
f 232 621 277
f 233 325 390
f 233 384 325
f 233 390 384
f 234 378 601
f 234 478 528
f 234 601 379
f 235 307 395
f 235 395 631
f 235 631 307
f 236 295 622
f 236 448 482
f 236 482 664
f 236 622 448
f 236 664 295
f 237 389 625
f 237 509 633
f 237 625 509
f 237 633 710
f 237 710 389
f 238 400 699
f 238 462 703
f 238 703 400
f 239 408 619
f 239 409 625
f 239 625 408
f 240 405 640
f 240 529 405
f 240 640 415
f 241 425 719
f 241 468 616
f 241 489 468
f 241 616 425
f 241 719 489
f 242 284 636
f 242 304 530
f 242 530 284
f 242 636 681
f 242 681 304
f 243 316 391
f 243 391 624
f 243 496 316
f 243 624 704
f 243 704 496
f 244 340 719
f 244 416 639
f 244 639 340
f 244 641 416
f 244 719 641
f 245 250 454
f 245 454 645
f 245 645 250
f 246 321 526
f 246 458 321
f 246 512 458
f 246 526 541
f 246 541 512
f 247 323 487
f 247 389 323
f 247 408 625
f 247 487 408
f 247 625 389
f 248 254 424
f 248 407 254
f 248 424 681
f 248 681 407
f 249 334 612
f 249 541 676
f 249 612 541
f 249 676 334
f 250 458 512
f 250 629 454
f 250 645 458
f 251 610 604
f 251 653 610
f 252 316 496
f 252 398 622
f 252 496 398
f 252 622 316
f 253 326 536
f 253 536 665
f 253 665 326
f 254 654 662
f 254 662 424
f 255 314 505
f 255 338 444
f 255 444 674
f 255 505 338
f 255 674 314
f 256 441 508
f 256 508 478
f 256 603 441
f 257 442 473
f 257 473 702
f 257 702 658
f 258 322 721
f 258 437 483
f 258 483 322
f 258 658 437
f 258 721 658
f 259 503 714
f 259 714 403
f 260 330 618
f 260 506 611
f 260 611 683
f 260 618 506
f 260 683 330
f 261 398 634
f 261 448 622
f 261 622 398
f 261 634 448
f 262 318 672
f 262 439 452
f 262 452 318
f 263 396 422
f 263 506 396
f 263 617 506
f 264 456 520
f 264 520 638
f 264 638 418
f 265 430 666
f 265 445 645
f 265 454 268
f 265 645 454
f 265 666 445
f 266 457 288
f 266 525 707
f 266 707 457
f 267 393 626
f 268 454 467
f 269 414 630
f 269 630 714
f 269 714 503
f 270 415 640
f 270 425 415
f 270 495 425
f 271 513 650
f 271 650 700
f 271 700 713
f 271 713 513
f 272 517 538
f 272 538 663
f 272 663 319
f 273 455 680
f 273 680 540
f 274 322 508
f 274 383 604
f 274 441 383
f 274 508 441
f 274 604 610
f 274 610 721
f 274 721 322
f 275 526 514
f 275 541 526
f 276 418 638
f 276 467 454
f 276 638 686
f 276 686 467
f 277 481 720
f 277 553 481
f 277 621 553
f 277 720 388
f 278 548 693
f 278 693 443
f 279 458 645
f 279 645 445
f 280 510 649
f 280 649 337
f 281 484 691
f 282 327 468
f 282 335 327
f 282 468 464
f 283 335 515
f 283 463 335
f 283 515 677
f 283 535 463
f 284 539 636
f 285 336 545
f 285 339 336
f 285 460 339
f 285 545 689
f 285 689 460
f 286 301 536
f 286 412 623
f 286 499 440
f 286 623 301
f 287 333 694
f 287 569 333
f 288 457 650
f 288 513 306
f 288 650 513
f 289 290 547
f 289 547 598
f 290 345 547
f 291 348 551
f 291 349 348
f 291 560 349
f 292 350 585
f 292 568 467
f 293 671 509
f 294 481 494
f 294 494 497
f 294 497 531
f 294 637 720
f 294 720 481
f 295 316 622
f 295 490 316
f 295 664 490
f 296 474 643
f 296 611 699
f 296 699 474
f 297 474 614
f 297 614 537
f 297 643 474
f 297 693 643
f 298 401 504
f 298 502 716
f 298 504 683
f 298 683 502
f 298 716 401
f 299 437 702
f 299 448 531
f 299 482 448
f 299 531 437
f 299 702 482
f 300 312 644
f 300 417 659
f 300 508 627
f 300 627 715
f 300 644 508
f 300 659 312
f 300 715 417
f 301 496 704
f 301 623 496
f 301 665 536
f 302 720 637
f 303 429 641
f 303 439 429
f 303 641 684
f 303 673 439
f 303 684 673
f 304 487 530
f 304 619 487
f 304 681 432
f 305 411 480
f 305 480 488
f 305 488 718
f 305 608 411
f 305 718 608
f 307 450 606
f 307 459 518
f 307 518 450
f 307 606 395
f 307 631 459
f 308 519 477
f 308 672 519
f 309 507 688
f 309 532 646
f 309 646 507
f 309 688 532
f 310 416 705
f 310 477 519
f 310 519 639
f 310 639 416
f 310 705 477
f 311 417 497
f 311 494 717
f 311 497 494
f 311 659 417
f 311 717 659
f 312 501 504
f 312 504 647
f 312 647 644
f 312 659 501
f 313 540 680
f 314 434 505
f 314 674 332
f 314 678 434
f 315 428 679
f 315 510 538
f 315 534 510
f 315 538 428
f 315 679 534
f 316 490 709
f 316 709 391
f 317 431 709
f 317 472 426
f 317 664 472
f 317 684 431
f 317 709 664
f 318 452 712
f 318 533 672
f 318 712 718
f 318 718 488
f 319 447 550
f 319 663 447
f 320 516 714
f 320 713 516
f 320 714 713
f 321 413 526
f 321 458 682
f 321 682 413
f 322 404 627
f 322 483 404
f 322 627 508
f 323 389 710
f 323 413 530
f 323 530 487
f 323 710 413
f 324 410 423
f 324 423 669
f 324 499 536
f 324 521 499
f 324 536 675
f 324 675 410
f 325 377 657
f 325 384 377
f 325 450 518
f 326 665 711
f 326 675 536
f 326 711 675
f 327 335 463
f 327 463 529
f 328 449 543
f 329 334 676
f 329 557 692
f 329 676 517
f 329 692 334
f 330 396 618
f 330 420 493
f 330 422 396
f 330 493 465
f 330 683 420
f 331 542 562
f 331 565 542
f 332 552 690
f 332 642 523
f 333 461 694
f 333 689 461
f 334 456 612
f 334 520 456
f 334 692 520
f 336 542 565
f 336 565 545
f 337 453 687
f 337 534 453
f 337 649 534
f 338 554 589
f 338 691 695
f 338 695 554
f 340 468 489
f 340 489 719
f 342 519 433
f 342 639 519
f 344 545 565
f 345 347 547
f 345 563 347
f 346 376 593
f 346 589 376
f 346 593 552
f 347 598 547
f 348 349 469
f 348 546 551
f 349 560 466
f 349 571 469
f 350 696 585
f 351 360 564
f 351 367 559
f 353 427 539
f 353 563 654
f 353 568 563
f 353 654 427
f 354 358 562
f 357 600 583
f 358 590 591
f 360 592 564
f 361 572 372
f 361 595 572
f 364 578 368
f 365 373 584
f 366 471 590
f 366 581 596
f 366 596 471
f 369 582 600
f 374 599 470
f 375 580 586
f 376 589 470
f 377 601 657
f 378 657 601
f 380 524 701
f 380 605 524
f 380 701 605
f 381 412 602
f 381 602 382
f 382 440 609
f 383 441 620
f 383 620 604
f 384 390 620
f 385 608 718
f 385 685 608
f 386 693 606
f 387 459 631
f 387 631 548
f 388 720 607
f 390 604 620
f 391 431 624
f 391 709 431
f 392 523 615
f 392 615 678
f 393 528 693
f 393 693 626
f 394 516 681
f 394 628 714
f 394 681 628
f 394 714 516
f 395 548 631
f 395 606 548
f 396 506 618
f 398 496 623
f 398 623 634
f 399 509 671
f 399 610 653
f 399 653 509
f 399 671 721
f 399 721 610
f 400 474 699
f 400 614 474
f 400 703 614
f 401 647 504
f 401 716 647
f 402 548 710
f 402 710 633
f 403 628 424
f 403 714 628
f 404 483 715
f 404 715 627
f 405 463 613
f 405 529 463
f 405 613 711
f 405 711 640
f 406 609 637
f 407 681 636
f 408 487 619
f 410 463 535
f 410 535 423
f 411 608 685
f 411 685 700
f 411 700 480
f 413 682 530
f 413 710 526
f 414 513 630
f 415 425 616
f 416 429 705
f 416 641 429
f 417 660 497
f 417 715 660
f 419 498 721
f 419 671 485
f 419 721 671
f 420 465 493
f 420 527 465
f 420 683 527
f 421 486 632
f 421 553 621
f 421 632 553
f 421 706 486
f 423 535 669
f 424 628 681
f 425 495 719
f 426 472 532
f 426 532 673
f 426 673 684
f 428 541 679
f 429 439 705
f 431 684 624
f 432 516 685
f 432 681 516
f 432 685 524
f 433 519 672
f 433 672 533
f 434 678 669
f 435 500 690
f 435 655 500
f 435 690 492
f 437 658 702
f 439 477 705
f 439 673 452
f 440 499 651
f 440 651 475
f 442 507 646
f 442 646 473
f 442 667 507
f 443 679 541
f 446 486 615
f 446 500 655
f 446 523 642
f 446 615 523
f 446 642 500
f 449 668 543
f 451 501 717
f 451 504 501
f 451 683 504
f 451 708 683
f 451 717 708
f 452 673 688
f 452 688 712
f 453 534 537
f 453 537 687
f 455 476 680
f 455 527 683
f 455 683 708
f 456 512 541
f 456 541 612
f 457 480 700
f 457 700 650
f 457 707 480
f 459 633 653
f 459 653 518
f 460 689 543
f 461 546 694
f 461 551 546
f 461 689 545
f 462 567 585
f 462 585 696
f 462 696 703
f 464 468 556
f 464 556 695
f 472 664 532
f 473 482 702
f 473 646 482
f 476 648 680
f 478 508 644
f 478 643 528
f 478 644 716
f 478 716 643
f 479 516 713
f 479 685 516
f 479 700 685
f 479 713 700
f 480 707 488
f 481 635 494
f 482 646 664
f 483 660 715
f 484 695 691
f 486 706 615
f 490 664 709
f 491 708 717
f 491 717 670
f 494 670 717
f 495 641 719
f 497 660 531
f 499 521 651
f 501 659 717
f 502 643 716
f 506 699 611
f 507 511 688
f 507 667 511
f 509 653 633
f 510 534 649
f 511 712 688
f 511 718 712
f 513 713 630
f 514 526 652
f 526 710 652
f 528 643 693
f 532 664 646
f 537 614 696
f 537 679 693
f 537 696 687
f 548 606 693
f 574 594 597
f 580 594 586
f 607 720 661
f 613 675 711
f 614 703 696
f 615 706 678
f 630 713 714
f 644 647 716
