v -0.72576597926945219 0.074900774425513447 0.050641676740099548
v -0.72601288009534581 0.07489687153230476 0.050784618106138331
v -0.3895412015718363 0.081170172420641964 -0.015832418618045966
v -0.78033682173300134 0.8112558054995862 0.011871635138292026
v -0.6710671742003389 1.0644507856840248 0.61245433639589597
v 0.28074778735830036 0.66759219833060657 0.55600651419736535
v 0.43049192250363527 0.38272918499015751 -0.056631620775389815
v -0.097975817831861461 0.37459440208058403 0.64135181699536914
v -0.66167136426763729 1.5226942283600482 -0.52865252512992222
v 0.25634200998610746 0.92309275989540496 0.41806664229502932
v 0.16135906259574295 0.73222566898855312 0.56875533843031323
v -0.24756928117784038 0.98348378904968092 0.26876677792481535
v 0.46892586465594538 0.21366037846768426 -0.025401858553080262
v -0.62923123724191921 1.2703834374290917 -0.18376976057396424
v -0.18600024529141496 0.1981485204696837 0.55618118509826042
v -0.22997843099701851 0.39932488683285766 -0.31597589825681605
v -0.8877078513269181 1.1279038428653947 0.39330910339252328
v -0.77286690903130562 1.0273865126687063 0.023424995901901332
v 0.46172458193155108 0.15941997220055013 0.39406870255147719
v -0.35953254349742236 0.13258938508235882 -0.23688569212292551
v -0.59460184115495585 0.3180499246437401 0.063117837641926577
v 0.045975347794962713 0.88393225875315651 0.50476835928560071
v -0.24926265430759245 0.35470185728654591 0.49057810595592899
v 0.17482305219353711 0.035461636025511653 0.097031492837203526
v -0.39640856807068831 0.55214291451255337 -0.13508418130430305
v 0.061263939898859213 0.30684239609113828 0.66604048597844479
v -0.90995887515058105 1.0967910873791502 0.17260260092124252
v -0.30395092629874881 0.069535392290701992 0.39170720183296126
v -0.046411111238412878 0.99820518808641456 -0.0039249802435529146
v 0.39402899628873123 0.29706665712972807 0.46321154898692879
v 0.19338784413287455 0.61590658528003162 0.61802286902857839
v -0.93614811774148621 0.88305939704852365 0.26911206721542252
v -0.15319954932081947 0.66333116488699806 0.63167758361645709
v -0.87341996016487933 0.57092382961383747 0.34494033059461643
v -0.036833517695358184 0.56207411607047719 -0.32214528898766304
v 0.24750500634663905 0.079632668386522346 1.3181802261740099e-05
v -0.35398845413691443 0.95593754364034689 0.38775160062188102
v 0.24686473926766614 0.24168012668113845 0.56612566724973057
v 0.029131004292521866 0.024721765378902638 0.11354424390143861
v -0.84384974218567022 0.85553454296198295 0.40549217389828823
v 0.20149758311409174 0.035321935580357539 0.51119602478412218
v 0.26215388432897457 0.38623585906122326 0.57362364867417159
v -0.071642094753946672 1.5476939006128185 -0.17794728618589858
v 0.5141717199546898 0.42450174425098253 0.2207026322820774
v -0.74668776989192054 0.04102155462993843 0.10391118522840181
v -0.024978791122919151 0.89282538715296356 -0.096763375706245339
v -0.16153812172678234 1.3867863642345737 -0.074481669569258752
v -0.73771775925799477 0.91948336755580307 0.66715434281750119
v 0.38464621734618248 0.5953308427034617 0.50290815205780437
v 0.57390508305574939 0.41629279341923303 0.27119644752643035
v -0.86845034012558309 1.1681673530327046 0.53304914961350491
v -0.8128934125919216 1.0998344466586651 0.066794100067308265
v -0.065321380991801237 0.40114040845187748 -0.29935403812579126
v -0.48482640169195379 0.75816503323217888 0.52567627919756865
v -0.69847898687762011 0.11492185531083271 0.028323890849755073
v -0.70979089913493942 0.15017548886232721 0.16462349667373852
v -0.35664089516629671 0.027068442995290719 0.17324649410401088
v -0.34333895546796944 1.4638772175989132 0.11844935251288863
v -0.099839366370986754 0.035980766101885879 -0.18474833598203602
v 0.10428494163091252 0.07463683588953586 0.3901619891555988
v 0.62692468349876762 0.19692070630252437 0.25109952621479953
v -0.86001716631656266 0.90222101624398987 0.61792250094821
v 0.29402501781364271 0.1806975292879808 -0.14061591669771964
v 0.36782041476772548 0.89065805943747811 0.32595475266929907
v -0.58413031150767658 0.46010316142077035 0.53504961451847699
v -0.73479348863735494 1.5311792135846591 -0.31775928845862628
v -0.38026264539454058 0.71360253816700536 0.52722899331068551
v -0.75339570074783546 0.40360511601167109 0.086201023875623201
v -0.75605652597451856 0.50202849634048774 0.47978018229446551
v -0.632306806375319 0.038793904505937407 0.30050977980897581
v -0.54636733041493235 0.19265852617983167 0.38354265996443632
v -0.39106082245755558 1.4100570467914197 -0.02778090946024012
v -0.88963622879400639 0.56799808730063506 0.18393190158656267
v -0.018754853247687862 0.073724961079820961 0.11769156288950107
v -0.31385093622654181 0.21318175290310781 0.47330974579119167
v -0.56914452194930276 1.1302247183180458 0.043468003067249877
v -0.15627826482493268 0.62935208104692575 -0.3172265653143243
v -0.10912891712065272 1.3655874147367826 -0.037898157689719832
v -0.37897100484210494 0.052539179415200442 0.21177235692655891
v -0.30129794825899364 0.20005930533876956 -0.17159853660278795
v 0.50723723435619761 0.40887193452046605 0.10516984310031907
v -0.29031764540993171 1.3928038223589314 0.052997028917241812
v -0.42261405858802864 0.79359518121479067 0.51990024306756355
v -0.72521107247095618 0.69234706905956545 0.53258224214163807
v -0.24245936702704357 0.8009621122724 -0.15550231001697201
v -0.46862161413231029 1.0384060884367252 0.41587530695346492
v -0.22956474339855845 0.66410565787041453 0.54844712090100223
v -0.64880069382481498 0.84289033689425752 0.49840115690403847
v -0.46911749892740795 0.93851703243887308 -0.05741954504222456
v -0.85541768735360324 0.82474310708933862 0.3474376371447328
v -0.77481321242956347 0.68566500234047967 -0.048966534853213402
v -0.69290409086620597 1.3750612709727457 -0.48453379936271146
v -0.51976893138596691 1.141817462261296 0.40158498993982999
v -0.27419945925346395 0.91992436350913565 0.40176656506364039
v -0.65044965238763452 1.5986911802152415 -0.51548533492954063
v -0.50241352092543223 0.19706510182700032 -0.0090359254140070823
v -0.0935688032455953 0.12657513401385842 -0.20558582715011467
v -0.26353866101395484 0.99342976743494282 0.15527518287420475
v -0.72255107702870736 0.1273754000517808 0.095852108759633584
v -0.018204731365457839 0.067671975210447377 0.26305430990529899
v 0.27214363389535712 0.97523237709048671 0.31440390976517613
v -0.6790311654978145 0.35192790516132838 0.060369608068013746
v -0.31745066208206557 0.084984282419893586 -0.11235001261849042
v -0.1511584522015052 0.029593391027391565 0.54721415319952282
v 0.53643426886488366 0.18984107092406408 0.01055617205066319
v 0.079810203377367314 1.0054410444950099 0.016417101186652388
v -0.75724185193025395 0.064321303330967333 0.17733875680786254
v -0.81110583738711517 0.42556913646413475 0.27043434441046554
v 0.13657282332322901 0.44401642762112414 0.65553667217052281
v 0.55770781763402932 0.34038401111033778 0.03009411933487138
v -0.33644163826705054 0.033873356444689529 0.48686426701769925
v -0.63824330681831154 1.1832706546866476 0.027643405240701156
v -0.31248164286538838 0.026115211280974028 0.25766464084567603
v -0.62800682792588125 1.4014622892025854 -0.37897860316014448
v -0.29903123603965359 0.77738902400614796 0.51080675318658131
v 0.48658834597289624 0.3708424498670651 0.31771498592680392
v 0.11554018514531454 0.22559524349030874 -0.24966650218324712
v 0.33365115909225429 0.31762297602336353 -0.14088827455609518
v -0.46498057321187303 0.45391105845736429 0.53453630393204798
v -0.9560196385236106 1.020480336444026 0.34409113598089019
v -0.30944680187320983 0.96701192722701135 0.019539769384369823
v 0.45674602155434557 0.078027822775060596 0.078711373796626197
v -0.4691691275155862 0.79917867655169428 -0.12233008745383855
v 0.20840895919592275 0.024240881960243828 0.061338662754525874
v 0.37112162110021885 0.89624778632931934 0.1160313331969766
v -0.64917295771988759 0.95461940531456713 0.65698699363332858
v 0.65268685156193473 0.3867696363674516 0.20737103632749199
v -0.89014346230863073 0.86061986175006022 0.54519274765697168
v -0.56298389852090902 0.62671352587615126 0.5710527047731464
v 0.09323607627824923 0.84716258021682322 -0.13942965472203059
v 0.45254606713687562 0.63581892935190187 -0.021361434722987526
v 0.23848976389199561 0.3977288136131007 -0.22744944822914617
v -0.26919708210372345 0.040467071090093246 -0.22771586272637218
v -0.29151854375126601 0.58137266497927953 -0.29830259952288185
v -0.71084640871310367 1.2207701202664158 0.56475495554603561
v -0.48962168478261664 1.2594906323148924 0.23251667427133033
v 0.38988986584552349 0.067143875875744191 0.31487282432777453
v -0.002370316808534089 0.26851054083632953 0.63951204185992605
v -0.38362908132351997 0.037977425019336777 0.52316897282221553
v -0.41188284743845177 1.024822303963776 0.26096654984109668
v -0.60243367563563099 1.1241746819919023 0.47920151896303653
v 0.10940962511665227 0.56532212722248687 0.66565094322050822
v -0.094054697565354575 0.72498806627509926 0.53902630126686046
v -0.86864866682567488 0.50367745209069836 0.14576603856315953
v -0.63880711422146952 0.69904197025774306 -0.0981676110177606
v 0.30830298617323798 0.28050867703846449 0.5197442291446317
v -0.51607508393298651 0.16169464383653909 0.26935566083407059
v -0.41203846757553597 0.16622884457147158 -0.16219421495736003
v -0.12604312468431492 1.4764701606369128 -0.16001915798561636
v 0.47687725743596437 0.49319305507411126 0.016630532493611652
v -0.29375325252173684 0.51637914327450896 0.5196064502351514
v -0.72980349781231568 1.3198293110744639 0.40027203927745542
v -0.44493666201391491 0.32810612763225366 -0.048658854381755046
v -0.53444248292917573 0.87291225991807386 0.46550824067178082
v -0.86989694567190701 1.302196992804125 0.29378410671059169
v -0.76978572948249457 1.2701184501613416 -0.055509009718845502
v 0.074107497007805806 0.039950359233494666 -0.18634464168051024
v -0.11161210581519443 0.16569508410749578 0.57858386237567905
v 0.26882162144292854 0.86724305221353948 -0.059338408769166399
v 0.031042663670168266 0.021471012509318745 0.25343609754381946
v -0.5087156267847005 0.56028377727338952 0.57286857467824237
v 0.038971337673087095 0.27124920741941122 -0.26092976753029673
v -0.19607853410637369 0.70437015070849429 -0.18046545447308129
v -0.44801414191748484 0.93940639180751284 0.39123851324411246
v -0.69492303679478429 1.4498885561620405 -0.11076342610544578
v -0.68725873310684482 0.052125394235300271 0.4014779663997744
v -0.68250023292799944 1.3076856819257467 -0.41285973651807023
v -0.48577183579016975 1.1901016325760045 0.11046638290572999
v 0.11952534777708329 0.16323440506675674 -0.2146205121826362
v 0.60815490523025073 0.17394621328224638 0.12663660100293372
v 0.16041971101522207 0.77377885201652552 -0.1362896201744736
v -0.47298301156639194 0.66446791123471427 -0.14179668506067644
v -0.59442677477718742 1.3079917239642758 0.1295022826783736
v -0.50792617264341966 0.038649832804319328 -0.060707273414056608
v 0.42265066213401398 0.63617137604678842 0.44621158070131117
v 0.12786774357371142 0.94221423245493219 -0.06851244543379291
v -0.60905778128050592 1.3577296916991088 -0.12798580623700989
v 0.50471081447992627 0.62132415986441947 0.098853767358874647
v -0.35723914112131294 0.7835650347823776 -0.13249617499593871
v -0.53216156887000376 0.38702241947523175 -0.041027307297467668
v -0.3644965048838239 1.3319600523254422 0.15545176036091679
v -0.21992044913179501 0.50690158053379208 -0.3361450039467207
v -0.21308426253562188 0.15873700913977429 -0.22256196312591983
v -0.099308585356880863 0.80414529799841739 0.53321775630065193
v -0.24572218113084293 0.070715260598621266 0.19844914450485537
v -0.23398521886300552 1.5531266647306912 -0.095041555567745878
v -0.10076423045574436 0.90443517837963749 -0.083974280143423521
v -0.91861231771540441 0.65441653169336067 0.3203154182558261
v -0.53596225896470573 1.3196876415717975 0.22762893106796533
v -0.36054731161704151 0.42845494988427218 -0.099302705928699803
v -0.27279522076998264 0.24314283829296995 0.45296631726586972
v -0.72491843171827053 1.4833628813947501 -0.39667937373528073
v -0.60631476928936956 0.19547274661276834 0.14769879203050224
v 0.22427339646939171 0.22570220503886762 -0.21820459868837791
v 0.2356112868749865 0.087344565437112387 0.51285881061599714
v -0.91526500466323446 1.1175864452875037 0.28800075725217328
v -0.53516295604619157 0.99653276862854057 0.51519827427427201
v -0.71110466954329432 0.32726972175335606 0.27324706261244341
v -0.075037212741769527 1.0168942446740299 0.35064993895674723
v -0.19683423185544899 0.077996107942087722 0.485839220950812
v -0.22212934920816857 0.53407183039319372 0.65755222752876719
v -0.8221553845452112 0.85902874932262219 0.092884112546033806
v -0.15950786577186285 1.5353688305615678 -0.088535646820422906
v -0.45569728175261248 0.1764066476497971 -0.032296229752304471
v -0.31913186278421174 0.036046555850341715 -0.15312034386267376
v -0.060536436401390267 0.31810929189031328 0.66059554374160323
v -0.77869208576939963 1.4512527170592195 -0.17408471238607334
v -0.24548627961506653 0.038655600828486084 0.64803014267563874
v -0.64782786993836472 0.4492760488415341 -0.079660342271670403
v -0.48592450274694482 1.2048408784973308 0.21399309986668189
v -0.22095096575496412 0.66819414046994552 -0.27533341325469396
v -0.65748943150037409 0.57708521892967357 0.56662131096294877
v 0.32881688633727685 0.086841894096675004 0.35571884883327964
v 0.38972917886036784 0.093859430655716836 0.014604295256759887
v 0.10112082123764125 0.48848386547370692 0.65942604554323059
v -0.65070525758618181 0.92745165740625246 -0.0022292204744823129
v -0.76858194289461113 1.0403832369019201 0.67767216022937238
v 0.17859717933273167 0.24303548323537361 0.59381488298948315
v -0.097563394402423564 0.61822442561093505 0.67501222867301369
v -0.47738182887668529 0.073947831388107926 -0.17196297678293218
v -0.33177447319709813 0.22514109396327467 -0.027588594542880155
v -0.60843946895995205 1.2070909738411177 0.06540138162778425
v -0.15364469977697098 1.6480575084924822 -0.10427700890966468
v -0.37406156094833193 0.89226090403953351 -0.077989824831756413
v -0.8779264815876342 0.835610832187895 0.21056170062609958
v 0.45970452367064868 0.48812812956057616 0.39547883896038954
v -0.32884066039519888 0.48938783603646296 -0.26407158388102753
v -0.94122505036859472 0.92389228223900954 0.19691544649309142
v -0.050515601271937473 1.4566376129397853 -0.18454666844268913
v -0.38046301890318662 0.13963496959928773 0.51087540706276047
v -0.51275035243211931 0.25585266484426938 0.25817944304869572
v 0.24598189118404265 0.33020129256709052 -0.20613614208931105
v 0.034206585587948181 0.20454445301561705 0.63666541373608065
v -0.8623086041983421 0.5123481549726584 0.30374024983175396
v -0.3764242766125559 1.3666937123089349 0.11069048604900981
v -0.15089286070443081 0.9773611539155338 0.023499500541628724
v 0.43697477908925708 0.7986614914526291 0.30845647938676274
v -0.70415250439026544 1.2186122195303211 -0.1287147005229882
v -0.4917589194374723 0.65308552144643928 0.56042726453901748
v 0.15362755278147625 0.92230739136742579 0.45349435733676352
v 0.33085099491798164 0.018478248406923442 0.19103926235351612
v 0.43087669027968351 0.2789597423569814 -0.002173450392412425
v -0.049029115920883666 0.17121016749085455 -0.25628345172289357
v -0.88478822139364954 0.5962987223904237 0.084150128383172207
v -0.75214575771204906 0.80577183109527706 0.47995844781332275
v -0.71698300985567065 1.3224158382989442 0.12655445589229641
v -0.83573000676166387 0.55592722956065965 0.4429960244374837
v 0.12286394729986574 0.58197551752482934 -0.26509925571766407
v -0.56679532486572048 0.19671090420148021 0.037634186111758144
v 0.011116803416843244 0.69601199911367517 0.62900018885570486
v -0.81645943860762304 0.94389107487933699 0.62985792421864539
v 0.16981531890490584 0.026181822578934928 0.40707536628498248
v 0.011918963289666495 0.33999001274080032 -0.29268028547581848
v 0.61307070711859446 0.4011987602818981 0.096457267280021047
v -0.54231710577287373 0.033742858313474934 0.15286677726093009
v 0.13119928530770139 0.031323353692710561 -0.070681903182496855
v -0.74164041355218258 0.3504051773920473 0.18385599161100455
v 0.34227316899115845 0.45886685925010734 -0.14566348501739063
v -0.59634017595374622 1.2067226873523282 0.50355882907711824
v -0.92608998146983312 0.91381866978944071 0.40333291300190072
v -0.21499183046592935 0.77738466651696292 0.53023691006819806
v 0.15134834463547425 0.035905659779980739 -0.15955382809297711
v -0.77523609335591692 1.2611611576632507 0.072415512791765627
v -0.2563389631228114 0.65778026969256709 0.56074945250085007
v 0.38442417216891689 0.7687935270195092 -0.05322342384091551
v -0.21256822894195374 0.15077220870345703 0.63545474441376149
v 0.30321002469215641 0.51406623355343117 0.56861990960834874
v 0.21319969500791677 0.65938873654797303 0.57233103160776089
v -0.02104056300058901 0.83620286576742342 -0.14940996350453664
v 0.56150785300852624 0.24451899534999069 0.37478100611853077
v -0.42630685067541629 1.046204801960221 0.15183768577670645
v -0.77327325341336395 0.58388602972982873 -0.056461316589159705
v -0.87752576133603377 1.2528239928149409 0.43133316766716928
v -0.31778175030493705 1.3787524153993882 -0.055700974851638996
v -0.606058921277287 1.4733175874787237 -0.54475117387120642
v -0.7469298479947053 1.3303610036953475 -0.15770064359197153
v -0.63459621465414762 0.1677705324384878 0.498797491367309
v 0.13500769175882132 1.0367295708192907 0.34207276503130402
v -0.39166571846324827 0.47358399967612413 0.54163999475501234
v 0.46282846511604814 0.73145728005600863 0.067413513367851882
v -0.73749614996420843 1.2683678510341447 -0.32714278844240269
v -0.56506928624682629 0.69321411731889093 -0.14121020502478088
v -0.44803772264539876 0.037664831024126662 0.0029982589447388234
v 0.21616700018860943 0.16159531405160465 0.50767898648151111
v -0.46668747964256518 0.4955183561008642 -0.11024539038022449
v -0.3222603368904397 1.2734286568616748 0.085613469257965341
v -0.65668736203021971 0.040659069620248067 0.52580218780601551
v 0.3417856420635953 0.83337320275254656 0.42405063968631435
v -0.433885729918698 1.4701990319552092 0.05171020487545152
v -0.46319015852581569 1.1247839718525898 0.22681384316945899
v -0.64221385141097964 1.4814366203427751 -0.36638523563246594
v -0.84149406931065773 1.2025691291332654 0.14806652374077484
v 0.021375063775188323 0.027700672769268277 0.55292652272378573
v 0.096679235613164813 1.0198961904211832 0.36634938238252512
v 0.18726338811860391 0.6570543869967731 -0.19479065685366193
v -0.48934626650739316 0.20268034844474006 0.46776097958401186
v 0.49824180671769297 0.61828378551941054 0.29694212924814944
v -0.32982614855029224 0.11255625750109545 0.59387796834198237
v -0.67856870023076088 0.041518687132931296 0.0046096593844306612
v -0.57801304914056384 0.52267756460716952 -0.12684526211946623
v 0.10958020400784058 0.1061198635783238 0.5328997453355846
v 0.026316456085659561 0.66528780406039789 -0.27558896666561156
v -0.20819953436773733 1.5958264711412631 -0.00057175962867881747
v -0.20440205428417568 0.88440246483401819 -0.090657757698334382
v -0.61936716179048468 0.80401074134494321 -0.091314097861763449
v -0.49626360914086892 1.0341586192181851 0.051642126481450279
v 0.14038420475385313 0.31909420991407106 0.63119236591701422
v 0.56915661379751203 0.12681035109736366 0.24655231829153956
v -0.59431349248751641 0.28993759996430568 0.14507109697034218
v -0.53888777610010574 1.2910321403879224 0.42299128461000229
v -0.87821072025246616 0.9895358661815018 0.08209045013266543
v -0.28141286240910773 0.31782784390586055 -0.2393402939392579
v 0.26014974393567813 0.030488818509318061 0.25643965643799482
v -0.089388555711005804 0.46614800844419568 -0.32522258966556827
v -0.13197358625262492 1.3614948248739578 0.020214352926875803
v -0.42924851652070445 0.035909031629680614 0.37824980867500063
v -0.79252552022076328 1.2890729355336903 0.1095643936465356
v -0.14553935597316331 0.50955032304457448 0.68211917870431926
v -0.092096848286178409 1.6114562740956013 -0.21546510727627899
v -0.57550013106579145 1.3245946794570915 0.20564153859522452
v 0.6370976977916154 0.29347262417682274 0.079266226761786907
v -0.62105502676752644 0.092507432646087184 0.29389416219540765
v -0.3942325647240259 0.040692271517557714 -0.24430834747129268
v -0.59599756546322424 0.75108070798332427 0.54367422143809019
v 0.066956558820542925 0.73376651097712975 0.53437748826134757
v -0.72704314638421108 0.42078404239007422 0.4470056369730061
v 0.37773743475048949 0.21706602935016467 -0.021944510757396764
v 0.23129886283339268 0.1482362124835776 -0.15787598458328794
v -0.64995608574831276 1.3034213826571497 0.091862978262729558
v -0.70034279659694354 0.85534145517041626 0.62460938159459045
v -0.80020237418869355 0.46475625980502616 0.035187760237982063
v -0.1019588839734832 0.92673146598344147 0.46608260352899333
v 0.075212432983414956 0.081659957548229037 -0.057706308915913829
v -0.0014337329240437667 0.43596157607954328 0.68954249661977918
v -0.81649152969161753 1.0903068496468027 0.64625868232647199
v -0.9093091349289697 0.70286233215776051 0.35365110070628458
v -0.14480663792492959 0.31508953233855025 0.62708894228246759
v -0.87844866433031277 0.70603754013474462 0.088126949978703198
v 0.097036728536354255 0.43620453734939796 -0.28259619136032743
v -0.5355492468534363 1.196301128955306 0.093162815415539321
v -0.38627060946232566 0.61240063790933175 0.54066924873549083
v 0.390379857402748 0.44843408324096201 0.47958187556701454
v -0.097963592778691197 0.736083826562275 -0.17994859110031433
v -0.14096805871784623 0.26754602489582296 -0.29323054544180865
v -0.58653639730399976 0.94857767936582793 0.55196934960315047
v -0.77857552147923947 1.5854373443402761 -0.4328533444847027
v -0.80530182054707133 1.4359925142113823 -0.24886857477158886
v -0.92900501025394544 1.2582211428805197 0.29140063591631243
v -0.93411803366074331 0.95128092189975455 0.54982428543251338
v 0.24625855666763896 0.9892848941872463 0.07688061045270933
v 0.40522680442527742 0.56385231593369189 -0.12125406936046122
v -0.50434651734674063 0.33760057396443244 0.44427896687382284
v 0.41080356160259196 0.22328210262762238 0.38882586258040186
v -0.70614870222936832 1.1682166034348809 0.019397075769055527
v -0.34950130385282691 0.59511223670828106 -0.17640220631953452
v -0.55434908985274278 0.079279968247949681 0.59614444179651294
v 0.28633370325612839 0.76944423938882411 0.49340882605454095
v 0.63126680202646968 0.34748336184343115 0.31611910017686351
v 0.077314577734244466 1.0545158481799217 0.11857584229901619
v -0.37415759759564027 0.23349014244685901 0.49816283973603265
v 0.21992302014413903 0.72821588094440781 -0.16689745757450317
f 3 57 283
f 3 103 185
f 3 185 57
f 3 283 103
f 4 91 338
f 4 202 216
f 4 216 305
f 4 305 91
f 4 338 202
f 5 126 345
f 5 135 217
f 5 141 259
f 5 217 126
f 5 259 135
f 5 345 141
f 6 11 268
f 6 49 357
f 6 267 49
f 6 268 267
f 6 357 11
f 7 118 258
f 7 150 242
f 7 242 118
f 7 258 150
f 8 206 334
f 8 318 206
f 8 334 318
f 9 92 192
f 9 95 275
f 9 192 346
f 9 275 92
f 9 346 95
f 10 64 101
f 10 101 240
f 10 240 357
f 10 288 64
f 10 357 288
f 11 325 268
f 11 357 325
f 12 37 94
f 12 94 199
f 12 98 271
f 12 140 37
f 12 199 98
f 12 271 140
f 13 105 214
f 13 110 321
f 13 214 327
f 13 321 105
f 13 327 110
f 14 112 238
f 14 114 177
f 14 167 114
f 14 177 112
f 14 238 167
f 15 75 266
f 15 158 337
f 15 191 75
f 15 266 158
f 15 337 191
f 16 182 314
f 16 227 182
f 16 312 227
f 16 314 344
f 16 344 312
f 17 120 349
f 17 196 120
f 17 273 348
f 17 348 196
f 17 349 273
f 18 52 354
f 18 202 311
f 18 216 202
f 18 311 52
f 18 354 216
f 19 137 308
f 19 213 137
f 19 270 353
f 19 308 270
f 19 353 213
f 20 80 183
f 20 133 323
f 20 148 80
f 20 183 133
f 20 220 148
f 20 323 220
f 21 102 180
f 21 180 249
f 21 249 309
f 21 309 102
f 22 184 325
f 22 240 294
f 22 294 332
f 22 325 240
f 22 332 184
f 23 151 191
f 23 191 337
f 23 201 151
f 23 337 201
f 24 39 124
f 24 124 241
f 24 160 39
f 24 241 313
f 24 313 160
f 25 172 355
f 25 190 285
f 25 285 300
f 25 300 172
f 25 355 190
f 26 138 307
f 26 206 138
f 26 215 206
f 26 307 215
f 27 120 196
f 27 196 292
f 27 228 120
f 27 292 311
f 27 311 228
f 28 111 113
f 28 113 185
f 28 185 200
f 28 200 111
f 29 106 187
f 29 187 236
f 29 236 359
f 29 359 106
f 30 146 353
f 30 226 146
f 30 353 226
f 31 142 215
f 31 215 268
f 31 250 142
f 31 268 250
f 32 40 260
f 32 120 228
f 32 202 225
f 32 225 40
f 32 228 202
f 32 260 120
f 33 87 201
f 33 143 87
f 33 201 219
f 33 219 250
f 33 250 143
f 34 73 234
f 34 188 73
f 34 234 247
f 34 247 336
f 34 336 188
f 35 77 302
f 35 182 77
f 35 248 314
f 35 302 248
f 35 314 182
f 36 63 327
f 36 124 328
f 36 214 124
f 36 327 214
f 36 328 63
f 37 83 115
f 37 115 94
f 37 140 164
f 37 164 83
f 38 146 218
f 38 218 284
f 38 284 146
f 39 74 256
f 39 100 74
f 39 160 100
f 39 256 124
f 40 90 245
f 40 128 260
f 40 225 90
f 40 245 128
f 41 195 301
f 41 213 195
f 41 293 313
f 41 301 293
f 41 313 213
f 42 109 307
f 42 218 342
f 42 267 109
f 42 307 218
f 42 342 267
f 43 203 315
f 43 223 303
f 43 229 319
f 43 303 203
f 43 315 229
f 43 319 223
f 44 50 254
f 44 81 178
f 44 116 50
f 44 178 297
f 44 254 81
f 44 297 116
f 45 55 299
f 45 56 99
f 45 70 107
f 45 99 55
f 45 107 56
f 45 255 70
f 45 299 255
f 46 106 176
f 46 130 269
f 46 176 130
f 46 187 106
f 46 269 187
f 47 78 286
f 47 149 229
f 47 168 274
f 47 229 78
f 47 274 149
f 47 286 168
f 48 126 217
f 48 217 251
f 48 251 330
f 48 330 126
f 49 175 357
f 49 267 342
f 49 342 175
f 50 116 358
f 50 127 254
f 50 358 127
f 51 273 349
f 51 335 273
f 51 349 335
f 52 263 354
f 52 292 263
f 52 311 292
f 53 253 344
f 53 314 339
f 53 339 253
f 53 344 314
f 54 83 154
f 54 154 324
f 54 239 83
f 54 324 239
f 55 96 299
f 55 99 193
f 55 193 249
f 55 249 96
f 56 107 322
f 56 147 193
f 56 193 99
f 56 322 147
f 57 79 255
f 57 113 79
f 57 185 113
f 57 255 283
f 58 136 235
f 58 235 303
f 58 303 320
f 58 320 136
f 59 97 157
f 59 133 97
f 59 157 256
f 59 205 133
f 59 256 205
f 60 100 160
f 60 104 200
f 60 160 252
f 60 200 100
f 60 252 104
f 61 170 321
f 61 270 308
f 61 308 170
f 61 321 358
f 61 358 270
f 62 128 330
f 62 251 349
f 62 330 251
f 62 349 128
f 63 194 327
f 63 328 194
f 64 125 101
f 64 237 125
f 64 288 237
f 65 119 161
f 65 129 212
f 65 161 129
f 65 212 326
f 65 326 352
f 65 352 119
f 66 95 346
f 66 165 291
f 66 207 165
f 66 291 95
f 66 346 207
f 67 83 239
f 67 115 83
f 67 239 341
f 67 264 115
f 67 341 264
f 68 102 257
f 68 144 331
f 68 257 144
f 68 331 102
f 69 212 247
f 69 234 326
f 69 247 234
f 69 326 212
f 70 166 322
f 70 255 316
f 70 287 166
f 70 316 287
f 70 322 107
f 71 147 322
f 71 231 147
f 71 277 296
f 71 296 352
f 71 322 277
f 71 352 231
f 72 173 289
f 72 186 274
f 72 274 340
f 72 289 186
f 72 340 173
f 73 144 234
f 73 188 244
f 73 244 272
f 73 272 331
f 73 331 144
f 74 100 185
f 74 103 333
f 74 185 103
f 74 333 256
f 75 191 360
f 75 230 298
f 75 298 266
f 75 360 230
f 76 112 222
f 76 216 354
f 76 222 340
f 76 306 216
f 76 340 306
f 76 354 112
f 77 134 211
f 77 182 134
f 77 211 302
f 78 229 315
f 78 315 286
f 79 113 316
f 79 316 255
f 80 148 221
f 80 221 312
f 80 312 183
f 81 110 242
f 81 150 178
f 81 242 150
f 81 254 110
f 82 181 315
f 82 203 235
f 82 235 181
f 82 315 203
f 83 164 154
f 84 212 324
f 84 245 336
f 84 247 212
f 84 324 245
f 84 336 247
f 85 163 179
f 85 179 304
f 85 304 343
f 85 343 163
f 86 93 197
f 86 140 290
f 86 164 140
f 86 197 164
f 86 290 93
f 87 115 264
f 87 143 261
f 87 261 115
f 87 264 201
f 88 154 345
f 88 245 324
f 88 324 154
f 88 330 245
f 88 345 330
f 89 121 224
f 89 123 305
f 89 216 306
f 89 224 123
f 89 305 216
f 89 306 121
f 90 225 336
f 90 336 245
f 91 145 272
f 91 244 338
f 91 272 244
f 91 305 145
f 92 167 281
f 92 275 167
f 92 276 192
f 92 281 276
f 93 141 197
f 93 210 310
f 93 290 210
f 93 310 141
f 94 115 261
f 94 261 332
f 94 332 199
f 95 291 275
f 96 153 204
f 96 174 299
f 96 180 153
f 96 204 174
f 96 249 180
f 97 133 183
f 97 169 262
f 97 183 243
f 97 243 169
f 97 262 157
f 98 121 271
f 98 199 359
f 98 236 121
f 98 359 236
f 100 200 185
f 101 125 350
f 101 278 240
f 101 350 278
f 102 209 180
f 102 309 257
f 102 331 209
f 103 205 333
f 103 283 205
f 104 111 200
f 104 208 111
f 104 252 293
f 104 293 208
f 105 122 214
f 105 170 122
f 105 321 170
f 106 359 176
f 108 144 257
f 108 198 326
f 108 234 144
f 108 257 198
f 108 326 234
f 109 215 307
f 109 267 215
f 110 254 321
f 110 327 242
f 111 139 316
f 111 208 139
f 111 316 113
f 112 177 222
f 112 354 238
f 114 167 275
f 114 275 291
f 114 291 177
f 116 226 353
f 116 270 358
f 116 297 226
f 116 353 270
f 117 162 232
f 117 169 162
f 117 194 328
f 117 232 194
f 117 328 169
f 118 194 232
f 118 232 258
f 118 242 327
f 118 327 194
f 119 279 341
f 119 341 161
f 119 352 279
f 120 260 349
f 121 236 304
f 121 304 224
f 121 306 271
f 122 124 214
f 122 170 308
f 122 241 124
f 122 308 241
f 123 145 305
f 123 172 282
f 123 179 172
f 123 224 179
f 123 282 145
f 124 256 262
f 124 262 328
f 125 237 280
f 125 265 350
f 125 280 265
f 126 330 345
f 127 321 254
f 127 358 321
f 128 245 330
f 128 349 260
f 129 161 239
f 129 239 324
f 129 324 212
f 130 159 171
f 130 171 269
f 130 176 159
f 131 178 351
f 131 265 280
f 131 280 178
f 131 351 361
f 131 361 265
f 132 232 253
f 132 248 351
f 132 253 339
f 132 258 232
f 132 339 248
f 132 351 258
f 133 205 323
f 134 182 227
f 134 227 355
f 134 355 211
f 135 152 273
f 135 259 310
f 135 273 335
f 135 310 152
f 135 335 217
f 136 181 235
f 136 189 310
f 136 210 181
f 136 310 210
f 136 320 189
f 137 213 241
f 137 241 308
f 138 206 337
f 138 233 307
f 138 337 233
f 139 208 298
f 139 230 356
f 139 287 316
f 139 298 230
f 139 356 287
f 140 271 290
f 141 310 259
f 141 345 197
f 142 219 334
f 142 250 219
f 142 334 215
f 143 184 261
f 143 250 325
f 143 325 184
f 145 282 300
f 145 300 272
f 146 226 342
f 146 284 353
f 146 342 218
f 147 231 309
f 147 309 193
f 148 204 221
f 148 220 204
f 149 186 319
f 149 274 186
f 149 319 229
f 150 258 351
f 150 351 178
f 151 201 264
f 151 264 341
f 151 279 360
f 151 341 279
f 151 360 191
f 152 155 273
f 152 189 246
f 152 246 155
f 152 310 189
f 153 180 285
f 153 190 221
f 153 221 204
f 153 285 190
f 154 164 197
f 154 197 345
f 155 246 317
f 155 317 348
f 155 348 273
f 156 238 354
f 156 263 276
f 156 276 281
f 156 281 238
f 156 354 263
f 157 262 256
f 158 233 337
f 158 266 301
f 158 301 233
f 159 176 350
f 159 265 361
f 159 350 265
f 159 361 171
f 160 313 252
f 161 341 239
f 162 169 243
f 162 243 344
f 162 253 232
f 162 344 253
f 163 211 355
f 163 343 211
f 163 355 179
f 165 177 291
f 165 207 246
f 165 246 329
f 165 329 177
f 166 277 322
f 166 287 277
f 167 238 281
f 168 210 290
f 168 286 210
f 168 290 340
f 168 340 274
f 169 328 262
f 171 295 343
f 171 343 269
f 171 361 295
f 172 179 355
f 172 300 282
f 173 222 329
f 173 246 320
f 173 320 289
f 173 329 246
f 173 340 222
f 174 204 220
f 174 220 323
f 174 255 299
f 174 283 255
f 174 323 283
f 175 226 297
f 175 237 288
f 175 288 357
f 175 297 237
f 175 342 226
f 176 359 350
f 177 329 222
f 178 237 297
f 178 280 237
f 179 224 304
f 180 209 300
f 180 300 285
f 181 210 286
f 181 286 315
f 183 312 344
f 183 344 243
f 184 332 261
f 186 223 319
f 186 289 223
f 187 269 343
f 187 304 236
f 187 343 304
f 188 336 338
f 188 338 244
f 189 320 246
f 190 227 312
f 190 312 221
f 190 355 227
f 192 276 347
f 192 347 346
f 193 309 249
f 195 213 353
f 195 284 301
f 195 353 284
f 196 348 292
f 198 231 352
f 198 257 309
f 198 309 231
f 198 352 326
f 199 278 359
f 199 294 278
f 199 332 294
f 201 318 219
f 201 337 318
f 202 228 311
f 202 338 225
f 203 303 235
f 205 256 333
f 205 283 323
f 206 215 334
f 206 318 337
f 207 263 246
f 207 346 347
f 207 347 263
f 208 266 298
f 208 293 266
f 209 272 300
f 209 331 272
f 211 343 302
f 213 313 241
f 215 267 268
f 217 335 251
f 218 233 301
f 218 301 284
f 218 307 233
f 219 318 334
f 223 289 303
f 225 338 336
f 230 296 356
f 230 360 296
f 240 278 294
f 240 325 357
f 246 263 317
f 248 295 351
f 248 302 295
f 248 339 314
f 250 268 325
f 251 335 349
f 252 313 293
f 263 292 317
f 263 347 276
f 266 293 301
f 271 306 290
f 277 287 356
f 277 356 296
f 278 350 359
f 279 296 360
f 279 352 296
f 289 320 303
f 290 306 340
f 292 348 317
f 295 302 343
f 295 361 351
