v -0.060184229704116625 0.40374642353051093 0.68350793155241651
v -0.72576597926945219 0.074900774425513447 0.050641676740099548
v -0.72601288009534581 0.07489687153230476 0.050784618106138331
v -0.16687848752078521 0.64702913419777208 0.64288366304212374
v -0.084772662741077101 0.87354697381524027 -0.10359997290846816
v -0.24172428237588617 0.021173159193657098 -0.17624946875766109
v -0.4912307330004082 0.89358423819452837 0.44631772381057527
v -0.097900473448172973 0.074710537094096072 -0.091851620718312099
v -0.31532102861535866 0.77553416064702851 0.50407326197539304
v 0.15347155345079089 0.76847889118838586 0.53012012717207957
v 0.12546323867967285 0.40795550587956553 -0.27020731351882887
v 0.36037200219533966 0.15866458178985537 -0.098775735754580637
v -0.055064103044980134 0.36963332063662757 -0.29710126817840243
v -0.11949674949214424 0.1470807050571975 0.60266257265100709
v -0.53737958330770652 0.48664801431861721 0.55702908129386297
v 0.52878494823111277 0.32643955179357065 0.34150037353663037
v -0.33897013175591217 0.34979925577490617 -0.10152828352141378
v 0.34865779568074889 0.03809946708888709 0.31970829617911328
v -0.27840407660563848 0.90553185926406687 0.41560850407265354
v 0.13242434331131128 0.5473344900889362 -0.25652446259161499
v -0.38636635061743985 0.35457377672669677 -0.080480042613884403
v -0.2584656104911473 0.92029017222960474 0.40343765046928892
v 0.21324474838866547 0.67400996937937352 -0.17712058441664152
v -0.45662326828798649 1.1977873657476434 0.14055038812513795
v 0.15916918937501628 0.63696908185940704 0.64845665666023611
v -0.48572119957849319 1.1468061438246224 0.29681269475208255
v -0.34816317611715419 0.48320237954747525 -0.20062181540244717
v 0.12729067446476819 0.49952929860098183 -0.26810634313327703
v 0.060001275355029506 0.86463618237538931 -0.13492480498123707
v -0.2099313479544907 0.51399320092469536 0.65706860693990543
v -0.40436570386498827 0.30709810676840543 -0.039162961674983579
v -0.26129800244637175 0.15671953129803873 -0.21880445358373282
v -0.40739502387609694 0.78383980311033163 0.51890687291782278
v -0.31594784343794147 0.47394922670045808 -0.26998807547388259
v 0.68066830309640747 0.28326936376008743 0.3758130860950642
v -0.44379377041151546 0.86994107149839228 0.45689600932843982
v -0.30398408598287047 0.33066271091068589 -0.18690010077316271
v 0.20816792288001701 0.033853890685047322 0.12359528608240485
v 0.17771464538495388 0.024832525664054739 0.07522777321201958
v 0.10869669041539001 0.38806345958622701 -0.26013959424012162
v -0.74594413143169847 0.25585612570863153 0.24793529622080687
v 0.18211590970957253 0.037592850540860812 0.095945534166299085
v -0.24169799327319327 0.96220926043560684 0.019456780854646884
v 0.1559835985705437 0.68418860057220532 -0.18304126574676316
v 0.219400506623259 0.10623083784737224 -0.13000308936274479
v -0.23103577494380673 0.88160901146743798 0.43916660755147985
v 0.22848541685799142 0.037551813973862765 0.23850264823413536
v -0.40133833008935438 0.044772107197652941 -0.079282376713625577
v 0.18784943185093972 0.16485738128809657 -0.18260620243367373
v -0.046733284908915998 0.27429867804356967 -0.27856394949270846
v 0.20892758873617887 0.024290482454260385 0.41497168146716562
v -0.18618581722628288 1.0310741768976053 0.096800670746442982
v -0.046483072178770103 0.34958500334918086 0.68643784309687772
v 0.17015307607955593 0.30251557388752115 -0.23503429788869001
v -0.25003687253903345 0.99415072349232736 0.22702971844744729
v 0.022524829234716243 0.22845285962366055 0.64544197978263851
v 0.17121234482959283 0.021987737824723231 0.065326072128120555
v 0.40942242364829162 0.26150020793577172 -0.021181650334732256
v -0.86377440202074063 1.0292790021154101 0.64428895365356464
v -0.48109179781496331 0.48905676057816427 0.55159116643388784
v 0.032411023447494844 0.062976719917010246 0.3077697731535442
v 0.093104604292354731 0.94801213487748115 -0.06337002348720007
v 0.039371601153127371 0.89564297329284992 -0.11393289867574469
v 0.17031935844499821 0.33564109874251263 -0.24706005954387733
v 0.13549769297874889 0.93363743879353867 0.45181267438881689
v 0.15564021087570024 0.29855613967314631 0.60597134102807682
v 0.16248110100103269 0.25830175257640398 -0.24259673332465345
v -0.012390409496206074 0.49847741357248859 -0.30802133907040902
v 0.15646113144176677 0.73876967744785582 -0.16707712665431046
v 0.096387418910886119 0.54938925054954013 0.67137714382334934
v 0.49475441403360504 0.64883214142915491 0.042066447534039035
v -0.8204474099742064 0.78151236369872246 0.44975052406202126
v 0.32163817336859662 0.99671499871155256 0.25561087458870685
v -0.39530360726289049 0.91106955542440049 0.42402689984151831
v -0.357240737261386 0.99667566534995089 0.027224559845944102
v -0.29762444330609389 0.61460818836400455 -0.25183609467412871
v -0.33614295875109995 1.0098156558358922 0.26709290122706408
v -0.29003838484583705 0.92647880322899356 0.39295210556897703
v -0.42375627462617377 0.66112014451949064 -0.15374874208705905
v -0.42119386535231196 0.7322010413272666 0.53565532941166105
v -0.52818315577470432 0.20008725622602747 0.42997107314520105
v -0.26616630070761432 0.99379220497446519 0.20108109459031631
v 0.10620992548023991 0.78158733571169769 -0.14578129890846181
v -0.31179348999209289 0.95415807482792026 0.0047104807098233802
v 0.050451007973998929 0.91181076717890586 0.4826092882125404
v -0.42263511672604825 0.55228866303276636 -0.13206956918698126
v 0.013070965778657366 0.34682311075221844 -0.29395553095924393
v 0.15392231643135018 0.69502638346939438 -0.17717804631129636
v 0.10430794044108216 1.0032039972082496 0.013741038398291862
v 0.1440317680372605 0.63961203504400987 -0.23665951478474831
v 0.14786241487851629 0.35015863612976639 -0.25330197239047497
v -0.046439930254580049 0.60924399906831617 0.67496374070406784
v 0.1969275251959362 0.12599219663902234 -0.17873862835259147
v 0.10263679002465609 0.76161326970642529 0.51980474166922741
v -0.092115477269683013 0.34239149478098058 -0.30502430865688868
v 0.16935522778119122 0.68270319641322041 0.58058098105858691
v 0.12833330859222614 0.044303485731394331 -0.16712208240939064
v 0.15679069897810846 0.027338941751660937 -0.055911749444018548
v 0.45754347221343578 0.64950420110556317 0.41481926926748031
v -0.12498504736054289 0.15934601859623024 0.62473720807934363
v -0.058843246641585682 0.071443362866512802 0.45492649160236032
v -0.34572281852900455 0.072523062227735871 -0.18576337548991112
v -0.72297976889011262 1.2412068665326379 0.019231004075408373
v -0.22166575782044667 0.92179168624585994 0.41459757148909238
v 0.21502905510899525 0.050119788068416674 -0.0032255241702336588
v -0.37793429137928369 0.92326179401442654 -0.049944663048683946
v -0.38162839245514346 0.51558356967209151 -0.1235098022392543
v -0.04480148309299696 0.93469270341578747 -0.062406460393367225
v -0.43769923180592024 1.0501396147853577 0.3142141937392201
v -0.36255562456966101 0.048392465473844445 0.22879338666730301
v -0.048251818926606509 0.6858025305949772 0.62967541632675772
v 0.17367086360542056 0.72739093473410543 0.56889969892883796
v -0.4300150308826039 0.1528351729861796 -0.1557916873242042
v -0.3254513883819426 0.14207296419285603 0.55910674930620663
v -0.24525003444575688 0.077146853528400311 0.46156079538486167
v -0.45823088860319167 0.16872569936271156 -0.035288990854660592
v -0.38062963707253644 1.0194489157017521 0.076552065925280022
v 0.0021619790856929047 0.071764077417599229 -0.086331050462719341
v -0.36046571359248847 0.95705587541810766 0.38798056506662759
v -0.36039215604654767 0.5194212097895049 -0.14943190121805483
v -0.30740159930143662 0.29830727555581082 -0.15473572273592667
v -0.32332793026280077 0.032641765944105589 0.33644373233563185
v -0.4342659740897909 0.24364410497255401 -0.033878024134766635
v 0.017294181834045224 0.028560721235385892 0.23234149160204734
v 0.13410201237834871 0.67872129196898412 -0.20275219708481471
v 0.097877048528478908 0.96805697387565526 -0.031561529974301013
v 0.092269062013992584 0.039920623815989459 -0.077442170506977617
v 0.12659489368653432 0.031262453557241859 0.10258611247466763
v 0.039810876370827898 0.7365797576461045 0.53760111173470249
v 0.082499010365499753 0.89343747042994526 -0.11347141962741852
v 0.19361787219314136 0.61382041706634527 0.61851575613833842
v 0.21769649618401749 0.13102668179876367 -0.16278906584645378
v -0.66669266426753782 0.5493921225435735 -0.12702175853418329
v -0.24323195930208036 0.052396127928653717 -0.22753243325497749
v -0.0076326617768093579 1.0040613810908581 0.38822110810506477
v -0.17829776490333885 0.69722461225739962 0.54981475808572944
v -0.12070737791676858 0.16650245830384464 0.58463104320725545
v -0.46528921727333 1.2256603890842062 0.28020232299536646
v 0.22865709904950646 0.79662339909229096 -0.17903700474500284
v -0.49733653680933554 0.31618076024306591 -0.03958205138133062
v -0.025544550102627527 0.87926590281720318 -0.1042694341235357
v -0.33383819930174313 0.12453851542127616 -0.23925869444665845
v -0.32085527397233582 0.22009757244865963 -0.078305296527361734
v -0.42805998101886034 0.18953684639967666 -0.040956036640772776
v -0.47660698646562627 0.052137364482905423 -0.16244323649861295
v -0.34920957556862042 0.55546071701543576 -0.17526249740634864
v -0.46749766866383791 1.1983310203247506 0.17239492966241013
v -0.32236766332161981 0.049956983189800547 0.60092705713388084
v -0.29879301812365711 0.19538552181267352 -0.17744925115348589
v -0.42337388592361369 0.52584558937818449 0.52901869920788314
v -0.26958710866735791 0.59396467911192785 -0.30193469961319891
v 0.13693343777949107 0.034757032988381974 0.3677145275154392
v -0.47610469422560536 1.0662752453845936 0.098947744589318848
v -0.39076827713177981 0.034032269599440494 0.49748704908635638
v -0.2954930474062189 0.70522582032029391 0.55022244858885483
v -0.40598234908649372 0.062270957177122763 -0.23718861836478086
v -0.26238068155970018 0.067125057590358139 0.25183140624132844
v -0.24002465519136701 0.5886368646651301 0.60350752355872972
v -0.32722331045929265 0.4997333970955643 0.52378772130861395
v -0.33794185886253825 0.64591122435329085 0.55482773374056205
v 0.14940203301821078 0.50693498078737853 0.64041542783267646
v -0.31741982208879055 0.1182995385823518 0.60083193237042964
v -0.50795096297975506 1.1262208189688572 0.38718040327737624
v 0.11849607642318286 0.084097840976756544 -0.18171652350712286
v -0.42430940395826511 0.047106074573196807 0.006396232675955473
v 0.017639552453735965 0.17743847647147706 -0.25039517021739272
v 0.089083622536085177 0.51426152138088987 -0.2847564232430384
v -0.2705689353137723 0.1870960450287428 -0.20117120040955958
v -0.356628663123992 0.26682672059319207 -0.029067188591667504
v -0.47465186525229169 0.23360251480177666 0.47151045315074469
v -0.38795653780451167 0.74270884226060907 -0.13859447949605194
v -0.052891712753246889 0.65064242758974333 0.66193739529270912
v 0.10792147936699055 0.14226838873230793 0.5744489470230143
v 0.073620242332476188 0.31364865259721142 -0.25728932909268887
v 0.041822606862804083 0.026099036251661527 0.085486305348774771
v 0.149816907297843 0.17247966037828782 -0.20690928027580718
v 0.086088143132583408 0.29452620304854848 0.64764377553323638
v -0.67008659614901656 0.72912304258933924 0.54837610276174331
v -0.95860808500604922 0.92069021061038081 0.47883671254513133
v -0.67275311498590695 0.057965910099149622 0.56832524289990394
v -0.24301861441750464 0.52085810306149116 0.61093331136246098
v -0.41713555925762608 0.12207268119245605 0.52950154307090946
v -0.46591452185775994 0.57787124459731631 0.570248982088151
v -0.043931904445358036 0.95690204095032061 0.4469200072624081
v -0.01072794820472351 0.72856483058145449 -0.17170151339858342
v 0.14964518243846858 1.0420697733292239 0.21925524771486626
v -0.13925395517708813 0.33353043651369713 0.63683709728738258
v -0.501426423014946 0.19120512014067179 0.29277172828923109
v -0.24883701618114509 0.47520914875089498 -0.34721223480620628
v -0.40068679689323655 1.3758042602792833 0.10983983365318918
v 0.21704146394236587 0.37450641912757276 -0.23594579487191442
v -0.45311941449232224 0.29515201090850951 -0.042995422383170154
v -0.47868432920503995 1.1869470643116851 0.2049245125164055
v -0.36039328990079283 0.030589740589782668 0.15374725572863693
v 0.1700821048807773 0.7767906905643196 -0.13120600219077791
v -0.26357913142459422 0.95409870570791044 0.33448080288246501
v -0.34645902829500463 1.0221206015050059 0.17208837314894024
v -0.40367290431341468 0.036418175632369938 -0.11934573572802797
v -0.36314135315238516 0.55484632269497358 -0.15375084007686127
v 0.072947606115803254 0.35180566960991927 -0.27601953951865094
v -0.26642242257945165 0.36010970336962328 -0.26650200250180517
v 0.095729896356678196 0.072031742193127524 0.37041411533968427
v -0.51664090039594568 0.23732045748321953 0.41418318212908223
v -0.33939836321999606 0.71733192130050805 0.53250043326406227
v -0.33868898702908101 0.14999511473986485 0.54722515471551214
v -0.33878232601645475 0.93253730575349891 -0.028782327749970624
v -0.30681763493040387 0.030159143897737502 0.23901520653120084
v -0.42313903296802102 0.048286598737708741 0.17071622280826101
v -0.37385502839808454 0.21519035849685436 0.4903679856006295
v -0.30995940054569954 0.033852768917410118 -0.21736875629635047
v -0.42684631737389361 0.038904833937921178 -0.21348150938266636
v -0.27623982262898517 0.26798123161373538 0.46009658774808659
v -0.31864033899075589 0.67919438991130043 -0.16648373806828837
v -0.0082337521352417106 0.78146271611641327 0.54252742319857583
v -0.34864771717050408 0.21171217554302094 -0.035292689094304504
v -0.32810366159700222 0.2999904723727036 -0.085236062221737491
v -0.31468289088557816 0.086171753017315847 0.61158743734638543
v -0.21847825604410284 0.58738560851069777 0.63666446680744004
v -0.44077689528782088 1.0402212032131952 0.1270374076841761
v -0.02039360061988164 0.5496145617933953 0.67533374097770926
v -0.35098967670216857 0.55723451274349678 0.54954231122840347
v -0.48718412943109934 0.11556494194214897 -0.044522282134534158
v 0.18565308145350465 0.034653490174244538 -0.074860145485850613
v -0.31733559882441081 0.067703423664003809 -0.12132621442561307
v -0.062165379330248245 0.15167812891926286 0.56912622831572801
v 0.032674541201826501 0.18809338785459742 0.62038820736589018
v 0.022700079377515604 0.024578526903478171 0.13553086620264668
v -0.30595850164518723 0.068523404347282615 0.39346653496765949
v -0.47416463510617546 1.126535333883032 0.27885186623975078
v -0.48768611073097939 1.1847512835330318 0.11949536911370449
v 0.020800311671370697 0.2323312589413962 -0.25243667604334263
v -0.49819731008284751 0.33878062151542498 0.45010267625025263
v 0.079612750598890128 0.026160029062650223 -0.1054356899003373
v 0.054692916080069362 0.69377439165603216 0.61718528230649394
v 0.074563746436251951 1.0464019422702926 0.11569687307955322
v -0.44741055186331158 0.56304959866291837 0.5569024119644389
v 0.15075547490171551 0.34029424525917479 0.63509661854612898
v 0.087178343168282477 0.96566646470109863 0.43047834266735779
v 0.071982932404693792 0.71552911335716118 -0.1633425999059398
v -0.50302503036336543 0.040076491173846443 -0.067377112631682487
v 0.11967299574612347 0.11788648177004253 0.53748778871477065
v 0.12904698647657151 0.025573377137959596 0.43668774491898765
v 0.11998579719848637 0.19127604086706118 -0.23025247745124039
v 0.010146640642659254 0.95983835103193094 -0.034963744708316383
v -0.89762139835074217 0.58422100116952547 0.083870281625340243
v 0.60163252587909521 0.2709184139172503 -0.015102756171234223
v -0.76949680812137811 0.031980756641750832 0.25356359836815262
v -0.44615776362205489 0.17311006827439834 0.50374460896286888
v -0.38374020006917037 0.51377883653588252 0.5400645297350235
v -0.2314226796008774 0.21365016254869204 0.50905150187918191
v -0.24814408161019011 0.067509566773418114 0.2599540701223732
v 0.16751889280376017 0.95545424640786569 0.42714143603336951
v 0.0056696422012139326 1.0454231757145691 0.265915100127395
v 0.056834938114725911 0.082007486303529428 -0.056284776573493338
v 0.1904059089258795 0.21543625330352259 0.56947509016741882
v -0.051113727542196064 0.73164792838942971 0.54023422246887698
v -0.034016523300005687 0.55857502098365686 -0.32430783891270082
v 0.069242373232662774 0.048012317222335836 0.54636193276771894
v -0.54578624243123941 0.33352188286852624 0.44867267710147085
v 0.29693141158430969 1.1881719576025671 0.2781100181156822
v -0.66847202226203573 1.1996533247885137 0.49347689547890095
v 0.2075701444224064 0.23188103515863387 -0.22875883984756021
v -0.36411440246285437 0.48904118122685386 -0.12890870839146601
v 0.14220552660163127 0.91670592593512956 -0.085192827018873818
v -0.27350833343928482 0.25875154043579845 -0.21717992388713314
v -0.25544030682866398 0.98098135832890454 0.28172092233491552
v 0.03875602368762536 0.074185238391663452 0.41907313713339339
v -0.47155457897148523 1.0413987334808226 0.41450628967745268
v -0.48691140650524306 1.1416654133673234 0.13787139709566973
v -0.43198190498175931 0.17161422296520973 -0.095883957284232574
v -0.45372427176472085 0.035840534543719431 -0.18342001453861148
v -0.2654004067698057 0.67436402982463095 0.55837238653139232
v -0.38610661765711607 0.17034170453346054 -0.17488309345506156
v -0.26472471534324993 0.91087345907774597 -0.058236890294920192
v -0.28453983430601021 0.074766688973983461 0.13014190276808421
v -0.52950658396064032 0.22140671355806368 0.34377201438401123
v -0.32255300955590827 0.61020258512076897 -0.18073987283227613
v 0.15451184665983081 0.033145499081344863 -0.1379416298165847
v -0.35216774716490346 0.029039819135728999 0.20239659502657822
v -0.35461952173593764 0.073985175550359703 0.56686133268545802
v -0.41804247202009931 1.0367358425734383 0.20865890498204603
v -0.26422221212831115 0.26437337574774583 0.4622977870912125
v -0.36054340508972854 0.084626445160769323 -0.072944471902263178
v -0.062756661355161336 0.56014857301537624 0.67825081292272638
v -0.35142010684220654 0.033776019331037445 0.43035586828529915
v -0.41564590855962913 0.60377020830969386 -0.14051518271777422
v -0.27902585991521056 0.99175799768599837 0.12561906646082238
v -0.37832304760431767 0.13109133000890497 0.51280484253851044
v -0.29145492974270315 0.55291264005902097 -0.3011587992930857
v -0.40262276090118815 0.58459783066987092 0.53469614740818927
v 0.17173063709332073 0.024427851023952465 0.3806088560301023
v -0.22077772066862711 0.32420226207050684 -0.2894516670329379
v -0.33978825314689703 0.25366731674307924 -0.027857150263269809
v -0.28297105382750698 0.55905153758213921 0.53631783003499323
v -0.35656410660005272 0.97073269222951564 0.3721594677463812
v -0.0025373334478352026 0.06836445380299512 0.27824490485252557
v -0.38218136532681379 0.72438923180068837 0.52422776744508359
v -0.42979568366421561 0.23238817615873478 0.49381441493654343
v -0.24798554336645853 0.18329004637781365 0.58365115339042462
v -0.38058689070216012 0.042166452461963932 0.33444811888579962
v -0.35289909666890423 0.049449624952424907 -0.24870375866716163
v -0.50519129131717921 0.071581701602385292 -0.0532840090969924
v -0.25945512853103464 0.70747057650922429 0.54236288716294812
v -0.062469477758096699 0.18574651308075293 0.60539914327453248
v -0.026949037132078548 0.072183290611865278 0.13587716709410047
v -0.25783466358183965 0.037219733990628251 0.63844305870818197
v 0.076873798149864364 0.071356698824976819 -0.025524803458596246
v 0.091132506038573619 0.60624542254099467 0.65587295245371446
v -0.45762585792790533 0.081664552037899324 -0.19383080477057599
v -0.39913772519398416 0.027042116995215554 0.13997185386916747
v 0.0008578447210800188 0.12445511871348562 -0.19638401201151365
v 0.13110581516846473 0.21351506696801711 0.61577000713397223
v -0.43752432187015095 0.96054029366068383 0.36828800492873992
v 0.05513417253033643 0.020442216461791882 0.27579275317788576
v -0.41210010433554783 0.94960792892921742 -0.050765578940638344
v 0.0021843237648007082 0.26635890414398389 0.63964539183437208
v -0.26408586921667304 0.031420368695456849 0.549590178203748
v 0.14733665896925041 1.0268298600511434 0.33568014996078049
v 0.066781562452302268 0.59032309436643582 -0.28125341881493582
v 0.048960977262902917 0.27911178237249934 -0.27076811778467663
v 0.13499181828500173 0.68577563798011631 0.59495468655277794
v -0.24295905294906336 0.67709562620370811 -0.23814188236360759
v -0.11112495058290132 0.04930148931495721 -0.20275497839209827
v -0.91557168407828948 0.62393953677395841 0.38424006249601855
v 0.49911751357504741 0.2761235493483038 0.39923309027235065
v -0.91043761747118945 0.92128445297120454 0.11930176117758465
v -0.26773509931391559 0.73781598516417701 0.5338587504868284
v -0.014568889776883618 0.90686327008448242 0.48529043609087075
v -0.36100927197373023 0.31002333934328807 0.51150323506023554
v -0.39010329021107176 0.050734728554895532 0.52875929623527007
v 0.057967792755547698 0.045084953440202892 -0.18974227706390448
v -0.45278526543061609 0.66793449357483869 0.55104384485861602
v -0.25432492390934514 0.08325420344780618 -0.11079630125625324
v -0.27440224172284633 0.095677311956405761 0.63416278284994088
v -0.042625992197282463 0.99696983979583031 -0.0049807379511235643
v 0.16680970771048956 0.025367883378839745 0.51749105956626917
v -0.0059140282899425604 0.34034726406877341 0.66597276661033622
v -0.44696348473124686 0.042406768361416103 0.14528111669528576
v -0.049219777583452674 0.67803798015107575 -0.28622514998124793
v -0.28196492237695692 0.69103248197823419 -0.17414376227995262
v -0.06026060559589589 0.026778400500265202 0.56342615918627448
v -0.60595398845558635 0.23983539467188228 0.15587057189238443
v 0.13581921080720946 0.10721130528300002 -0.23418597337274963
v 0.20883745060695932 0.029078655953415938 0.26709811814190232
v -0.46174754307097865 0.22183032350451534 -0.027030082026040497
v 0.17703773058851685 0.86023515574206266 -0.10166157061615966
v -0.46191450818264695 1.1033814453805217 0.21850327734507405
v -0.28187488114155956 0.29685102675517372 -0.2311885207745186
v -0.29417112389077482 0.97394118306862698 0.049944977671962799
v -0.46356352217610147 0.91622968931030535 0.41456984806075475
v -0.38727774829204464 0.082614946058221408 -0.013645477165721905
v -0.47713369306289705 0.088696363166569814 -0.15147960248853301
v -0.4148847574322504 1.0140977285732793 0.27731432087934754
v -0.31738321754027571 0.20923305375815968 0.47204833180399208
v -0.3545932970953542 0.0310436110663956 0.33438344677307164
v -0.3376811548284559 0.53336504693538567 -0.23191860000047085
v -0.37556157316989952 0.14489360720416225 -0.22105374245014378
v -0.33355603036206477 0.034785044915185255 -0.1521568390365734
v -0.25501736774302652 0.63752509761642517 0.54947682565296729
v -0.30631808407233879 0.55442683379800661 0.52274974608967628
v -0.31116113773839549 0.20339467542051848 -0.14141623010426169
f 1 16 53
f 1 53 187
f 1 187 337
f 1 237 16
f 1 337 237
f 4 53 136
f 4 136 218
f 4 218 53
f 5 139 244
f 5 141 139
f 5 244 141
f 6 8 224
f 6 134 323
f 6 210 134
f 6 224 358
f 6 323 8
f 6 358 210
f 7 138 261
f 7 261 350
f 7 350 138
f 8 101 341
f 8 102 101
f 8 251 333
f 8 323 102
f 8 333 224
f 8 341 251
f 9 155 261
f 9 204 155
f 9 261 204
f 10 94 321
f 10 260 94
f 10 321 260
f 11 40 343
f 11 91 40
f 11 343 91
f 12 16 58
f 12 18 343
f 12 58 246
f 12 139 16
f 12 246 18
f 12 343 139
f 13 95 343
f 13 320 95
f 13 343 320
f 14 100 341
f 14 137 187
f 14 187 100
f 14 341 137
f 15 41 259
f 15 53 150
f 15 60 236
f 15 150 60
f 15 178 41
f 15 183 178
f 15 236 183
f 15 259 53
f 16 18 325
f 16 25 53
f 16 35 246
f 16 66 255
f 16 71 99
f 16 99 25
f 16 139 260
f 16 237 66
f 16 241 258
f 16 246 58
f 16 255 241
f 16 258 336
f 16 260 71
f 16 325 35
f 16 336 343
f 16 343 18
f 17 21 121
f 17 121 216
f 17 216 21
f 18 35 325
f 18 246 35
f 19 22 78
f 19 46 22
f 19 78 295
f 19 261 46
f 19 295 261
f 20 139 167
f 20 167 319
f 20 319 139
f 21 27 146
f 21 31 192
f 21 34 189
f 21 37 121
f 21 41 133
f 21 86 107
f 21 107 263
f 21 116 222
f 21 120 27
f 21 123 345
f 21 133 340
f 21 140 123
f 21 146 356
f 21 169 31
f 21 189 348
f 21 192 140
f 21 216 293
f 21 222 302
f 21 240 247
f 21 247 41
f 21 263 120
f 21 293 169
f 21 302 240
f 21 340 86
f 21 345 116
f 21 348 37
f 21 356 34
f 22 46 104
f 22 104 261
f 22 261 78
f 23 69 139
f 23 88 69
f 23 139 88
f 24 138 147
f 24 147 230
f 24 190 138
f 24 230 190
f 25 70 220
f 25 92 172
f 25 96 321
f 25 99 260
f 25 111 256
f 25 131 161
f 25 136 53
f 25 161 70
f 25 172 111
f 25 220 284
f 25 256 136
f 25 260 96
f 25 284 92
f 25 321 131
f 26 138 229
f 26 193 138
f 26 229 347
f 26 347 193
f 27 120 146
f 28 139 343
f 28 167 139
f 28 343 167
f 29 63 130
f 29 130 139
f 29 139 63
f 30 53 218
f 30 181 53
f 30 218 181
f 31 169 192
f 32 142 357
f 32 149 168
f 32 168 323
f 32 323 142
f 32 357 149
f 33 80 297
f 33 261 80
f 33 297 261
f 34 289 189
f 34 356 289
f 36 74 350
f 36 261 74
f 36 350 261
f 37 348 121
f 38 42 343
f 38 128 42
f 38 343 128
f 39 42 128
f 39 57 343
f 39 128 57
f 39 343 42
f 40 91 200
f 40 200 343
f 41 178 324
f 41 245 133
f 41 247 342
f 41 324 245
f 41 342 259
f 43 52 84
f 43 84 349
f 43 349 52
f 44 88 139
f 44 125 239
f 44 139 125
f 44 239 88
f 45 132 343
f 45 223 278
f 45 278 132
f 45 343 223
f 46 261 104
f 47 128 343
f 47 314 128
f 47 343 344
f 47 344 314
f 48 165 198
f 48 198 358
f 48 283 165
f 48 358 283
f 49 93 176
f 49 176 343
f 49 343 93
f 50 95 320
f 50 231 343
f 50 320 231
f 50 343 95
f 51 291 343
f 51 336 291
f 51 343 336
f 52 103 190
f 52 106 206
f 52 135 253
f 52 139 103
f 52 184 135
f 52 190 315
f 52 206 274
f 52 235 335
f 52 253 235
f 52 260 184
f 52 261 260
f 52 274 84
f 52 315 106
f 52 335 139
f 52 349 261
f 53 159 249
f 53 181 294
f 53 212 282
f 53 249 150
f 53 259 329
f 53 282 187
f 53 294 360
f 53 329 212
f 53 360 159
f 54 64 343
f 54 174 64
f 54 343 174
f 55 82 266
f 55 261 82
f 55 266 261
f 56 226 316
f 56 304 226
f 56 316 304
f 57 98 343
f 57 128 175
f 57 175 98
f 59 72 261
f 59 103 179
f 59 179 72
f 59 261 103
f 60 150 236
f 61 202 296
f 61 296 314
f 61 314 202
f 62 126 139
f 62 130 244
f 62 139 264
f 62 244 126
f 62 264 130
f 63 139 141
f 63 141 244
f 63 244 130
f 64 91 191
f 64 174 91
f 64 191 343
f 65 238 260
f 65 252 238
f 65 260 252
f 66 177 312
f 66 237 177
f 66 312 255
f 67 174 343
f 67 243 320
f 67 262 243
f 67 320 174
f 67 343 262
f 68 257 319
f 68 319 343
f 68 343 257
f 69 88 239
f 69 195 139
f 69 239 195
f 70 131 308
f 70 161 131
f 70 308 220
f 71 260 99
f 72 103 245
f 72 178 261
f 72 179 326
f 72 245 324
f 72 324 178
f 72 326 103
f 73 139 186
f 73 186 318
f 73 252 260
f 73 260 139
f 73 318 252
f 74 261 313
f 74 313 350
f 75 84 206
f 75 117 287
f 75 190 117
f 75 206 315
f 75 287 349
f 75 315 190
f 75 349 84
f 76 151 289
f 76 277 322
f 76 289 356
f 76 322 151
f 76 356 277
f 77 197 281
f 77 266 197
f 77 281 353
f 77 295 266
f 77 353 295
f 78 196 295
f 78 261 196
f 79 171 213
f 79 213 277
f 79 277 340
f 79 340 171
f 80 261 332
f 80 332 297
f 81 170 203
f 81 180 170
f 81 188 180
f 81 203 188
f 82 197 266
f 82 261 287
f 82 287 197
f 83 139 195
f 83 195 239
f 83 239 139
f 84 274 206
f 85 184 328
f 85 238 184
f 85 260 238
f 85 328 260
f 86 199 107
f 86 286 199
f 86 340 286
f 87 174 320
f 87 200 174
f 87 320 343
f 87 343 200
f 89 126 244
f 89 139 126
f 89 235 139
f 89 244 335
f 89 335 235
f 90 125 139
f 90 139 319
f 90 319 339
f 90 339 125
f 91 174 200
f 91 343 191
f 92 220 308
f 92 284 220
f 92 308 172
f 93 97 164
f 93 132 97
f 93 164 176
f 93 343 132
f 94 129 256
f 94 256 321
f 94 260 129
f 96 112 321
f 96 260 112
f 97 132 278
f 97 278 331
f 97 331 164
f 98 105 343
f 98 127 233
f 98 175 307
f 98 223 105
f 98 233 223
f 98 307 127
f 100 187 250
f 100 250 299
f 100 299 334
f 100 306 341
f 100 334 306
f 101 102 296
f 101 242 336
f 101 267 242
f 101 296 267
f 101 336 341
f 102 118 254
f 102 233 118
f 102 254 305
f 102 305 296
f 102 311 331
f 102 323 311
f 102 331 233
f 103 133 245
f 103 139 340
f 103 261 190
f 103 326 179
f 103 340 133
f 105 223 343
f 106 315 206
f 107 120 263
f 107 199 120
f 108 139 335
f 108 244 139
f 108 335 244
f 109 163 268
f 109 229 163
f 109 268 313
f 109 281 229
f 109 313 353
f 109 353 281
f 110 208 279
f 110 279 300
f 110 300 338
f 110 338 208
f 111 172 234
f 111 234 256
f 112 260 321
f 113 270 273
f 113 273 309
f 113 309 352
f 113 352 270
f 114 162 299
f 114 205 280
f 114 280 162
f 114 299 205
f 115 228 251
f 115 251 341
f 115 285 228
f 115 317 285
f 115 341 317
f 116 123 144
f 116 144 270
f 116 270 222
f 116 345 123
f 117 190 219
f 117 197 287
f 117 219 197
f 118 233 254
f 119 261 295
f 119 295 353
f 119 313 261
f 119 353 313
f 120 199 146
f 121 265 361
f 121 348 265
f 121 361 216
f 122 207 228
f 122 228 285
f 122 285 355
f 122 355 207
f 123 140 192
f 123 169 144
f 123 192 169
f 124 227 314
f 124 296 305
f 124 305 227
f 124 314 296
f 125 185 239
f 125 339 185
f 127 254 233
f 127 307 254
f 128 227 175
f 128 314 227
f 129 214 256
f 129 260 214
f 130 264 346
f 130 346 139
f 131 321 308
f 134 142 323
f 134 210 301
f 134 301 142
f 135 184 238
f 135 238 318
f 135 318 253
f 136 158 218
f 136 256 260
f 136 260 261
f 136 261 303
f 136 272 359
f 136 303 272
f 136 359 158
f 137 225 304
f 137 258 225
f 137 304 187
f 137 341 258
f 138 163 229
f 138 190 261
f 138 193 147
f 138 268 163
f 138 313 268
f 138 350 313
f 139 185 340
f 139 235 186
f 139 239 185
f 139 346 264
f 142 301 357
f 143 215 293
f 143 216 361
f 143 293 216
f 143 361 215
f 144 169 215
f 144 215 270
f 145 211 271
f 145 240 302
f 145 271 240
f 145 302 352
f 145 309 211
f 145 352 309
f 146 199 286
f 146 277 356
f 146 286 277
f 147 193 230
f 148 217 280
f 148 280 330
f 148 306 334
f 148 330 306
f 148 334 217
f 149 273 361
f 149 357 273
f 149 361 168
f 150 249 290
f 150 290 236
f 151 189 289
f 151 322 189
f 152 202 314
f 152 242 202
f 152 291 242
f 152 314 291
f 153 190 269
f 153 219 190
f 153 269 347
f 153 347 219
f 154 180 285
f 154 285 317
f 154 306 330
f 154 317 306
f 154 330 180
f 155 160 272
f 155 204 160
f 155 272 327
f 155 327 261
f 156 211 309
f 156 301 211
f 156 309 357
f 156 357 301
f 157 207 251
f 157 228 207
f 157 251 228
f 158 181 218
f 158 294 181
f 158 359 294
f 159 221 249
f 159 360 221
f 160 204 297
f 160 221 360
f 160 290 221
f 160 294 359
f 160 297 290
f 160 359 272
f 160 360 294
f 162 217 334
f 162 280 217
f 162 334 299
f 164 311 176
f 164 331 311
f 165 283 351
f 165 310 338
f 165 338 198
f 165 351 310
f 166 231 243
f 166 243 311
f 166 311 343
f 166 343 231
f 167 343 319
f 168 189 323
f 168 265 189
f 168 361 265
f 169 293 215
f 170 180 248
f 170 232 203
f 170 248 298
f 170 298 232
f 171 340 213
f 172 308 234
f 173 226 304
f 173 241 255
f 173 255 312
f 173 304 241
f 173 312 226
f 175 227 305
f 175 305 307
f 176 243 343
f 176 311 243
f 177 237 337
f 177 316 312
f 177 337 316
f 178 183 332
f 178 332 261
f 180 182 248
f 180 188 247
f 180 247 300
f 180 300 355
f 180 330 182
f 180 355 285
f 182 288 248
f 182 330 288
f 183 236 290
f 183 290 332
f 184 260 328
f 185 339 340
f 186 235 318
f 187 282 250
f 187 304 316
f 187 316 337
f 188 203 276
f 188 259 342
f 188 276 259
f 188 342 247
f 189 201 348
f 189 257 343
f 189 265 292
f 189 292 201
f 189 322 340
f 189 339 257
f 189 340 339
f 189 343 323
f 190 230 269
f 193 269 230
f 193 347 269
f 194 207 279
f 194 275 207
f 194 279 310
f 194 310 351
f 194 351 275
f 196 261 266
f 196 266 295
f 197 219 281
f 198 240 271
f 198 271 358
f 198 338 240
f 201 292 348
f 202 242 267
f 202 267 296
f 203 232 259
f 203 259 276
f 204 261 297
f 205 288 280
f 205 299 354
f 205 354 288
f 207 275 251
f 207 355 279
f 208 310 279
f 208 338 310
f 209 212 329
f 209 248 288
f 209 288 354
f 209 298 248
f 209 329 298
f 209 354 212
f 210 211 301
f 210 271 211
f 210 358 271
f 212 354 282
f 213 322 277
f 213 340 322
f 214 260 256
f 215 361 270
f 219 347 281
f 221 290 249
f 222 270 352
f 222 352 302
f 223 233 278
f 224 283 358
f 224 333 283
f 225 241 304
f 225 258 241
f 226 312 316
f 229 281 347
f 231 320 243
f 232 298 259
f 233 331 278
f 234 308 321
f 234 321 256
f 235 253 318
f 238 252 318
f 240 338 247
f 242 291 336
f 243 262 343
f 247 338 300
f 250 282 354
f 250 354 299
f 251 275 333
f 254 307 305
f 257 339 319
f 258 341 336
f 259 298 329
f 261 327 303
f 261 349 287
f 265 348 292
f 270 361 273
f 272 303 327
f 273 357 309
f 275 351 333
f 277 286 340
f 279 355 300
f 280 288 330
f 283 333 351
f 290 297 332
f 291 314 343
f 306 317 341
f 311 323 343
f 314 344 343
